%
M48
M72
T01C0.0118
T02C0.0236
T03C0.0280
T04C0.0315
T05C0.0320
T06C0.0354
T07C0.0390
T08C0.0400
%
T01
X2680Y1430
X3680Y1430
X4680Y1430
X5680Y1430
X5680Y2430
X6680Y1430
X7680Y1430
X8680Y1430
X9680Y1430
X10680Y1430
X11680Y1430
X12680Y1430
X13680Y1430
X14680Y1430
X14680Y2430
X15680Y2430
X15680Y1430
X16680Y1430
X17680Y1430
X17430Y3180
X17430Y4180
X17430Y5180
X17430Y6180
X16180Y6180
X16180Y5180
X15180Y5180
X15180Y6180
X15430Y7430
X14930Y8180
X14430Y7430
X13930Y8180
X13430Y7430
X12680Y8180
X13430Y8930
X14430Y8930
X15430Y8930
X14680Y10180
X15430Y10930
X15930Y11430
X16680Y10680
X16180Y10180
X17180Y9180
X16680Y8430
X17180Y7680
X18180Y9680
X18930Y9930
X18180Y10680
X17430Y11430
X16680Y12180
X17180Y12930
X17930Y13680
X18680Y12930
X18680Y14430
X17680Y15430
X16930Y16180
X17680Y16930
X16930Y17680
X16930Y18680
X16180Y19430
X16180Y20180
X15430Y20180
X14680Y20180
X14680Y19430
X13930Y20180
X13180Y20180
X13180Y19430
X13180Y18680
X13930Y18680
X13930Y17680
X14680Y16930
X13930Y16180
X14680Y15430
X15430Y16180
X16180Y15430
X15430Y14430
X14930Y13680
X14430Y12930
X13680Y12680
X13180Y12180
X12430Y11430
X13430Y10680
X13930Y11430
X14430Y11930
X15680Y12930
X16930Y14430
X16180Y16930
X15430Y17680
X15430Y18680
X16930Y20180
X17680Y20180
X17680Y19430
X18430Y20180
X18430Y17680
X14180Y14430
X13680Y13680
X12930Y13430
X12430Y12930
X12430Y14430
X12430Y15180
X12430Y16180
X12430Y16930
X13180Y16930
X12180Y17930
X11180Y18680
X10930Y17930
X10930Y17430
X10180Y16680
X10430Y16430
X10930Y16180
X10930Y15180
X10930Y14430
X10680Y13680
X10680Y12930
X10930Y11430
X11930Y10180
X11680Y8930
X11180Y8430
X10680Y7930
X10180Y7430
X9680Y6930
X9180Y7430
X9680Y7930
X10180Y8430
X10680Y8930
X9930Y9430
X9430Y9930
X8930Y10430
X8680Y9180
X9180Y8680
X8430Y7930
X7930Y8430
X7430Y8930
X6930Y7430
X7430Y6930
X8180Y6680
X8930Y5930
X8180Y5180
X8930Y4430
X8180Y3680
X7430Y4430
X7430Y5930
X5430Y5430
X5430Y4430
X3930Y4430
X3930Y5430
X3930Y6430
X3930Y7430
X3930Y8430
X3930Y9430
X5430Y8430
X5430Y7430
X5430Y6430
X2430Y6180
X2430Y5180
X2430Y4180
X930Y4180
X930Y3180
X930Y5180
X930Y6180
X930Y9180
X3930Y11430
X3930Y12430
X5430Y12430
X5430Y11430
X5430Y10430
X6930Y12430
X6930Y13430
X6930Y14430
X6930Y15430
X6930Y16430
X6930Y17180
X6930Y17930
X7680Y18680
X6930Y19180
X7680Y19430
X7680Y20180
X6930Y20180
X6180Y20180
X5430Y20180
X4680Y20180
X3930Y20180
X3180Y20180
X2430Y20180
X2430Y18930
X1930Y18180
X2430Y17430
X3180Y18430
X3930Y19180
X4680Y18430
X5430Y19180
X6180Y18430
X5430Y16430
X5430Y15430
X5430Y14430
X5430Y13430
X3930Y14430
X3930Y15430
X3930Y16430
X930Y17430
X930Y18180
X930Y18930
X8180Y17180
X8680Y17930
X9180Y17430
X9930Y17180
X9930Y17930
X9680Y18680
X9680Y19430
X9680Y20180
X11180Y20180
X11180Y19430
X9180Y16180
X8180Y16180
X8180Y15180
X8930Y14430
X8930Y13680
X8930Y12930
X8930Y12180
X9930Y14430
X10180Y15180
X9430Y15180
X13430Y15180
X19680Y10930
X19680Y10180
X19930Y5180
X19930Y4180
X19930Y3180
X18680Y3180
X18680Y4180
X18680Y5180
X15430Y3930
X13180Y4180
X13180Y3180
X13180Y5680
X11680Y5680
X10680Y4680
X9930Y3930
X10680Y3180
X9930Y5430
X11930Y7430
X3680Y2430
T02
X10680Y9680
X14180Y9680
X16180Y7180
X17180Y9680
X17680Y12430
X15930Y12430
X15680Y13680
X18430Y17180
T03
X11680Y3680
X11680Y3090
T04
X8930Y1930
X8180Y1930
X7430Y1930
X1680Y6680
X1680Y7680
X1680Y8680
T05
X7680Y10430
X7680Y11430
X7680Y12430
X7680Y13430
X12680Y5180
X13680Y5180
X16180Y4180
X16180Y3180
X18430Y18680
X19430Y18680
T06
X12680Y10680
X11180Y10680
X11180Y6680
X11180Y5180
X12680Y6680
X7180Y5180
X6680Y3180
X2680Y3180
T07
X3180Y4180
X3180Y5180
X3180Y6180
X3180Y7180
X3180Y8180
X3180Y9180
X3180Y10180
X3180Y11180
X3180Y12180
X3180Y13180
X3180Y14180
X3180Y15180
X3180Y16180
X3180Y17180
X6180Y17180
X6180Y16180
X6180Y15180
X6180Y14180
X6180Y13180
X6180Y12180
X6180Y11180
X6180Y10180
X6180Y9180
X6180Y8180
X6180Y7180
X6180Y6180
X6180Y5180
X6180Y4180
X13680Y3680
X13680Y2680
X14680Y3180
T08
X1430Y1930
X1430Y10430
X1430Y11680
X1430Y12680
X1430Y14430
X1430Y15680
X1430Y16680
X1430Y19930
X7680Y16680
X7680Y15680
X7680Y14680
X10430Y19430
X19430Y19930
X19180Y8680
X18180Y8680
X18080Y7680
X18180Y6680
X19180Y6680
X19080Y7680
X19430Y1930
X18430Y1930
M30
