G75*
G70*
%OFA0B0*%
%FSLAX24Y24*%
%IPPOS*%
%LPD*%
%AMOC8*
5,1,8,0,0,1.08239X$1,22.5*
%
%ADD10C,0.0555*%
%ADD11OC8,0.0780*%
%ADD12R,0.0640X0.1640*%
%ADD13C,0.0780*%
%ADD14R,0.0630X0.0630*%
%ADD15C,0.0630*%
%ADD16R,0.0520X0.0520*%
%ADD17C,0.0520*%
D10*
X007430Y002180D03*
X008180Y002180D03*
X008930Y002180D03*
D11*
X017080Y007680D03*
X017180Y006680D03*
X018080Y007680D03*
X018180Y006680D03*
X018180Y008680D03*
X017180Y008680D03*
D12*
X015180Y019680D03*
X013180Y019680D03*
D13*
X001680Y002180D03*
X002680Y003180D03*
X006680Y003180D03*
X007180Y005180D03*
X011180Y005180D03*
X011180Y006680D03*
X012680Y005180D03*
X013680Y005180D03*
X013180Y006680D03*
X016680Y004180D03*
X016680Y003180D03*
X018180Y002180D03*
X019180Y002180D03*
X013180Y010680D03*
X011180Y010680D03*
X007680Y011180D03*
X007680Y012180D03*
X007680Y013680D03*
X007680Y014680D03*
X001680Y012180D03*
X001680Y011180D03*
X001680Y009680D03*
X001680Y008680D03*
X001680Y007680D03*
X001680Y019680D03*
X014180Y019180D03*
X018180Y018680D03*
X019180Y018680D03*
X019180Y019680D03*
D14*
X003180Y017180D03*
X014680Y003180D03*
X013680Y002680D03*
D15*
X013680Y003680D03*
X006180Y004180D03*
X006180Y005180D03*
X006180Y006180D03*
X006180Y007180D03*
X006180Y008180D03*
X006180Y009180D03*
X006180Y010180D03*
X006180Y011180D03*
X006180Y012180D03*
X006180Y013180D03*
X006180Y014180D03*
X006180Y015180D03*
X006180Y016180D03*
X006180Y017180D03*
X003180Y016180D03*
X003180Y015180D03*
X003180Y014180D03*
X003180Y013180D03*
X003180Y012180D03*
X003180Y011180D03*
X003180Y010180D03*
X003180Y009180D03*
X003180Y008180D03*
X003180Y007180D03*
X003180Y006180D03*
X003180Y005180D03*
X003180Y004180D03*
D16*
X011680Y003090D03*
D17*
X011680Y003680D03*
M02*
