G75*
G70*
%OFA0B0*%
%FSLAX24Y24*%
%IPPOS*%
%LPD*%
%AMOC8*
5,1,8,0,0,1.08239X$1,22.5*
%
%ADD10C,0.0060*%
%ADD11C,0.0050*%
%ADD12C,0.0040*%
%ADD13C,0.0080*%
%ADD14R,0.0200X0.0200*%
%ADD15C,0.0030*%
%ADD16C,0.0000*%
D10*
X003420Y003830D02*
X005940Y003830D01*
X006160Y004610D02*
X006160Y004750D01*
X006160Y005610D02*
X006160Y005750D01*
X006160Y006610D02*
X006160Y006750D01*
X006160Y007610D02*
X006160Y007750D01*
X006160Y008610D02*
X006160Y008750D01*
X006160Y009610D02*
X006160Y009750D01*
X006160Y010610D02*
X006160Y010750D01*
X006160Y011610D02*
X006160Y011750D01*
X006160Y012610D02*
X006160Y012750D01*
X006160Y013610D02*
X006160Y013750D01*
X006160Y014610D02*
X006160Y014750D01*
X006160Y015610D02*
X006160Y015750D01*
X006160Y016610D02*
X006160Y016750D01*
X005940Y017530D02*
X004800Y017530D01*
X004560Y017530D01*
X003590Y017530D01*
X003200Y016750D02*
X003200Y016610D01*
X003200Y015750D02*
X003200Y015610D01*
X003200Y014750D02*
X003200Y014610D01*
X003200Y013750D02*
X003200Y013610D01*
X003200Y012750D02*
X003200Y012610D01*
X003200Y011750D02*
X003200Y011610D01*
X003200Y010750D02*
X003200Y010610D01*
X003200Y009750D02*
X003200Y009610D01*
X003200Y008750D02*
X003200Y008610D01*
X003200Y007750D02*
X003200Y007610D01*
X003200Y006750D02*
X003200Y006610D01*
X003200Y005750D02*
X003200Y005610D01*
X003200Y004750D02*
X003200Y004610D01*
X008709Y006430D02*
X009243Y006430D01*
X009350Y006537D01*
X009350Y006751D01*
X009243Y006857D01*
X008709Y006857D01*
X008709Y007075D02*
X009350Y007075D01*
X009136Y007075D02*
X008709Y007502D01*
X008709Y007719D02*
X009350Y007719D01*
X009350Y007502D02*
X009030Y007182D01*
X009030Y007719D02*
X009030Y008146D01*
X009030Y008364D02*
X009030Y008791D01*
X008923Y008791D02*
X009350Y008791D01*
X009243Y009009D02*
X009350Y009115D01*
X009350Y009329D01*
X009243Y009436D01*
X009136Y009436D01*
X009030Y009329D01*
X009030Y009115D01*
X008923Y009009D01*
X008816Y009009D01*
X008709Y009115D01*
X008709Y009329D01*
X008816Y009436D01*
X008923Y009653D02*
X008923Y009973D01*
X009030Y010080D01*
X009350Y010080D01*
X009243Y010298D02*
X009030Y010298D01*
X008923Y010404D01*
X008923Y010618D01*
X009030Y010725D01*
X009136Y010725D01*
X009136Y010298D01*
X009243Y010298D02*
X009350Y010404D01*
X009350Y010618D01*
X009243Y011049D02*
X008816Y011049D01*
X008923Y010942D02*
X008923Y011156D01*
X009243Y011049D02*
X009350Y011156D01*
X009243Y012016D02*
X009350Y012123D01*
X009350Y012337D01*
X009243Y012443D01*
X009136Y012443D01*
X009030Y012337D01*
X009030Y012123D01*
X008923Y012016D01*
X008816Y012016D01*
X008709Y012123D01*
X008709Y012337D01*
X008816Y012443D01*
X009030Y012661D02*
X008923Y012768D01*
X008923Y012981D01*
X009030Y013088D01*
X009136Y013088D01*
X009136Y012661D01*
X009030Y012661D02*
X009243Y012661D01*
X009350Y012768D01*
X009350Y012981D01*
X009350Y013306D02*
X008923Y013306D01*
X008923Y013626D01*
X009030Y013733D01*
X009350Y013733D01*
X009350Y013950D02*
X009350Y014270D01*
X009243Y014377D01*
X009136Y014270D01*
X009136Y014057D01*
X009030Y013950D01*
X008923Y014057D01*
X008923Y014377D01*
X009030Y014595D02*
X008923Y014701D01*
X008923Y014915D01*
X009030Y015022D01*
X009243Y015022D01*
X009350Y014915D01*
X009350Y014701D01*
X009243Y014595D01*
X009030Y014595D01*
X009136Y015239D02*
X008923Y015453D01*
X008923Y015559D01*
X008923Y015239D02*
X009350Y015239D01*
X009136Y016421D02*
X008709Y016421D01*
X008709Y016848D02*
X009136Y016848D01*
X009350Y016634D01*
X009136Y016421D01*
X008923Y017065D02*
X008709Y017279D01*
X009350Y017279D01*
X009350Y017492D02*
X009350Y017065D01*
X009261Y019210D02*
X008941Y019210D01*
X008723Y019210D02*
X008403Y019210D01*
X008296Y019317D01*
X008403Y019424D01*
X008723Y019424D01*
X008723Y019530D02*
X008723Y019210D01*
X008723Y019530D02*
X008616Y019637D01*
X008403Y019637D01*
X008079Y019530D02*
X008079Y019210D01*
X008079Y019530D02*
X007972Y019637D01*
X007758Y019637D01*
X007652Y019530D01*
X007435Y019637D02*
X007114Y019424D01*
X007435Y019210D01*
X007652Y019210D02*
X007652Y019851D01*
X007114Y019851D02*
X007114Y019210D01*
X006897Y019210D02*
X006897Y019637D01*
X006897Y019210D02*
X006577Y019210D01*
X006470Y019317D01*
X006470Y019637D01*
X006252Y019851D02*
X005825Y019210D01*
X005181Y019210D02*
X005608Y019851D01*
X004965Y019637D02*
X004965Y019530D01*
X004858Y019530D01*
X004858Y019637D01*
X004965Y019637D01*
X004965Y019317D02*
X004858Y019317D01*
X004858Y019210D01*
X004965Y019210D01*
X004965Y019317D01*
X004641Y019317D02*
X004534Y019210D01*
X004214Y019210D01*
X004214Y018996D02*
X004214Y019637D01*
X004534Y019637D01*
X004641Y019530D01*
X004641Y019317D01*
X003998Y019210D02*
X003891Y019317D01*
X003891Y019744D01*
X003784Y019637D02*
X003998Y019637D01*
X003568Y019637D02*
X003355Y019637D01*
X003461Y019744D02*
X003461Y019317D01*
X003568Y019210D01*
X003137Y019210D02*
X003137Y019530D01*
X003030Y019637D01*
X002817Y019637D01*
X002710Y019530D01*
X002710Y019210D02*
X002710Y019851D01*
X004560Y017530D02*
X004562Y017509D01*
X004567Y017489D01*
X004576Y017470D01*
X004588Y017453D01*
X004603Y017438D01*
X004620Y017426D01*
X004639Y017417D01*
X004659Y017412D01*
X004680Y017410D01*
X004701Y017412D01*
X004721Y017417D01*
X004740Y017426D01*
X004757Y017438D01*
X004772Y017453D01*
X004784Y017470D01*
X004793Y017489D01*
X004798Y017509D01*
X004800Y017530D01*
X008941Y019530D02*
X009047Y019637D01*
X009368Y019637D01*
X009261Y019424D02*
X009047Y019424D01*
X008941Y019530D01*
X009261Y019424D02*
X009368Y019317D01*
X009261Y019210D01*
X009585Y019210D02*
X009585Y019317D01*
X009692Y019317D01*
X009692Y019210D01*
X009585Y019210D01*
X009907Y019210D02*
X009907Y019637D01*
X010228Y019637D01*
X010335Y019530D01*
X010335Y019210D01*
X010552Y019317D02*
X010552Y019530D01*
X010659Y019637D01*
X010872Y019637D01*
X010979Y019530D01*
X010979Y019424D01*
X010552Y019424D01*
X010552Y019317D02*
X010659Y019210D01*
X010872Y019210D01*
X011303Y019317D02*
X011410Y019210D01*
X011303Y019317D02*
X011303Y019744D01*
X011197Y019637D02*
X011410Y019637D01*
X011626Y019210D02*
X012053Y019851D01*
X015009Y011008D02*
X015116Y011008D01*
X015330Y010795D01*
X015650Y010795D01*
X015330Y010795D02*
X015116Y010581D01*
X015009Y010581D01*
X015009Y010364D02*
X015650Y010364D01*
X015009Y009937D01*
X015650Y009937D01*
X015543Y009719D02*
X015116Y009719D01*
X015009Y009612D01*
X015009Y009292D01*
X015650Y009292D01*
X015650Y009612D01*
X015543Y009719D01*
X015543Y009075D02*
X015116Y009075D01*
X015543Y008648D01*
X015650Y008754D01*
X015650Y008968D01*
X015543Y009075D01*
X015116Y009075D02*
X015009Y008968D01*
X015009Y008754D01*
X015116Y008648D01*
X015543Y008648D01*
X015650Y008430D02*
X015009Y008430D01*
X015223Y008217D01*
X015009Y008003D01*
X015650Y008003D01*
X015650Y007142D02*
X015650Y006929D01*
X015650Y007036D02*
X015009Y007036D01*
X015009Y006929D01*
X015009Y006606D02*
X014903Y006606D01*
X015223Y006606D02*
X015650Y006606D01*
X015650Y006499D02*
X015650Y006713D01*
X015650Y006282D02*
X015330Y006282D01*
X015223Y006175D01*
X015223Y005961D01*
X015330Y005855D01*
X015330Y005637D02*
X015116Y005637D01*
X015009Y005530D01*
X015009Y005210D01*
X015650Y005210D01*
X015436Y005210D02*
X015436Y005530D01*
X015330Y005637D01*
X015650Y005855D02*
X015009Y005855D01*
X015223Y006499D02*
X015223Y006606D01*
X013560Y003990D02*
X013560Y002370D01*
X013560Y003090D02*
X013560Y003250D01*
X013740Y004110D02*
X013798Y004136D01*
X013857Y004157D01*
X013918Y004175D01*
X013979Y004189D01*
X014042Y004199D01*
X014104Y004205D01*
X014168Y004208D01*
X014231Y004207D01*
X014294Y004201D01*
X014356Y004192D01*
X014418Y004179D01*
X014479Y004162D01*
X014539Y004142D01*
X014597Y004118D01*
X014654Y004090D01*
X014709Y004059D01*
X014761Y004024D01*
X014812Y003986D01*
X014860Y003946D01*
X014906Y003902D01*
X014949Y003856D01*
X014989Y003807D01*
X015026Y003755D01*
X015059Y003702D01*
X015090Y003647D01*
X015116Y003589D01*
X015140Y003531D01*
X015159Y003471D01*
X015175Y003409D01*
X015187Y003347D01*
X015195Y003285D01*
X015199Y003222D01*
X015200Y003159D01*
X015196Y003096D01*
X015189Y003033D01*
X015178Y002971D01*
X015162Y002909D01*
X015144Y002849D01*
X015121Y002790D01*
X015095Y002732D01*
X015065Y002677D01*
X015033Y002623D01*
X014996Y002571D01*
X014957Y002522D01*
X014915Y002475D01*
X014870Y002431D01*
X014822Y002389D01*
X014772Y002351D01*
X014719Y002316D01*
X014664Y002284D01*
X014608Y002256D01*
X014550Y002231D01*
X014491Y002210D01*
X014430Y002192D01*
X014368Y002178D01*
X014306Y002168D01*
X014243Y002162D01*
X014180Y002160D01*
X013560Y002370D02*
X013612Y002333D01*
X013665Y002300D01*
X013720Y002269D01*
X013778Y002243D01*
X013836Y002219D01*
X013896Y002200D01*
X013957Y002184D01*
X014019Y002172D01*
X014082Y002164D01*
X014145Y002160D01*
X014208Y002159D01*
X014271Y002163D01*
X014334Y002170D01*
X014396Y002182D01*
X014457Y002197D01*
X014517Y002216D01*
X014576Y002238D01*
X014634Y002264D01*
X014689Y002294D01*
X014743Y002327D01*
X014795Y002363D01*
X014844Y002403D01*
X014891Y002445D01*
X014935Y002490D01*
X014976Y002538D01*
X015014Y002588D01*
X015049Y002641D01*
X015081Y002695D01*
X015109Y002752D01*
X015134Y002810D01*
X015155Y002869D01*
X015172Y002930D01*
X015185Y002992D01*
X015195Y003054D01*
X015201Y003117D01*
X015203Y003180D01*
X015201Y003243D01*
X015195Y003306D01*
X015185Y003368D01*
X015172Y003430D01*
X015155Y003491D01*
X015134Y003550D01*
X015109Y003608D01*
X015081Y003665D01*
X015049Y003719D01*
X015014Y003772D01*
X014976Y003822D01*
X014935Y003870D01*
X014891Y003915D01*
X014844Y003957D01*
X014795Y003997D01*
X014743Y004033D01*
X014689Y004066D01*
X014634Y004096D01*
X014576Y004122D01*
X014517Y004144D01*
X014457Y004163D01*
X014396Y004178D01*
X014334Y004190D01*
X014271Y004197D01*
X014208Y004201D01*
X014145Y004200D01*
X014082Y004196D01*
X014019Y004188D01*
X013957Y004176D01*
X013896Y004160D01*
X013836Y004141D01*
X013778Y004117D01*
X013720Y004091D01*
X013665Y004060D01*
X013612Y004027D01*
X013560Y003990D01*
X013730Y002260D02*
X013784Y002237D01*
X013838Y002217D01*
X013894Y002200D01*
X013950Y002185D01*
X014007Y002174D01*
X014065Y002166D01*
X014122Y002162D01*
X014180Y002160D01*
X011930Y002150D02*
X011430Y002150D01*
X011930Y002150D01*
X011680Y001900D02*
X011680Y002400D01*
X011680Y001900D01*
X011680Y002500D02*
X011622Y002502D01*
X011564Y002508D01*
X011507Y002517D01*
X011451Y002530D01*
X011396Y002547D01*
X011341Y002567D01*
X011289Y002591D01*
X011237Y002619D01*
X011188Y002649D01*
X011141Y002683D01*
X011096Y002720D01*
X011054Y002759D01*
X011015Y002801D01*
X010978Y002846D01*
X010944Y002893D01*
X010914Y002943D01*
X010886Y002994D01*
X010862Y003046D01*
X010842Y003101D01*
X010825Y003156D01*
X010812Y003212D01*
X010803Y003269D01*
X010797Y003327D01*
X010795Y003385D01*
X010797Y003443D01*
X010803Y003501D01*
X010812Y003558D01*
X010825Y003614D01*
X010842Y003669D01*
X010862Y003724D01*
X010886Y003776D01*
X010914Y003828D01*
X010944Y003877D01*
X010978Y003924D01*
X011015Y003969D01*
X011054Y004011D01*
X011096Y004050D01*
X011141Y004087D01*
X011188Y004121D01*
X011238Y004151D01*
X011289Y004179D01*
X011341Y004203D01*
X011396Y004223D01*
X011451Y004240D01*
X011507Y004253D01*
X011564Y004262D01*
X011622Y004268D01*
X011680Y004270D01*
X011738Y004268D01*
X011796Y004262D01*
X011853Y004253D01*
X011909Y004240D01*
X011964Y004223D01*
X012019Y004203D01*
X012071Y004179D01*
X012122Y004151D01*
X012172Y004121D01*
X012219Y004087D01*
X012264Y004050D01*
X012306Y004011D01*
X012345Y003969D01*
X012382Y003924D01*
X012416Y003877D01*
X012446Y003828D01*
X012474Y003776D01*
X012498Y003724D01*
X012518Y003669D01*
X012535Y003614D01*
X012548Y003558D01*
X012557Y003501D01*
X012563Y003443D01*
X012565Y003385D01*
X012563Y003327D01*
X012557Y003269D01*
X012548Y003212D01*
X012535Y003156D01*
X012518Y003101D01*
X012498Y003046D01*
X012474Y002994D01*
X012446Y002943D01*
X012416Y002893D01*
X012382Y002846D01*
X012345Y002801D01*
X012306Y002759D01*
X012264Y002720D01*
X012219Y002683D01*
X012172Y002649D01*
X012123Y002619D01*
X012071Y002591D01*
X012019Y002567D01*
X011964Y002547D01*
X011909Y002530D01*
X011853Y002517D01*
X011796Y002508D01*
X011738Y002502D01*
X011680Y002500D01*
X011622Y002502D01*
X011564Y002508D01*
X011507Y002517D01*
X011451Y002530D01*
X011396Y002547D01*
X011341Y002567D01*
X011289Y002591D01*
X011237Y002619D01*
X011188Y002649D01*
X011141Y002683D01*
X011096Y002720D01*
X011054Y002759D01*
X011015Y002801D01*
X010978Y002846D01*
X010944Y002893D01*
X010914Y002943D01*
X010886Y002994D01*
X010862Y003046D01*
X010842Y003101D01*
X010825Y003156D01*
X010812Y003212D01*
X010803Y003269D01*
X010797Y003327D01*
X010795Y003385D01*
X010797Y003443D01*
X010803Y003501D01*
X010812Y003558D01*
X010825Y003614D01*
X010842Y003669D01*
X010862Y003724D01*
X010886Y003776D01*
X010914Y003828D01*
X010944Y003877D01*
X010978Y003924D01*
X011015Y003969D01*
X011054Y004011D01*
X011096Y004050D01*
X011141Y004087D01*
X011188Y004121D01*
X011238Y004151D01*
X011289Y004179D01*
X011341Y004203D01*
X011396Y004223D01*
X011451Y004240D01*
X011507Y004253D01*
X011564Y004262D01*
X011622Y004268D01*
X011680Y004270D01*
X011738Y004268D01*
X011796Y004262D01*
X011853Y004253D01*
X011909Y004240D01*
X011964Y004223D01*
X012019Y004203D01*
X012071Y004179D01*
X012122Y004151D01*
X012172Y004121D01*
X012219Y004087D01*
X012264Y004050D01*
X012306Y004011D01*
X012345Y003969D01*
X012382Y003924D01*
X012416Y003877D01*
X012446Y003828D01*
X012474Y003776D01*
X012498Y003724D01*
X012518Y003669D01*
X012535Y003614D01*
X012548Y003558D01*
X012557Y003501D01*
X012563Y003443D01*
X012565Y003385D01*
X012563Y003327D01*
X012557Y003269D01*
X012548Y003212D01*
X012535Y003156D01*
X012518Y003101D01*
X012498Y003046D01*
X012474Y002994D01*
X012446Y002943D01*
X012416Y002893D01*
X012382Y002846D01*
X012345Y002801D01*
X012306Y002759D01*
X012264Y002720D01*
X012219Y002683D01*
X012172Y002649D01*
X012123Y002619D01*
X012071Y002591D01*
X012019Y002567D01*
X011964Y002547D01*
X011909Y002530D01*
X011853Y002517D01*
X011796Y002508D01*
X011738Y002502D01*
X011680Y002500D01*
X017460Y003280D02*
X017887Y002960D01*
X017460Y003280D02*
X017887Y003601D01*
X018749Y003280D02*
X018749Y003067D01*
X018856Y002960D01*
X019069Y002960D01*
X019176Y003067D01*
X019176Y003174D01*
X019069Y003280D01*
X018749Y003280D01*
X018963Y003494D01*
X019176Y003601D01*
X019394Y003601D02*
X019394Y003174D01*
X019607Y002960D01*
X019821Y003174D01*
X019821Y003601D01*
X009350Y008146D02*
X008709Y008146D01*
X008923Y008364D02*
X008709Y008578D01*
X008923Y008791D01*
X008923Y008364D02*
X009350Y008364D01*
X009350Y009653D02*
X008923Y009653D01*
D11*
X010405Y007930D02*
X010405Y007750D01*
X010405Y007840D02*
X010135Y007840D01*
X010225Y007750D01*
X010180Y007635D02*
X010270Y007635D01*
X010315Y007590D01*
X010315Y007455D01*
X010405Y007455D02*
X010135Y007455D01*
X010135Y007590D01*
X010180Y007635D01*
X010315Y007545D02*
X010405Y007635D01*
X008430Y006180D02*
X008430Y006135D01*
X008385Y006090D01*
X008430Y006045D01*
X008430Y006000D01*
X008385Y005955D01*
X008295Y005955D01*
X008250Y006000D01*
X008135Y005955D02*
X008045Y006045D01*
X008090Y006045D02*
X007955Y006045D01*
X007955Y005955D02*
X007955Y006225D01*
X008090Y006225D01*
X008135Y006180D01*
X008135Y006090D01*
X008090Y006045D01*
X008250Y006180D02*
X008295Y006225D01*
X008385Y006225D01*
X008430Y006180D01*
X008385Y006090D02*
X008340Y006090D01*
X007868Y002618D02*
X006930Y002618D01*
X006932Y002660D01*
X006938Y002702D01*
X006947Y002743D01*
X006960Y002783D01*
X006976Y002821D01*
X006996Y002859D01*
X007020Y002894D01*
X007046Y002927D01*
X007075Y002957D01*
X007107Y002985D01*
X007141Y003009D01*
X007177Y003031D01*
X007215Y003049D01*
X007254Y003064D01*
X007295Y003075D01*
X007336Y003083D01*
X007378Y003087D01*
X007420Y003087D01*
X007462Y003083D01*
X007503Y003075D01*
X007544Y003064D01*
X007583Y003049D01*
X007621Y003031D01*
X007657Y003009D01*
X007691Y002985D01*
X007723Y002957D01*
X007752Y002927D01*
X007778Y002894D01*
X007802Y002859D01*
X007822Y002821D01*
X007838Y002783D01*
X007851Y002743D01*
X007860Y002702D01*
X007866Y002660D01*
X007868Y002618D01*
X005841Y002270D02*
X005660Y002270D01*
X005795Y002405D01*
X005795Y002135D01*
X005546Y002135D02*
X005456Y002225D01*
X005501Y002225D02*
X005366Y002225D01*
X005366Y002135D02*
X005366Y002405D01*
X005501Y002405D01*
X005546Y002360D01*
X005546Y002270D01*
X005501Y002225D01*
X013955Y009366D02*
X013955Y009501D01*
X014000Y009546D01*
X014090Y009546D01*
X014135Y009501D01*
X014135Y009366D01*
X014135Y009456D02*
X014225Y009546D01*
X014225Y009660D02*
X014045Y009841D01*
X014000Y009841D01*
X013955Y009795D01*
X013955Y009705D01*
X014000Y009660D01*
X014225Y009660D02*
X014225Y009841D01*
X014225Y009366D02*
X013955Y009366D01*
X012430Y011430D02*
X017680Y011430D01*
X017680Y013305D01*
X012430Y013305D01*
X012430Y011430D01*
X010943Y011570D02*
X010943Y011256D01*
X018680Y011256D01*
X018680Y011570D01*
X018662Y011572D01*
X018645Y011577D01*
X018628Y011585D01*
X018614Y011596D01*
X018602Y011609D01*
X018592Y011624D01*
X018586Y011641D01*
X018582Y011659D01*
X018582Y011677D01*
X018586Y011695D01*
X018592Y011712D01*
X018602Y011727D01*
X018614Y011740D01*
X018628Y011751D01*
X018645Y011759D01*
X018662Y011764D01*
X018680Y011766D01*
X018680Y011767D02*
X018680Y012382D01*
X018680Y012383D02*
X018662Y012385D01*
X018645Y012390D01*
X018628Y012398D01*
X018614Y012409D01*
X018602Y012422D01*
X018592Y012437D01*
X018586Y012454D01*
X018582Y012472D01*
X018582Y012490D01*
X018586Y012508D01*
X018592Y012525D01*
X018602Y012540D01*
X018614Y012553D01*
X018628Y012564D01*
X018645Y012572D01*
X018662Y012577D01*
X018680Y012579D01*
X018680Y013232D01*
X018680Y013233D02*
X018662Y013235D01*
X018645Y013240D01*
X018628Y013248D01*
X018614Y013259D01*
X018602Y013272D01*
X018592Y013287D01*
X018586Y013304D01*
X018582Y013322D01*
X018582Y013340D01*
X018586Y013358D01*
X018592Y013375D01*
X018602Y013390D01*
X018614Y013403D01*
X018628Y013414D01*
X018645Y013422D01*
X018662Y013427D01*
X018680Y013429D01*
X018680Y014020D01*
X018662Y014022D01*
X018645Y014027D01*
X018628Y014035D01*
X018614Y014046D01*
X018602Y014059D01*
X018592Y014074D01*
X018586Y014091D01*
X018582Y014109D01*
X018582Y014127D01*
X018586Y014145D01*
X018592Y014162D01*
X018602Y014177D01*
X018614Y014190D01*
X018628Y014201D01*
X018645Y014209D01*
X018662Y014214D01*
X018680Y014216D01*
X018680Y014869D01*
X018680Y014870D02*
X018662Y014872D01*
X018645Y014877D01*
X018628Y014885D01*
X018614Y014896D01*
X018602Y014909D01*
X018592Y014924D01*
X018586Y014941D01*
X018582Y014959D01*
X018582Y014977D01*
X018586Y014995D01*
X018592Y015012D01*
X018602Y015027D01*
X018614Y015040D01*
X018628Y015051D01*
X018645Y015059D01*
X018662Y015064D01*
X018680Y015066D01*
X018680Y015657D01*
X018662Y015659D01*
X018645Y015664D01*
X018628Y015672D01*
X018614Y015683D01*
X018602Y015696D01*
X018592Y015711D01*
X018586Y015728D01*
X018582Y015746D01*
X018582Y015764D01*
X018586Y015782D01*
X018592Y015799D01*
X018602Y015814D01*
X018614Y015827D01*
X018628Y015838D01*
X018645Y015846D01*
X018662Y015851D01*
X018680Y015853D01*
X018680Y015854D02*
X018680Y016444D01*
X018680Y016445D02*
X018662Y016447D01*
X018645Y016452D01*
X018628Y016460D01*
X018614Y016471D01*
X018602Y016484D01*
X018592Y016499D01*
X018586Y016516D01*
X018582Y016534D01*
X018582Y016552D01*
X018586Y016570D01*
X018592Y016587D01*
X018602Y016602D01*
X018614Y016615D01*
X018628Y016626D01*
X018645Y016634D01*
X018662Y016639D01*
X018680Y016641D01*
X018680Y017169D01*
X018680Y017170D02*
X018662Y017172D01*
X018645Y017177D01*
X018628Y017185D01*
X018614Y017196D01*
X018602Y017209D01*
X018592Y017224D01*
X018586Y017241D01*
X018582Y017259D01*
X018582Y017277D01*
X018586Y017295D01*
X018592Y017312D01*
X018602Y017327D01*
X018614Y017340D01*
X018628Y017351D01*
X018645Y017359D01*
X018662Y017364D01*
X018680Y017366D01*
X018680Y017680D01*
X010943Y017680D01*
X010943Y017366D01*
X010961Y017364D01*
X010978Y017359D01*
X010995Y017351D01*
X011009Y017340D01*
X011021Y017327D01*
X011031Y017312D01*
X011037Y017295D01*
X011041Y017277D01*
X011041Y017259D01*
X011037Y017241D01*
X011031Y017224D01*
X011021Y017209D01*
X011009Y017196D01*
X010995Y017185D01*
X010978Y017177D01*
X010961Y017172D01*
X010943Y017170D01*
X010943Y017169D02*
X010943Y016641D01*
X010961Y016639D01*
X010978Y016634D01*
X010995Y016626D01*
X011009Y016615D01*
X011021Y016602D01*
X011031Y016587D01*
X011037Y016570D01*
X011041Y016552D01*
X011041Y016534D01*
X011037Y016516D01*
X011031Y016499D01*
X011021Y016484D01*
X011009Y016471D01*
X010995Y016460D01*
X010978Y016452D01*
X010961Y016447D01*
X010943Y016445D01*
X010943Y016444D02*
X010943Y015854D01*
X010943Y015853D02*
X010961Y015851D01*
X010978Y015846D01*
X010995Y015838D01*
X011009Y015827D01*
X011021Y015814D01*
X011031Y015799D01*
X011037Y015782D01*
X011041Y015764D01*
X011041Y015746D01*
X011037Y015728D01*
X011031Y015711D01*
X011021Y015696D01*
X011009Y015683D01*
X010995Y015672D01*
X010978Y015664D01*
X010961Y015659D01*
X010943Y015657D01*
X010943Y015004D01*
X010943Y015003D02*
X010961Y015001D01*
X010978Y014996D01*
X010995Y014988D01*
X011009Y014977D01*
X011021Y014964D01*
X011031Y014949D01*
X011037Y014932D01*
X011041Y014914D01*
X011041Y014896D01*
X011037Y014878D01*
X011031Y014861D01*
X011021Y014846D01*
X011009Y014833D01*
X010995Y014822D01*
X010978Y014814D01*
X010961Y014809D01*
X010943Y014807D01*
X010943Y014216D01*
X010961Y014214D01*
X010978Y014209D01*
X010995Y014201D01*
X011009Y014190D01*
X011021Y014177D01*
X011031Y014162D01*
X011037Y014145D01*
X011041Y014127D01*
X011041Y014109D01*
X011037Y014091D01*
X011031Y014074D01*
X011021Y014059D01*
X011009Y014046D01*
X010995Y014035D01*
X010978Y014027D01*
X010961Y014022D01*
X010943Y014020D01*
X010943Y013429D01*
X010961Y013427D01*
X010978Y013422D01*
X010995Y013414D01*
X011009Y013403D01*
X011021Y013390D01*
X011031Y013375D01*
X011037Y013358D01*
X011041Y013340D01*
X011041Y013322D01*
X011037Y013304D01*
X011031Y013287D01*
X011021Y013272D01*
X011009Y013259D01*
X010995Y013248D01*
X010978Y013240D01*
X010961Y013235D01*
X010943Y013233D01*
X010943Y013232D02*
X010943Y012579D01*
X010961Y012577D01*
X010978Y012572D01*
X010995Y012564D01*
X011009Y012553D01*
X011021Y012540D01*
X011031Y012525D01*
X011037Y012508D01*
X011041Y012490D01*
X011041Y012472D01*
X011037Y012454D01*
X011031Y012437D01*
X011021Y012422D01*
X011009Y012409D01*
X010995Y012398D01*
X010978Y012390D01*
X010961Y012385D01*
X010943Y012383D01*
X010943Y012382D02*
X010943Y011767D01*
X010943Y011766D02*
X010961Y011764D01*
X010978Y011759D01*
X010995Y011751D01*
X011009Y011740D01*
X011021Y011727D01*
X011031Y011712D01*
X011037Y011695D01*
X011041Y011677D01*
X011041Y011659D01*
X011037Y011641D01*
X011031Y011624D01*
X011021Y011609D01*
X011009Y011596D01*
X010995Y011585D01*
X010978Y011577D01*
X010961Y011572D01*
X010943Y011570D01*
X016118Y014805D02*
X017493Y014805D01*
X017493Y016243D01*
X016118Y016243D01*
X016118Y016180D02*
X016118Y014805D01*
D12*
X016098Y012555D02*
X016098Y012094D01*
X016251Y012248D01*
X016405Y012094D01*
X016405Y012555D01*
X015944Y012555D02*
X015944Y012094D01*
X015944Y012324D02*
X015637Y012324D01*
X015484Y012324D02*
X015254Y012324D01*
X015177Y012401D01*
X015177Y012478D01*
X015254Y012555D01*
X015407Y012555D01*
X015484Y012478D01*
X015484Y012171D01*
X015407Y012094D01*
X015254Y012094D01*
X015177Y012171D01*
X015024Y012171D02*
X015024Y012248D01*
X014947Y012324D01*
X014717Y012324D01*
X014717Y012171D01*
X014793Y012094D01*
X014947Y012094D01*
X015024Y012171D01*
X014870Y012478D02*
X014717Y012324D01*
X014870Y012478D02*
X015024Y012555D01*
X014563Y012555D02*
X014563Y012094D01*
X014256Y012094D02*
X014256Y012555D01*
X014410Y012401D01*
X014563Y012555D01*
X014103Y012555D02*
X013796Y012555D01*
X013796Y012094D01*
X013642Y012094D02*
X013489Y012248D01*
X013566Y012248D02*
X013336Y012248D01*
X013336Y012094D02*
X013336Y012555D01*
X013566Y012555D01*
X013642Y012478D01*
X013642Y012324D01*
X013566Y012248D01*
X013796Y012324D02*
X013949Y012324D01*
X015637Y012094D02*
X015637Y012555D01*
D13*
X001930Y001680D02*
X001430Y001680D01*
X001180Y001930D01*
X001180Y002430D01*
X001430Y002680D01*
X001930Y002680D01*
X002180Y002430D01*
X002180Y001930D01*
X001930Y001680D01*
X003440Y002708D02*
X003440Y003652D01*
X005920Y003652D01*
X005920Y002708D01*
X003440Y002708D01*
X007940Y004708D02*
X010420Y004708D01*
X010420Y005652D01*
X007940Y005652D01*
X007940Y004708D01*
X010708Y007440D02*
X010708Y009920D01*
X011652Y009920D01*
X011652Y007440D01*
X010708Y007440D01*
X000980Y007780D02*
X000948Y008139D01*
X000932Y008500D01*
X000932Y008860D01*
X000948Y009221D01*
X000980Y009580D01*
X000990Y009632D01*
X001004Y009683D01*
X001022Y009733D01*
X001043Y009781D01*
X001068Y009828D01*
X001096Y009872D01*
X001128Y009915D01*
X001162Y009955D01*
X001200Y009992D01*
X001240Y010026D01*
X001282Y010058D01*
X001327Y010086D01*
X001374Y010110D01*
X001422Y010131D01*
X001472Y010149D01*
X001523Y010162D01*
X001575Y010172D01*
X001627Y010178D01*
X001680Y010180D01*
X001733Y010178D01*
X001785Y010172D01*
X001837Y010162D01*
X001888Y010149D01*
X001938Y010131D01*
X001986Y010110D01*
X002033Y010086D01*
X002078Y010058D01*
X002120Y010026D01*
X002160Y009992D01*
X002198Y009955D01*
X002232Y009915D01*
X002264Y009872D01*
X002292Y009828D01*
X002317Y009781D01*
X002338Y009733D01*
X002356Y009683D01*
X002370Y009632D01*
X002380Y009580D01*
X001930Y010680D02*
X001430Y010680D01*
X001180Y010930D01*
X001180Y011430D01*
X001430Y011680D01*
X001180Y011930D01*
X001180Y012430D01*
X001430Y012680D01*
X001930Y012680D01*
X002180Y012430D01*
X002180Y011930D01*
X001930Y011680D01*
X002180Y011430D01*
X002180Y010930D01*
X001930Y010680D01*
X002380Y009580D02*
X002412Y009221D01*
X002428Y008860D01*
X002428Y008500D01*
X002412Y008139D01*
X002380Y007780D01*
X002370Y007728D01*
X002356Y007677D01*
X002338Y007627D01*
X002317Y007579D01*
X002292Y007532D01*
X002264Y007488D01*
X002232Y007445D01*
X002198Y007405D01*
X002160Y007368D01*
X002120Y007334D01*
X002078Y007302D01*
X002033Y007274D01*
X001986Y007250D01*
X001938Y007229D01*
X001888Y007211D01*
X001837Y007198D01*
X001785Y007188D01*
X001733Y007182D01*
X001680Y007180D01*
X001627Y007182D01*
X001575Y007188D01*
X001523Y007198D01*
X001472Y007211D01*
X001422Y007229D01*
X001374Y007250D01*
X001327Y007274D01*
X001282Y007302D01*
X001240Y007334D01*
X001200Y007368D01*
X001162Y007405D01*
X001128Y007445D01*
X001096Y007488D01*
X001068Y007532D01*
X001043Y007579D01*
X001022Y007627D01*
X001004Y007677D01*
X000990Y007728D01*
X000980Y007780D01*
X001430Y013680D02*
X001930Y013680D01*
X002180Y013930D01*
X002180Y014430D01*
X001930Y014680D01*
X002180Y014930D01*
X002180Y015430D01*
X001930Y015680D01*
X002180Y015930D01*
X002180Y016430D01*
X001930Y016680D01*
X001430Y016680D01*
X001180Y016430D01*
X001180Y015930D01*
X001430Y015680D01*
X001930Y015680D01*
X001430Y015680D01*
X001180Y015430D01*
X001180Y014930D01*
X001430Y014680D01*
X001930Y014680D01*
X001430Y014680D01*
X001180Y014430D01*
X001180Y013930D01*
X001430Y013680D01*
X001430Y019180D02*
X001930Y019180D01*
X002180Y019430D01*
X002180Y019930D01*
X001930Y020180D01*
X001430Y020180D01*
X001180Y019930D01*
X001180Y019430D01*
X001430Y019180D01*
X007180Y014930D02*
X007180Y014430D01*
X007430Y014180D01*
X007180Y013930D01*
X007180Y013430D01*
X007430Y013180D01*
X007930Y013180D01*
X008180Y013430D01*
X008180Y013930D01*
X007930Y014180D01*
X008180Y014430D01*
X008180Y014930D01*
X007930Y015180D01*
X007430Y015180D01*
X007180Y014930D01*
X007430Y012680D02*
X007180Y012430D01*
X007180Y011930D01*
X007430Y011680D01*
X007180Y011430D01*
X007180Y010930D01*
X007430Y010680D01*
X007930Y010680D01*
X008180Y010930D01*
X008180Y011430D01*
X007930Y011680D01*
X008180Y011930D01*
X008180Y012430D01*
X007930Y012680D01*
X007430Y012680D01*
X012708Y009920D02*
X012708Y007440D01*
X013652Y007440D01*
X013652Y009920D01*
X012708Y009920D01*
X016548Y008930D02*
X016548Y008430D01*
X016680Y008430D02*
X016680Y008930D01*
X016930Y009180D01*
X018430Y009180D01*
X018680Y008930D01*
X018680Y008430D01*
X018430Y008180D01*
X016930Y008180D01*
X016680Y007930D01*
X016680Y007430D01*
X016930Y007180D01*
X018430Y007180D01*
X018680Y006930D01*
X018680Y006430D01*
X018430Y006180D01*
X016930Y006180D01*
X016680Y006430D01*
X016680Y006930D01*
X016930Y007180D01*
X016930Y008180D02*
X016680Y008430D01*
X018430Y008180D02*
X018680Y007930D01*
X018680Y007430D01*
X018430Y007180D01*
X016930Y004680D02*
X016430Y004680D01*
X016180Y004430D01*
X016180Y003930D01*
X016430Y003680D01*
X016180Y003430D01*
X016180Y002930D01*
X016430Y002680D01*
X016930Y002680D01*
X017180Y002930D01*
X017180Y003430D01*
X016930Y003680D01*
X017180Y003930D01*
X017180Y004430D01*
X016930Y004680D01*
X017930Y002680D02*
X018430Y002680D01*
X018680Y002430D01*
X018930Y002680D01*
X019430Y002680D01*
X019680Y002430D01*
X019680Y001930D01*
X019430Y001680D01*
X018930Y001680D01*
X018680Y001930D01*
X018430Y001680D01*
X017930Y001680D01*
X017680Y001930D01*
X017680Y002430D01*
X017930Y002680D01*
X014180Y004930D02*
X013930Y004680D01*
X013430Y004680D01*
X013180Y004930D01*
X012930Y004680D01*
X012430Y004680D01*
X012180Y004930D01*
X012180Y005430D01*
X012430Y005680D01*
X012930Y005680D01*
X013180Y005430D01*
X013430Y005680D01*
X013930Y005680D01*
X014180Y005430D01*
X014180Y004930D01*
X017930Y018180D02*
X017680Y018430D01*
X017680Y018930D01*
X017930Y019180D01*
X018430Y019180D01*
X018680Y018930D01*
X018930Y019180D01*
X019430Y019180D01*
X019680Y018930D01*
X019680Y018430D01*
X019430Y018180D01*
X018930Y018180D01*
X018680Y018430D01*
X018430Y018180D01*
X017930Y018180D01*
X018930Y019180D02*
X018680Y019430D01*
X018680Y019930D01*
X018930Y020180D01*
X019430Y020180D01*
X019680Y019930D01*
X019680Y019430D01*
X019430Y019180D01*
X018930Y019180D01*
X014680Y018930D02*
X014680Y019430D01*
X014430Y019680D01*
X013930Y019680D01*
X013680Y019430D01*
X013680Y018930D01*
X013930Y018680D01*
X014430Y018680D01*
X014680Y018930D01*
D14*
X014180Y019180D03*
X018180Y018680D03*
X019180Y018680D03*
X019180Y019680D03*
X018180Y008680D03*
X018180Y007680D03*
X018180Y006680D03*
X017180Y006680D03*
X017180Y007680D03*
X017180Y008680D03*
X013680Y005180D03*
X012680Y005180D03*
X016680Y004180D03*
X016680Y003180D03*
X018180Y002180D03*
X019180Y002180D03*
X007680Y011180D03*
X007680Y012180D03*
X007680Y013680D03*
X007680Y014680D03*
X001680Y014180D03*
X001680Y015180D03*
X001680Y016180D03*
X001680Y019680D03*
X001680Y012180D03*
X001680Y011180D03*
X001680Y002180D03*
D15*
X002965Y017613D02*
X003279Y017927D01*
X002965Y017613D01*
X003122Y017613D02*
X003122Y017927D01*
X003122Y017613D01*
X003279Y017613D02*
X002965Y017927D01*
X003279Y017613D01*
X003279Y017770D02*
X002965Y017770D01*
X003279Y017770D01*
D16*
X003200Y017530D02*
X003200Y003830D01*
X006160Y003830D01*
X006160Y017530D01*
X004800Y017530D01*
X004560Y017530D01*
X003200Y017530D01*
X003200Y017380D02*
X002980Y017380D01*
X002980Y016980D01*
X003200Y016980D01*
X003200Y017380D01*
X003200Y016380D02*
X002980Y016380D01*
X002980Y015980D01*
X003200Y015980D01*
X003200Y016380D01*
X003200Y015380D02*
X002980Y015380D01*
X002980Y014980D01*
X003200Y014980D01*
X003200Y015380D01*
X003200Y014380D02*
X002980Y014380D01*
X002980Y013980D01*
X003200Y013980D01*
X003200Y014380D01*
X003200Y013380D02*
X002980Y013380D01*
X002980Y012980D01*
X003200Y012980D01*
X003200Y013380D01*
X003200Y012380D02*
X002980Y012380D01*
X002980Y011980D01*
X003200Y011980D01*
X003200Y012380D01*
X003200Y011380D02*
X002980Y011380D01*
X002980Y010980D01*
X003200Y010980D01*
X003200Y011380D01*
X003200Y010380D02*
X002980Y010380D01*
X002980Y009980D01*
X003200Y009980D01*
X003200Y010380D01*
X003200Y009380D02*
X002980Y009380D01*
X002990Y008980D01*
X003210Y008980D01*
X003200Y009380D01*
X003210Y008380D02*
X002990Y008380D01*
X002990Y007980D01*
X003210Y007980D01*
X003210Y008380D01*
X003210Y007380D02*
X002990Y007380D01*
X002990Y006980D01*
X003210Y006980D01*
X003210Y007380D01*
X003210Y006380D02*
X002990Y006380D01*
X002990Y005980D01*
X003210Y005980D01*
X003210Y006380D01*
X003210Y005380D02*
X002990Y005380D01*
X002990Y004980D01*
X003210Y004980D01*
X003210Y005380D01*
X003210Y004380D02*
X002990Y004370D01*
X002990Y003980D01*
X003210Y003980D01*
X003210Y004380D01*
X006150Y004380D02*
X006160Y003980D01*
X006380Y003980D01*
X006370Y004380D01*
X006150Y004380D01*
X006160Y004980D02*
X006380Y004980D01*
X006370Y005380D01*
X006150Y005380D01*
X006160Y004980D01*
X006150Y005980D02*
X006370Y005980D01*
X006370Y006380D01*
X006150Y006380D01*
X006150Y005980D01*
X006150Y006980D02*
X006370Y006980D01*
X006370Y007380D01*
X006150Y007380D01*
X006150Y006980D01*
X006150Y007980D02*
X006370Y007980D01*
X006370Y008380D01*
X006150Y008380D01*
X006150Y007980D01*
X006150Y008980D02*
X006370Y008980D01*
X006370Y009380D01*
X006150Y009380D01*
X006150Y008980D01*
X006150Y009980D02*
X006370Y009980D01*
X006370Y010380D01*
X006150Y010380D01*
X006150Y009980D01*
X006150Y010980D02*
X006370Y010980D01*
X006370Y011380D01*
X006150Y011380D01*
X006150Y010980D01*
X006150Y011980D02*
X006370Y011980D01*
X006370Y012380D01*
X006150Y012380D01*
X006150Y011980D01*
X006150Y012980D02*
X006370Y012980D01*
X006370Y013380D01*
X006150Y013380D01*
X006150Y012980D01*
X006150Y013980D02*
X006370Y013980D01*
X006370Y014380D01*
X006150Y014380D01*
X006150Y013980D01*
X006150Y014980D02*
X006370Y014980D01*
X006370Y015380D01*
X006150Y015380D01*
X006150Y014980D01*
X006150Y015980D02*
X006370Y015980D01*
X006370Y016380D01*
X006150Y016380D01*
X006150Y015980D01*
X006150Y016980D02*
X006370Y016980D01*
X006370Y017380D01*
X006150Y017380D01*
X006150Y016980D01*
X004800Y017530D02*
X004798Y017509D01*
X004793Y017489D01*
X004784Y017470D01*
X004772Y017453D01*
X004757Y017438D01*
X004740Y017426D01*
X004721Y017417D01*
X004701Y017412D01*
X004680Y017410D01*
X004659Y017412D01*
X004639Y017417D01*
X004620Y017426D01*
X004603Y017438D01*
X004588Y017453D01*
X004576Y017470D01*
X004567Y017489D01*
X004562Y017509D01*
X004560Y017530D01*
M02*
