%
M48
M72
T01C0.0118
T02C0.0276
T03C0.0280
T04C0.0315
T05C0.0320
T06C0.0354
T07C0.0390
T08C0.0400
%
T01
X19806Y1806
X18682Y1430
X17680Y2680
X16683Y2668
X16680Y1430
X15555Y1430
X15430Y2680
X14305Y2430
X14305Y1430
X12930Y1430
X12926Y2175
X13180Y3180
X13180Y4180
X13930Y4930
X14180Y4180
X15180Y4430
X15430Y3930
X15805Y5178
X15805Y6304
X15808Y7804
X15808Y9306
X15808Y10556
X15555Y10805
X15304Y10560
X16055Y11305
X17081Y11697
X17680Y12430
X17931Y12930
X18181Y12056
X18688Y11684
X19180Y10930
X19680Y10930
X19680Y10180
X18558Y9553
X18055Y9555
X18055Y10054
X17305Y9555
X17302Y9052
X17177Y10179
X14806Y11554
X13930Y10929
X13180Y12180
X13680Y12680
X14430Y12930
X14930Y13680
X15430Y14430
X16183Y14562
X15680Y13680
X16555Y13557
X17180Y14180
X17805Y14929
X18555Y15557
X18054Y16180
X17680Y16930
X16930Y16180
X16180Y15430
X15431Y15438
X15430Y16180
X16180Y16930
X15430Y17680
X15430Y18680
X16180Y19430
X16180Y20180
X15430Y20180
X14936Y20183
X14680Y20180
X14185Y20183
X13930Y20180
X13559Y20183
X13305Y20180
X12933Y20183
X12680Y20180
X8180Y20180
X7927Y20184
X7555Y20180
X7301Y20184
X6930Y20180
X6675Y20184
X6180Y20180
X5930Y20180
X5430Y20180
X6179Y19581
X5430Y19180
X6180Y18430
X6930Y18180
X7555Y18680
X8055Y18180
X8680Y18555
X9055Y18055
X9305Y17430
X9930Y17555
X9930Y17305
X10055Y17055
X10180Y16804
X10180Y16178
X10805Y16180
X11055Y16055
X11055Y15305
X10930Y14430
X11056Y13680
X11056Y12930
X11056Y12055
X11056Y11055
X11056Y10055
X10930Y9680
X11682Y9180
X12430Y9182
X12430Y10055
X12430Y10929
X12419Y11806
X12430Y12930
X12930Y13430
X13680Y13680
X14180Y14430
X13430Y15180
X13056Y15305
X12806Y15305
X12555Y15305
X12305Y15305
X12430Y16055
X12430Y16307
X12430Y16557
X12430Y16805
X12431Y17054
X12430Y17305
X12431Y17554
X12181Y17805
X11929Y17806
X11679Y17806
X11428Y17806
X10930Y17805
X10932Y17555
X11057Y17304
X10932Y18055
X10930Y18305
X10932Y18556
X11057Y18807
X11055Y19180
X11430Y18555
X11799Y18200
X12180Y18555
X12550Y18200
X12680Y18680
X13305Y18680
X13930Y18680
X13936Y19435
X13305Y19430
X12680Y19430
X13050Y17950
X12807Y17554
X12806Y17054
X13180Y16930
X12806Y16554
X12806Y16056
X13310Y16054
X13930Y16055
X14680Y15430
X14680Y16930
X13930Y17680
X14680Y19430
X16930Y18680
X17680Y18180
X16930Y17680
X18557Y17437
X18557Y16936
X19930Y18930
X18430Y19430
X18430Y20180
X17680Y20180
X17680Y19430
X16930Y20180
X12430Y14430
X9930Y17805
X9930Y18055
X9930Y18305
X9930Y18556
X9805Y18807
X9805Y19180
X9430Y18555
X8180Y19430
X7555Y19430
X6930Y19180
X6930Y17180
X7804Y17180
X7804Y16180
X7804Y15180
X7802Y14179
X6930Y13430
X6930Y12680
X6930Y11680
X6930Y10930
X6798Y9305
X7430Y8930
X7930Y8430
X8430Y7930
X8930Y7430
X9430Y7930
X9180Y8680
X8680Y9180
X6930Y7430
X7430Y6930
X8055Y6555
X8554Y6056
X9430Y6680
X10556Y5805
X10680Y4680
X11430Y4180
X11680Y3180
X11555Y2180
X11555Y1430
X10430Y1430
X9930Y3180
X9927Y4423
X8805Y4431
X8055Y3930
X7680Y4432
X6929Y4055
X7421Y3549
X6305Y3430
X5555Y2430
X5555Y1430
X4680Y1430
X4680Y2430
X3680Y2430
X3680Y1430
X2680Y1430
X2680Y2430
X2430Y3805
X2430Y5180
X2430Y6180
X930Y6180
X930Y5180
X930Y4180
X930Y2930
X3930Y4430
X3930Y5430
X3930Y6430
X4671Y6928
X3930Y7430
X3930Y8430
X3930Y9430
X2682Y9669
X1795Y9437
X930Y9180
X2677Y8688
X3930Y11430
X3930Y12430
X5430Y12430
X5430Y11430
X5430Y10430
X5430Y8430
X5430Y7430
X5430Y6430
X5430Y5430
X5180Y4555
X6680Y4680
X7430Y5930
X11680Y5680
X12430Y5180
X13180Y5680
X12430Y6180
X12430Y7054
X13930Y7180
X13930Y8430
X13930Y5930
X17430Y6180
X17430Y5180
X17430Y4180
X18680Y4180
X18680Y5180
X19930Y5180
X19930Y4180
X19930Y3180
X18680Y12930
X18556Y13680
X15930Y12805
X9552Y15301
X9301Y15676
X9301Y16052
X9301Y16428
X8804Y16180
X8804Y15182
X9305Y13803
X9305Y12805
X5430Y13430
X4676Y13926
X3930Y14430
X4676Y14929
X3930Y15430
X4676Y15932
X3930Y16430
X5430Y16430
X5430Y15430
X5430Y14430
X2430Y17430
X1930Y18180
X2430Y18930
X3180Y18430
X3930Y19180
X4675Y19582
X4680Y20180
X3930Y20180
X3180Y20180
X3171Y19581
X2430Y20180
X930Y18680
X930Y17680
X4680Y18430
X9805Y20180
X11055Y20180
T02
X19074Y3147
X18286Y3147
T03
X10680Y3090
X10680Y3680
T04
X1680Y6680
X1680Y7680
X1680Y8680
T05
X16180Y3180
X16180Y4180
X12430Y4180
X12430Y3180
X7680Y10430
X7680Y11430
X7680Y12430
X7680Y13430
X18430Y18180
X19430Y18180
X1680Y5180
X1680Y4180
T06
X1680Y3180
X5680Y3180
X7180Y5180
X11180Y5180
X11680Y6430
X13180Y6430
X13180Y10430
X11680Y10430
T07
X3180Y4180
X3180Y5180
X3180Y6180
X3180Y7180
X3180Y8180
X3180Y9180
X3180Y10180
X3180Y11180
X3180Y12180
X3180Y13180
X3180Y14180
X3180Y15180
X3180Y16180
X3180Y17180
X6180Y17180
X6180Y16180
X6180Y15180
X6180Y14180
X6180Y13180
X6180Y12180
X6180Y11180
X6180Y10180
X6180Y9180
X6180Y8180
X6180Y7180
X6180Y6180
X6180Y5180
X6180Y4180
X13680Y3680
X14680Y3180
X13680Y2680
T08
X19430Y19805
X1430Y19805
X1430Y1930
X6578Y1807
X7578Y1807
X8578Y1807
X9578Y1807
X1305Y10681
X1305Y11681
X1305Y12681
X1305Y13681
X1305Y14681
X1305Y15681
X1305Y16681
X8306Y16680
X8306Y15680
X8306Y14680
X10430Y19430
X18180Y8680
X19180Y8680
X19080Y7680
X19180Y6680
X18180Y6680
X18080Y7680
M30
