%
M48
M72
T01C0.0236
T02C0.0280
T03C0.0315
T04C0.0354
T05C0.0390
T06C0.0400
%
T01
X15180Y7680
X17180Y12180
X15680Y13680
T02
X11680Y3680
X11680Y3090
T03
X8930Y2180
X8180Y2180
X7430Y2180
T04
X6680Y3180
X7180Y5180
X11180Y5180
X11180Y6680
X13180Y6680
X13180Y10680
X11180Y10680
X2680Y3180
T05
X3180Y4180
X3180Y5180
X3180Y6180
X3180Y7180
X3180Y8180
X3180Y9180
X3180Y10180
X3180Y11180
X3180Y12180
X3180Y13180
X3180Y14180
X3180Y15180
X3180Y16180
X3180Y17180
X6180Y17180
X6180Y16180
X6180Y15180
X6180Y14180
X6180Y13180
X6180Y12180
X6180Y11180
X6180Y10180
X6180Y9180
X6180Y8180
X6180Y7180
X6180Y6180
X6180Y5180
X6180Y4180
X13680Y3680
X14680Y3180
X13680Y2680
T06
X1680Y2180
X1680Y10180
X1680Y11180
X7680Y11180
X7680Y12180
X7680Y13680
X7680Y14680
X13180Y19180
X17180Y18680
X18180Y18680
X19180Y19680
X18180Y8680
X17180Y8680
X17280Y7680
X17180Y6680
X18180Y6680
X18280Y7680
X16680Y4180
X16680Y3180
X18180Y2180
X19180Y2180
X13680Y5180
X12680Y5180
X1680Y19680
M30
