G75*
G70*
%OFA0B0*%
%FSLAX24Y24*%
%IPPOS*%
%LPD*%
%AMOC8*
5,1,8,0,0,1.08239X$1,22.5*
%
%ADD10C,0.0515*%
%ADD11OC8,0.0740*%
%ADD12R,0.0600X0.1600*%
%ADD13C,0.0740*%
%ADD14R,0.0590X0.0590*%
%ADD15C,0.0590*%
%ADD16R,0.0480X0.0480*%
%ADD17C,0.0480*%
%ADD18C,0.0320*%
%ADD19C,0.0160*%
%ADD20C,0.0356*%
D10*
X007430Y002180D03*
X008180Y002180D03*
X008930Y002180D03*
D11*
X017180Y006680D03*
X017280Y007680D03*
X018280Y007680D03*
X018180Y006680D03*
X018180Y008680D03*
X017180Y008680D03*
D12*
X015180Y019680D03*
X013180Y019680D03*
D13*
X014180Y019180D03*
X017180Y018680D03*
X018180Y018680D03*
X019180Y019680D03*
X013180Y010680D03*
X011180Y010680D03*
X007680Y011180D03*
X007680Y012180D03*
X007680Y013680D03*
X007680Y014680D03*
X001680Y011180D03*
X001680Y010180D03*
X007180Y005180D03*
X006680Y003180D03*
X002680Y003180D03*
X001680Y002180D03*
X011180Y005180D03*
X011180Y006680D03*
X012680Y005180D03*
X013680Y005180D03*
X013180Y006680D03*
X016680Y004180D03*
X016680Y003180D03*
X018180Y002180D03*
X019180Y002180D03*
X001680Y019680D03*
D14*
X003180Y017180D03*
X014680Y003180D03*
X013680Y002680D03*
D15*
X013680Y003680D03*
X006180Y004180D03*
X006180Y005180D03*
X006180Y006180D03*
X006180Y007180D03*
X006180Y008180D03*
X006180Y009180D03*
X006180Y010180D03*
X006180Y011180D03*
X006180Y012180D03*
X006180Y013180D03*
X006180Y014180D03*
X006180Y015180D03*
X006180Y016180D03*
X006180Y017180D03*
X003180Y016180D03*
X003180Y015180D03*
X003180Y014180D03*
X003180Y013180D03*
X003180Y012180D03*
X003180Y011180D03*
X003180Y010180D03*
X003180Y009180D03*
X003180Y008180D03*
X003180Y007180D03*
X003180Y006180D03*
X003180Y005180D03*
X003180Y004180D03*
D16*
X011680Y003090D03*
D17*
X011680Y003680D03*
D18*
X011680Y003090D02*
X011680Y002680D01*
X012680Y002680D01*
X012680Y005180D01*
X012680Y002680D02*
X013680Y002680D01*
X011680Y002680D02*
X009430Y002680D01*
X008930Y002180D01*
X009430Y002680D02*
X009430Y005930D01*
X017180Y013680D01*
X017180Y018680D01*
X006180Y009180D02*
X009430Y005930D01*
X006180Y009180D02*
X005680Y009180D01*
X003680Y011180D01*
X003180Y011180D01*
D19*
X000820Y020410D02*
X000820Y001320D01*
X020032Y001320D01*
X020032Y020410D01*
X017900Y020410D01*
X017950Y020360D01*
X017998Y020243D01*
X017998Y020117D01*
X017950Y020000D01*
X017860Y019910D01*
X017743Y019862D01*
X017617Y019862D01*
X017500Y019910D01*
X017410Y020000D01*
X017362Y020117D01*
X017362Y020243D01*
X017410Y020360D01*
X017460Y020410D01*
X016900Y020410D01*
X016950Y020360D01*
X016998Y020243D01*
X016998Y020117D01*
X016950Y020000D01*
X016860Y019910D01*
X016743Y019862D01*
X016617Y019862D01*
X016500Y019910D01*
X016410Y020000D01*
X016362Y020117D01*
X016362Y020243D01*
X016410Y020360D01*
X016460Y020410D01*
X016150Y020410D01*
X016200Y020360D01*
X016248Y020243D01*
X016248Y020117D01*
X016200Y020000D01*
X016110Y019910D01*
X015993Y019862D01*
X015867Y019862D01*
X015750Y019910D01*
X015660Y020000D01*
X015660Y020001D01*
X015660Y019750D01*
X015250Y019750D01*
X015250Y019610D01*
X015660Y019610D01*
X015660Y019359D01*
X015660Y019360D01*
X015750Y019450D01*
X015867Y019498D01*
X015993Y019498D01*
X016110Y019450D01*
X016200Y019360D01*
X016248Y019243D01*
X016248Y019117D01*
X016200Y019000D01*
X016110Y018910D01*
X015993Y018862D01*
X015867Y018862D01*
X015750Y018910D01*
X015660Y019000D01*
X015660Y019001D01*
X015660Y018856D01*
X015648Y018811D01*
X015624Y018769D01*
X015591Y018736D01*
X015549Y018712D01*
X015504Y018700D01*
X015250Y018700D01*
X015250Y019610D01*
X015110Y019610D01*
X014700Y019610D01*
X014700Y018856D01*
X014712Y018811D01*
X014736Y018769D01*
X014767Y018738D01*
X014743Y018748D01*
X014617Y018748D01*
X014500Y018700D01*
X014410Y018610D01*
X014362Y018493D01*
X014362Y018367D01*
X014410Y018250D01*
X014500Y018160D01*
X014617Y018112D01*
X014743Y018112D01*
X014860Y018160D01*
X014950Y018250D01*
X014998Y018367D01*
X014998Y018493D01*
X014950Y018610D01*
X014860Y018700D01*
X014859Y018700D01*
X015110Y018700D01*
X015110Y019610D01*
X015110Y019750D01*
X014700Y019750D01*
X014700Y020410D01*
X013660Y020410D01*
X013660Y019750D01*
X013250Y019750D01*
X013250Y019610D01*
X013660Y019610D01*
X013660Y018856D01*
X013648Y018811D01*
X013624Y018769D01*
X013591Y018736D01*
X013549Y018712D01*
X013504Y018700D01*
X013359Y018700D01*
X013360Y018700D01*
X013450Y018610D01*
X013498Y018493D01*
X013498Y018367D01*
X013450Y018250D01*
X013360Y018160D01*
X013243Y018112D01*
X013198Y018112D01*
X013200Y018110D01*
X013248Y017993D01*
X013248Y017867D01*
X013200Y017750D01*
X013110Y017660D01*
X012993Y017612D01*
X012867Y017612D01*
X012750Y017660D01*
X012660Y017750D01*
X012612Y017867D01*
X012612Y017993D01*
X012660Y018110D01*
X012750Y018200D01*
X012867Y018248D01*
X012912Y018248D01*
X012910Y018250D01*
X012862Y018367D01*
X012862Y018493D01*
X012910Y018610D01*
X013000Y018700D01*
X013001Y018700D01*
X012856Y018700D01*
X012811Y018712D01*
X012769Y018736D01*
X012736Y018769D01*
X012712Y018811D01*
X012700Y018856D01*
X012700Y019001D01*
X012700Y019000D01*
X012610Y018910D01*
X012493Y018862D01*
X012367Y018862D01*
X012250Y018910D01*
X012160Y019000D01*
X012112Y019117D01*
X012112Y019243D01*
X012160Y019360D01*
X012250Y019450D01*
X012367Y019498D01*
X012493Y019498D01*
X012610Y019450D01*
X012700Y019360D01*
X012700Y019359D01*
X012700Y019610D01*
X013110Y019610D01*
X013110Y019750D01*
X012700Y019750D01*
X012700Y020001D01*
X012700Y020000D01*
X012610Y019910D01*
X012493Y019862D01*
X012367Y019862D01*
X012250Y019910D01*
X012160Y020000D01*
X012112Y020117D01*
X012112Y020243D01*
X012160Y020360D01*
X012210Y020410D01*
X011900Y020410D01*
X011950Y020360D01*
X011998Y020243D01*
X011998Y020117D01*
X011950Y020000D01*
X011860Y019910D01*
X011743Y019862D01*
X011617Y019862D01*
X011500Y019910D01*
X011410Y020000D01*
X011362Y020117D01*
X011362Y020243D01*
X011410Y020360D01*
X011460Y020410D01*
X010400Y020410D01*
X010450Y020360D01*
X010498Y020243D01*
X010498Y020117D01*
X010450Y020000D01*
X010360Y019910D01*
X010243Y019862D01*
X010117Y019862D01*
X010000Y019910D01*
X009910Y020000D01*
X009862Y020117D01*
X009862Y020243D01*
X009910Y020360D01*
X009960Y020410D01*
X009400Y020410D01*
X009450Y020360D01*
X009498Y020243D01*
X009498Y020117D01*
X009450Y020000D01*
X009360Y019910D01*
X009243Y019862D01*
X009117Y019862D01*
X009000Y019910D01*
X008910Y020000D01*
X008862Y020117D01*
X008862Y020243D01*
X008910Y020360D01*
X008960Y020410D01*
X008400Y020410D01*
X008450Y020360D01*
X008498Y020243D01*
X008498Y020117D01*
X008450Y020000D01*
X008360Y019910D01*
X008243Y019862D01*
X008117Y019862D01*
X008000Y019910D01*
X007910Y020000D01*
X007862Y020117D01*
X007862Y020243D01*
X007910Y020360D01*
X007960Y020410D01*
X007400Y020410D01*
X007450Y020360D01*
X007498Y020243D01*
X007498Y020117D01*
X007450Y020000D01*
X007360Y019910D01*
X007243Y019862D01*
X007117Y019862D01*
X007000Y019910D01*
X006910Y020000D01*
X006862Y020117D01*
X006862Y020243D01*
X006910Y020360D01*
X006960Y020410D01*
X006400Y020410D01*
X006450Y020360D01*
X006498Y020243D01*
X006498Y020117D01*
X006450Y020000D01*
X006360Y019910D01*
X006243Y019862D01*
X006117Y019862D01*
X006000Y019910D01*
X005910Y020000D01*
X005862Y020117D01*
X005862Y020243D01*
X005910Y020360D01*
X005960Y020410D01*
X005400Y020410D01*
X005450Y020360D01*
X005498Y020243D01*
X005498Y020117D01*
X005450Y020000D01*
X005360Y019910D01*
X005243Y019862D01*
X005117Y019862D01*
X005000Y019910D01*
X004910Y020000D01*
X004862Y020117D01*
X004862Y020243D01*
X004910Y020360D01*
X004960Y020410D01*
X004400Y020410D01*
X004450Y020360D01*
X004498Y020243D01*
X004498Y020117D01*
X004450Y020000D01*
X004360Y019910D01*
X004243Y019862D01*
X004117Y019862D01*
X004000Y019910D01*
X003910Y020000D01*
X003862Y020117D01*
X003862Y020243D01*
X003910Y020360D01*
X003960Y020410D01*
X003400Y020410D01*
X003450Y020360D01*
X003498Y020243D01*
X003498Y020117D01*
X003450Y020000D01*
X003360Y019910D01*
X003243Y019862D01*
X003117Y019862D01*
X003000Y019910D01*
X002910Y020000D01*
X002862Y020117D01*
X002862Y020243D01*
X002910Y020360D01*
X002960Y020410D01*
X000820Y020410D01*
X000820Y020359D02*
X002910Y020359D01*
X002862Y020200D02*
X001859Y020200D01*
X001891Y020190D02*
X001809Y020216D01*
X001723Y020230D01*
X001700Y020230D01*
X001700Y019700D01*
X001660Y019700D01*
X001660Y020230D01*
X001637Y020230D01*
X001551Y020216D01*
X001469Y020190D01*
X001392Y020150D01*
X001322Y020100D01*
X001260Y020038D01*
X001210Y019968D01*
X001170Y019891D01*
X001144Y019809D01*
X001130Y019723D01*
X001130Y019700D01*
X001660Y019700D01*
X001660Y019660D01*
X001130Y019660D01*
X001130Y019637D01*
X001144Y019551D01*
X001170Y019469D01*
X001210Y019392D01*
X001260Y019322D01*
X001322Y019260D01*
X001392Y019210D01*
X001469Y019170D01*
X001551Y019144D01*
X001637Y019130D01*
X001660Y019130D01*
X001660Y019660D01*
X001700Y019660D01*
X001700Y019700D01*
X002230Y019700D01*
X002230Y019723D01*
X002216Y019809D01*
X002190Y019891D01*
X002150Y019968D01*
X002100Y020038D01*
X002038Y020100D01*
X001968Y020150D01*
X001891Y020190D01*
X001700Y020200D02*
X001660Y020200D01*
X001660Y020042D02*
X001700Y020042D01*
X001700Y019883D02*
X001660Y019883D01*
X001660Y019725D02*
X001700Y019725D01*
X001700Y019660D02*
X002230Y019660D01*
X002230Y019637D01*
X002216Y019551D01*
X002190Y019469D01*
X002150Y019392D01*
X002100Y019322D01*
X002038Y019260D01*
X001968Y019210D01*
X001891Y019170D01*
X001809Y019144D01*
X001723Y019130D01*
X001700Y019130D01*
X001700Y019660D01*
X001700Y019566D02*
X001660Y019566D01*
X001660Y019408D02*
X001700Y019408D01*
X001700Y019249D02*
X001660Y019249D01*
X001337Y019249D02*
X000820Y019249D01*
X000820Y019091D02*
X011373Y019091D01*
X011362Y019117D02*
X011410Y019000D01*
X011500Y018910D01*
X011617Y018862D01*
X011743Y018862D01*
X011860Y018910D01*
X011950Y019000D01*
X011998Y019117D01*
X011998Y019243D01*
X011950Y019360D01*
X011860Y019450D01*
X011743Y019498D01*
X011617Y019498D01*
X011500Y019450D01*
X011410Y019360D01*
X011362Y019243D01*
X011362Y019117D01*
X011364Y019249D02*
X002023Y019249D01*
X002158Y019408D02*
X011458Y019408D01*
X011902Y019408D02*
X012208Y019408D01*
X012114Y019249D02*
X011996Y019249D01*
X011987Y019091D02*
X012123Y019091D01*
X012228Y018932D02*
X011882Y018932D01*
X011478Y018932D02*
X010378Y018932D01*
X010360Y018950D02*
X010243Y018998D01*
X010117Y018998D01*
X010000Y018950D01*
X009910Y018860D01*
X009862Y018743D01*
X009862Y018617D01*
X009910Y018500D01*
X010000Y018410D01*
X010117Y018362D01*
X010243Y018362D01*
X010360Y018410D01*
X010450Y018500D01*
X010498Y018617D01*
X010498Y018743D01*
X010450Y018860D01*
X010360Y018950D01*
X010486Y018774D02*
X012734Y018774D01*
X012700Y018932D02*
X012632Y018932D01*
X012915Y018615D02*
X010497Y018615D01*
X010406Y018457D02*
X011516Y018457D01*
X011500Y018450D02*
X011410Y018360D01*
X011362Y018243D01*
X011362Y018117D01*
X011410Y018000D01*
X011500Y017910D01*
X011617Y017862D01*
X011743Y017862D01*
X011860Y017910D01*
X011950Y018000D01*
X011998Y018117D01*
X011998Y018243D01*
X011950Y018360D01*
X011860Y018450D01*
X011743Y018498D01*
X011617Y018498D01*
X011500Y018450D01*
X011385Y018298D02*
X001475Y018298D01*
X001498Y018243D02*
X001450Y018360D01*
X001360Y018450D01*
X001243Y018498D01*
X001117Y018498D01*
X001000Y018450D01*
X000910Y018360D01*
X000862Y018243D01*
X000862Y018117D01*
X000910Y018000D01*
X001000Y017910D01*
X001117Y017862D01*
X001243Y017862D01*
X001360Y017910D01*
X001450Y018000D01*
X001498Y018117D01*
X001498Y018243D01*
X001498Y018140D02*
X011362Y018140D01*
X011429Y017981D02*
X010285Y017981D01*
X010243Y017998D02*
X010360Y017950D01*
X010450Y017860D01*
X010498Y017743D01*
X010498Y017617D01*
X010450Y017500D01*
X010360Y017410D01*
X010243Y017362D01*
X010117Y017362D01*
X010000Y017410D01*
X009910Y017500D01*
X009862Y017617D01*
X009862Y017743D01*
X009910Y017860D01*
X010000Y017950D01*
X010117Y017998D01*
X010243Y017998D01*
X010075Y017981D02*
X007785Y017981D01*
X007743Y017998D02*
X007617Y017998D01*
X007500Y017950D01*
X007410Y017860D01*
X007362Y017743D01*
X007362Y017617D01*
X007410Y017500D01*
X007500Y017410D01*
X007617Y017362D01*
X007743Y017362D01*
X007860Y017410D01*
X007950Y017500D01*
X007998Y017617D01*
X007998Y017743D01*
X007950Y017860D01*
X007860Y017950D01*
X007743Y017998D01*
X007575Y017981D02*
X001431Y017981D01*
X001344Y018457D02*
X002954Y018457D01*
X002910Y018500D02*
X003000Y018410D01*
X003117Y018362D01*
X003243Y018362D01*
X003360Y018410D01*
X003450Y018500D01*
X003498Y018617D01*
X003498Y018743D01*
X003450Y018860D01*
X003360Y018950D01*
X003243Y018998D01*
X003117Y018998D01*
X003000Y018950D01*
X002910Y018860D01*
X002862Y018743D01*
X002862Y018617D01*
X002910Y018500D01*
X002863Y018615D02*
X000820Y018615D01*
X000820Y018457D02*
X001016Y018457D01*
X000885Y018298D02*
X000820Y018298D01*
X000820Y018140D02*
X000862Y018140D01*
X000820Y017981D02*
X000929Y017981D01*
X000820Y017823D02*
X007395Y017823D01*
X007362Y017664D02*
X000820Y017664D01*
X000820Y017506D02*
X002745Y017506D01*
X002745Y017533D02*
X002745Y016827D01*
X002827Y016745D01*
X003304Y016745D01*
X004589Y015460D01*
X005025Y015460D01*
X005000Y015450D01*
X004910Y015360D01*
X004862Y015243D01*
X004862Y015117D01*
X004910Y015000D01*
X005000Y014910D01*
X005117Y014862D01*
X005243Y014862D01*
X005360Y014910D01*
X005450Y015000D01*
X005498Y015117D01*
X005498Y015243D01*
X005450Y015360D01*
X005360Y015450D01*
X005335Y015460D01*
X005845Y015460D01*
X005811Y015426D01*
X005745Y015267D01*
X005745Y015093D01*
X005811Y014934D01*
X005934Y014811D01*
X003426Y014811D01*
X003549Y014934D01*
X003615Y015093D01*
X003615Y015267D01*
X003549Y015426D01*
X003426Y015549D01*
X003267Y015615D01*
X003093Y015615D01*
X002934Y015549D01*
X002811Y015426D01*
X002745Y015267D01*
X002745Y015093D01*
X002811Y014934D01*
X002934Y014811D01*
X000820Y014811D01*
X000820Y014653D02*
X006362Y014653D01*
X006362Y014617D02*
X006383Y014567D01*
X006267Y014615D01*
X006093Y014615D01*
X005934Y014549D01*
X005811Y014426D01*
X005745Y014267D01*
X005745Y014093D01*
X005811Y013934D01*
X005934Y013811D01*
X006093Y013745D01*
X006267Y013745D01*
X006426Y013811D01*
X006549Y013934D01*
X006615Y014093D01*
X006615Y014267D01*
X006567Y014383D01*
X006617Y014362D01*
X006743Y014362D01*
X006860Y014410D01*
X006950Y014500D01*
X006998Y014617D01*
X006998Y014743D01*
X006950Y014860D01*
X006860Y014950D01*
X006743Y014998D01*
X006617Y014998D01*
X006567Y014977D01*
X006615Y015093D01*
X006615Y015267D01*
X006549Y015426D01*
X006515Y015460D01*
X008525Y015460D01*
X008500Y015450D01*
X008410Y015360D01*
X008362Y015243D01*
X008362Y015117D01*
X008410Y015000D01*
X008480Y014930D01*
X008410Y014860D01*
X008362Y014743D01*
X008362Y014617D01*
X008410Y014500D01*
X008500Y014410D01*
X008617Y014362D01*
X008743Y014362D01*
X008860Y014410D01*
X008950Y014500D01*
X008998Y014617D01*
X008998Y014743D01*
X008950Y014860D01*
X008880Y014930D01*
X008950Y015000D01*
X008998Y015117D01*
X008998Y015243D01*
X008950Y015360D01*
X008860Y015450D01*
X008835Y015460D01*
X013589Y015460D01*
X015362Y013687D01*
X015362Y013617D01*
X015410Y013500D01*
X015500Y013410D01*
X015617Y013362D01*
X015743Y013362D01*
X015860Y013410D01*
X015950Y013500D01*
X015998Y013617D01*
X015998Y013743D01*
X015950Y013860D01*
X016880Y013860D01*
X016880Y013804D02*
X013690Y010614D01*
X013690Y010781D01*
X013612Y010969D01*
X013469Y011112D01*
X013281Y011190D01*
X013079Y011190D01*
X012891Y011112D01*
X012748Y010969D01*
X012670Y010781D01*
X012670Y010579D01*
X012748Y010391D01*
X012891Y010248D01*
X013079Y010170D01*
X013246Y010170D01*
X009430Y006354D01*
X006615Y009169D01*
X006615Y009267D01*
X006567Y009383D01*
X006617Y009362D01*
X006743Y009362D01*
X006860Y009410D01*
X006950Y009500D01*
X006998Y009617D01*
X006998Y009743D01*
X006950Y009860D01*
X006860Y009950D01*
X006743Y009998D01*
X006617Y009998D01*
X006567Y009977D01*
X006615Y010093D01*
X006615Y010267D01*
X006549Y010426D01*
X006426Y010549D01*
X006267Y010615D01*
X006093Y010615D01*
X005934Y010549D01*
X005811Y010426D01*
X005745Y010267D01*
X005745Y010093D01*
X005811Y009934D01*
X005934Y009811D01*
X006093Y009745D01*
X006267Y009745D01*
X006383Y009793D01*
X006362Y009743D01*
X006362Y009617D01*
X006383Y009567D01*
X006267Y009615D01*
X006093Y009615D01*
X005934Y009549D01*
X005865Y009480D01*
X005804Y009480D01*
X003850Y011434D01*
X003740Y011480D01*
X003495Y011480D01*
X003426Y011549D01*
X003267Y011615D01*
X003093Y011615D01*
X002934Y011549D01*
X002811Y011426D01*
X002745Y011267D01*
X002745Y011093D01*
X002811Y010934D01*
X002934Y010811D01*
X003093Y010745D01*
X003267Y010745D01*
X003426Y010811D01*
X003495Y010880D01*
X003556Y010880D01*
X005426Y009010D01*
X005510Y008926D01*
X005620Y008880D01*
X005865Y008880D01*
X005934Y008811D01*
X006093Y008745D01*
X006191Y008745D01*
X006359Y008577D01*
X006267Y008615D01*
X006093Y008615D01*
X005934Y008549D01*
X005811Y008426D01*
X005745Y008267D01*
X005745Y008093D01*
X005811Y007934D01*
X005934Y007811D01*
X006093Y007745D01*
X006267Y007745D01*
X006426Y007811D01*
X006549Y007934D01*
X006615Y008093D01*
X006615Y008267D01*
X006577Y008359D01*
X009130Y005806D01*
X009130Y002804D01*
X008903Y002577D01*
X008851Y002577D01*
X008846Y002575D01*
X008021Y003400D01*
X007141Y003400D01*
X007112Y003469D01*
X006969Y003612D01*
X006781Y003690D01*
X006579Y003690D01*
X006391Y003612D01*
X006248Y003469D01*
X006170Y003281D01*
X006170Y003079D01*
X006248Y002891D01*
X006391Y002748D01*
X006579Y002670D01*
X006781Y002670D01*
X006969Y002748D01*
X007112Y002891D01*
X007141Y002960D01*
X007839Y002960D01*
X008221Y002577D01*
X008101Y002577D01*
X007955Y002517D01*
X007843Y002405D01*
X007827Y002365D01*
X007804Y002409D01*
X007764Y002465D01*
X007715Y002514D01*
X007659Y002554D01*
X007598Y002585D01*
X007532Y002607D01*
X007464Y002617D01*
X007430Y002617D01*
X007396Y002617D01*
X007328Y002607D01*
X007262Y002585D01*
X007201Y002554D01*
X007145Y002514D01*
X007096Y002465D01*
X007056Y002409D01*
X007025Y002348D01*
X007003Y002282D01*
X006993Y002214D01*
X006993Y002180D01*
X006993Y002146D01*
X007003Y002078D01*
X007025Y002012D01*
X007056Y001951D01*
X007096Y001895D01*
X007145Y001846D01*
X007201Y001806D01*
X007262Y001775D01*
X007328Y001753D01*
X007396Y001743D01*
X007430Y001743D01*
X007464Y001743D01*
X007532Y001753D01*
X007598Y001775D01*
X007659Y001806D01*
X007715Y001846D01*
X007764Y001895D01*
X007804Y001951D01*
X007827Y001995D01*
X007843Y001955D01*
X007955Y001843D01*
X008101Y001783D01*
X008259Y001783D01*
X008405Y001843D01*
X008517Y001955D01*
X008555Y002047D01*
X008593Y001955D01*
X008705Y001843D01*
X008851Y001783D01*
X009009Y001783D01*
X009155Y001843D01*
X009267Y001955D01*
X009327Y002101D01*
X009327Y002153D01*
X009554Y002380D01*
X013245Y002380D01*
X013245Y002327D01*
X013327Y002245D01*
X014033Y002245D01*
X014115Y002327D01*
X014115Y003033D01*
X014033Y003115D01*
X013327Y003115D01*
X013245Y003033D01*
X013245Y002980D01*
X012980Y002980D01*
X012980Y004759D01*
X013112Y004891D01*
X013159Y005004D01*
X013170Y004969D01*
X013210Y004892D01*
X013260Y004822D01*
X013322Y004760D01*
X013392Y004710D01*
X013469Y004670D01*
X013551Y004644D01*
X013637Y004630D01*
X013660Y004630D01*
X013660Y005160D01*
X013700Y005160D01*
X013700Y005200D01*
X014230Y005200D01*
X014230Y005223D01*
X014216Y005309D01*
X014205Y005344D01*
X014460Y005089D01*
X014460Y003615D01*
X014327Y003615D01*
X014245Y003533D01*
X014245Y002827D01*
X014327Y002745D01*
X015033Y002745D01*
X015115Y002827D01*
X015115Y003533D01*
X015033Y003615D01*
X014900Y003615D01*
X014900Y004025D01*
X014910Y004000D01*
X015000Y003910D01*
X015117Y003862D01*
X015243Y003862D01*
X015360Y003910D01*
X015450Y004000D01*
X015498Y004117D01*
X015498Y004243D01*
X015450Y004360D01*
X015360Y004450D01*
X015243Y004498D01*
X015117Y004498D01*
X015000Y004450D01*
X014910Y004360D01*
X014900Y004335D01*
X014900Y005025D01*
X014910Y005000D01*
X015000Y004910D01*
X015117Y004862D01*
X015243Y004862D01*
X015360Y004910D01*
X015450Y005000D01*
X015498Y005117D01*
X015498Y005243D01*
X015450Y005360D01*
X015360Y005450D01*
X015243Y005498D01*
X015117Y005498D01*
X015000Y005450D01*
X014910Y005360D01*
X014881Y005290D01*
X014771Y005400D01*
X013661Y006510D01*
X013690Y006579D01*
X013690Y006781D01*
X013612Y006969D01*
X013469Y007112D01*
X013281Y007190D01*
X013079Y007190D01*
X012891Y007112D01*
X012748Y006969D01*
X012670Y006781D01*
X012670Y006579D01*
X012748Y006391D01*
X012891Y006248D01*
X013079Y006170D01*
X013281Y006170D01*
X013350Y006199D01*
X013844Y005705D01*
X013809Y005716D01*
X013723Y005730D01*
X013700Y005730D01*
X013700Y005200D01*
X013660Y005200D01*
X013660Y005730D01*
X013637Y005730D01*
X013551Y005716D01*
X013469Y005690D01*
X013392Y005650D01*
X013322Y005600D01*
X013260Y005538D01*
X013210Y005468D01*
X013170Y005391D01*
X013159Y005356D01*
X013112Y005469D01*
X012969Y005612D01*
X012781Y005690D01*
X012579Y005690D01*
X012391Y005612D01*
X012248Y005469D01*
X012219Y005400D01*
X011641Y005400D01*
X011612Y005469D01*
X011469Y005612D01*
X011281Y005690D01*
X011079Y005690D01*
X010891Y005612D01*
X010748Y005469D01*
X010670Y005281D01*
X010670Y005079D01*
X010748Y004891D01*
X010891Y004748D01*
X011079Y004670D01*
X011281Y004670D01*
X011469Y004748D01*
X011612Y004891D01*
X011641Y004960D01*
X012219Y004960D01*
X012248Y004891D01*
X012380Y004759D01*
X012380Y002980D01*
X012060Y002980D01*
X012060Y003388D01*
X012018Y003430D01*
X012039Y003460D01*
X012069Y003519D01*
X012090Y003582D01*
X012100Y003647D01*
X012100Y003680D01*
X012100Y003713D01*
X012090Y003778D01*
X012069Y003841D01*
X012039Y003900D01*
X012000Y003954D01*
X011954Y004000D01*
X011900Y004039D01*
X011841Y004069D01*
X011778Y004090D01*
X011713Y004100D01*
X011680Y004100D01*
X011680Y003680D01*
X011680Y003680D01*
X012100Y003680D01*
X011680Y003680D01*
X011680Y003680D01*
X011680Y003680D01*
X011260Y003680D01*
X011260Y003713D01*
X011270Y003778D01*
X011291Y003841D01*
X011321Y003900D01*
X011360Y003954D01*
X011406Y004000D01*
X011460Y004039D01*
X011519Y004069D01*
X011582Y004090D01*
X011647Y004100D01*
X011680Y004100D01*
X011680Y003680D01*
X011260Y003680D01*
X011260Y003647D01*
X011270Y003582D01*
X011291Y003519D01*
X011321Y003460D01*
X011342Y003430D01*
X011300Y003388D01*
X011300Y002980D01*
X009730Y002980D01*
X009730Y005806D01*
X010630Y006706D01*
X010630Y006689D01*
X011171Y006689D01*
X011171Y007230D01*
X011154Y007230D01*
X017350Y013426D01*
X017434Y013510D01*
X017480Y013620D01*
X017480Y014430D01*
X017500Y014410D01*
X017617Y014362D01*
X017743Y014362D01*
X017860Y014410D01*
X017950Y014500D01*
X017998Y014617D01*
X017998Y014743D01*
X017950Y014860D01*
X017860Y014950D01*
X017743Y014998D01*
X017617Y014998D01*
X017500Y014950D01*
X017480Y014930D01*
X017480Y015430D01*
X017500Y015410D01*
X017617Y015362D01*
X017743Y015362D01*
X017860Y015410D01*
X017950Y015500D01*
X017998Y015617D01*
X017998Y015743D01*
X017950Y015860D01*
X017860Y015950D01*
X017743Y015998D01*
X017617Y015998D01*
X017500Y015950D01*
X017480Y015930D01*
X017480Y016430D01*
X017500Y016410D01*
X017617Y016362D01*
X017743Y016362D01*
X017860Y016410D01*
X017950Y016500D01*
X017998Y016617D01*
X017998Y016743D01*
X017950Y016860D01*
X017860Y016950D01*
X017743Y016998D01*
X017617Y016998D01*
X017500Y016950D01*
X017480Y016930D01*
X017480Y018259D01*
X017612Y018391D01*
X017659Y018504D01*
X017670Y018469D01*
X017710Y018392D01*
X017760Y018322D01*
X017822Y018260D01*
X017892Y018210D01*
X017969Y018170D01*
X018051Y018144D01*
X018137Y018130D01*
X018160Y018130D01*
X018160Y018660D01*
X018200Y018660D01*
X018200Y018700D01*
X018160Y018700D01*
X018160Y019230D01*
X018137Y019230D01*
X018051Y019216D01*
X017969Y019190D01*
X017892Y019150D01*
X017822Y019100D01*
X017760Y019038D01*
X017710Y018968D01*
X017670Y018891D01*
X017659Y018856D01*
X017612Y018969D01*
X017469Y019112D01*
X017281Y019190D01*
X017079Y019190D01*
X016891Y019112D01*
X016748Y018969D01*
X016670Y018781D01*
X016670Y018579D01*
X016748Y018391D01*
X016880Y018259D01*
X016880Y013804D01*
X016777Y013702D02*
X015998Y013702D01*
X015968Y013543D02*
X016619Y013543D01*
X016460Y013385D02*
X015798Y013385D01*
X015562Y013385D02*
X014425Y013385D01*
X014450Y013360D02*
X014360Y013450D01*
X014243Y013498D01*
X014117Y013498D01*
X014000Y013450D01*
X013910Y013360D01*
X013862Y013243D01*
X013862Y013117D01*
X013910Y013000D01*
X014000Y012910D01*
X014117Y012862D01*
X014243Y012862D01*
X014360Y012910D01*
X014450Y013000D01*
X014498Y013117D01*
X014498Y013243D01*
X014450Y013360D01*
X014498Y013226D02*
X016302Y013226D01*
X016143Y013068D02*
X014478Y013068D01*
X014357Y012909D02*
X015985Y012909D01*
X015826Y012751D02*
X012495Y012751D01*
X012498Y012743D02*
X012450Y012860D01*
X012360Y012950D01*
X012243Y012998D01*
X012117Y012998D01*
X012000Y012950D01*
X011910Y012860D01*
X011862Y012743D01*
X011862Y012617D01*
X011910Y012500D01*
X012000Y012410D01*
X012117Y012362D01*
X012243Y012362D01*
X012360Y012410D01*
X012450Y012500D01*
X012498Y012617D01*
X012498Y012743D01*
X012488Y012592D02*
X015668Y012592D01*
X015509Y012434D02*
X012383Y012434D01*
X011977Y012434D02*
X009238Y012434D01*
X009079Y012592D02*
X011872Y012592D01*
X011865Y012751D02*
X008921Y012751D01*
X008762Y012909D02*
X011959Y012909D01*
X012401Y012909D02*
X014003Y012909D01*
X013882Y013068D02*
X008604Y013068D01*
X008445Y013226D02*
X013862Y013226D01*
X013935Y013385D02*
X008287Y013385D01*
X008161Y013510D02*
X008190Y013579D01*
X008190Y013781D01*
X008112Y013969D01*
X007969Y014112D01*
X007856Y014159D01*
X007891Y014170D01*
X007968Y014210D01*
X008038Y014260D01*
X008100Y014322D01*
X008150Y014392D01*
X008190Y014469D01*
X008216Y014551D01*
X008230Y014637D01*
X008230Y014660D01*
X007700Y014660D01*
X007700Y014700D01*
X008230Y014700D01*
X008230Y014723D01*
X008216Y014809D01*
X008190Y014891D01*
X008150Y014968D01*
X008100Y015038D01*
X008038Y015100D01*
X007968Y015150D01*
X007891Y015190D01*
X007809Y015216D01*
X007723Y015230D01*
X007700Y015230D01*
X007700Y014700D01*
X007660Y014700D01*
X007660Y015230D01*
X007637Y015230D01*
X007551Y015216D01*
X007469Y015190D01*
X007392Y015150D01*
X007322Y015100D01*
X007260Y015038D01*
X007210Y014968D01*
X007170Y014891D01*
X007144Y014809D01*
X007130Y014723D01*
X007130Y014700D01*
X007660Y014700D01*
X007660Y014660D01*
X007130Y014660D01*
X007130Y014637D01*
X007144Y014551D01*
X007170Y014469D01*
X007210Y014392D01*
X007260Y014322D01*
X007322Y014260D01*
X007392Y014210D01*
X007469Y014170D01*
X007504Y014159D01*
X007391Y014112D01*
X007248Y013969D01*
X007170Y013781D01*
X007170Y013579D01*
X007248Y013391D01*
X007391Y013248D01*
X007579Y013170D01*
X007781Y013170D01*
X007850Y013199D01*
X010460Y010589D01*
X010589Y010460D01*
X010719Y010460D01*
X010748Y010391D01*
X010891Y010248D01*
X011079Y010170D01*
X011281Y010170D01*
X011469Y010248D01*
X011612Y010391D01*
X011690Y010579D01*
X011690Y010781D01*
X011612Y010969D01*
X011469Y011112D01*
X011281Y011190D01*
X011079Y011190D01*
X010891Y011112D01*
X010748Y010969D01*
X010734Y010937D01*
X008161Y013510D01*
X008175Y013543D02*
X015392Y013543D01*
X015347Y013702D02*
X008190Y013702D01*
X008157Y013860D02*
X015189Y013860D01*
X015030Y014019D02*
X013457Y014019D01*
X013450Y014000D02*
X013498Y014117D01*
X013498Y014243D01*
X013450Y014360D01*
X013360Y014450D01*
X013243Y014498D01*
X013117Y014498D01*
X013000Y014450D01*
X012910Y014360D01*
X012862Y014243D01*
X012862Y014117D01*
X012910Y014000D01*
X013000Y013910D01*
X013117Y013862D01*
X013243Y013862D01*
X013360Y013910D01*
X013450Y014000D01*
X013498Y014177D02*
X014872Y014177D01*
X014713Y014336D02*
X013460Y014336D01*
X013253Y014494D02*
X014555Y014494D01*
X014396Y014653D02*
X008998Y014653D01*
X008970Y014811D02*
X014238Y014811D01*
X014079Y014970D02*
X008919Y014970D01*
X008998Y015128D02*
X013921Y015128D01*
X013762Y015287D02*
X008980Y015287D01*
X008865Y015445D02*
X013604Y015445D01*
X013680Y015680D02*
X004680Y015680D01*
X003180Y017180D01*
X003615Y017189D02*
X005745Y017189D01*
X005745Y017267D02*
X005745Y017093D01*
X005811Y016934D01*
X005934Y016811D01*
X006093Y016745D01*
X006267Y016745D01*
X006426Y016811D01*
X006549Y016934D01*
X006615Y017093D01*
X006615Y017267D01*
X006549Y017426D01*
X006426Y017549D01*
X006267Y017615D01*
X006093Y017615D01*
X005934Y017549D01*
X005811Y017426D01*
X005745Y017267D01*
X005778Y017347D02*
X003615Y017347D01*
X003615Y017506D02*
X005890Y017506D01*
X005771Y017030D02*
X003641Y017030D01*
X003615Y017056D02*
X003881Y016790D01*
X003910Y016860D01*
X004000Y016950D01*
X004117Y016998D01*
X004243Y016998D01*
X004360Y016950D01*
X004450Y016860D01*
X004498Y016743D01*
X004498Y016617D01*
X004450Y016500D01*
X004360Y016410D01*
X004290Y016381D01*
X004771Y015900D01*
X005845Y015900D01*
X005811Y015934D01*
X005745Y016093D01*
X005745Y016267D01*
X005811Y016426D01*
X005934Y016549D01*
X006093Y016615D01*
X006267Y016615D01*
X006426Y016549D01*
X006549Y016426D01*
X006615Y016267D01*
X006615Y016093D01*
X006549Y015934D01*
X006515Y015900D01*
X010025Y015900D01*
X010000Y015910D01*
X009910Y016000D01*
X009862Y016117D01*
X009862Y016243D01*
X009910Y016360D01*
X010000Y016450D01*
X010117Y016498D01*
X010243Y016498D01*
X010360Y016450D01*
X010450Y016360D01*
X010498Y016243D01*
X010498Y016117D01*
X010450Y016000D01*
X010360Y015910D01*
X010335Y015900D01*
X012025Y015900D01*
X012000Y015910D01*
X011910Y016000D01*
X011862Y016117D01*
X011862Y016243D01*
X011910Y016360D01*
X012000Y016450D01*
X012117Y016498D01*
X012243Y016498D01*
X012360Y016450D01*
X012450Y016360D01*
X012498Y016243D01*
X012498Y016117D01*
X012450Y016000D01*
X012360Y015910D01*
X012335Y015900D01*
X013771Y015900D01*
X013900Y015771D01*
X015673Y013998D01*
X015743Y013998D01*
X015860Y013950D01*
X015950Y013860D01*
X015680Y013680D02*
X013680Y015680D01*
X013909Y015762D02*
X014870Y015762D01*
X014862Y015743D02*
X014862Y015617D01*
X014910Y015500D01*
X015000Y015410D01*
X015117Y015362D01*
X015243Y015362D01*
X015360Y015410D01*
X015450Y015500D01*
X015498Y015617D01*
X015498Y015743D01*
X015450Y015860D01*
X015360Y015950D01*
X015243Y015998D01*
X015117Y015998D01*
X015000Y015950D01*
X014910Y015860D01*
X014862Y015743D01*
X014867Y015604D02*
X014068Y015604D01*
X014226Y015445D02*
X014965Y015445D01*
X015395Y015445D02*
X015965Y015445D01*
X016000Y015410D02*
X016117Y015362D01*
X016243Y015362D01*
X016360Y015410D01*
X016450Y015500D01*
X016498Y015617D01*
X016498Y015743D01*
X016450Y015860D01*
X016360Y015950D01*
X016243Y015998D01*
X016117Y015998D01*
X016000Y015950D01*
X015910Y015860D01*
X015862Y015743D01*
X015862Y015617D01*
X015910Y015500D01*
X016000Y015410D01*
X015867Y015604D02*
X015493Y015604D01*
X015490Y015762D02*
X015870Y015762D01*
X015971Y015921D02*
X015389Y015921D01*
X014971Y015921D02*
X014370Y015921D01*
X014360Y015910D02*
X014450Y016000D01*
X014498Y016117D01*
X014498Y016243D01*
X014450Y016360D01*
X014360Y016450D01*
X014243Y016498D01*
X014117Y016498D01*
X014000Y016450D01*
X013910Y016360D01*
X013862Y016243D01*
X013862Y016117D01*
X013910Y016000D01*
X014000Y015910D01*
X014117Y015862D01*
X014243Y015862D01*
X014360Y015910D01*
X014482Y016079D02*
X016880Y016079D01*
X016880Y015921D02*
X016389Y015921D01*
X016490Y015762D02*
X016880Y015762D01*
X016880Y015604D02*
X016493Y015604D01*
X016395Y015445D02*
X016880Y015445D01*
X016880Y015287D02*
X014385Y015287D01*
X014543Y015128D02*
X016880Y015128D01*
X016880Y014970D02*
X016312Y014970D01*
X016360Y014950D02*
X016243Y014998D01*
X016117Y014998D01*
X016000Y014950D01*
X015910Y014860D01*
X015862Y014743D01*
X015862Y014617D01*
X015910Y014500D01*
X016000Y014410D01*
X016117Y014362D01*
X016243Y014362D01*
X016360Y014410D01*
X016450Y014500D01*
X016498Y014617D01*
X016498Y014743D01*
X016450Y014860D01*
X016360Y014950D01*
X016470Y014811D02*
X016880Y014811D01*
X016880Y014653D02*
X016498Y014653D01*
X016444Y014494D02*
X016880Y014494D01*
X016880Y014336D02*
X015336Y014336D01*
X015177Y014494D02*
X015916Y014494D01*
X015862Y014653D02*
X015019Y014653D01*
X014860Y014811D02*
X015890Y014811D01*
X016048Y014970D02*
X014702Y014970D01*
X015494Y014177D02*
X016880Y014177D01*
X016880Y014019D02*
X015653Y014019D01*
X016833Y012909D02*
X017503Y012909D01*
X017500Y012910D02*
X017617Y012862D01*
X017743Y012862D01*
X017860Y012910D01*
X017950Y013000D01*
X017998Y013117D01*
X017998Y013243D01*
X017950Y013360D01*
X017860Y013450D01*
X017743Y013498D01*
X017617Y013498D01*
X017500Y013450D01*
X017410Y013360D01*
X017362Y013243D01*
X017362Y013117D01*
X017410Y013000D01*
X017500Y012910D01*
X017382Y013068D02*
X016992Y013068D01*
X017150Y013226D02*
X017362Y013226D01*
X017309Y013385D02*
X017435Y013385D01*
X017448Y013543D02*
X019392Y013543D01*
X019410Y013500D02*
X019500Y013410D01*
X019617Y013362D01*
X019743Y013362D01*
X019860Y013410D01*
X019950Y013500D01*
X019998Y013617D01*
X019998Y013743D01*
X019950Y013860D01*
X020032Y013860D01*
X019950Y013860D02*
X019860Y013950D01*
X019743Y013998D01*
X019617Y013998D01*
X019500Y013950D01*
X019410Y013860D01*
X017480Y013860D01*
X017480Y013702D02*
X019362Y013702D01*
X019362Y013743D02*
X019362Y013617D01*
X019410Y013500D01*
X019562Y013385D02*
X017925Y013385D01*
X017998Y013226D02*
X020032Y013226D01*
X020032Y013068D02*
X017978Y013068D01*
X017857Y012909D02*
X019459Y012909D01*
X019500Y012950D02*
X019410Y012860D01*
X019362Y012743D01*
X019362Y012617D01*
X019410Y012500D01*
X019500Y012410D01*
X019617Y012362D01*
X019743Y012362D01*
X019860Y012410D01*
X019950Y012500D01*
X019998Y012617D01*
X019998Y012743D01*
X019950Y012860D01*
X019860Y012950D01*
X019743Y012998D01*
X019617Y012998D01*
X019500Y012950D01*
X019365Y012751D02*
X016675Y012751D01*
X016516Y012592D02*
X019372Y012592D01*
X019477Y012434D02*
X017376Y012434D01*
X017360Y012450D02*
X017243Y012498D01*
X017117Y012498D01*
X017000Y012450D01*
X016910Y012360D01*
X016862Y012243D01*
X016862Y012117D01*
X016910Y012000D01*
X017000Y011910D01*
X017117Y011862D01*
X017187Y011862D01*
X017960Y011089D01*
X017960Y009181D01*
X017708Y008930D01*
X017408Y009230D01*
X017200Y009230D01*
X017200Y008700D01*
X017160Y008700D01*
X017160Y009230D01*
X016952Y009230D01*
X016630Y008908D01*
X016630Y008700D01*
X017160Y008700D01*
X017160Y008660D01*
X016630Y008660D01*
X016630Y008452D01*
X016952Y008130D01*
X017009Y008130D01*
X016779Y007900D01*
X015410Y007900D01*
X015360Y007950D01*
X015243Y007998D01*
X015117Y007998D01*
X015000Y007950D01*
X014910Y007860D01*
X014862Y007743D01*
X014862Y007617D01*
X014910Y007500D01*
X015000Y007410D01*
X015117Y007362D01*
X015243Y007362D01*
X015360Y007410D01*
X015410Y007460D01*
X016779Y007460D01*
X017049Y007190D01*
X016969Y007190D01*
X016670Y006891D01*
X016670Y006469D01*
X016969Y006170D01*
X017391Y006170D01*
X017680Y006459D01*
X017969Y006170D01*
X018391Y006170D01*
X018690Y006469D01*
X018690Y006891D01*
X018411Y007170D01*
X018491Y007170D01*
X018790Y007469D01*
X018790Y007891D01*
X018491Y008190D01*
X018411Y008190D01*
X018690Y008469D01*
X018690Y008891D01*
X018400Y009181D01*
X018400Y010525D01*
X018410Y010500D01*
X018500Y010410D01*
X018617Y010362D01*
X018743Y010362D01*
X018860Y010410D01*
X018950Y010500D01*
X018998Y010617D01*
X018998Y010743D01*
X018950Y010860D01*
X018860Y010950D01*
X018743Y010998D01*
X018617Y010998D01*
X018500Y010950D01*
X018410Y010860D01*
X018400Y010835D01*
X018400Y011271D01*
X017498Y012173D01*
X017498Y012243D01*
X017450Y012360D01*
X017360Y012450D01*
X017485Y012275D02*
X020032Y012275D01*
X020032Y012117D02*
X017555Y012117D01*
X017713Y011958D02*
X019520Y011958D01*
X019500Y011950D02*
X019410Y011860D01*
X019362Y011743D01*
X019362Y011617D01*
X019410Y011500D01*
X019500Y011410D01*
X019617Y011362D01*
X019743Y011362D01*
X019860Y011410D01*
X019950Y011500D01*
X019998Y011617D01*
X019998Y011743D01*
X019950Y011860D01*
X019860Y011950D01*
X019743Y011998D01*
X019617Y011998D01*
X019500Y011950D01*
X019385Y011800D02*
X017872Y011800D01*
X018030Y011641D02*
X019362Y011641D01*
X019428Y011483D02*
X018189Y011483D01*
X018347Y011324D02*
X020032Y011324D01*
X020032Y011166D02*
X018400Y011166D01*
X018400Y011007D02*
X020032Y011007D01*
X020032Y010849D02*
X019955Y010849D01*
X019950Y010860D02*
X019860Y010950D01*
X019743Y010998D01*
X019617Y010998D01*
X019500Y010950D01*
X019410Y010860D01*
X019362Y010743D01*
X019362Y010617D01*
X019410Y010500D01*
X019500Y010410D01*
X019617Y010362D01*
X019743Y010362D01*
X019860Y010410D01*
X019950Y010500D01*
X019998Y010617D01*
X019998Y010743D01*
X019950Y010860D01*
X019998Y010690D02*
X020032Y010690D01*
X020032Y010532D02*
X019963Y010532D01*
X020032Y010373D02*
X019770Y010373D01*
X019590Y010373D02*
X018770Y010373D01*
X018590Y010373D02*
X018400Y010373D01*
X018400Y010215D02*
X020032Y010215D01*
X020032Y010056D02*
X018400Y010056D01*
X018400Y009898D02*
X019448Y009898D01*
X019410Y009860D02*
X019500Y009950D01*
X019617Y009998D01*
X019743Y009998D01*
X019860Y009950D01*
X019950Y009860D01*
X019998Y009743D01*
X019998Y009617D01*
X019950Y009500D01*
X019860Y009410D01*
X019743Y009362D01*
X019617Y009362D01*
X019500Y009410D01*
X019410Y009500D01*
X019362Y009617D01*
X019362Y009743D01*
X019410Y009860D01*
X019362Y009739D02*
X018400Y009739D01*
X018400Y009581D02*
X019377Y009581D01*
X019488Y009422D02*
X018400Y009422D01*
X018400Y009264D02*
X020032Y009264D01*
X020032Y009422D02*
X019872Y009422D01*
X019983Y009581D02*
X020032Y009581D01*
X020032Y009739D02*
X019998Y009739D01*
X020032Y009898D02*
X019912Y009898D01*
X019397Y010532D02*
X018963Y010532D01*
X018998Y010690D02*
X019362Y010690D01*
X019405Y010849D02*
X018955Y010849D01*
X018405Y010849D02*
X018400Y010849D01*
X018180Y011180D02*
X017180Y012180D01*
X016875Y012275D02*
X016199Y012275D01*
X016041Y012117D02*
X016862Y012117D01*
X016952Y011958D02*
X016340Y011958D01*
X016360Y011950D02*
X016243Y011998D01*
X016117Y011998D01*
X016000Y011950D01*
X015910Y011860D01*
X015862Y011743D01*
X015862Y011617D01*
X015910Y011500D01*
X016000Y011410D01*
X016117Y011362D01*
X016243Y011362D01*
X016360Y011410D01*
X016450Y011500D01*
X016498Y011617D01*
X016498Y011743D01*
X016450Y011860D01*
X016360Y011950D01*
X016475Y011800D02*
X017249Y011800D01*
X017408Y011641D02*
X016498Y011641D01*
X016432Y011483D02*
X017566Y011483D01*
X017725Y011324D02*
X015248Y011324D01*
X015090Y011166D02*
X017883Y011166D01*
X017960Y011007D02*
X014931Y011007D01*
X014773Y010849D02*
X017960Y010849D01*
X017960Y010690D02*
X014614Y010690D01*
X014456Y010532D02*
X017960Y010532D01*
X017960Y010373D02*
X017437Y010373D01*
X017450Y010360D02*
X017360Y010450D01*
X017243Y010498D01*
X017117Y010498D01*
X017000Y010450D01*
X016910Y010360D01*
X016862Y010243D01*
X016862Y010117D01*
X016910Y010000D01*
X017000Y009910D01*
X017117Y009862D01*
X017243Y009862D01*
X017360Y009910D01*
X017450Y010000D01*
X017498Y010117D01*
X017498Y010243D01*
X017450Y010360D01*
X017498Y010215D02*
X017960Y010215D01*
X017960Y010056D02*
X017473Y010056D01*
X017329Y009898D02*
X017960Y009898D01*
X017960Y009739D02*
X014498Y009739D01*
X014498Y009743D02*
X014450Y009860D01*
X014360Y009950D01*
X014243Y009998D01*
X014117Y009998D01*
X014000Y009950D01*
X013910Y009860D01*
X013862Y009743D01*
X013862Y009617D01*
X013910Y009500D01*
X014000Y009410D01*
X014117Y009362D01*
X014243Y009362D01*
X014360Y009410D01*
X014450Y009500D01*
X014498Y009617D01*
X014498Y009743D01*
X014483Y009581D02*
X017960Y009581D01*
X017960Y009422D02*
X014372Y009422D01*
X013988Y009422D02*
X013346Y009422D01*
X013188Y009264D02*
X017960Y009264D01*
X017884Y009105D02*
X017533Y009105D01*
X017691Y008947D02*
X017725Y008947D01*
X017200Y008947D02*
X017160Y008947D01*
X017160Y009105D02*
X017200Y009105D01*
X017200Y008788D02*
X017160Y008788D01*
X016827Y009105D02*
X013029Y009105D01*
X012871Y008947D02*
X013997Y008947D01*
X014000Y008950D02*
X013910Y008860D01*
X013862Y008743D01*
X013862Y008617D01*
X013910Y008500D01*
X014000Y008410D01*
X014117Y008362D01*
X014243Y008362D01*
X014360Y008410D01*
X014450Y008500D01*
X014498Y008617D01*
X014498Y008743D01*
X014450Y008860D01*
X014360Y008950D01*
X014243Y008998D01*
X014117Y008998D01*
X014000Y008950D01*
X013880Y008788D02*
X012712Y008788D01*
X012554Y008630D02*
X013862Y008630D01*
X013939Y008471D02*
X012395Y008471D01*
X012237Y008313D02*
X016770Y008313D01*
X016630Y008471D02*
X015921Y008471D01*
X015950Y008500D02*
X015998Y008617D01*
X015998Y008743D01*
X015950Y008860D01*
X015860Y008950D01*
X015743Y008998D01*
X015617Y008998D01*
X015500Y008950D01*
X015410Y008860D01*
X015362Y008743D01*
X015362Y008617D01*
X015410Y008500D01*
X015500Y008410D01*
X015617Y008362D01*
X015743Y008362D01*
X015860Y008410D01*
X015950Y008500D01*
X015998Y008630D02*
X016630Y008630D01*
X016630Y008788D02*
X015980Y008788D01*
X015863Y008947D02*
X016669Y008947D01*
X016928Y008154D02*
X012078Y008154D01*
X012117Y007998D02*
X012000Y007950D01*
X011910Y007860D01*
X011862Y007743D01*
X011862Y007617D01*
X011910Y007500D01*
X012000Y007410D01*
X012117Y007362D01*
X012243Y007362D01*
X012360Y007410D01*
X012450Y007500D01*
X012498Y007617D01*
X012498Y007743D01*
X012450Y007860D01*
X012360Y007950D01*
X012243Y007998D01*
X012117Y007998D01*
X012110Y007996D02*
X011920Y007996D01*
X011901Y007837D02*
X011761Y007837D01*
X011862Y007679D02*
X011603Y007679D01*
X011444Y007520D02*
X011902Y007520D01*
X011538Y007100D02*
X011468Y007150D01*
X011391Y007190D01*
X011309Y007216D01*
X011223Y007230D01*
X011189Y007230D01*
X011189Y006689D01*
X011171Y006689D01*
X011171Y006671D01*
X011189Y006671D01*
X011189Y006689D01*
X011730Y006689D01*
X011730Y006723D01*
X011716Y006809D01*
X011690Y006891D01*
X011650Y006968D01*
X011600Y007038D01*
X011538Y007100D01*
X011593Y007045D02*
X012823Y007045D01*
X012713Y006886D02*
X011691Y006886D01*
X011729Y006728D02*
X012670Y006728D01*
X012674Y006569D02*
X011719Y006569D01*
X011716Y006551D02*
X011730Y006637D01*
X011730Y006671D01*
X011189Y006671D01*
X011189Y006130D01*
X011223Y006130D01*
X011309Y006144D01*
X011391Y006170D01*
X011468Y006210D01*
X011538Y006260D01*
X011600Y006322D01*
X011650Y006392D01*
X011690Y006469D01*
X011716Y006551D01*
X011660Y006411D02*
X011961Y006411D01*
X012000Y006450D02*
X011910Y006360D01*
X011862Y006243D01*
X011862Y006117D01*
X011910Y006000D01*
X012000Y005910D01*
X012117Y005862D01*
X012243Y005862D01*
X012360Y005910D01*
X012450Y006000D01*
X012498Y006117D01*
X012498Y006243D01*
X012450Y006360D01*
X012360Y006450D01*
X012243Y006498D01*
X012117Y006498D01*
X012000Y006450D01*
X011866Y006252D02*
X011527Y006252D01*
X011189Y006252D02*
X011171Y006252D01*
X011171Y006130D02*
X011171Y006671D01*
X010630Y006671D01*
X010630Y006637D01*
X010644Y006551D01*
X010670Y006469D01*
X010710Y006392D01*
X010760Y006322D01*
X010822Y006260D01*
X010892Y006210D01*
X010969Y006170D01*
X011051Y006144D01*
X011137Y006130D01*
X011171Y006130D01*
X011171Y006411D02*
X011189Y006411D01*
X011189Y006569D02*
X011171Y006569D01*
X011171Y006728D02*
X011189Y006728D01*
X011189Y006886D02*
X011171Y006886D01*
X011171Y007045D02*
X011189Y007045D01*
X011189Y007203D02*
X011171Y007203D01*
X011350Y007203D02*
X017036Y007203D01*
X016877Y007362D02*
X011286Y007362D01*
X010913Y007837D02*
X010459Y007837D01*
X010450Y007860D02*
X010360Y007950D01*
X010243Y007998D01*
X010117Y007998D01*
X010000Y007950D01*
X009910Y007860D01*
X009862Y007743D01*
X009862Y007617D01*
X009910Y007500D01*
X010000Y007410D01*
X010117Y007362D01*
X010243Y007362D01*
X010360Y007410D01*
X010450Y007500D01*
X010498Y007617D01*
X010498Y007743D01*
X010450Y007860D01*
X010498Y007679D02*
X010754Y007679D01*
X010596Y007520D02*
X010458Y007520D01*
X010437Y007362D02*
X009448Y007362D01*
X009450Y007360D02*
X009360Y007450D01*
X009243Y007498D01*
X009117Y007498D01*
X009000Y007450D01*
X008910Y007360D01*
X008862Y007243D01*
X008862Y007117D01*
X008910Y007000D01*
X009000Y006910D01*
X009117Y006862D01*
X009243Y006862D01*
X009360Y006910D01*
X009450Y007000D01*
X009498Y007117D01*
X009498Y007243D01*
X009450Y007360D01*
X009498Y007203D02*
X010279Y007203D01*
X010120Y007045D02*
X009468Y007045D01*
X009302Y006886D02*
X009962Y006886D01*
X009803Y006728D02*
X009057Y006728D01*
X009058Y006886D02*
X008898Y006886D01*
X008892Y007045D02*
X008740Y007045D01*
X008862Y007203D02*
X008581Y007203D01*
X008423Y007362D02*
X008912Y007362D01*
X008264Y007520D02*
X009902Y007520D01*
X009862Y007679D02*
X008106Y007679D01*
X007947Y007837D02*
X009901Y007837D01*
X010110Y007996D02*
X007789Y007996D01*
X007630Y008154D02*
X011230Y008154D01*
X011388Y008313D02*
X007472Y008313D01*
X007313Y008471D02*
X010439Y008471D01*
X010410Y008500D02*
X010500Y008410D01*
X010617Y008362D01*
X010743Y008362D01*
X010860Y008410D01*
X010950Y008500D01*
X010998Y008617D01*
X010998Y008743D01*
X010950Y008860D01*
X010860Y008950D01*
X010743Y008998D01*
X010617Y008998D01*
X010500Y008950D01*
X010410Y008860D01*
X010362Y008743D01*
X010362Y008617D01*
X010410Y008500D01*
X010362Y008630D02*
X007155Y008630D01*
X006996Y008788D02*
X010380Y008788D01*
X010497Y008947D02*
X006838Y008947D01*
X006679Y009105D02*
X011367Y009105D01*
X011362Y009117D02*
X011410Y009000D01*
X011500Y008910D01*
X011617Y008862D01*
X011743Y008862D01*
X011860Y008910D01*
X011950Y009000D01*
X011998Y009117D01*
X011998Y009243D01*
X011950Y009360D01*
X011860Y009450D01*
X011743Y009498D01*
X011617Y009498D01*
X011500Y009450D01*
X011410Y009360D01*
X011362Y009243D01*
X011362Y009117D01*
X011370Y009264D02*
X006615Y009264D01*
X006377Y009581D02*
X006350Y009581D01*
X006362Y009739D02*
X005545Y009739D01*
X005387Y009898D02*
X005847Y009898D01*
X005761Y010056D02*
X005228Y010056D01*
X005070Y010215D02*
X005745Y010215D01*
X005789Y010373D02*
X005270Y010373D01*
X005243Y010362D02*
X005360Y010410D01*
X005450Y010500D01*
X005498Y010617D01*
X005498Y010743D01*
X005450Y010860D01*
X005360Y010950D01*
X005243Y010998D01*
X005117Y010998D01*
X005000Y010950D01*
X004910Y010860D01*
X004862Y010743D01*
X004862Y010617D01*
X004910Y010500D01*
X005000Y010410D01*
X005117Y010362D01*
X005243Y010362D01*
X005090Y010373D02*
X004911Y010373D01*
X004897Y010532D02*
X004753Y010532D01*
X004862Y010690D02*
X004594Y010690D01*
X004436Y010849D02*
X004905Y010849D01*
X004277Y011007D02*
X005737Y011007D01*
X005740Y010998D02*
X005774Y010931D01*
X005818Y010871D01*
X005871Y010818D01*
X005931Y010774D01*
X005998Y010740D01*
X006069Y010717D01*
X006143Y010705D01*
X006162Y010705D01*
X006162Y011162D01*
X006198Y011162D01*
X006198Y011198D01*
X006655Y011198D01*
X006655Y011217D01*
X006643Y011291D01*
X006620Y011362D01*
X006743Y011362D01*
X006860Y011410D01*
X006950Y011500D01*
X006998Y011617D01*
X006998Y011743D01*
X006950Y011860D01*
X006860Y011950D01*
X006743Y011998D01*
X006617Y011998D01*
X006567Y011977D01*
X006615Y012093D01*
X006615Y012267D01*
X006549Y012426D01*
X006426Y012549D01*
X006267Y012615D01*
X006093Y012615D01*
X005934Y012549D01*
X005811Y012426D01*
X005745Y012267D01*
X005745Y012093D01*
X005811Y011934D01*
X005934Y011811D01*
X006093Y011745D01*
X006267Y011745D01*
X006383Y011793D01*
X006362Y011743D01*
X006362Y011620D01*
X006291Y011643D01*
X006217Y011655D01*
X006198Y011655D01*
X006198Y011198D01*
X006162Y011198D01*
X006162Y011655D01*
X006143Y011655D01*
X006069Y011643D01*
X005998Y011620D01*
X005931Y011586D01*
X005871Y011542D01*
X005818Y011489D01*
X005774Y011429D01*
X005740Y011362D01*
X005717Y011291D01*
X005705Y011217D01*
X005705Y011198D01*
X006162Y011198D01*
X006162Y011162D01*
X005705Y011162D01*
X005705Y011143D01*
X005717Y011069D01*
X005740Y010998D01*
X005840Y010849D02*
X005455Y010849D01*
X005498Y010690D02*
X007530Y010690D01*
X007579Y010670D02*
X007781Y010670D01*
X007969Y010748D01*
X008112Y010891D01*
X008190Y011079D01*
X008190Y011281D01*
X008112Y011469D01*
X007969Y011612D01*
X007856Y011659D01*
X007891Y011670D01*
X007968Y011710D01*
X008038Y011760D01*
X008100Y011822D01*
X008150Y011892D01*
X008190Y011969D01*
X008216Y012051D01*
X008230Y012137D01*
X008230Y012160D01*
X007700Y012160D01*
X007700Y012200D01*
X008230Y012200D01*
X008230Y012223D01*
X008216Y012309D01*
X008190Y012391D01*
X008150Y012468D01*
X008100Y012538D01*
X008038Y012600D01*
X007968Y012650D01*
X007891Y012690D01*
X007809Y012716D01*
X007723Y012730D01*
X007700Y012730D01*
X007700Y012200D01*
X007660Y012200D01*
X007660Y012730D01*
X007637Y012730D01*
X007551Y012716D01*
X007469Y012690D01*
X007392Y012650D01*
X007322Y012600D01*
X007260Y012538D01*
X007210Y012468D01*
X007170Y012391D01*
X007144Y012309D01*
X007130Y012223D01*
X007130Y012200D01*
X007660Y012200D01*
X007660Y012160D01*
X007130Y012160D01*
X007130Y012137D01*
X007144Y012051D01*
X007170Y011969D01*
X007210Y011892D01*
X007260Y011822D01*
X007322Y011760D01*
X007392Y011710D01*
X007469Y011670D01*
X007504Y011659D01*
X007391Y011612D01*
X007248Y011469D01*
X007170Y011281D01*
X007170Y011079D01*
X007248Y010891D01*
X007391Y010748D01*
X007579Y010670D01*
X007830Y010690D02*
X010359Y010690D01*
X010517Y010532D02*
X006444Y010532D01*
X006571Y010373D02*
X010766Y010373D01*
X010971Y010215D02*
X006615Y010215D01*
X006599Y010056D02*
X011887Y010056D01*
X011910Y010000D02*
X011862Y010117D01*
X011862Y010243D01*
X011910Y010360D01*
X012000Y010450D01*
X012117Y010498D01*
X012243Y010498D01*
X012360Y010450D01*
X012450Y010360D01*
X012498Y010243D01*
X012498Y010117D01*
X012450Y010000D01*
X012360Y009910D01*
X012243Y009862D01*
X012117Y009862D01*
X012000Y009910D01*
X011910Y010000D01*
X012031Y009898D02*
X006912Y009898D01*
X006998Y009739D02*
X012815Y009739D01*
X012973Y009898D02*
X012329Y009898D01*
X012473Y010056D02*
X013132Y010056D01*
X012971Y010215D02*
X012498Y010215D01*
X012437Y010373D02*
X012766Y010373D01*
X012689Y010532D02*
X011671Y010532D01*
X011690Y010690D02*
X012670Y010690D01*
X012698Y010849D02*
X011662Y010849D01*
X011574Y011007D02*
X012786Y011007D01*
X013019Y011166D02*
X011341Y011166D01*
X011019Y011166D02*
X010506Y011166D01*
X010347Y011324D02*
X014400Y011324D01*
X014558Y011483D02*
X013432Y011483D01*
X013450Y011500D02*
X013498Y011617D01*
X013498Y011743D01*
X013450Y011860D01*
X013360Y011950D01*
X013243Y011998D01*
X013117Y011998D01*
X013000Y011950D01*
X012910Y011860D01*
X012862Y011743D01*
X012862Y011617D01*
X012910Y011500D01*
X013000Y011410D01*
X013117Y011362D01*
X013243Y011362D01*
X013360Y011410D01*
X013450Y011500D01*
X013498Y011641D02*
X014717Y011641D01*
X014875Y011800D02*
X013475Y011800D01*
X013340Y011958D02*
X015034Y011958D01*
X015192Y012117D02*
X009555Y012117D01*
X009396Y012275D02*
X015351Y012275D01*
X015724Y011800D02*
X015885Y011800D01*
X015882Y011958D02*
X016020Y011958D01*
X015862Y011641D02*
X015565Y011641D01*
X015407Y011483D02*
X015928Y011483D01*
X015743Y010498D02*
X015617Y010498D01*
X015500Y010450D01*
X015410Y010360D01*
X015362Y010243D01*
X015362Y010117D01*
X015410Y010000D01*
X015500Y009910D01*
X015617Y009862D01*
X015743Y009862D01*
X015860Y009910D01*
X015950Y010000D01*
X015998Y010117D01*
X015998Y010243D01*
X015950Y010360D01*
X015860Y010450D01*
X015743Y010498D01*
X015937Y010373D02*
X016923Y010373D01*
X016862Y010215D02*
X015998Y010215D01*
X015973Y010056D02*
X016887Y010056D01*
X017031Y009898D02*
X015829Y009898D01*
X015531Y009898D02*
X014412Y009898D01*
X014139Y010215D02*
X015362Y010215D01*
X015387Y010056D02*
X013980Y010056D01*
X013948Y009898D02*
X013822Y009898D01*
X013862Y009739D02*
X013663Y009739D01*
X013505Y009581D02*
X013877Y009581D01*
X014363Y008947D02*
X015497Y008947D01*
X015380Y008788D02*
X014480Y008788D01*
X014498Y008630D02*
X015362Y008630D01*
X015439Y008471D02*
X014421Y008471D01*
X014243Y007998D02*
X014117Y007998D01*
X014000Y007950D01*
X013910Y007860D01*
X013862Y007743D01*
X013862Y007617D01*
X013910Y007500D01*
X014000Y007410D01*
X014117Y007362D01*
X014243Y007362D01*
X014360Y007410D01*
X014450Y007500D01*
X014498Y007617D01*
X014498Y007743D01*
X014450Y007860D01*
X014360Y007950D01*
X014243Y007998D01*
X014250Y007996D02*
X015110Y007996D01*
X015250Y007996D02*
X016874Y007996D01*
X017280Y007680D02*
X015180Y007680D01*
X014862Y007679D02*
X014498Y007679D01*
X014459Y007837D02*
X014901Y007837D01*
X014902Y007520D02*
X014458Y007520D01*
X013902Y007520D02*
X012458Y007520D01*
X012498Y007679D02*
X013862Y007679D01*
X013901Y007837D02*
X012459Y007837D01*
X012250Y007996D02*
X014110Y007996D01*
X014117Y006998D02*
X014000Y006950D01*
X013910Y006860D01*
X013862Y006743D01*
X013862Y006617D01*
X013910Y006500D01*
X014000Y006410D01*
X014117Y006362D01*
X014243Y006362D01*
X014360Y006410D01*
X014450Y006500D01*
X014498Y006617D01*
X014498Y006743D01*
X014450Y006860D01*
X014360Y006950D01*
X014243Y006998D01*
X014117Y006998D01*
X013936Y006886D02*
X013647Y006886D01*
X013690Y006728D02*
X013862Y006728D01*
X013882Y006569D02*
X013686Y006569D01*
X013761Y006411D02*
X014000Y006411D01*
X013919Y006252D02*
X016887Y006252D01*
X016728Y006411D02*
X014360Y006411D01*
X014478Y006569D02*
X016670Y006569D01*
X016670Y006728D02*
X014498Y006728D01*
X014424Y006886D02*
X016670Y006886D01*
X016823Y007045D02*
X013537Y007045D01*
X013180Y006680D02*
X014680Y005180D01*
X014680Y003180D01*
X015115Y003241D02*
X016170Y003241D01*
X016170Y003281D02*
X016170Y003079D01*
X016248Y002891D01*
X016391Y002748D01*
X016579Y002670D01*
X016781Y002670D01*
X016969Y002748D01*
X017112Y002891D01*
X017190Y003079D01*
X017190Y003281D01*
X017112Y003469D01*
X016969Y003612D01*
X016856Y003659D01*
X016891Y003670D01*
X016968Y003710D01*
X017038Y003760D01*
X017100Y003822D01*
X017150Y003892D01*
X017190Y003969D01*
X017216Y004051D01*
X017230Y004137D01*
X017230Y004160D01*
X016700Y004160D01*
X016700Y004200D01*
X017230Y004200D01*
X017230Y004223D01*
X017216Y004309D01*
X017190Y004391D01*
X017150Y004468D01*
X017100Y004538D01*
X017038Y004600D01*
X016968Y004650D01*
X016891Y004690D01*
X016809Y004716D01*
X016723Y004730D01*
X016700Y004730D01*
X016700Y004200D01*
X016660Y004200D01*
X016660Y004730D01*
X016637Y004730D01*
X016551Y004716D01*
X016469Y004690D01*
X016392Y004650D01*
X016322Y004600D01*
X016260Y004538D01*
X016210Y004468D01*
X016170Y004391D01*
X016144Y004309D01*
X016130Y004223D01*
X016130Y004200D01*
X016660Y004200D01*
X016660Y004160D01*
X016130Y004160D01*
X016130Y004137D01*
X016144Y004051D01*
X016170Y003969D01*
X016210Y003892D01*
X016260Y003822D01*
X016322Y003760D01*
X016392Y003710D01*
X016469Y003670D01*
X016504Y003659D01*
X016391Y003612D01*
X016248Y003469D01*
X016170Y003281D01*
X016219Y003399D02*
X015115Y003399D01*
X015090Y003558D02*
X016336Y003558D01*
X016383Y003716D02*
X014900Y003716D01*
X014900Y003875D02*
X015086Y003875D01*
X015274Y003875D02*
X016222Y003875D01*
X016149Y004033D02*
X015463Y004033D01*
X015498Y004192D02*
X016660Y004192D01*
X016700Y004192D02*
X020032Y004192D01*
X020032Y004350D02*
X017203Y004350D01*
X017121Y004509D02*
X019407Y004509D01*
X019410Y004500D02*
X019500Y004410D01*
X019617Y004362D01*
X019743Y004362D01*
X019860Y004410D01*
X019950Y004500D01*
X019998Y004617D01*
X019998Y004743D01*
X019950Y004860D01*
X019860Y004950D01*
X019743Y004998D01*
X019617Y004998D01*
X019500Y004950D01*
X019410Y004860D01*
X019362Y004743D01*
X019362Y004617D01*
X019410Y004500D01*
X019362Y004667D02*
X016936Y004667D01*
X016700Y004667D02*
X016660Y004667D01*
X016660Y004509D02*
X016700Y004509D01*
X016700Y004350D02*
X016660Y004350D01*
X016424Y004667D02*
X014900Y004667D01*
X014900Y004509D02*
X016239Y004509D01*
X016157Y004350D02*
X015454Y004350D01*
X014906Y004350D02*
X014900Y004350D01*
X014460Y004350D02*
X012980Y004350D01*
X012980Y004192D02*
X014460Y004192D01*
X014460Y004033D02*
X013999Y004033D01*
X013989Y004042D02*
X013929Y004086D01*
X013862Y004120D01*
X013791Y004143D01*
X013717Y004155D01*
X013698Y004155D01*
X013698Y003698D01*
X013662Y003698D01*
X013662Y004155D01*
X013643Y004155D01*
X013569Y004143D01*
X013498Y004120D01*
X013431Y004086D01*
X013371Y004042D01*
X013318Y003989D01*
X013274Y003929D01*
X013240Y003862D01*
X013217Y003791D01*
X013205Y003717D01*
X013205Y003698D01*
X013662Y003698D01*
X013662Y003662D01*
X013205Y003662D01*
X013205Y003643D01*
X013217Y003569D01*
X013240Y003498D01*
X013274Y003431D01*
X013318Y003371D01*
X013371Y003318D01*
X013431Y003274D01*
X013498Y003240D01*
X013569Y003217D01*
X013643Y003205D01*
X013662Y003205D01*
X013662Y003662D01*
X013698Y003662D01*
X013698Y003698D01*
X014155Y003698D01*
X014155Y003717D01*
X014143Y003791D01*
X014120Y003862D01*
X014086Y003929D01*
X014042Y003989D01*
X013989Y004042D01*
X014114Y003875D02*
X014460Y003875D01*
X014460Y003716D02*
X014155Y003716D01*
X014155Y003662D02*
X013698Y003662D01*
X013698Y003205D01*
X013717Y003205D01*
X013791Y003217D01*
X013862Y003240D01*
X013929Y003274D01*
X013989Y003318D01*
X014042Y003371D01*
X014086Y003431D01*
X014120Y003498D01*
X014143Y003569D01*
X014155Y003643D01*
X014155Y003662D01*
X014140Y003558D02*
X014270Y003558D01*
X014245Y003399D02*
X014063Y003399D01*
X014245Y003241D02*
X013864Y003241D01*
X013698Y003241D02*
X013662Y003241D01*
X013662Y003399D02*
X013698Y003399D01*
X013698Y003558D02*
X013662Y003558D01*
X013662Y003716D02*
X013698Y003716D01*
X013698Y003875D02*
X013662Y003875D01*
X013662Y004033D02*
X013698Y004033D01*
X013361Y004033D02*
X012980Y004033D01*
X012980Y003875D02*
X013246Y003875D01*
X013205Y003716D02*
X012980Y003716D01*
X012980Y003558D02*
X013220Y003558D01*
X013297Y003399D02*
X012980Y003399D01*
X012980Y003241D02*
X013496Y003241D01*
X013294Y003082D02*
X012980Y003082D01*
X012380Y003082D02*
X012060Y003082D01*
X012060Y003241D02*
X012380Y003241D01*
X012380Y003399D02*
X012049Y003399D01*
X012082Y003558D02*
X012380Y003558D01*
X012380Y003716D02*
X012100Y003716D01*
X012052Y003875D02*
X012380Y003875D01*
X012380Y004033D02*
X011909Y004033D01*
X011680Y004033D02*
X011680Y004033D01*
X011680Y003875D02*
X011680Y003875D01*
X011680Y003716D02*
X011680Y003716D01*
X011451Y004033D02*
X009730Y004033D01*
X009730Y003875D02*
X009925Y003875D01*
X009910Y003860D02*
X009862Y003743D01*
X009862Y003617D01*
X009910Y003500D01*
X010000Y003410D01*
X010117Y003362D01*
X010243Y003362D01*
X010360Y003410D01*
X010450Y003500D01*
X010498Y003617D01*
X010498Y003743D01*
X010450Y003860D01*
X010360Y003950D01*
X010243Y003998D01*
X010117Y003998D01*
X010000Y003950D01*
X009910Y003860D01*
X009862Y003716D02*
X009730Y003716D01*
X009730Y003558D02*
X009886Y003558D01*
X010027Y003399D02*
X009730Y003399D01*
X009730Y003241D02*
X011300Y003241D01*
X011311Y003399D02*
X010333Y003399D01*
X010474Y003558D02*
X011278Y003558D01*
X011260Y003716D02*
X010498Y003716D01*
X010435Y003875D02*
X011308Y003875D01*
X010450Y004500D02*
X010498Y004617D01*
X010498Y004743D01*
X010450Y004860D01*
X010360Y004950D01*
X010243Y004998D01*
X010117Y004998D01*
X010000Y004950D01*
X009910Y004860D01*
X009862Y004743D01*
X009862Y004617D01*
X009910Y004500D01*
X010000Y004410D01*
X010117Y004362D01*
X010243Y004362D01*
X010360Y004410D01*
X010450Y004500D01*
X010453Y004509D02*
X012380Y004509D01*
X012380Y004667D02*
X010498Y004667D01*
X010464Y004826D02*
X010813Y004826D01*
X010709Y004984D02*
X010277Y004984D01*
X010083Y004984D02*
X009730Y004984D01*
X009730Y004826D02*
X009896Y004826D01*
X009862Y004667D02*
X009730Y004667D01*
X009730Y004509D02*
X009907Y004509D01*
X009730Y004350D02*
X012380Y004350D01*
X012380Y004192D02*
X009730Y004192D01*
X009130Y004192D02*
X006615Y004192D01*
X006615Y004267D02*
X006549Y004426D01*
X006426Y004549D01*
X006267Y004615D01*
X006093Y004615D01*
X005934Y004549D01*
X005811Y004426D01*
X005745Y004267D01*
X005745Y004093D01*
X005756Y004067D01*
X005479Y003790D01*
X005450Y003860D01*
X005360Y003950D01*
X005243Y003998D01*
X005117Y003998D01*
X005000Y003950D01*
X004910Y003860D01*
X004862Y003743D01*
X004862Y003617D01*
X004910Y003500D01*
X005000Y003410D01*
X005025Y003400D01*
X004335Y003400D01*
X004360Y003410D01*
X004450Y003500D01*
X004498Y003617D01*
X004498Y003743D01*
X004450Y003860D01*
X004360Y003950D01*
X004243Y003998D01*
X004117Y003998D01*
X004000Y003950D01*
X003910Y003860D01*
X003862Y003743D01*
X003862Y003617D01*
X003910Y003500D01*
X004000Y003410D01*
X004025Y003400D01*
X003141Y003400D01*
X003112Y003469D01*
X002969Y003612D01*
X002781Y003690D01*
X002579Y003690D01*
X002391Y003612D01*
X002248Y003469D01*
X002170Y003281D01*
X002170Y003079D01*
X002248Y002891D01*
X002391Y002748D01*
X002579Y002670D01*
X002781Y002670D01*
X002969Y002748D01*
X003112Y002891D01*
X003141Y002960D01*
X005271Y002960D01*
X006067Y003756D01*
X006093Y003745D01*
X006267Y003745D01*
X006426Y003811D01*
X006549Y003934D01*
X006615Y004093D01*
X006615Y004267D01*
X006580Y004350D02*
X009130Y004350D01*
X009130Y004509D02*
X008953Y004509D01*
X008950Y004500D02*
X008998Y004617D01*
X008998Y004743D01*
X008950Y004860D01*
X008860Y004950D01*
X008743Y004998D01*
X008617Y004998D01*
X008500Y004950D01*
X008410Y004860D01*
X008362Y004743D01*
X008362Y004617D01*
X008410Y004500D01*
X008500Y004410D01*
X008617Y004362D01*
X008743Y004362D01*
X008860Y004410D01*
X008950Y004500D01*
X008998Y004667D02*
X009130Y004667D01*
X009130Y004826D02*
X008964Y004826D01*
X009130Y004984D02*
X008777Y004984D01*
X008583Y004984D02*
X008434Y004984D01*
X008450Y005000D02*
X008498Y005117D01*
X008498Y005243D01*
X008450Y005360D01*
X008360Y005450D01*
X008243Y005498D01*
X008117Y005498D01*
X008000Y005450D01*
X007910Y005360D01*
X007862Y005243D01*
X007862Y005117D01*
X007910Y005000D01*
X008000Y004910D01*
X008117Y004862D01*
X008243Y004862D01*
X008360Y004910D01*
X008450Y005000D01*
X008498Y005143D02*
X009130Y005143D01*
X009130Y005301D02*
X008474Y005301D01*
X008336Y005460D02*
X009130Y005460D01*
X009130Y005618D02*
X007455Y005618D01*
X007469Y005612D02*
X007281Y005690D01*
X007079Y005690D01*
X006891Y005612D01*
X006748Y005469D01*
X006670Y005281D01*
X006670Y005079D01*
X006748Y004891D01*
X006891Y004748D01*
X007079Y004670D01*
X007281Y004670D01*
X007469Y004748D01*
X007612Y004891D01*
X007690Y005079D01*
X007690Y005281D01*
X007612Y005469D01*
X007469Y005612D01*
X007616Y005460D02*
X008024Y005460D01*
X007886Y005301D02*
X007682Y005301D01*
X007690Y005143D02*
X007862Y005143D01*
X007926Y004984D02*
X007651Y004984D01*
X007547Y004826D02*
X008396Y004826D01*
X008362Y004667D02*
X000820Y004667D01*
X000820Y004509D02*
X002893Y004509D01*
X002934Y004549D02*
X002811Y004426D01*
X002745Y004267D01*
X002745Y004093D01*
X002811Y003934D01*
X002934Y003811D01*
X003093Y003745D01*
X003267Y003745D01*
X003426Y003811D01*
X003549Y003934D01*
X003615Y004093D01*
X003615Y004267D01*
X003549Y004426D01*
X003426Y004549D01*
X003267Y004615D01*
X003093Y004615D01*
X002934Y004549D01*
X002780Y004350D02*
X000820Y004350D01*
X000820Y004192D02*
X002745Y004192D01*
X002770Y004033D02*
X000820Y004033D01*
X000820Y003875D02*
X000925Y003875D01*
X000910Y003860D02*
X000862Y003743D01*
X000862Y003617D01*
X000910Y003500D01*
X001000Y003410D01*
X001117Y003362D01*
X001243Y003362D01*
X001360Y003410D01*
X001450Y003500D01*
X001498Y003617D01*
X001498Y003743D01*
X001450Y003860D01*
X001360Y003950D01*
X001243Y003998D01*
X001117Y003998D01*
X001000Y003950D01*
X000910Y003860D01*
X000862Y003716D02*
X000820Y003716D01*
X000820Y003558D02*
X000886Y003558D01*
X000820Y003399D02*
X001027Y003399D01*
X000820Y003241D02*
X002170Y003241D01*
X002170Y003082D02*
X000820Y003082D01*
X000820Y002924D02*
X002234Y002924D01*
X002374Y002765D02*
X000820Y002765D01*
X000820Y002607D02*
X001331Y002607D01*
X001322Y002600D02*
X001260Y002538D01*
X001210Y002468D01*
X001170Y002391D01*
X001144Y002309D01*
X001130Y002223D01*
X001130Y002200D01*
X001660Y002200D01*
X001660Y002730D01*
X001637Y002730D01*
X001551Y002716D01*
X001469Y002690D01*
X001392Y002650D01*
X001322Y002600D01*
X001199Y002448D02*
X000820Y002448D01*
X000820Y002290D02*
X001140Y002290D01*
X001130Y002160D02*
X001130Y002137D01*
X001144Y002051D01*
X001170Y001969D01*
X001210Y001892D01*
X001260Y001822D01*
X001322Y001760D01*
X001392Y001710D01*
X001469Y001670D01*
X001551Y001644D01*
X001637Y001630D01*
X001660Y001630D01*
X001660Y002160D01*
X001130Y002160D01*
X001131Y002131D02*
X000820Y002131D01*
X000820Y001973D02*
X001169Y001973D01*
X001268Y001814D02*
X000820Y001814D01*
X000820Y001656D02*
X001514Y001656D01*
X001660Y001656D02*
X001700Y001656D01*
X001700Y001630D02*
X001723Y001630D01*
X001809Y001644D01*
X001891Y001670D01*
X001968Y001710D01*
X002038Y001760D01*
X002100Y001822D01*
X002150Y001892D01*
X002190Y001969D01*
X002216Y002051D01*
X002230Y002137D01*
X002230Y002160D01*
X001700Y002160D01*
X001700Y002200D01*
X001660Y002200D01*
X001660Y002160D01*
X001700Y002160D01*
X001700Y001630D01*
X001846Y001656D02*
X002862Y001656D01*
X002862Y001617D02*
X002910Y001500D01*
X003000Y001410D01*
X003117Y001362D01*
X003243Y001362D01*
X003360Y001410D01*
X003450Y001500D01*
X003498Y001617D01*
X003498Y001743D01*
X003450Y001860D01*
X003360Y001950D01*
X003243Y001998D01*
X003117Y001998D01*
X003000Y001950D01*
X002910Y001860D01*
X002862Y001743D01*
X002862Y001617D01*
X002913Y001497D02*
X000820Y001497D01*
X000820Y001339D02*
X020032Y001339D01*
X020032Y001497D02*
X017447Y001497D01*
X017450Y001500D02*
X017498Y001617D01*
X017498Y001743D01*
X017450Y001860D01*
X017360Y001950D01*
X017243Y001998D01*
X017117Y001998D01*
X017000Y001950D01*
X016910Y001860D01*
X016862Y001743D01*
X016862Y001617D01*
X016910Y001500D01*
X017000Y001410D01*
X017117Y001362D01*
X017243Y001362D01*
X017360Y001410D01*
X017450Y001500D01*
X017498Y001656D02*
X019014Y001656D01*
X019051Y001644D02*
X019137Y001630D01*
X019160Y001630D01*
X019160Y002160D01*
X019200Y002160D01*
X019200Y002200D01*
X019160Y002200D01*
X019160Y002730D01*
X019137Y002730D01*
X019051Y002716D01*
X018969Y002690D01*
X018892Y002650D01*
X018822Y002600D01*
X018760Y002538D01*
X018710Y002468D01*
X018670Y002391D01*
X018659Y002356D01*
X018612Y002469D01*
X018469Y002612D01*
X018281Y002690D01*
X018079Y002690D01*
X017891Y002612D01*
X017748Y002469D01*
X017670Y002281D01*
X017670Y002079D01*
X017748Y001891D01*
X017891Y001748D01*
X018079Y001670D01*
X018281Y001670D01*
X018469Y001748D01*
X018612Y001891D01*
X018659Y002004D01*
X018670Y001969D01*
X018710Y001892D01*
X018760Y001822D01*
X018822Y001760D01*
X018892Y001710D01*
X018969Y001670D01*
X019051Y001644D01*
X019160Y001656D02*
X019200Y001656D01*
X019200Y001630D02*
X019223Y001630D01*
X019309Y001644D01*
X019391Y001670D01*
X019468Y001710D01*
X019538Y001760D01*
X019600Y001822D01*
X019650Y001892D01*
X019690Y001969D01*
X019716Y002051D01*
X019730Y002137D01*
X019730Y002160D01*
X019200Y002160D01*
X019200Y001630D01*
X019346Y001656D02*
X020032Y001656D01*
X020032Y001814D02*
X019592Y001814D01*
X019691Y001973D02*
X020032Y001973D01*
X020032Y002131D02*
X019729Y002131D01*
X019730Y002200D02*
X019730Y002223D01*
X019716Y002309D01*
X019690Y002391D01*
X019650Y002468D01*
X019600Y002538D01*
X019538Y002600D01*
X019468Y002650D01*
X019391Y002690D01*
X019309Y002716D01*
X019223Y002730D01*
X019200Y002730D01*
X019200Y002200D01*
X019730Y002200D01*
X019720Y002290D02*
X020032Y002290D01*
X020032Y002448D02*
X019661Y002448D01*
X019529Y002607D02*
X020032Y002607D01*
X020032Y002765D02*
X016986Y002765D01*
X017126Y002924D02*
X020032Y002924D01*
X020032Y003082D02*
X017190Y003082D01*
X017190Y003241D02*
X020032Y003241D01*
X020032Y003399D02*
X019833Y003399D01*
X019860Y003410D02*
X019950Y003500D01*
X019998Y003617D01*
X019998Y003743D01*
X019950Y003860D01*
X019860Y003950D01*
X019743Y003998D01*
X019617Y003998D01*
X019500Y003950D01*
X019410Y003860D01*
X019362Y003743D01*
X019362Y003617D01*
X019410Y003500D01*
X019500Y003410D01*
X019617Y003362D01*
X019743Y003362D01*
X019860Y003410D01*
X019974Y003558D02*
X020032Y003558D01*
X020032Y003716D02*
X019998Y003716D01*
X020032Y003875D02*
X019935Y003875D01*
X020032Y004033D02*
X017211Y004033D01*
X017138Y003875D02*
X017925Y003875D01*
X017910Y003860D02*
X017862Y003743D01*
X017862Y003617D01*
X017910Y003500D01*
X018000Y003410D01*
X018117Y003362D01*
X018243Y003362D01*
X018360Y003410D01*
X018450Y003500D01*
X018498Y003617D01*
X018498Y003743D01*
X018450Y003860D01*
X018360Y003950D01*
X018243Y003998D01*
X018117Y003998D01*
X018000Y003950D01*
X017910Y003860D01*
X017862Y003716D02*
X016977Y003716D01*
X017024Y003558D02*
X017886Y003558D01*
X018027Y003399D02*
X017141Y003399D01*
X017885Y002607D02*
X014115Y002607D01*
X014115Y002765D02*
X014307Y002765D01*
X014245Y002924D02*
X014115Y002924D01*
X014066Y003082D02*
X014245Y003082D01*
X014115Y002448D02*
X017739Y002448D01*
X017673Y002290D02*
X014077Y002290D01*
X014117Y001998D02*
X014000Y001950D01*
X013910Y001860D01*
X013862Y001743D01*
X013862Y001617D01*
X013910Y001500D01*
X014000Y001410D01*
X014117Y001362D01*
X014243Y001362D01*
X014360Y001410D01*
X014450Y001500D01*
X014498Y001617D01*
X014498Y001743D01*
X014450Y001860D01*
X014360Y001950D01*
X014243Y001998D01*
X014117Y001998D01*
X014055Y001973D02*
X013305Y001973D01*
X013360Y001950D02*
X013243Y001998D01*
X013117Y001998D01*
X013000Y001950D01*
X012910Y001860D01*
X012862Y001743D01*
X012862Y001617D01*
X012910Y001500D01*
X013000Y001410D01*
X013117Y001362D01*
X013243Y001362D01*
X013360Y001410D01*
X013450Y001500D01*
X013498Y001617D01*
X013498Y001743D01*
X013450Y001860D01*
X013360Y001950D01*
X013469Y001814D02*
X013891Y001814D01*
X013862Y001656D02*
X013498Y001656D01*
X013447Y001497D02*
X013913Y001497D01*
X014447Y001497D02*
X014913Y001497D01*
X014910Y001500D02*
X015000Y001410D01*
X015117Y001362D01*
X015243Y001362D01*
X015360Y001410D01*
X015450Y001500D01*
X015498Y001617D01*
X015498Y001743D01*
X015450Y001860D01*
X015360Y001950D01*
X015243Y001998D01*
X015117Y001998D01*
X015000Y001950D01*
X014910Y001860D01*
X014862Y001743D01*
X014862Y001617D01*
X014910Y001500D01*
X014862Y001656D02*
X014498Y001656D01*
X014469Y001814D02*
X014891Y001814D01*
X015055Y001973D02*
X014305Y001973D01*
X013283Y002290D02*
X009464Y002290D01*
X009327Y002131D02*
X017670Y002131D01*
X017714Y001973D02*
X017305Y001973D01*
X017469Y001814D02*
X017825Y001814D01*
X018535Y001814D02*
X018768Y001814D01*
X018669Y001973D02*
X018646Y001973D01*
X018621Y002448D02*
X018699Y002448D01*
X018831Y002607D02*
X018475Y002607D01*
X019160Y002607D02*
X019200Y002607D01*
X019200Y002448D02*
X019160Y002448D01*
X019160Y002290D02*
X019200Y002290D01*
X019200Y002131D02*
X019160Y002131D01*
X019160Y001973D02*
X019200Y001973D01*
X019200Y001814D02*
X019160Y001814D01*
X019527Y003399D02*
X018333Y003399D01*
X018474Y003558D02*
X019386Y003558D01*
X019362Y003716D02*
X018498Y003716D01*
X018435Y003875D02*
X019425Y003875D01*
X019953Y004509D02*
X020032Y004509D01*
X020032Y004667D02*
X019998Y004667D01*
X019964Y004826D02*
X020032Y004826D01*
X020032Y004984D02*
X019777Y004984D01*
X019583Y004984D02*
X018434Y004984D01*
X018450Y005000D02*
X018498Y005117D01*
X018498Y005243D01*
X018450Y005360D01*
X018360Y005450D01*
X018243Y005498D01*
X018117Y005498D01*
X018000Y005450D01*
X017910Y005360D01*
X017862Y005243D01*
X017862Y005117D01*
X017910Y005000D01*
X018000Y004910D01*
X018117Y004862D01*
X018243Y004862D01*
X018360Y004910D01*
X018450Y005000D01*
X018498Y005143D02*
X020032Y005143D01*
X020032Y005301D02*
X018474Y005301D01*
X018336Y005460D02*
X019451Y005460D01*
X019410Y005500D02*
X019500Y005410D01*
X019617Y005362D01*
X019743Y005362D01*
X019860Y005410D01*
X019950Y005500D01*
X019998Y005617D01*
X019998Y005743D01*
X019950Y005860D01*
X019860Y005950D01*
X019743Y005998D01*
X019617Y005998D01*
X019500Y005950D01*
X019410Y005860D01*
X019362Y005743D01*
X019362Y005617D01*
X019410Y005500D01*
X019362Y005618D02*
X014553Y005618D01*
X014395Y005777D02*
X019376Y005777D01*
X019485Y005935D02*
X014236Y005935D01*
X014078Y006094D02*
X020032Y006094D01*
X020032Y006252D02*
X018473Y006252D01*
X018632Y006411D02*
X019500Y006411D01*
X019500Y006410D02*
X019617Y006362D01*
X019743Y006362D01*
X019860Y006410D01*
X019950Y006500D01*
X019998Y006617D01*
X019998Y006743D01*
X019950Y006860D01*
X019860Y006950D01*
X019743Y006998D01*
X019617Y006998D01*
X019500Y006950D01*
X019410Y006860D01*
X019362Y006743D01*
X019362Y006617D01*
X019410Y006500D01*
X019500Y006410D01*
X019382Y006569D02*
X018690Y006569D01*
X018690Y006728D02*
X019362Y006728D01*
X019436Y006886D02*
X018690Y006886D01*
X018537Y007045D02*
X020032Y007045D01*
X020032Y007203D02*
X018524Y007203D01*
X018683Y007362D02*
X020032Y007362D01*
X020032Y007520D02*
X019958Y007520D01*
X019950Y007500D02*
X019998Y007617D01*
X019998Y007743D01*
X019950Y007860D01*
X019860Y007950D01*
X019743Y007998D01*
X019617Y007998D01*
X019500Y007950D01*
X019410Y007860D01*
X019362Y007743D01*
X019362Y007617D01*
X019410Y007500D01*
X019500Y007410D01*
X019617Y007362D01*
X019743Y007362D01*
X019860Y007410D01*
X019950Y007500D01*
X019998Y007679D02*
X020032Y007679D01*
X020032Y007837D02*
X019959Y007837D01*
X020032Y007996D02*
X019750Y007996D01*
X019610Y007996D02*
X018686Y007996D01*
X018790Y007837D02*
X019401Y007837D01*
X019362Y007679D02*
X018790Y007679D01*
X018790Y007520D02*
X019402Y007520D01*
X019924Y006886D02*
X020032Y006886D01*
X020032Y006728D02*
X019998Y006728D01*
X019978Y006569D02*
X020032Y006569D01*
X020032Y006411D02*
X019860Y006411D01*
X019875Y005935D02*
X020032Y005935D01*
X020032Y005777D02*
X019984Y005777D01*
X019998Y005618D02*
X020032Y005618D01*
X020032Y005460D02*
X019909Y005460D01*
X019396Y004826D02*
X014900Y004826D01*
X014900Y004984D02*
X014926Y004984D01*
X014886Y005301D02*
X014870Y005301D01*
X015024Y005460D02*
X014712Y005460D01*
X014406Y005143D02*
X014230Y005143D01*
X014230Y005137D02*
X014230Y005160D01*
X013700Y005160D01*
X013700Y004630D01*
X013723Y004630D01*
X013809Y004644D01*
X013891Y004670D01*
X013968Y004710D01*
X014038Y004760D01*
X014100Y004822D01*
X014150Y004892D01*
X014190Y004969D01*
X014216Y005051D01*
X014230Y005137D01*
X014195Y004984D02*
X014460Y004984D01*
X014460Y004826D02*
X014102Y004826D01*
X013881Y004667D02*
X014460Y004667D01*
X014460Y004509D02*
X012980Y004509D01*
X012980Y004667D02*
X013479Y004667D01*
X013660Y004667D02*
X013700Y004667D01*
X013700Y004826D02*
X013660Y004826D01*
X013660Y004984D02*
X013700Y004984D01*
X013700Y005143D02*
X013660Y005143D01*
X013660Y005301D02*
X013700Y005301D01*
X013700Y005460D02*
X013660Y005460D01*
X013660Y005618D02*
X013700Y005618D01*
X013772Y005777D02*
X010484Y005777D01*
X010498Y005743D02*
X010450Y005860D01*
X010360Y005950D01*
X010243Y005998D01*
X010117Y005998D01*
X010000Y005950D01*
X009910Y005860D01*
X009862Y005743D01*
X009862Y005617D01*
X009910Y005500D01*
X010000Y005410D01*
X010117Y005362D01*
X010243Y005362D01*
X010360Y005410D01*
X010450Y005500D01*
X010498Y005617D01*
X010498Y005743D01*
X010498Y005618D02*
X010905Y005618D01*
X010744Y005460D02*
X010409Y005460D01*
X010678Y005301D02*
X009730Y005301D01*
X009730Y005143D02*
X010670Y005143D01*
X011180Y005180D02*
X012680Y005180D01*
X013151Y004984D02*
X013165Y004984D01*
X013258Y004826D02*
X013047Y004826D01*
X013116Y005460D02*
X013205Y005460D01*
X013347Y005618D02*
X012955Y005618D01*
X012405Y005618D02*
X011455Y005618D01*
X011616Y005460D02*
X012244Y005460D01*
X012385Y005935D02*
X013614Y005935D01*
X013455Y006094D02*
X012488Y006094D01*
X012494Y006252D02*
X012887Y006252D01*
X012740Y006411D02*
X012399Y006411D01*
X011872Y006094D02*
X010018Y006094D01*
X009985Y005935D02*
X009859Y005935D01*
X009876Y005777D02*
X009730Y005777D01*
X009730Y005618D02*
X009862Y005618D01*
X009951Y005460D02*
X009730Y005460D01*
X009130Y005777D02*
X006343Y005777D01*
X006267Y005745D02*
X006093Y005745D01*
X005934Y005811D01*
X005811Y005934D01*
X005745Y006093D01*
X005745Y006267D01*
X005811Y006426D01*
X005934Y006549D01*
X006093Y006615D01*
X006267Y006615D01*
X006426Y006549D01*
X006549Y006426D01*
X006615Y006267D01*
X006615Y006093D01*
X006549Y005934D01*
X006426Y005811D01*
X006267Y005745D01*
X006267Y005615D02*
X006093Y005615D01*
X005934Y005549D01*
X005811Y005426D01*
X005745Y005267D01*
X005745Y005093D01*
X005811Y004934D01*
X005934Y004811D01*
X006093Y004745D01*
X006267Y004745D01*
X006426Y004811D01*
X006549Y004934D01*
X006615Y005093D01*
X006615Y005267D01*
X006549Y005426D01*
X006426Y005549D01*
X006267Y005615D01*
X006516Y005460D02*
X006744Y005460D01*
X006678Y005301D02*
X006601Y005301D01*
X006615Y005143D02*
X006670Y005143D01*
X006709Y004984D02*
X006570Y004984D01*
X006441Y004826D02*
X006813Y004826D01*
X006467Y004509D02*
X008407Y004509D01*
X008617Y003998D02*
X008500Y003950D01*
X008410Y003860D01*
X008362Y003743D01*
X008362Y003617D01*
X008410Y003500D01*
X008500Y003410D01*
X008617Y003362D01*
X008743Y003362D01*
X008860Y003410D01*
X008950Y003500D01*
X008998Y003617D01*
X008998Y003743D01*
X008950Y003860D01*
X008860Y003950D01*
X008743Y003998D01*
X008617Y003998D01*
X008425Y003875D02*
X006490Y003875D01*
X006590Y004033D02*
X009130Y004033D01*
X009130Y003875D02*
X008935Y003875D01*
X008998Y003716D02*
X009130Y003716D01*
X009130Y003558D02*
X008974Y003558D01*
X008833Y003399D02*
X009130Y003399D01*
X009130Y003241D02*
X008181Y003241D01*
X008022Y003399D02*
X008527Y003399D01*
X008386Y003558D02*
X007024Y003558D01*
X006680Y003180D02*
X007930Y003180D01*
X008930Y002180D01*
X008586Y001973D02*
X008524Y001973D01*
X008335Y001814D02*
X008775Y001814D01*
X009085Y001814D02*
X009891Y001814D01*
X009910Y001860D02*
X009862Y001743D01*
X009862Y001617D01*
X009910Y001500D01*
X010000Y001410D01*
X010117Y001362D01*
X010243Y001362D01*
X010360Y001410D01*
X010450Y001500D01*
X010498Y001617D01*
X010498Y001743D01*
X010450Y001860D01*
X010360Y001950D01*
X010243Y001998D01*
X010117Y001998D01*
X010000Y001950D01*
X009910Y001860D01*
X010055Y001973D02*
X009274Y001973D01*
X009862Y001656D02*
X006498Y001656D01*
X006498Y001617D02*
X006450Y001500D01*
X006360Y001410D01*
X006243Y001362D01*
X006117Y001362D01*
X006000Y001410D01*
X005910Y001500D01*
X005862Y001617D01*
X005862Y001743D01*
X005910Y001860D01*
X006000Y001950D01*
X006117Y001998D01*
X006243Y001998D01*
X006360Y001950D01*
X006450Y001860D01*
X006498Y001743D01*
X006498Y001617D01*
X006447Y001497D02*
X009913Y001497D01*
X010447Y001497D02*
X010913Y001497D01*
X010910Y001500D02*
X011000Y001410D01*
X011117Y001362D01*
X011243Y001362D01*
X011360Y001410D01*
X011450Y001500D01*
X011498Y001617D01*
X011498Y001743D01*
X011450Y001860D01*
X011360Y001950D01*
X011243Y001998D01*
X011117Y001998D01*
X011000Y001950D01*
X010910Y001860D01*
X010862Y001743D01*
X010862Y001617D01*
X010910Y001500D01*
X010862Y001656D02*
X010498Y001656D01*
X010469Y001814D02*
X010891Y001814D01*
X011055Y001973D02*
X010305Y001973D01*
X011305Y001973D02*
X012055Y001973D01*
X012000Y001950D02*
X011910Y001860D01*
X011862Y001743D01*
X011862Y001617D01*
X011910Y001500D01*
X012000Y001410D01*
X012117Y001362D01*
X012243Y001362D01*
X012360Y001410D01*
X012450Y001500D01*
X012498Y001617D01*
X012498Y001743D01*
X012450Y001860D01*
X012360Y001950D01*
X012243Y001998D01*
X012117Y001998D01*
X012000Y001950D01*
X011891Y001814D02*
X011469Y001814D01*
X011498Y001656D02*
X011862Y001656D01*
X011913Y001497D02*
X011447Y001497D01*
X012305Y001973D02*
X013055Y001973D01*
X012891Y001814D02*
X012469Y001814D01*
X012498Y001656D02*
X012862Y001656D01*
X012913Y001497D02*
X012447Y001497D01*
X011300Y003082D02*
X009730Y003082D01*
X009130Y003082D02*
X008339Y003082D01*
X008498Y002924D02*
X009130Y002924D01*
X009091Y002765D02*
X008656Y002765D01*
X008815Y002607D02*
X008932Y002607D01*
X008192Y002607D02*
X007533Y002607D01*
X007430Y002607D02*
X007430Y002607D01*
X007430Y002617D02*
X007430Y002180D01*
X007430Y002180D01*
X007430Y002617D01*
X007327Y002607D02*
X002029Y002607D01*
X002038Y002600D02*
X001968Y002650D01*
X001891Y002690D01*
X001809Y002716D01*
X001723Y002730D01*
X001700Y002730D01*
X001700Y002200D01*
X002230Y002200D01*
X002230Y002223D01*
X002216Y002309D01*
X002190Y002391D01*
X002150Y002468D01*
X002100Y002538D01*
X002038Y002600D01*
X002161Y002448D02*
X007084Y002448D01*
X007006Y002290D02*
X002220Y002290D01*
X002229Y002131D02*
X006995Y002131D01*
X006993Y002180D02*
X007430Y002180D01*
X007430Y001743D01*
X007430Y002180D01*
X007430Y002180D01*
X007430Y002180D01*
X006993Y002180D01*
X007045Y001973D02*
X006305Y001973D01*
X006469Y001814D02*
X007189Y001814D01*
X007430Y001814D02*
X007430Y001814D01*
X007430Y001973D02*
X007430Y001973D01*
X007430Y002131D02*
X007430Y002131D01*
X007430Y002290D02*
X007430Y002290D01*
X007430Y002448D02*
X007430Y002448D01*
X007776Y002448D02*
X007886Y002448D01*
X008034Y002765D02*
X006986Y002765D01*
X007126Y002924D02*
X007875Y002924D01*
X008362Y003716D02*
X006027Y003716D01*
X005869Y003558D02*
X006336Y003558D01*
X006219Y003399D02*
X005710Y003399D01*
X005552Y003241D02*
X006170Y003241D01*
X006170Y003082D02*
X005393Y003082D01*
X005180Y003180D02*
X006180Y004180D01*
X005780Y004350D02*
X003580Y004350D01*
X003615Y004192D02*
X005745Y004192D01*
X005722Y004033D02*
X003590Y004033D01*
X003490Y003875D02*
X003925Y003875D01*
X003862Y003716D02*
X001498Y003716D01*
X001474Y003558D02*
X002336Y003558D01*
X002219Y003399D02*
X001333Y003399D01*
X001435Y003875D02*
X002870Y003875D01*
X003024Y003558D02*
X003886Y003558D01*
X004474Y003558D02*
X004886Y003558D01*
X004862Y003716D02*
X004498Y003716D01*
X004435Y003875D02*
X004925Y003875D01*
X005435Y003875D02*
X005563Y003875D01*
X005893Y004509D02*
X003467Y004509D01*
X003426Y004811D02*
X003267Y004745D01*
X003093Y004745D01*
X002934Y004811D01*
X002811Y004934D01*
X002745Y005093D01*
X002745Y005267D01*
X002811Y005426D01*
X002934Y005549D01*
X003093Y005615D01*
X003267Y005615D01*
X003426Y005549D01*
X003549Y005426D01*
X003615Y005267D01*
X003615Y005093D01*
X003549Y004934D01*
X003426Y004811D01*
X003441Y004826D02*
X005919Y004826D01*
X005790Y004984D02*
X005434Y004984D01*
X005450Y005000D02*
X005498Y005117D01*
X005498Y005243D01*
X005450Y005360D01*
X005360Y005450D01*
X005243Y005498D01*
X005117Y005498D01*
X005000Y005450D01*
X004910Y005360D01*
X004862Y005243D01*
X004862Y005117D01*
X004910Y005000D01*
X005000Y004910D01*
X005117Y004862D01*
X005243Y004862D01*
X005360Y004910D01*
X005450Y005000D01*
X005498Y005143D02*
X005745Y005143D01*
X005759Y005301D02*
X005474Y005301D01*
X005336Y005460D02*
X005844Y005460D01*
X006017Y005777D02*
X003343Y005777D01*
X003267Y005745D02*
X003093Y005745D01*
X002934Y005811D01*
X002811Y005934D01*
X002745Y006093D01*
X002745Y006267D01*
X002811Y006426D01*
X002934Y006549D01*
X003093Y006615D01*
X003267Y006615D01*
X003426Y006549D01*
X003549Y006426D01*
X003615Y006267D01*
X003615Y006093D01*
X003549Y005934D01*
X003426Y005811D01*
X003267Y005745D01*
X003017Y005777D02*
X000820Y005777D01*
X000820Y005935D02*
X002811Y005935D01*
X002745Y006094D02*
X000820Y006094D01*
X000820Y006252D02*
X002745Y006252D01*
X002805Y006411D02*
X001360Y006411D01*
X001360Y006410D02*
X001450Y006500D01*
X001498Y006617D01*
X001498Y006743D01*
X001450Y006860D01*
X001360Y006950D01*
X001243Y006998D01*
X001117Y006998D01*
X001000Y006950D01*
X000910Y006860D01*
X000862Y006743D01*
X000862Y006617D01*
X000910Y006500D01*
X001000Y006410D01*
X001117Y006362D01*
X001243Y006362D01*
X001360Y006410D01*
X001478Y006569D02*
X002982Y006569D01*
X003093Y006745D02*
X002934Y006811D01*
X002811Y006934D01*
X002745Y007093D01*
X002745Y007267D01*
X002811Y007426D01*
X002934Y007549D01*
X003093Y007615D01*
X003267Y007615D01*
X003426Y007549D01*
X003549Y007426D01*
X003615Y007267D01*
X003615Y007093D01*
X003549Y006934D01*
X003426Y006811D01*
X003267Y006745D01*
X003093Y006745D01*
X002859Y006886D02*
X001424Y006886D01*
X001498Y006728D02*
X003862Y006728D01*
X003862Y006743D02*
X003862Y006617D01*
X003910Y006500D01*
X004000Y006410D01*
X004117Y006362D01*
X004243Y006362D01*
X004360Y006410D01*
X004450Y006500D01*
X004498Y006617D01*
X004498Y006743D01*
X004450Y006860D01*
X004360Y006950D01*
X004243Y006998D01*
X004117Y006998D01*
X004000Y006950D01*
X003910Y006860D01*
X003862Y006743D01*
X003936Y006886D02*
X003501Y006886D01*
X003595Y007045D02*
X005765Y007045D01*
X005745Y007093D02*
X005811Y006934D01*
X005934Y006811D01*
X006093Y006745D01*
X006267Y006745D01*
X006426Y006811D01*
X006549Y006934D01*
X006615Y007093D01*
X006615Y007267D01*
X006549Y007426D01*
X006426Y007549D01*
X006267Y007615D01*
X006093Y007615D01*
X005934Y007549D01*
X005811Y007426D01*
X005745Y007267D01*
X005745Y007093D01*
X005745Y007203D02*
X003615Y007203D01*
X003576Y007362D02*
X005784Y007362D01*
X005905Y007520D02*
X003455Y007520D01*
X003426Y007811D02*
X003267Y007745D01*
X003093Y007745D01*
X002934Y007811D01*
X002811Y007934D01*
X002745Y008093D01*
X002745Y008267D01*
X002811Y008426D01*
X002934Y008549D01*
X003093Y008615D01*
X003267Y008615D01*
X003426Y008549D01*
X003549Y008426D01*
X003615Y008267D01*
X003615Y008093D01*
X003549Y007934D01*
X003426Y007811D01*
X003452Y007837D02*
X005908Y007837D01*
X005786Y007996D02*
X005445Y007996D01*
X005450Y008000D02*
X005498Y008117D01*
X005498Y008243D01*
X005450Y008360D01*
X005360Y008450D01*
X005243Y008498D01*
X005117Y008498D01*
X005000Y008450D01*
X004910Y008360D01*
X004862Y008243D01*
X004862Y008117D01*
X004910Y008000D01*
X005000Y007910D01*
X005117Y007862D01*
X005243Y007862D01*
X005360Y007910D01*
X005450Y008000D01*
X005498Y008154D02*
X005745Y008154D01*
X005764Y008313D02*
X005469Y008313D01*
X005309Y008471D02*
X005856Y008471D01*
X005990Y008788D02*
X003370Y008788D01*
X003426Y008811D02*
X003267Y008745D01*
X003093Y008745D01*
X002934Y008811D01*
X002811Y008934D01*
X002745Y009093D01*
X002745Y009267D01*
X002811Y009426D01*
X002934Y009549D01*
X003093Y009615D01*
X003267Y009615D01*
X003426Y009549D01*
X003549Y009426D01*
X003615Y009267D01*
X003615Y009093D01*
X003549Y008934D01*
X003426Y008811D01*
X003554Y008947D02*
X005489Y008947D01*
X005331Y009105D02*
X003615Y009105D01*
X003615Y009264D02*
X005172Y009264D01*
X005014Y009422D02*
X004372Y009422D01*
X004360Y009410D02*
X004450Y009500D01*
X004498Y009617D01*
X004498Y009743D01*
X004450Y009860D01*
X004360Y009950D01*
X004243Y009998D01*
X004117Y009998D01*
X004000Y009950D01*
X003910Y009860D01*
X003862Y009743D01*
X003862Y009617D01*
X003910Y009500D01*
X004000Y009410D01*
X004117Y009362D01*
X004243Y009362D01*
X004360Y009410D01*
X004483Y009581D02*
X004855Y009581D01*
X004697Y009739D02*
X004498Y009739D01*
X004538Y009898D02*
X004412Y009898D01*
X004380Y010056D02*
X003639Y010056D01*
X003643Y010069D02*
X003655Y010143D01*
X003655Y010162D01*
X003198Y010162D01*
X003198Y010198D01*
X003655Y010198D01*
X003655Y010217D01*
X003643Y010291D01*
X003620Y010362D01*
X003586Y010429D01*
X003542Y010489D01*
X003489Y010542D01*
X003429Y010586D01*
X003362Y010620D01*
X003291Y010643D01*
X003217Y010655D01*
X003198Y010655D01*
X003198Y010198D01*
X003162Y010198D01*
X003162Y010655D01*
X003143Y010655D01*
X003069Y010643D01*
X002998Y010620D01*
X002931Y010586D01*
X002871Y010542D01*
X002818Y010489D01*
X002774Y010429D01*
X002740Y010362D01*
X002717Y010291D01*
X002705Y010217D01*
X002705Y010198D01*
X003162Y010198D01*
X003162Y010162D01*
X003198Y010162D01*
X003198Y009705D01*
X003217Y009705D01*
X003291Y009717D01*
X003362Y009740D01*
X003429Y009774D01*
X003489Y009818D01*
X003542Y009871D01*
X003586Y009931D01*
X003620Y009998D01*
X003643Y010069D01*
X003655Y010215D02*
X004221Y010215D01*
X004063Y010373D02*
X003615Y010373D01*
X003500Y010532D02*
X003904Y010532D01*
X003746Y010690D02*
X001890Y010690D01*
X001891Y010690D02*
X001856Y010701D01*
X001969Y010748D01*
X002112Y010891D01*
X002190Y011079D01*
X002190Y011281D01*
X002112Y011469D01*
X001969Y011612D01*
X001781Y011690D01*
X001579Y011690D01*
X001391Y011612D01*
X001248Y011469D01*
X001170Y011281D01*
X001170Y011079D01*
X001248Y010891D01*
X001391Y010748D01*
X001504Y010701D01*
X001469Y010690D01*
X001392Y010650D01*
X001322Y010600D01*
X001260Y010538D01*
X001210Y010468D01*
X001170Y010391D01*
X001144Y010309D01*
X001130Y010223D01*
X001130Y010200D01*
X001660Y010200D01*
X001660Y010160D01*
X001130Y010160D01*
X001130Y010137D01*
X001144Y010051D01*
X001170Y009969D01*
X001210Y009892D01*
X001260Y009822D01*
X001322Y009760D01*
X001392Y009710D01*
X001469Y009670D01*
X001551Y009644D01*
X001637Y009630D01*
X001660Y009630D01*
X001660Y010160D01*
X001700Y010160D01*
X001700Y010200D01*
X002230Y010200D01*
X002230Y010223D01*
X002216Y010309D01*
X002190Y010391D01*
X002150Y010468D01*
X002100Y010538D01*
X002038Y010600D01*
X001968Y010650D01*
X001891Y010690D01*
X002070Y010849D02*
X002896Y010849D01*
X002781Y011007D02*
X002160Y011007D01*
X002190Y011166D02*
X002745Y011166D01*
X002769Y011324D02*
X002172Y011324D01*
X002099Y011483D02*
X002867Y011483D01*
X002934Y011811D02*
X003093Y011745D01*
X003267Y011745D01*
X003426Y011811D01*
X003549Y011934D01*
X003615Y012093D01*
X003615Y012267D01*
X003549Y012426D01*
X003426Y012549D01*
X003267Y012615D01*
X003093Y012615D01*
X002934Y012549D01*
X002811Y012426D01*
X002745Y012267D01*
X002745Y012093D01*
X002811Y011934D01*
X002934Y011811D01*
X002962Y011800D02*
X000820Y011800D01*
X000820Y011958D02*
X000952Y011958D01*
X000910Y012000D02*
X001000Y011910D01*
X001117Y011862D01*
X001243Y011862D01*
X001360Y011910D01*
X001450Y012000D01*
X001498Y012117D01*
X001498Y012243D01*
X001450Y012360D01*
X001360Y012450D01*
X001243Y012498D01*
X001117Y012498D01*
X001000Y012450D01*
X000910Y012360D01*
X000862Y012243D01*
X000862Y012117D01*
X000910Y012000D01*
X000862Y012117D02*
X000820Y012117D01*
X000820Y012275D02*
X000875Y012275D01*
X000820Y012434D02*
X000984Y012434D01*
X000820Y012592D02*
X003038Y012592D01*
X003093Y012745D02*
X002934Y012811D01*
X002811Y012934D01*
X002745Y013093D01*
X002745Y013267D01*
X002811Y013426D01*
X002934Y013549D01*
X003093Y013615D01*
X003267Y013615D01*
X003426Y013549D01*
X003549Y013426D01*
X003615Y013267D01*
X003615Y013093D01*
X003549Y012934D01*
X003426Y012811D01*
X003267Y012745D01*
X003093Y012745D01*
X003080Y012751D02*
X000820Y012751D01*
X000820Y012909D02*
X002836Y012909D01*
X002756Y013068D02*
X000820Y013068D01*
X000820Y013226D02*
X002745Y013226D01*
X002794Y013385D02*
X001298Y013385D01*
X001243Y013362D02*
X001360Y013410D01*
X001450Y013500D01*
X001498Y013617D01*
X001498Y013743D01*
X001450Y013860D01*
X002885Y013860D01*
X002934Y013811D02*
X003093Y013745D01*
X003267Y013745D01*
X003426Y013811D01*
X003549Y013934D01*
X003615Y014093D01*
X003615Y014267D01*
X003549Y014426D01*
X003426Y014549D01*
X003267Y014615D01*
X003093Y014615D01*
X002934Y014549D01*
X002811Y014426D01*
X002745Y014267D01*
X002745Y014093D01*
X002811Y013934D01*
X002934Y013811D01*
X002776Y014019D02*
X000820Y014019D01*
X000820Y014177D02*
X002745Y014177D01*
X002774Y014336D02*
X000820Y014336D01*
X000820Y014494D02*
X002879Y014494D01*
X002934Y014811D02*
X003093Y014745D01*
X003267Y014745D01*
X003426Y014811D01*
X003564Y014970D02*
X003941Y014970D01*
X003910Y015000D02*
X004000Y014910D01*
X004117Y014862D01*
X004243Y014862D01*
X004360Y014910D01*
X004450Y015000D01*
X004498Y015117D01*
X004498Y015243D01*
X004450Y015360D01*
X004360Y015450D01*
X004243Y015498D01*
X004117Y015498D01*
X004000Y015450D01*
X003910Y015360D01*
X003862Y015243D01*
X003862Y015117D01*
X003910Y015000D01*
X003862Y015128D02*
X003615Y015128D01*
X003607Y015287D02*
X003880Y015287D01*
X003995Y015445D02*
X003530Y015445D01*
X003294Y015604D02*
X004445Y015604D01*
X004365Y015445D02*
X004995Y015445D01*
X004880Y015287D02*
X004480Y015287D01*
X004498Y015128D02*
X004862Y015128D01*
X004941Y014970D02*
X004419Y014970D01*
X004287Y015762D02*
X003308Y015762D01*
X003267Y015745D02*
X003426Y015811D01*
X003549Y015934D01*
X003615Y016093D01*
X003615Y016267D01*
X003549Y016426D01*
X003426Y016549D01*
X003267Y016615D01*
X003093Y016615D01*
X002934Y016549D01*
X002811Y016426D01*
X002745Y016267D01*
X002745Y016093D01*
X002811Y015934D01*
X002934Y015811D01*
X003093Y015745D01*
X003267Y015745D01*
X003052Y015762D02*
X000820Y015762D01*
X000820Y015604D02*
X003066Y015604D01*
X002830Y015445D02*
X001365Y015445D01*
X001360Y015450D02*
X001243Y015498D01*
X001117Y015498D01*
X001000Y015450D01*
X000910Y015360D01*
X000862Y015243D01*
X000862Y015117D01*
X000910Y015000D01*
X001000Y014910D01*
X001117Y014862D01*
X001243Y014862D01*
X001360Y014910D01*
X001450Y015000D01*
X001498Y015117D01*
X001498Y015243D01*
X001450Y015360D01*
X001360Y015450D01*
X001480Y015287D02*
X002753Y015287D01*
X002745Y015128D02*
X001498Y015128D01*
X001419Y014970D02*
X002796Y014970D01*
X003481Y014494D02*
X005879Y014494D01*
X005774Y014336D02*
X003586Y014336D01*
X003615Y014177D02*
X005745Y014177D01*
X005776Y014019D02*
X003584Y014019D01*
X003475Y013860D02*
X003910Y013860D01*
X003862Y013743D01*
X003862Y013617D01*
X003910Y013500D01*
X004000Y013410D01*
X004117Y013362D01*
X004243Y013362D01*
X004360Y013410D01*
X004450Y013500D01*
X004498Y013617D01*
X004498Y013743D01*
X004450Y013860D01*
X004910Y013860D01*
X004862Y013743D01*
X004862Y013617D01*
X004910Y013500D01*
X005000Y013410D01*
X005117Y013362D01*
X005243Y013362D01*
X005360Y013410D01*
X005450Y013500D01*
X005498Y013617D01*
X005498Y013743D01*
X005450Y013860D01*
X005885Y013860D01*
X005934Y013549D02*
X005811Y013426D01*
X005745Y013267D01*
X005745Y013093D01*
X005811Y012934D01*
X005934Y012811D01*
X006093Y012745D01*
X006267Y012745D01*
X006426Y012811D01*
X006549Y012934D01*
X006615Y013093D01*
X006615Y013267D01*
X006549Y013426D01*
X006426Y013549D01*
X006267Y013615D01*
X006093Y013615D01*
X005934Y013549D01*
X005928Y013543D02*
X005468Y013543D01*
X005498Y013702D02*
X007170Y013702D01*
X007185Y013543D02*
X006432Y013543D01*
X006566Y013385D02*
X007254Y013385D01*
X007443Y013226D02*
X006615Y013226D01*
X006604Y013068D02*
X007981Y013068D01*
X008140Y012909D02*
X006524Y012909D01*
X006280Y012751D02*
X008298Y012751D01*
X008457Y012592D02*
X008046Y012592D01*
X008168Y012434D02*
X008615Y012434D01*
X008774Y012275D02*
X008222Y012275D01*
X008227Y012117D02*
X008932Y012117D01*
X009091Y011958D02*
X008184Y011958D01*
X008077Y011800D02*
X009249Y011800D01*
X009408Y011641D02*
X007900Y011641D01*
X008099Y011483D02*
X009566Y011483D01*
X009725Y011324D02*
X008172Y011324D01*
X008190Y011166D02*
X009883Y011166D01*
X010042Y011007D02*
X008160Y011007D01*
X008070Y010849D02*
X010200Y010849D01*
X010664Y011007D02*
X010786Y011007D01*
X010680Y010680D02*
X011180Y010680D01*
X010680Y010680D02*
X007680Y013680D01*
X007297Y014019D02*
X006584Y014019D01*
X006615Y014177D02*
X007456Y014177D01*
X007250Y014336D02*
X006586Y014336D01*
X006362Y014617D02*
X006362Y014743D01*
X006383Y014793D01*
X006267Y014745D01*
X006093Y014745D01*
X005934Y014811D01*
X005796Y014970D02*
X005419Y014970D01*
X005498Y015128D02*
X005745Y015128D01*
X005753Y015287D02*
X005480Y015287D01*
X005365Y015445D02*
X005830Y015445D01*
X005824Y015921D02*
X004751Y015921D01*
X004592Y016079D02*
X005751Y016079D01*
X005745Y016238D02*
X004434Y016238D01*
X004326Y016396D02*
X005034Y016396D01*
X005000Y016410D02*
X005117Y016362D01*
X005243Y016362D01*
X005360Y016410D01*
X005450Y016500D01*
X005498Y016617D01*
X005498Y016743D01*
X005450Y016860D01*
X005360Y016950D01*
X005243Y016998D01*
X005117Y016998D01*
X005000Y016950D01*
X004910Y016860D01*
X004862Y016743D01*
X004862Y016617D01*
X004910Y016500D01*
X005000Y016410D01*
X004888Y016555D02*
X004472Y016555D01*
X004498Y016713D02*
X004862Y016713D01*
X004922Y016872D02*
X004438Y016872D01*
X003922Y016872D02*
X003800Y016872D01*
X003615Y017056D02*
X003615Y017533D01*
X003533Y017615D01*
X002827Y017615D01*
X002745Y017533D01*
X002745Y017347D02*
X000820Y017347D01*
X000820Y017189D02*
X002745Y017189D01*
X002745Y017030D02*
X000820Y017030D01*
X000820Y016872D02*
X000922Y016872D01*
X000910Y016860D02*
X000862Y016743D01*
X000862Y016617D01*
X000910Y016500D01*
X001000Y016410D01*
X001117Y016362D01*
X001243Y016362D01*
X001360Y016410D01*
X001450Y016500D01*
X001498Y016617D01*
X001498Y016743D01*
X001450Y016860D01*
X001360Y016950D01*
X001243Y016998D01*
X001117Y016998D01*
X001000Y016950D01*
X000910Y016860D01*
X000862Y016713D02*
X000820Y016713D01*
X000820Y016555D02*
X000888Y016555D01*
X000820Y016396D02*
X001034Y016396D01*
X000820Y016238D02*
X002745Y016238D01*
X002751Y016079D02*
X000820Y016079D01*
X000820Y015921D02*
X002824Y015921D01*
X002799Y016396D02*
X001326Y016396D01*
X001472Y016555D02*
X002947Y016555D01*
X002745Y016872D02*
X001438Y016872D01*
X001498Y016713D02*
X003336Y016713D01*
X003413Y016555D02*
X003494Y016555D01*
X003561Y016396D02*
X003653Y016396D01*
X003615Y016238D02*
X003811Y016238D01*
X003970Y016079D02*
X003609Y016079D01*
X003536Y015921D02*
X004128Y015921D01*
X005326Y016396D02*
X005799Y016396D01*
X005947Y016555D02*
X005472Y016555D01*
X005498Y016713D02*
X007362Y016713D01*
X007362Y016743D02*
X007362Y016617D01*
X007410Y016500D01*
X007500Y016410D01*
X007617Y016362D01*
X007743Y016362D01*
X007860Y016410D01*
X007950Y016500D01*
X007998Y016617D01*
X007998Y016743D01*
X007950Y016860D01*
X007860Y016950D01*
X007743Y016998D01*
X007617Y016998D01*
X007500Y016950D01*
X007410Y016860D01*
X007362Y016743D01*
X007422Y016872D02*
X006487Y016872D01*
X006589Y017030D02*
X009877Y017030D01*
X009862Y016993D02*
X009862Y016867D01*
X009910Y016750D01*
X010000Y016660D01*
X010117Y016612D01*
X010243Y016612D01*
X010360Y016660D01*
X010450Y016750D01*
X010498Y016867D01*
X010498Y016993D01*
X010450Y017110D01*
X010360Y017200D01*
X010243Y017248D01*
X010117Y017248D01*
X010000Y017200D01*
X009910Y017110D01*
X009862Y016993D01*
X009862Y016872D02*
X007938Y016872D01*
X007998Y016713D02*
X009947Y016713D01*
X009946Y016396D02*
X007826Y016396D01*
X007972Y016555D02*
X012637Y016555D01*
X012660Y016610D02*
X012612Y016493D01*
X012612Y016367D01*
X012660Y016250D01*
X012750Y016160D01*
X012867Y016112D01*
X012993Y016112D01*
X013110Y016160D01*
X013200Y016250D01*
X013248Y016367D01*
X013248Y016412D01*
X013250Y016410D01*
X013367Y016362D01*
X013493Y016362D01*
X013610Y016410D01*
X013700Y016500D01*
X013748Y016617D01*
X013748Y016743D01*
X013700Y016860D01*
X013610Y016950D01*
X013493Y016998D01*
X013367Y016998D01*
X013250Y016950D01*
X013160Y016860D01*
X013112Y016743D01*
X013112Y016698D01*
X013110Y016700D01*
X012993Y016748D01*
X012867Y016748D01*
X012750Y016700D01*
X012660Y016610D01*
X012782Y016713D02*
X010413Y016713D01*
X010498Y016872D02*
X011843Y016872D01*
X011867Y016862D02*
X011993Y016862D01*
X012110Y016910D01*
X012200Y017000D01*
X012248Y017117D01*
X012248Y017162D01*
X012250Y017160D01*
X012367Y017112D01*
X012493Y017112D01*
X012610Y017160D01*
X012700Y017250D01*
X012748Y017367D01*
X012748Y017493D01*
X012700Y017610D01*
X012610Y017700D01*
X012493Y017748D01*
X012367Y017748D01*
X012250Y017700D01*
X012160Y017610D01*
X012112Y017493D01*
X012112Y017448D01*
X012110Y017450D01*
X011993Y017498D01*
X011867Y017498D01*
X011750Y017450D01*
X011660Y017360D01*
X011612Y017243D01*
X011612Y017117D01*
X011660Y017000D01*
X011750Y016910D01*
X011867Y016862D01*
X012017Y016872D02*
X013172Y016872D01*
X013112Y016713D02*
X013078Y016713D01*
X013248Y016396D02*
X013284Y016396D01*
X013187Y016238D02*
X013862Y016238D01*
X013878Y016079D02*
X012482Y016079D01*
X012498Y016238D02*
X012673Y016238D01*
X012612Y016396D02*
X012414Y016396D01*
X012370Y015921D02*
X013990Y015921D01*
X013946Y016396D02*
X013576Y016396D01*
X013722Y016555D02*
X014888Y016555D01*
X014910Y016500D02*
X015000Y016410D01*
X015117Y016362D01*
X015243Y016362D01*
X015360Y016410D01*
X015450Y016500D01*
X015498Y016617D01*
X015498Y016743D01*
X015450Y016860D01*
X015360Y016950D01*
X015243Y016998D01*
X015117Y016998D01*
X015000Y016950D01*
X014910Y016860D01*
X014862Y016743D01*
X014862Y016617D01*
X014910Y016500D01*
X015034Y016396D02*
X014414Y016396D01*
X014498Y016238D02*
X016880Y016238D01*
X016880Y016396D02*
X016326Y016396D01*
X016360Y016410D02*
X016450Y016500D01*
X016498Y016617D01*
X016498Y016743D01*
X016450Y016860D01*
X016360Y016950D01*
X016243Y016998D01*
X016117Y016998D01*
X016000Y016950D01*
X015910Y016860D01*
X015862Y016743D01*
X015862Y016617D01*
X015910Y016500D01*
X016000Y016410D01*
X016117Y016362D01*
X016243Y016362D01*
X016360Y016410D01*
X016472Y016555D02*
X016880Y016555D01*
X016880Y016713D02*
X016498Y016713D01*
X016438Y016872D02*
X016880Y016872D01*
X016880Y017030D02*
X014212Y017030D01*
X014200Y017000D02*
X014248Y017117D01*
X014248Y017243D01*
X014200Y017360D01*
X014110Y017450D01*
X013993Y017498D01*
X013867Y017498D01*
X013750Y017450D01*
X013660Y017360D01*
X013612Y017243D01*
X013612Y017117D01*
X013660Y017000D01*
X013750Y016910D01*
X013867Y016862D01*
X013993Y016862D01*
X014110Y016910D01*
X014200Y017000D01*
X014248Y017189D02*
X016880Y017189D01*
X016880Y017347D02*
X014205Y017347D01*
X014250Y017410D02*
X014367Y017362D01*
X014493Y017362D01*
X014610Y017410D01*
X014700Y017500D01*
X014748Y017617D01*
X014748Y017743D01*
X014700Y017860D01*
X014610Y017950D01*
X014493Y017998D01*
X014367Y017998D01*
X014250Y017950D01*
X014160Y017860D01*
X014112Y017743D01*
X014112Y017617D01*
X014160Y017500D01*
X014250Y017410D01*
X014158Y017506D02*
X012743Y017506D01*
X012746Y017664D02*
X012646Y017664D01*
X012630Y017823D02*
X010465Y017823D01*
X010498Y017664D02*
X012214Y017664D01*
X012117Y017506D02*
X010452Y017506D01*
X010371Y017189D02*
X011612Y017189D01*
X011648Y017030D02*
X010483Y017030D01*
X009989Y017189D02*
X006615Y017189D01*
X006582Y017347D02*
X011655Y017347D01*
X012212Y017030D02*
X013648Y017030D01*
X013612Y017189D02*
X012638Y017189D01*
X012740Y017347D02*
X013655Y017347D01*
X014112Y017664D02*
X013114Y017664D01*
X013230Y017823D02*
X014145Y017823D01*
X014325Y017981D02*
X013248Y017981D01*
X013310Y018140D02*
X014550Y018140D01*
X014535Y017981D02*
X016880Y017981D01*
X016880Y017823D02*
X014715Y017823D01*
X014748Y017664D02*
X016880Y017664D01*
X016880Y017506D02*
X014702Y017506D01*
X014810Y018140D02*
X015800Y018140D01*
X015750Y018160D02*
X015867Y018112D01*
X015993Y018112D01*
X016110Y018160D01*
X016200Y018250D01*
X016248Y018367D01*
X016248Y018493D01*
X016200Y018610D01*
X016110Y018700D01*
X015993Y018748D01*
X015867Y018748D01*
X015750Y018700D01*
X015660Y018610D01*
X015612Y018493D01*
X015612Y018367D01*
X015660Y018250D01*
X015750Y018160D01*
X015640Y018298D02*
X014970Y018298D01*
X014998Y018457D02*
X015612Y018457D01*
X015665Y018615D02*
X014945Y018615D01*
X015110Y018774D02*
X015250Y018774D01*
X015250Y018932D02*
X015110Y018932D01*
X015110Y019091D02*
X015250Y019091D01*
X015250Y019249D02*
X015110Y019249D01*
X015110Y019408D02*
X015250Y019408D01*
X015250Y019566D02*
X015110Y019566D01*
X015110Y019725D02*
X013250Y019725D01*
X013110Y019725D02*
X002230Y019725D01*
X002219Y019566D02*
X012700Y019566D01*
X012700Y019408D02*
X012652Y019408D01*
X012700Y019883D02*
X012544Y019883D01*
X012316Y019883D02*
X011794Y019883D01*
X011566Y019883D02*
X010294Y019883D01*
X010066Y019883D02*
X009294Y019883D01*
X009066Y019883D02*
X008294Y019883D01*
X008066Y019883D02*
X007294Y019883D01*
X007066Y019883D02*
X006294Y019883D01*
X006066Y019883D02*
X005294Y019883D01*
X005066Y019883D02*
X004294Y019883D01*
X004066Y019883D02*
X003294Y019883D01*
X003066Y019883D02*
X002192Y019883D01*
X002096Y020042D02*
X002893Y020042D01*
X003467Y020042D02*
X003893Y020042D01*
X003862Y020200D02*
X003498Y020200D01*
X003450Y020359D02*
X003910Y020359D01*
X004450Y020359D02*
X004910Y020359D01*
X004862Y020200D02*
X004498Y020200D01*
X004467Y020042D02*
X004893Y020042D01*
X005467Y020042D02*
X005893Y020042D01*
X005862Y020200D02*
X005498Y020200D01*
X005450Y020359D02*
X005910Y020359D01*
X006450Y020359D02*
X006910Y020359D01*
X006862Y020200D02*
X006498Y020200D01*
X006467Y020042D02*
X006893Y020042D01*
X007467Y020042D02*
X007893Y020042D01*
X007862Y020200D02*
X007498Y020200D01*
X007450Y020359D02*
X007910Y020359D01*
X008450Y020359D02*
X008910Y020359D01*
X008862Y020200D02*
X008498Y020200D01*
X008467Y020042D02*
X008893Y020042D01*
X009467Y020042D02*
X009893Y020042D01*
X009862Y020200D02*
X009498Y020200D01*
X009450Y020359D02*
X009910Y020359D01*
X010450Y020359D02*
X011410Y020359D01*
X011362Y020200D02*
X010498Y020200D01*
X010467Y020042D02*
X011393Y020042D01*
X011950Y020359D02*
X012160Y020359D01*
X012112Y020200D02*
X011998Y020200D01*
X011967Y020042D02*
X012143Y020042D01*
X013445Y018615D02*
X014415Y018615D01*
X014469Y018748D02*
X014612Y018891D01*
X014690Y019079D01*
X014690Y019281D01*
X014612Y019469D01*
X014469Y019612D01*
X014281Y019690D01*
X014079Y019690D01*
X013891Y019612D01*
X013748Y019469D01*
X013670Y019281D01*
X013670Y019079D01*
X013748Y018891D01*
X013891Y018748D01*
X014079Y018670D01*
X014281Y018670D01*
X014469Y018748D01*
X014495Y018774D02*
X014734Y018774D01*
X014700Y018932D02*
X014629Y018932D01*
X014690Y019091D02*
X014700Y019091D01*
X014690Y019249D02*
X014700Y019249D01*
X014700Y019408D02*
X014638Y019408D01*
X014700Y019566D02*
X014515Y019566D01*
X014700Y019883D02*
X013660Y019883D01*
X013660Y020042D02*
X014700Y020042D01*
X014700Y020200D02*
X013660Y020200D01*
X013660Y020359D02*
X014700Y020359D01*
X015250Y019725D02*
X018630Y019725D01*
X018630Y019723D02*
X018630Y019700D01*
X019160Y019700D01*
X019160Y020230D01*
X019137Y020230D01*
X019051Y020216D01*
X018969Y020190D01*
X018892Y020150D01*
X018822Y020100D01*
X018760Y020038D01*
X018710Y019968D01*
X018670Y019891D01*
X018644Y019809D01*
X018630Y019723D01*
X018630Y019660D02*
X018630Y019637D01*
X018644Y019551D01*
X018670Y019469D01*
X018710Y019392D01*
X018760Y019322D01*
X018822Y019260D01*
X018892Y019210D01*
X018969Y019170D01*
X019051Y019144D01*
X019137Y019130D01*
X019160Y019130D01*
X019160Y019660D01*
X018630Y019660D01*
X018641Y019566D02*
X015660Y019566D01*
X015660Y019408D02*
X015708Y019408D01*
X016152Y019408D02*
X018702Y019408D01*
X018837Y019249D02*
X016246Y019249D01*
X016237Y019091D02*
X016869Y019091D01*
X016732Y018932D02*
X016132Y018932D01*
X016195Y018615D02*
X016670Y018615D01*
X016670Y018774D02*
X015626Y018774D01*
X015660Y018932D02*
X015728Y018932D01*
X016248Y018457D02*
X016721Y018457D01*
X016841Y018298D02*
X016220Y018298D01*
X016060Y018140D02*
X016880Y018140D01*
X017480Y018140D02*
X018077Y018140D01*
X018160Y018140D02*
X018200Y018140D01*
X018200Y018130D02*
X018223Y018130D01*
X018309Y018144D01*
X018391Y018170D01*
X018468Y018210D01*
X018538Y018260D01*
X018600Y018322D01*
X018650Y018392D01*
X018690Y018469D01*
X018716Y018551D01*
X018730Y018637D01*
X018730Y018660D01*
X018200Y018660D01*
X018200Y018130D01*
X018283Y018140D02*
X020032Y018140D01*
X020032Y018298D02*
X018576Y018298D01*
X018683Y018457D02*
X019454Y018457D01*
X019410Y018500D02*
X019500Y018410D01*
X019617Y018362D01*
X019743Y018362D01*
X019860Y018410D01*
X019950Y018500D01*
X019998Y018617D01*
X019998Y018743D01*
X019950Y018860D01*
X019860Y018950D01*
X019743Y018998D01*
X019617Y018998D01*
X019500Y018950D01*
X019410Y018860D01*
X019362Y018743D01*
X019362Y018617D01*
X019410Y018500D01*
X019363Y018615D02*
X018727Y018615D01*
X018730Y018700D02*
X018730Y018723D01*
X018716Y018809D01*
X018690Y018891D01*
X018650Y018968D01*
X018600Y019038D01*
X018538Y019100D01*
X018468Y019150D01*
X018391Y019190D01*
X018309Y019216D01*
X018223Y019230D01*
X018200Y019230D01*
X018200Y018700D01*
X018730Y018700D01*
X018722Y018774D02*
X019374Y018774D01*
X019482Y018932D02*
X018669Y018932D01*
X018547Y019091D02*
X020032Y019091D01*
X020032Y019249D02*
X019523Y019249D01*
X019538Y019260D02*
X019600Y019322D01*
X019650Y019392D01*
X019690Y019469D01*
X019716Y019551D01*
X019730Y019637D01*
X019730Y019660D01*
X019200Y019660D01*
X019200Y019700D01*
X019160Y019700D01*
X019160Y019660D01*
X019200Y019660D01*
X019200Y019130D01*
X019223Y019130D01*
X019309Y019144D01*
X019391Y019170D01*
X019468Y019210D01*
X019538Y019260D01*
X019658Y019408D02*
X020032Y019408D01*
X020032Y019566D02*
X019719Y019566D01*
X019730Y019700D02*
X019730Y019723D01*
X019716Y019809D01*
X019690Y019891D01*
X019650Y019968D01*
X019600Y020038D01*
X019538Y020100D01*
X019468Y020150D01*
X019391Y020190D01*
X019309Y020216D01*
X019223Y020230D01*
X019200Y020230D01*
X019200Y019700D01*
X019730Y019700D01*
X019730Y019725D02*
X020032Y019725D01*
X020032Y019883D02*
X019692Y019883D01*
X019596Y020042D02*
X020032Y020042D01*
X020032Y020200D02*
X019359Y020200D01*
X019200Y020200D02*
X019160Y020200D01*
X019160Y020042D02*
X019200Y020042D01*
X019200Y019883D02*
X019160Y019883D01*
X019160Y019725D02*
X019200Y019725D01*
X019200Y019566D02*
X019160Y019566D01*
X019160Y019408D02*
X019200Y019408D01*
X019200Y019249D02*
X019160Y019249D01*
X018668Y019883D02*
X017794Y019883D01*
X017566Y019883D02*
X016794Y019883D01*
X016566Y019883D02*
X016044Y019883D01*
X015816Y019883D02*
X015660Y019883D01*
X016217Y020042D02*
X016393Y020042D01*
X016362Y020200D02*
X016248Y020200D01*
X016200Y020359D02*
X016410Y020359D01*
X016950Y020359D02*
X017410Y020359D01*
X017362Y020200D02*
X016998Y020200D01*
X016967Y020042D02*
X017393Y020042D01*
X017967Y020042D02*
X018764Y020042D01*
X019001Y020200D02*
X017998Y020200D01*
X017950Y020359D02*
X020032Y020359D01*
X020032Y018932D02*
X019878Y018932D01*
X019986Y018774D02*
X020032Y018774D01*
X020032Y018615D02*
X019997Y018615D01*
X020032Y018457D02*
X019906Y018457D01*
X019743Y017998D02*
X019617Y017998D01*
X019500Y017950D01*
X019410Y017860D01*
X019362Y017743D01*
X019362Y017617D01*
X019410Y017500D01*
X019500Y017410D01*
X019617Y017362D01*
X019743Y017362D01*
X019860Y017410D01*
X019950Y017500D01*
X019998Y017617D01*
X019998Y017743D01*
X019950Y017860D01*
X019860Y017950D01*
X019743Y017998D01*
X019785Y017981D02*
X020032Y017981D01*
X020032Y017823D02*
X019965Y017823D01*
X019998Y017664D02*
X020032Y017664D01*
X020032Y017506D02*
X019952Y017506D01*
X020032Y017347D02*
X017480Y017347D01*
X017480Y017189D02*
X020032Y017189D01*
X020032Y017030D02*
X017480Y017030D01*
X017480Y017506D02*
X019408Y017506D01*
X019362Y017664D02*
X017480Y017664D01*
X017480Y017823D02*
X019395Y017823D01*
X019575Y017981D02*
X017480Y017981D01*
X017519Y018298D02*
X017784Y018298D01*
X017677Y018457D02*
X017639Y018457D01*
X017628Y018932D02*
X017691Y018932D01*
X017813Y019091D02*
X017491Y019091D01*
X018160Y019091D02*
X018200Y019091D01*
X018200Y018932D02*
X018160Y018932D01*
X018160Y018774D02*
X018200Y018774D01*
X018200Y018615D02*
X018160Y018615D01*
X018160Y018457D02*
X018200Y018457D01*
X018200Y018298D02*
X018160Y018298D01*
X019500Y016950D02*
X019410Y016860D01*
X019362Y016743D01*
X019362Y016617D01*
X019410Y016500D01*
X019500Y016410D01*
X019617Y016362D01*
X019743Y016362D01*
X019860Y016410D01*
X019950Y016500D01*
X019998Y016617D01*
X019998Y016743D01*
X019950Y016860D01*
X019860Y016950D01*
X019743Y016998D01*
X019617Y016998D01*
X019500Y016950D01*
X019422Y016872D02*
X017938Y016872D01*
X017998Y016713D02*
X019362Y016713D01*
X019388Y016555D02*
X017972Y016555D01*
X017826Y016396D02*
X019534Y016396D01*
X019826Y016396D02*
X020032Y016396D01*
X020032Y016238D02*
X017480Y016238D01*
X017480Y016396D02*
X017534Y016396D01*
X017480Y016079D02*
X020032Y016079D01*
X020032Y015921D02*
X019889Y015921D01*
X019860Y015950D02*
X019950Y015860D01*
X019998Y015743D01*
X019998Y015617D01*
X019950Y015500D01*
X019860Y015410D01*
X019743Y015362D01*
X019617Y015362D01*
X019500Y015410D01*
X019410Y015500D01*
X019362Y015617D01*
X019362Y015743D01*
X019410Y015860D01*
X019500Y015950D01*
X019617Y015998D01*
X019743Y015998D01*
X019860Y015950D01*
X019990Y015762D02*
X020032Y015762D01*
X020032Y015604D02*
X019993Y015604D01*
X020032Y015445D02*
X019895Y015445D01*
X020032Y015287D02*
X017480Y015287D01*
X017480Y015128D02*
X020032Y015128D01*
X020032Y014970D02*
X019812Y014970D01*
X019860Y014950D02*
X019743Y014998D01*
X019617Y014998D01*
X019500Y014950D01*
X019410Y014860D01*
X019362Y014743D01*
X019362Y014617D01*
X019410Y014500D01*
X019500Y014410D01*
X019617Y014362D01*
X019743Y014362D01*
X019860Y014410D01*
X019950Y014500D01*
X019998Y014617D01*
X019998Y014743D01*
X019950Y014860D01*
X019860Y014950D01*
X019970Y014811D02*
X020032Y014811D01*
X020032Y014653D02*
X019998Y014653D01*
X020032Y014494D02*
X019944Y014494D01*
X020032Y014336D02*
X017480Y014336D01*
X017480Y014177D02*
X020032Y014177D01*
X020032Y014019D02*
X017480Y014019D01*
X017944Y014494D02*
X019416Y014494D01*
X019362Y014653D02*
X017998Y014653D01*
X017970Y014811D02*
X019390Y014811D01*
X019548Y014970D02*
X017812Y014970D01*
X017548Y014970D02*
X017480Y014970D01*
X017895Y015445D02*
X019465Y015445D01*
X019367Y015604D02*
X017993Y015604D01*
X017990Y015762D02*
X019370Y015762D01*
X019471Y015921D02*
X017889Y015921D01*
X016034Y016396D02*
X015326Y016396D01*
X015472Y016555D02*
X015888Y016555D01*
X015862Y016713D02*
X015498Y016713D01*
X015438Y016872D02*
X015922Y016872D01*
X014922Y016872D02*
X014017Y016872D01*
X013843Y016872D02*
X013688Y016872D01*
X013748Y016713D02*
X014862Y016713D01*
X014390Y018298D02*
X013470Y018298D01*
X013498Y018457D02*
X014362Y018457D01*
X013865Y018774D02*
X013626Y018774D01*
X013660Y018932D02*
X013731Y018932D01*
X013670Y019091D02*
X013660Y019091D01*
X013660Y019249D02*
X013670Y019249D01*
X013660Y019408D02*
X013722Y019408D01*
X013660Y019566D02*
X013845Y019566D01*
X012862Y018457D02*
X011844Y018457D01*
X011975Y018298D02*
X012890Y018298D01*
X012690Y018140D02*
X011998Y018140D01*
X011931Y017981D02*
X012612Y017981D01*
X011946Y016396D02*
X010414Y016396D01*
X010498Y016238D02*
X011862Y016238D01*
X011878Y016079D02*
X010482Y016079D01*
X010370Y015921D02*
X011990Y015921D01*
X013107Y014494D02*
X008944Y014494D01*
X008416Y014494D02*
X008198Y014494D01*
X008230Y014653D02*
X008362Y014653D01*
X008390Y014811D02*
X008216Y014811D01*
X008149Y014970D02*
X008441Y014970D01*
X008362Y015128D02*
X007999Y015128D01*
X007700Y015128D02*
X007660Y015128D01*
X007660Y014970D02*
X007700Y014970D01*
X007700Y014811D02*
X007660Y014811D01*
X007361Y015128D02*
X006615Y015128D01*
X006607Y015287D02*
X008380Y015287D01*
X008495Y015445D02*
X006530Y015445D01*
X006536Y015921D02*
X009990Y015921D01*
X009878Y016079D02*
X006609Y016079D01*
X006615Y016238D02*
X009862Y016238D01*
X009908Y017506D02*
X007952Y017506D01*
X007998Y017664D02*
X009862Y017664D01*
X009895Y017823D02*
X007965Y017823D01*
X008117Y018362D02*
X008243Y018362D01*
X008360Y018410D01*
X008450Y018500D01*
X008498Y018617D01*
X008498Y018743D01*
X008450Y018860D01*
X008360Y018950D01*
X008243Y018998D01*
X008117Y018998D01*
X008000Y018950D01*
X007910Y018860D01*
X007862Y018743D01*
X007862Y018617D01*
X007910Y018500D01*
X008000Y018410D01*
X008117Y018362D01*
X007954Y018457D02*
X007406Y018457D01*
X007450Y018500D02*
X007498Y018617D01*
X007498Y018743D01*
X007450Y018860D01*
X007360Y018950D01*
X007243Y018998D01*
X007117Y018998D01*
X007000Y018950D01*
X006910Y018860D01*
X006862Y018743D01*
X006862Y018617D01*
X006910Y018500D01*
X007000Y018410D01*
X007117Y018362D01*
X007243Y018362D01*
X007360Y018410D01*
X007450Y018500D01*
X007497Y018615D02*
X007863Y018615D01*
X007874Y018774D02*
X007486Y018774D01*
X007378Y018932D02*
X007982Y018932D01*
X008378Y018932D02*
X008982Y018932D01*
X009000Y018950D02*
X008910Y018860D01*
X008862Y018743D01*
X008862Y018617D01*
X008910Y018500D01*
X009000Y018410D01*
X009117Y018362D01*
X009243Y018362D01*
X009360Y018410D01*
X009450Y018500D01*
X009498Y018617D01*
X009498Y018743D01*
X009450Y018860D01*
X009360Y018950D01*
X009243Y018998D01*
X009117Y018998D01*
X009000Y018950D01*
X008874Y018774D02*
X008486Y018774D01*
X008497Y018615D02*
X008863Y018615D01*
X008954Y018457D02*
X008406Y018457D01*
X009378Y018932D02*
X009982Y018932D01*
X009874Y018774D02*
X009486Y018774D01*
X009497Y018615D02*
X009863Y018615D01*
X009954Y018457D02*
X009406Y018457D01*
X007408Y017506D02*
X006470Y017506D01*
X005873Y016872D02*
X005438Y016872D01*
X006413Y016555D02*
X007388Y016555D01*
X007534Y016396D02*
X006561Y016396D01*
X006812Y014970D02*
X007211Y014970D01*
X007144Y014811D02*
X006970Y014811D01*
X006998Y014653D02*
X007130Y014653D01*
X007162Y014494D02*
X006944Y014494D01*
X007203Y013860D02*
X006475Y013860D01*
X005794Y013385D02*
X005298Y013385D01*
X005062Y013385D02*
X004298Y013385D01*
X004468Y013543D02*
X004892Y013543D01*
X004862Y013702D02*
X004498Y013702D01*
X004450Y013860D02*
X004360Y013950D01*
X004243Y013998D01*
X004117Y013998D01*
X004000Y013950D01*
X003910Y013860D01*
X003862Y013702D02*
X001498Y013702D01*
X001468Y013543D02*
X002928Y013543D01*
X003432Y013543D02*
X003892Y013543D01*
X004062Y013385D02*
X003566Y013385D01*
X003615Y013226D02*
X005745Y013226D01*
X005756Y013068D02*
X003604Y013068D01*
X003524Y012909D02*
X005836Y012909D01*
X006080Y012751D02*
X003280Y012751D01*
X003322Y012592D02*
X006038Y012592D01*
X005818Y012434D02*
X005376Y012434D01*
X005360Y012450D02*
X005243Y012498D01*
X005117Y012498D01*
X005000Y012450D01*
X004910Y012360D01*
X004862Y012243D01*
X004862Y012117D01*
X004910Y012000D01*
X005000Y011910D01*
X005117Y011862D01*
X005243Y011862D01*
X005360Y011910D01*
X005450Y012000D01*
X005498Y012117D01*
X005498Y012243D01*
X005450Y012360D01*
X005360Y012450D01*
X005485Y012275D02*
X005749Y012275D01*
X005745Y012117D02*
X005498Y012117D01*
X005408Y011958D02*
X005801Y011958D01*
X005962Y011800D02*
X003398Y011800D01*
X003559Y011958D02*
X003952Y011958D01*
X003910Y012000D02*
X004000Y011910D01*
X004117Y011862D01*
X004243Y011862D01*
X004360Y011910D01*
X004450Y012000D01*
X004498Y012117D01*
X004498Y012243D01*
X004450Y012360D01*
X004360Y012450D01*
X004243Y012498D01*
X004117Y012498D01*
X004000Y012450D01*
X003910Y012360D01*
X003862Y012243D01*
X003862Y012117D01*
X003910Y012000D01*
X003862Y012117D02*
X003615Y012117D01*
X003611Y012275D02*
X003875Y012275D01*
X003984Y012434D02*
X003542Y012434D01*
X002818Y012434D02*
X001376Y012434D01*
X001485Y012275D02*
X002749Y012275D01*
X002745Y012117D02*
X001498Y012117D01*
X001408Y011958D02*
X002801Y011958D01*
X003493Y011483D02*
X005813Y011483D01*
X005727Y011324D02*
X003960Y011324D01*
X004119Y011166D02*
X006162Y011166D01*
X006198Y011166D02*
X007170Y011166D01*
X007188Y011324D02*
X006633Y011324D01*
X006655Y011162D02*
X006198Y011162D01*
X006198Y010705D01*
X006217Y010705D01*
X006291Y010717D01*
X006362Y010740D01*
X006429Y010774D01*
X006489Y010818D01*
X006542Y010871D01*
X006586Y010931D01*
X006620Y010998D01*
X006643Y011069D01*
X006655Y011143D01*
X006655Y011162D01*
X006623Y011007D02*
X007200Y011007D01*
X007290Y010849D02*
X006520Y010849D01*
X006198Y010849D02*
X006162Y010849D01*
X006162Y011007D02*
X006198Y011007D01*
X006198Y011324D02*
X006162Y011324D01*
X006162Y011483D02*
X006198Y011483D01*
X006198Y011641D02*
X006162Y011641D01*
X006062Y011641D02*
X001900Y011641D01*
X001460Y011641D02*
X000820Y011641D01*
X000820Y011483D02*
X001261Y011483D01*
X001188Y011324D02*
X000820Y011324D01*
X000820Y011166D02*
X001170Y011166D01*
X001200Y011007D02*
X000820Y011007D01*
X000820Y010849D02*
X001290Y010849D01*
X001470Y010690D02*
X000820Y010690D01*
X000820Y010532D02*
X001256Y010532D01*
X001164Y010373D02*
X000820Y010373D01*
X000820Y010215D02*
X001130Y010215D01*
X001143Y010056D02*
X000820Y010056D01*
X000820Y009898D02*
X001207Y009898D01*
X001351Y009739D02*
X000820Y009739D01*
X000820Y009581D02*
X003010Y009581D01*
X003069Y009717D02*
X003143Y009705D01*
X003162Y009705D01*
X003162Y010162D01*
X002705Y010162D01*
X002705Y010143D01*
X002717Y010069D01*
X002740Y009998D01*
X002774Y009931D01*
X002818Y009871D01*
X002871Y009818D01*
X002931Y009774D01*
X002998Y009740D01*
X003069Y009717D01*
X003000Y009739D02*
X002009Y009739D01*
X002038Y009760D02*
X002100Y009822D01*
X002150Y009892D01*
X002190Y009969D01*
X002216Y010051D01*
X002230Y010137D01*
X002230Y010160D01*
X001700Y010160D01*
X001700Y009630D01*
X001723Y009630D01*
X001809Y009644D01*
X001891Y009670D01*
X001968Y009710D01*
X002038Y009760D01*
X002153Y009898D02*
X002798Y009898D01*
X002721Y010056D02*
X002217Y010056D01*
X002230Y010215D02*
X002705Y010215D01*
X002745Y010373D02*
X002196Y010373D01*
X002104Y010532D02*
X002860Y010532D01*
X003162Y010532D02*
X003198Y010532D01*
X003198Y010373D02*
X003162Y010373D01*
X003162Y010215D02*
X003198Y010215D01*
X003198Y010056D02*
X003162Y010056D01*
X003162Y009898D02*
X003198Y009898D01*
X003198Y009739D02*
X003162Y009739D01*
X003360Y009739D02*
X003862Y009739D01*
X003877Y009581D02*
X003350Y009581D01*
X003551Y009422D02*
X003988Y009422D01*
X003948Y009898D02*
X003562Y009898D01*
X002809Y009422D02*
X000820Y009422D01*
X000820Y009264D02*
X002745Y009264D01*
X002745Y009105D02*
X000820Y009105D01*
X000820Y008947D02*
X002806Y008947D01*
X002990Y008788D02*
X000820Y008788D01*
X000820Y008630D02*
X006306Y008630D01*
X006596Y008313D02*
X006623Y008313D01*
X006615Y008154D02*
X006782Y008154D01*
X006940Y007996D02*
X006574Y007996D01*
X006452Y007837D02*
X007099Y007837D01*
X007257Y007679D02*
X000820Y007679D01*
X000820Y007837D02*
X002908Y007837D01*
X002786Y007996D02*
X001445Y007996D01*
X001450Y008000D02*
X001498Y008117D01*
X001498Y008243D01*
X001450Y008360D01*
X001360Y008450D01*
X001243Y008498D01*
X001117Y008498D01*
X001000Y008450D01*
X000910Y008360D01*
X000862Y008243D01*
X000862Y008117D01*
X000910Y008000D01*
X001000Y007910D01*
X001117Y007862D01*
X001243Y007862D01*
X001360Y007910D01*
X001450Y008000D01*
X001498Y008154D02*
X002745Y008154D01*
X002764Y008313D02*
X001469Y008313D01*
X001309Y008471D02*
X002856Y008471D01*
X003504Y008471D02*
X004051Y008471D01*
X004000Y008450D02*
X003910Y008360D01*
X003862Y008243D01*
X003862Y008117D01*
X003910Y008000D01*
X004000Y007910D01*
X004117Y007862D01*
X004243Y007862D01*
X004360Y007910D01*
X004450Y008000D01*
X004498Y008117D01*
X004498Y008243D01*
X004450Y008360D01*
X004360Y008450D01*
X004243Y008498D01*
X004117Y008498D01*
X004000Y008450D01*
X003891Y008313D02*
X003596Y008313D01*
X003615Y008154D02*
X003862Y008154D01*
X003915Y007996D02*
X003574Y007996D01*
X002905Y007520D02*
X000820Y007520D01*
X000820Y007362D02*
X002784Y007362D01*
X002745Y007203D02*
X000820Y007203D01*
X000820Y007045D02*
X002765Y007045D01*
X003378Y006569D02*
X003882Y006569D01*
X004000Y006411D02*
X003555Y006411D01*
X003615Y006252D02*
X005745Y006252D01*
X005745Y006094D02*
X003615Y006094D01*
X003549Y005935D02*
X005811Y005935D01*
X005805Y006411D02*
X005360Y006411D01*
X005360Y006410D02*
X005450Y006500D01*
X005498Y006617D01*
X005498Y006743D01*
X005450Y006860D01*
X005360Y006950D01*
X005243Y006998D01*
X005117Y006998D01*
X005000Y006950D01*
X004910Y006860D01*
X004862Y006743D01*
X004862Y006617D01*
X004910Y006500D01*
X005000Y006410D01*
X005117Y006362D01*
X005243Y006362D01*
X005360Y006410D01*
X005478Y006569D02*
X005982Y006569D01*
X006378Y006569D02*
X008367Y006569D01*
X008360Y006450D02*
X008243Y006498D01*
X008117Y006498D01*
X008000Y006450D01*
X007910Y006360D01*
X007862Y006243D01*
X007862Y006117D01*
X007910Y006000D01*
X008000Y005910D01*
X008117Y005862D01*
X008243Y005862D01*
X008360Y005910D01*
X008450Y006000D01*
X008498Y006117D01*
X008498Y006243D01*
X008450Y006360D01*
X008360Y006450D01*
X008399Y006411D02*
X008525Y006411D01*
X008494Y006252D02*
X008684Y006252D01*
X008842Y006094D02*
X008488Y006094D01*
X008385Y005935D02*
X009001Y005935D01*
X009374Y006411D02*
X009486Y006411D01*
X009645Y006569D02*
X009215Y006569D01*
X010176Y006252D02*
X010833Y006252D01*
X010700Y006411D02*
X010335Y006411D01*
X010493Y006569D02*
X010641Y006569D01*
X010375Y005935D02*
X011975Y005935D01*
X012313Y004826D02*
X011547Y004826D01*
X014218Y005301D02*
X014248Y005301D01*
X015336Y005460D02*
X016524Y005460D01*
X016500Y005450D02*
X016410Y005360D01*
X016362Y005243D01*
X016362Y005117D01*
X016410Y005000D01*
X016500Y004910D01*
X016617Y004862D01*
X016743Y004862D01*
X016860Y004910D01*
X016950Y005000D01*
X016998Y005117D01*
X016998Y005243D01*
X016950Y005360D01*
X016860Y005450D01*
X016743Y005498D01*
X016617Y005498D01*
X016500Y005450D01*
X016386Y005301D02*
X015474Y005301D01*
X015498Y005143D02*
X016362Y005143D01*
X016426Y004984D02*
X015434Y004984D01*
X016836Y005460D02*
X018024Y005460D01*
X017886Y005301D02*
X016974Y005301D01*
X016998Y005143D02*
X017862Y005143D01*
X017926Y004984D02*
X016934Y004984D01*
X017473Y006252D02*
X017887Y006252D01*
X017728Y006411D02*
X017632Y006411D01*
X018527Y008154D02*
X020032Y008154D01*
X020032Y008313D02*
X018534Y008313D01*
X018690Y008471D02*
X019439Y008471D01*
X019410Y008500D02*
X019500Y008410D01*
X019617Y008362D01*
X019743Y008362D01*
X019860Y008410D01*
X019950Y008500D01*
X019998Y008617D01*
X019998Y008743D01*
X019950Y008860D01*
X019860Y008950D01*
X019743Y008998D01*
X019617Y008998D01*
X019500Y008950D01*
X019410Y008860D01*
X019362Y008743D01*
X019362Y008617D01*
X019410Y008500D01*
X019362Y008630D02*
X018690Y008630D01*
X018690Y008788D02*
X019380Y008788D01*
X019497Y008947D02*
X018635Y008947D01*
X018476Y009105D02*
X020032Y009105D01*
X020032Y008947D02*
X019863Y008947D01*
X019980Y008788D02*
X020032Y008788D01*
X020032Y008630D02*
X019998Y008630D01*
X020032Y008471D02*
X019921Y008471D01*
X018180Y008680D02*
X018180Y011180D01*
X016984Y012434D02*
X016358Y012434D01*
X015423Y010373D02*
X014297Y010373D01*
X013924Y010849D02*
X013662Y010849D01*
X013690Y010690D02*
X013766Y010690D01*
X013574Y011007D02*
X014083Y011007D01*
X014241Y011166D02*
X013341Y011166D01*
X012928Y011483D02*
X012432Y011483D01*
X012450Y011500D02*
X012498Y011617D01*
X012498Y011743D01*
X012450Y011860D01*
X012360Y011950D01*
X012243Y011998D01*
X012117Y011998D01*
X012000Y011950D01*
X011910Y011860D01*
X011862Y011743D01*
X011862Y011617D01*
X011910Y011500D01*
X012000Y011410D01*
X012117Y011362D01*
X012243Y011362D01*
X012360Y011410D01*
X012450Y011500D01*
X012498Y011641D02*
X012862Y011641D01*
X012885Y011800D02*
X012475Y011800D01*
X012340Y011958D02*
X013020Y011958D01*
X012020Y011958D02*
X009713Y011958D01*
X009872Y011800D02*
X011885Y011800D01*
X011862Y011641D02*
X010030Y011641D01*
X010189Y011483D02*
X011928Y011483D01*
X011923Y010373D02*
X011594Y010373D01*
X011389Y010215D02*
X011862Y010215D01*
X011888Y009422D02*
X012498Y009422D01*
X012656Y009581D02*
X006983Y009581D01*
X006872Y009422D02*
X011472Y009422D01*
X011464Y008947D02*
X010863Y008947D01*
X010980Y008788D02*
X011864Y008788D01*
X011896Y008947D02*
X012022Y008947D01*
X011993Y009105D02*
X012181Y009105D01*
X012339Y009264D02*
X011990Y009264D01*
X011705Y008630D02*
X010998Y008630D01*
X010921Y008471D02*
X011547Y008471D01*
X011071Y007996D02*
X010250Y007996D01*
X008208Y006728D02*
X005498Y006728D01*
X005424Y006886D02*
X005859Y006886D01*
X006501Y006886D02*
X008050Y006886D01*
X007891Y007045D02*
X006595Y007045D01*
X006615Y007203D02*
X007733Y007203D01*
X007574Y007362D02*
X006576Y007362D01*
X006455Y007520D02*
X007416Y007520D01*
X007961Y006411D02*
X006555Y006411D01*
X006615Y006252D02*
X007866Y006252D01*
X007872Y006094D02*
X006615Y006094D01*
X006549Y005935D02*
X007975Y005935D01*
X006905Y005618D02*
X000820Y005618D01*
X000820Y005460D02*
X001024Y005460D01*
X001000Y005450D02*
X000910Y005360D01*
X000862Y005243D01*
X000862Y005117D01*
X000910Y005000D01*
X001000Y004910D01*
X001117Y004862D01*
X001243Y004862D01*
X001360Y004910D01*
X001450Y005000D01*
X001498Y005117D01*
X001498Y005243D01*
X001450Y005360D01*
X001360Y005450D01*
X001243Y005498D01*
X001117Y005498D01*
X001000Y005450D01*
X000886Y005301D02*
X000820Y005301D01*
X000820Y005143D02*
X000862Y005143D01*
X000820Y004984D02*
X000926Y004984D01*
X000820Y004826D02*
X002919Y004826D01*
X002790Y004984D02*
X001434Y004984D01*
X001498Y005143D02*
X002745Y005143D01*
X002759Y005301D02*
X001474Y005301D01*
X001336Y005460D02*
X002844Y005460D01*
X003516Y005460D02*
X004024Y005460D01*
X004000Y005450D02*
X003910Y005360D01*
X003862Y005243D01*
X003862Y005117D01*
X003910Y005000D01*
X004000Y004910D01*
X004117Y004862D01*
X004243Y004862D01*
X004360Y004910D01*
X004450Y005000D01*
X004498Y005117D01*
X004498Y005243D01*
X004450Y005360D01*
X004360Y005450D01*
X004243Y005498D01*
X004117Y005498D01*
X004000Y005450D01*
X003886Y005301D02*
X003601Y005301D01*
X003615Y005143D02*
X003862Y005143D01*
X003926Y004984D02*
X003570Y004984D01*
X004434Y004984D02*
X004926Y004984D01*
X004862Y005143D02*
X004498Y005143D01*
X004474Y005301D02*
X004886Y005301D01*
X005024Y005460D02*
X004336Y005460D01*
X004360Y006411D02*
X005000Y006411D01*
X004882Y006569D02*
X004478Y006569D01*
X004498Y006728D02*
X004862Y006728D01*
X004936Y006886D02*
X004424Y006886D01*
X004445Y007996D02*
X004915Y007996D01*
X004862Y008154D02*
X004498Y008154D01*
X004469Y008313D02*
X004891Y008313D01*
X005051Y008471D02*
X004309Y008471D01*
X005704Y009581D02*
X006010Y009581D01*
X005916Y010532D02*
X005463Y010532D01*
X006298Y011641D02*
X006362Y011641D01*
X006615Y012117D02*
X007133Y012117D01*
X007138Y012275D02*
X006611Y012275D01*
X006542Y012434D02*
X007192Y012434D01*
X007314Y012592D02*
X006322Y012592D01*
X006840Y011958D02*
X007176Y011958D01*
X007283Y011800D02*
X006975Y011800D01*
X006998Y011641D02*
X007460Y011641D01*
X007261Y011483D02*
X006932Y011483D01*
X007660Y012275D02*
X007700Y012275D01*
X007700Y012434D02*
X007660Y012434D01*
X007660Y012592D02*
X007700Y012592D01*
X008063Y014019D02*
X012903Y014019D01*
X012862Y014177D02*
X007904Y014177D01*
X008110Y014336D02*
X012900Y014336D01*
X006954Y018457D02*
X006406Y018457D01*
X006450Y018500D02*
X006360Y018410D01*
X006243Y018362D01*
X006117Y018362D01*
X006000Y018410D01*
X005910Y018500D01*
X005862Y018617D01*
X005862Y018743D01*
X005910Y018860D01*
X006000Y018950D01*
X006117Y018998D01*
X006243Y018998D01*
X006360Y018950D01*
X006450Y018860D01*
X006498Y018743D01*
X006498Y018617D01*
X006450Y018500D01*
X006497Y018615D02*
X006863Y018615D01*
X006874Y018774D02*
X006486Y018774D01*
X006378Y018932D02*
X006982Y018932D01*
X005982Y018932D02*
X005378Y018932D01*
X005360Y018950D02*
X005243Y018998D01*
X005117Y018998D01*
X005000Y018950D01*
X004910Y018860D01*
X004862Y018743D01*
X004862Y018617D01*
X004910Y018500D01*
X005000Y018410D01*
X005117Y018362D01*
X005243Y018362D01*
X005360Y018410D01*
X005450Y018500D01*
X005498Y018617D01*
X005498Y018743D01*
X005450Y018860D01*
X005360Y018950D01*
X005486Y018774D02*
X005874Y018774D01*
X005863Y018615D02*
X005497Y018615D01*
X005406Y018457D02*
X005954Y018457D01*
X004954Y018457D02*
X004406Y018457D01*
X004450Y018500D02*
X004498Y018617D01*
X004498Y018743D01*
X004450Y018860D01*
X004360Y018950D01*
X004243Y018998D01*
X004117Y018998D01*
X004000Y018950D01*
X003910Y018860D01*
X003862Y018743D01*
X003862Y018617D01*
X003910Y018500D01*
X004000Y018410D01*
X004117Y018362D01*
X004243Y018362D01*
X004360Y018410D01*
X004450Y018500D01*
X004497Y018615D02*
X004863Y018615D01*
X004874Y018774D02*
X004486Y018774D01*
X004378Y018932D02*
X004982Y018932D01*
X003982Y018932D02*
X003378Y018932D01*
X003486Y018774D02*
X003874Y018774D01*
X003863Y018615D02*
X003497Y018615D01*
X003406Y018457D02*
X003954Y018457D01*
X002982Y018932D02*
X000820Y018932D01*
X000820Y018774D02*
X002874Y018774D01*
X001501Y020200D02*
X000820Y020200D01*
X000820Y020042D02*
X001264Y020042D01*
X001168Y019883D02*
X000820Y019883D01*
X000820Y019725D02*
X001130Y019725D01*
X001141Y019566D02*
X000820Y019566D01*
X000820Y019408D02*
X001202Y019408D01*
X000995Y015445D02*
X000820Y015445D01*
X000820Y015287D02*
X000880Y015287D01*
X000862Y015128D02*
X000820Y015128D01*
X000820Y014970D02*
X000941Y014970D01*
X001117Y013998D02*
X001000Y013950D01*
X000910Y013860D01*
X000820Y013860D01*
X000910Y013860D02*
X000862Y013743D01*
X000862Y013617D01*
X000910Y013500D01*
X001000Y013410D01*
X001117Y013362D01*
X001243Y013362D01*
X001062Y013385D02*
X000820Y013385D01*
X000820Y013543D02*
X000892Y013543D01*
X000862Y013702D02*
X000820Y013702D01*
X001117Y013998D02*
X001243Y013998D01*
X001360Y013950D01*
X001450Y013860D01*
X004376Y012434D02*
X004984Y012434D01*
X004875Y012275D02*
X004485Y012275D01*
X004498Y012117D02*
X004862Y012117D01*
X004952Y011958D02*
X004408Y011958D01*
X003587Y010849D02*
X003464Y010849D01*
X001700Y010056D02*
X001660Y010056D01*
X001660Y009898D02*
X001700Y009898D01*
X001700Y009739D02*
X001660Y009739D01*
X001051Y008471D02*
X000820Y008471D01*
X000820Y008313D02*
X000891Y008313D01*
X000862Y008154D02*
X000820Y008154D01*
X000820Y007996D02*
X000915Y007996D01*
X000936Y006886D02*
X000820Y006886D01*
X000820Y006728D02*
X000862Y006728D01*
X000882Y006569D02*
X000820Y006569D01*
X000820Y006411D02*
X001000Y006411D01*
X002680Y003180D02*
X005180Y003180D01*
X006234Y002924D02*
X003126Y002924D01*
X002986Y002765D02*
X006374Y002765D01*
X006055Y001973D02*
X004805Y001973D01*
X004860Y001950D02*
X004743Y001998D01*
X004617Y001998D01*
X004500Y001950D01*
X004410Y001860D01*
X004362Y001743D01*
X004362Y001617D01*
X004410Y001500D01*
X004500Y001410D01*
X004617Y001362D01*
X004743Y001362D01*
X004860Y001410D01*
X004950Y001500D01*
X004998Y001617D01*
X004998Y001743D01*
X004950Y001860D01*
X004860Y001950D01*
X004969Y001814D02*
X005891Y001814D01*
X005862Y001656D02*
X004998Y001656D01*
X004947Y001497D02*
X005913Y001497D01*
X004555Y001973D02*
X003305Y001973D01*
X003469Y001814D02*
X004391Y001814D01*
X004362Y001656D02*
X003498Y001656D01*
X003447Y001497D02*
X004413Y001497D01*
X003055Y001973D02*
X002191Y001973D01*
X002092Y001814D02*
X002891Y001814D01*
X001700Y001814D02*
X001660Y001814D01*
X001660Y001973D02*
X001700Y001973D01*
X001700Y002131D02*
X001660Y002131D01*
X001660Y002290D02*
X001700Y002290D01*
X001700Y002448D02*
X001660Y002448D01*
X001660Y002607D02*
X001700Y002607D01*
X007671Y001814D02*
X008025Y001814D01*
X007836Y001973D02*
X007815Y001973D01*
X015053Y002765D02*
X016374Y002765D01*
X016234Y002924D02*
X015115Y002924D01*
X015115Y003082D02*
X016170Y003082D01*
X016117Y001998D02*
X016000Y001950D01*
X015910Y001860D01*
X015862Y001743D01*
X015862Y001617D01*
X015910Y001500D01*
X016000Y001410D01*
X016117Y001362D01*
X016243Y001362D01*
X016360Y001410D01*
X016450Y001500D01*
X016498Y001617D01*
X016498Y001743D01*
X016450Y001860D01*
X016360Y001950D01*
X016243Y001998D01*
X016117Y001998D01*
X016055Y001973D02*
X015305Y001973D01*
X015469Y001814D02*
X015891Y001814D01*
X015862Y001656D02*
X015498Y001656D01*
X015447Y001497D02*
X015913Y001497D01*
X016447Y001497D02*
X016913Y001497D01*
X016862Y001656D02*
X016498Y001656D01*
X016469Y001814D02*
X016891Y001814D01*
X017055Y001973D02*
X016305Y001973D01*
X019932Y011483D02*
X020032Y011483D01*
X020032Y011641D02*
X019998Y011641D01*
X019975Y011800D02*
X020032Y011800D01*
X020032Y011958D02*
X019840Y011958D01*
X019883Y012434D02*
X020032Y012434D01*
X020032Y012592D02*
X019988Y012592D01*
X019995Y012751D02*
X020032Y012751D01*
X020032Y012909D02*
X019901Y012909D01*
X019798Y013385D02*
X020032Y013385D01*
X020032Y013543D02*
X019968Y013543D01*
X019998Y013702D02*
X020032Y013702D01*
X019410Y013860D02*
X019362Y013743D01*
X019972Y016555D02*
X020032Y016555D01*
X020032Y016713D02*
X019998Y016713D01*
X020032Y016872D02*
X019938Y016872D01*
X005450Y013860D02*
X005360Y013950D01*
X005243Y013998D01*
X005117Y013998D01*
X005000Y013950D01*
X004910Y013860D01*
D20*
X005180Y013680D03*
X004180Y013680D03*
X004180Y012180D03*
X005180Y012180D03*
X005180Y010680D03*
X004180Y009680D03*
X004180Y008180D03*
X005180Y008180D03*
X005180Y006680D03*
X004180Y006680D03*
X004180Y005180D03*
X005180Y005180D03*
X005180Y003680D03*
X004180Y003680D03*
X004680Y001680D03*
X003180Y001680D03*
X001180Y003680D03*
X001180Y005180D03*
X001180Y006680D03*
X001180Y008180D03*
X001180Y012180D03*
X001180Y013680D03*
X001180Y015180D03*
X001180Y016680D03*
X001180Y018180D03*
X003180Y018680D03*
X004180Y018680D03*
X005180Y018680D03*
X006180Y018680D03*
X007180Y018680D03*
X008180Y018680D03*
X009180Y018680D03*
X010180Y018680D03*
X010180Y017680D03*
X010180Y016930D03*
X010180Y016180D03*
X008680Y015180D03*
X008680Y014680D03*
X006680Y014680D03*
X005180Y015180D03*
X004180Y015180D03*
X004180Y016680D03*
X005180Y016680D03*
X007680Y016680D03*
X007680Y017680D03*
X007180Y020180D03*
X006180Y020180D03*
X005180Y020180D03*
X004180Y020180D03*
X003180Y020180D03*
X008180Y020180D03*
X009180Y020180D03*
X010180Y020180D03*
X011680Y020180D03*
X012430Y020180D03*
X012430Y019180D03*
X013180Y018430D03*
X012930Y017930D03*
X012430Y017430D03*
X011930Y017180D03*
X011680Y018180D03*
X011680Y019180D03*
X013930Y017180D03*
X014430Y017680D03*
X014680Y018430D03*
X015930Y018430D03*
X015930Y019180D03*
X015930Y020180D03*
X016680Y020180D03*
X017680Y020180D03*
X019680Y018680D03*
X019680Y017680D03*
X019680Y016680D03*
X019680Y015680D03*
X019680Y014680D03*
X019680Y013680D03*
X019680Y012680D03*
X019680Y011680D03*
X019680Y010680D03*
X019680Y009680D03*
X019680Y008680D03*
X019680Y007680D03*
X019680Y006680D03*
X019680Y005680D03*
X019680Y004680D03*
X019680Y003680D03*
X018180Y003680D03*
X018180Y005180D03*
X016680Y005180D03*
X015180Y005180D03*
X015180Y004180D03*
X015180Y001680D03*
X016180Y001680D03*
X017180Y001680D03*
X014180Y001680D03*
X013180Y001680D03*
X012180Y001680D03*
X011180Y001680D03*
X010180Y001680D03*
X010180Y003680D03*
X010180Y004680D03*
X010180Y005680D03*
X009180Y007180D03*
X010180Y007680D03*
X010680Y008680D03*
X011680Y009180D03*
X012180Y010180D03*
X012180Y011680D03*
X013180Y011680D03*
X012180Y012680D03*
X013180Y014180D03*
X014180Y013180D03*
X015680Y013680D03*
X016180Y014680D03*
X016180Y015680D03*
X015180Y015680D03*
X015180Y016680D03*
X016180Y016680D03*
X017680Y016680D03*
X017680Y015680D03*
X017680Y014680D03*
X017680Y013180D03*
X017180Y012180D03*
X016180Y011680D03*
X015680Y010180D03*
X015680Y008680D03*
X015180Y007680D03*
X014180Y007680D03*
X014180Y006680D03*
X014180Y008680D03*
X014180Y009680D03*
X012180Y007680D03*
X012180Y006180D03*
X008680Y004680D03*
X008180Y005180D03*
X008180Y006180D03*
X008680Y003680D03*
X006180Y001680D03*
X006680Y009680D03*
X006680Y011680D03*
X012180Y016180D03*
X012930Y016430D03*
X013430Y016680D03*
X014180Y016180D03*
X018680Y010680D03*
X017180Y010180D03*
M02*
