%
M48
M72
T01C0.0236
T02C0.0280
T03C0.0315
T04C0.0354
T05C0.0390
T06C0.0400
%
T01
X3180Y1680
X4680Y1680
X6180Y1680
X5180Y3680
X4180Y3680
X4180Y5180
X5180Y5180
X5180Y6680
X4180Y6680
X4180Y8180
X5180Y8180
X4180Y9680
X5180Y10680
X5180Y12180
X4180Y12180
X4180Y13680
X5180Y13680
X5180Y15180
X4180Y15180
X4180Y16680
X5180Y16680
X5180Y18680
X6180Y18680
X7180Y18680
X8180Y18680
X9180Y18680
X10180Y18680
X10180Y17680
X10180Y16930
X10180Y16180
X8680Y15180
X8680Y14680
X6680Y14680
X7680Y16680
X7680Y17680
X7180Y20180
X6180Y20180
X5180Y20180
X4180Y20180
X3180Y20180
X3180Y18680
X4180Y18680
X1180Y18180
X1180Y16680
X1180Y15180
X1180Y13680
X1180Y12180
X1180Y8180
X1180Y6680
X1180Y5180
X1180Y3680
X6680Y9680
X6680Y11680
X10680Y8680
X11680Y9180
X12180Y10180
X12180Y11680
X13180Y11680
X12180Y12680
X13180Y14180
X14180Y13180
X15680Y13680
X16180Y14680
X16180Y15680
X15180Y15680
X15180Y16680
X16180Y16680
X17680Y16680
X17680Y15680
X17680Y14680
X17680Y13180
X17180Y12180
X16180Y11680
X15680Y10180
X15680Y8680
X15180Y7680
X14180Y7680
X14180Y6680
X15180Y5180
X15180Y4180
X16680Y5180
X18180Y5180
X18180Y3680
X19680Y3680
X19680Y4680
X19680Y5680
X19680Y6680
X19680Y7680
X19680Y8680
X19680Y9680
X19680Y10680
X19680Y11680
X19680Y12680
X19680Y13680
X19680Y14680
X19680Y15680
X19680Y16680
X19680Y17680
X19680Y18680
X17680Y20180
X16680Y20180
X15930Y20180
X15930Y19180
X15930Y18430
X14680Y18430
X14430Y17680
X13930Y17180
X13430Y16680
X12930Y16430
X12180Y16180
X11930Y17180
X12430Y17430
X12930Y17930
X13180Y18430
X12430Y19180
X11680Y19180
X11680Y18180
X11680Y20180
X12430Y20180
X10180Y20180
X9180Y20180
X8180Y20180
X14180Y16180
X18680Y10680
X17180Y10180
X14180Y9680
X14180Y8680
X12180Y7680
X12180Y6180
X10180Y5680
X10180Y4680
X10180Y3680
X8680Y3680
X8680Y4680
X8180Y5180
X8180Y6180
X9180Y7180
X10180Y7680
X10180Y1680
X11180Y1680
X12180Y1680
X13180Y1680
X14180Y1680
X15180Y1680
X16180Y1680
X17180Y1680
T02
X11680Y3090
X11680Y3680
T03
X8930Y2180
X8180Y2180
X7430Y2180
T04
X6680Y3180
X7180Y5180
X11180Y5180
X11180Y6680
X13180Y6680
X13180Y10680
X11180Y10680
X2680Y3180
T05
X3180Y4180
X3180Y5180
X3180Y6180
X3180Y7180
X3180Y8180
X3180Y9180
X3180Y10180
X3180Y11180
X3180Y12180
X3180Y13180
X3180Y14180
X3180Y15180
X3180Y16180
X3180Y17180
X6180Y17180
X6180Y16180
X6180Y15180
X6180Y14180
X6180Y13180
X6180Y12180
X6180Y11180
X6180Y10180
X6180Y9180
X6180Y8180
X6180Y7180
X6180Y6180
X6180Y5180
X6180Y4180
X13680Y3680
X14680Y3180
X13680Y2680
T06
X1680Y2180
X1680Y10180
X1680Y11180
X7680Y11180
X7680Y12180
X7680Y13680
X7680Y14680
X1680Y19680
X14180Y19180
X17180Y18680
X18180Y18680
X19180Y19680
X18180Y8680
X17180Y8680
X17280Y7680
X17180Y6680
X18180Y6680
X18280Y7680
X16680Y4180
X16680Y3180
X18180Y2180
X19180Y2180
X13680Y5180
X12680Y5180
M30
