G75*
%MOIN*%
%OFA0B0*%
%FSLAX24Y24*%
%IPPOS*%
%LPD*%
%AMOC8*
5,1,8,0,0,1.08239X$1,22.5*
%
%ADD10C,0.0000*%
%ADD11R,0.0860X0.0420*%
%ADD12OC8,0.0740*%
%ADD13C,0.0740*%
%ADD14R,0.0590X0.0590*%
%ADD15C,0.0590*%
%ADD16R,0.0480X0.0480*%
%ADD17C,0.0480*%
%ADD18OC8,0.0630*%
%ADD19R,0.0700X0.1650*%
%ADD20R,0.1050X0.1650*%
%ADD21R,0.0740X0.0740*%
%ADD22C,0.0640*%
%ADD23C,0.0356*%
%ADD24C,0.0320*%
%ADD25C,0.0160*%
%ADD26C,0.0120*%
%ADD27C,0.0238*%
%ADD28C,0.0400*%
D10*
X001467Y001180D02*
X019385Y001180D01*
X019439Y001182D01*
X019492Y001187D01*
X019545Y001196D01*
X019597Y001209D01*
X019649Y001225D01*
X019699Y001245D01*
X019747Y001268D01*
X019794Y001295D01*
X019839Y001324D01*
X019882Y001357D01*
X019922Y001392D01*
X019960Y001430D01*
X019995Y001470D01*
X020028Y001513D01*
X020057Y001558D01*
X020084Y001605D01*
X020107Y001653D01*
X020127Y001703D01*
X020143Y001755D01*
X020156Y001807D01*
X020165Y001860D01*
X020170Y001913D01*
X020172Y001967D01*
X020172Y019763D01*
X020170Y019817D01*
X020165Y019870D01*
X020156Y019923D01*
X020143Y019975D01*
X020127Y020027D01*
X020107Y020077D01*
X020084Y020125D01*
X020057Y020172D01*
X020028Y020217D01*
X019995Y020260D01*
X019960Y020300D01*
X019922Y020338D01*
X019882Y020373D01*
X019839Y020406D01*
X019794Y020435D01*
X019747Y020462D01*
X019699Y020485D01*
X019649Y020505D01*
X019597Y020521D01*
X019545Y020534D01*
X019492Y020543D01*
X019439Y020548D01*
X019385Y020550D01*
X001467Y020550D01*
X001413Y020548D01*
X001360Y020543D01*
X001307Y020534D01*
X001255Y020521D01*
X001203Y020505D01*
X001153Y020485D01*
X001105Y020462D01*
X001058Y020435D01*
X001013Y020406D01*
X000970Y020373D01*
X000930Y020338D01*
X000892Y020300D01*
X000857Y020260D01*
X000824Y020217D01*
X000795Y020172D01*
X000768Y020125D01*
X000745Y020077D01*
X000725Y020027D01*
X000709Y019975D01*
X000696Y019923D01*
X000687Y019870D01*
X000682Y019817D01*
X000680Y019763D01*
X000680Y001967D01*
X000682Y001913D01*
X000687Y001860D01*
X000696Y001807D01*
X000709Y001755D01*
X000725Y001703D01*
X000745Y001653D01*
X000768Y001605D01*
X000795Y001558D01*
X000824Y001513D01*
X000857Y001470D01*
X000892Y001430D01*
X000930Y001392D01*
X000970Y001357D01*
X001013Y001324D01*
X001058Y001295D01*
X001105Y001268D01*
X001153Y001245D01*
X001203Y001225D01*
X001255Y001209D01*
X001307Y001196D01*
X001360Y001187D01*
X001413Y001182D01*
X001467Y001180D01*
X008230Y020555D02*
X012630Y020555D01*
D11*
X011693Y017268D03*
X011693Y016543D03*
X011693Y015755D03*
X011693Y014905D03*
X011693Y014118D03*
X011693Y013331D03*
X011693Y012481D03*
X011693Y011643D03*
X019430Y011668D03*
X019430Y012456D03*
X019430Y013293D03*
X019430Y014118D03*
X019430Y014968D03*
X019430Y015755D03*
X019430Y016543D03*
X019430Y017268D03*
D12*
X019180Y008680D03*
X018180Y008680D03*
X018080Y007680D03*
X018180Y006680D03*
X019180Y006680D03*
X019080Y007680D03*
D13*
X013180Y006680D03*
X011680Y006680D03*
X011180Y005180D03*
X008578Y001807D03*
X007578Y001807D03*
X006578Y001807D03*
X005680Y003180D03*
X007180Y005180D03*
X011680Y010680D03*
X013180Y010680D03*
X008306Y014680D03*
X008306Y015680D03*
X008306Y016680D03*
X010430Y019430D03*
X001430Y019805D03*
X001305Y016681D03*
X001305Y015681D03*
X001305Y014681D03*
X001305Y013681D03*
X001305Y012681D03*
X001305Y011681D03*
X001305Y010681D03*
X001680Y008680D03*
X001680Y007680D03*
X001680Y006680D03*
X001680Y003180D03*
X001430Y001930D03*
X019430Y019805D03*
D14*
X014680Y003180D03*
X013680Y002680D03*
X003180Y017180D03*
D15*
X003180Y016180D03*
X003180Y015180D03*
X003180Y014180D03*
X003180Y013180D03*
X003180Y012180D03*
X003180Y011180D03*
X003180Y010180D03*
X003180Y009180D03*
X003180Y008180D03*
X003180Y007180D03*
X003180Y006180D03*
X003180Y005180D03*
X003180Y004180D03*
X006180Y004180D03*
X006180Y005180D03*
X006180Y006180D03*
X006180Y007180D03*
X006180Y008180D03*
X006180Y009180D03*
X006180Y010180D03*
X006180Y011180D03*
X006180Y012180D03*
X006180Y013180D03*
X006180Y014180D03*
X006180Y015180D03*
X006180Y016180D03*
X006180Y017180D03*
X013680Y003680D03*
D16*
X010680Y003090D03*
D17*
X010680Y003680D03*
D18*
X012430Y003180D03*
X012430Y004180D03*
X016180Y004180D03*
X016180Y003180D03*
X007680Y010430D03*
X007680Y011430D03*
X007680Y012430D03*
X007680Y013430D03*
X001680Y005180D03*
X001680Y004180D03*
X018430Y018180D03*
X019430Y018180D03*
D19*
X010430Y019722D03*
D20*
X009054Y019722D03*
X011806Y019722D03*
D21*
X009578Y001807D03*
D22*
X018286Y003147D03*
X019074Y003147D03*
D23*
X016180Y012680D03*
D24*
X019180Y009681D01*
X019180Y008680D01*
X018253Y003180D02*
X016180Y003180D01*
X014680Y003180D01*
X018253Y003180D02*
X018286Y003147D01*
X007680Y010430D02*
X007430Y010180D01*
X006180Y010180D01*
X019430Y017268D02*
X019430Y018180D01*
D25*
X001173Y001391D02*
X001010Y001510D01*
X000891Y001673D01*
X000828Y001866D01*
X000820Y001967D01*
X000820Y010421D01*
X000835Y010393D01*
X000885Y010322D01*
X000947Y010261D01*
X001017Y010210D01*
X001094Y010171D01*
X001176Y010144D01*
X001262Y010131D01*
X001285Y010131D01*
X001285Y010661D01*
X001325Y010661D01*
X001325Y010701D01*
X001855Y010701D01*
X001855Y010724D01*
X001841Y010810D01*
X001815Y010892D01*
X001775Y010969D01*
X001725Y011039D01*
X001663Y011100D01*
X001593Y011151D01*
X001516Y011190D01*
X001481Y011202D01*
X001594Y011248D01*
X001737Y011392D01*
X001766Y011461D01*
X001772Y011461D01*
X002271Y011960D01*
X002800Y011960D01*
X002811Y011934D01*
X002934Y011811D01*
X003093Y011745D01*
X003267Y011745D01*
X003426Y011811D01*
X003549Y011934D01*
X003615Y012093D01*
X003615Y012267D01*
X003549Y012426D01*
X003426Y012549D01*
X003267Y012615D01*
X003093Y012615D01*
X002934Y012549D01*
X002811Y012426D01*
X002800Y012400D01*
X002141Y012400D01*
X002125Y012384D01*
X002075Y012363D01*
X002052Y012363D01*
X001698Y012009D01*
X001594Y012113D01*
X001431Y012181D01*
X001594Y012248D01*
X001737Y012392D01*
X001815Y012579D01*
X001815Y012782D01*
X001786Y012851D01*
X001895Y012960D01*
X002800Y012960D01*
X002811Y012934D01*
X002934Y012811D01*
X003093Y012745D01*
X003267Y012745D01*
X003426Y012811D01*
X003549Y012934D01*
X003615Y013093D01*
X003615Y013267D01*
X003549Y013426D01*
X003426Y013549D01*
X003267Y013615D01*
X003093Y013615D01*
X002934Y013549D01*
X002811Y013426D01*
X002800Y013400D01*
X001741Y013400D01*
X001815Y013579D01*
X001815Y013782D01*
X001737Y013970D01*
X001594Y014113D01*
X001481Y014160D01*
X001516Y014171D01*
X001593Y014210D01*
X001663Y014261D01*
X001725Y014322D01*
X001775Y014393D01*
X001815Y014470D01*
X001841Y014552D01*
X001855Y014638D01*
X001855Y014661D01*
X001325Y014661D01*
X001325Y014701D01*
X001855Y014701D01*
X001855Y014724D01*
X001841Y014810D01*
X001815Y014892D01*
X001775Y014969D01*
X001725Y015039D01*
X001663Y015100D01*
X001593Y015151D01*
X001516Y015190D01*
X001481Y015202D01*
X001594Y015248D01*
X001737Y015392D01*
X001815Y015579D01*
X001815Y015782D01*
X001737Y015970D01*
X001594Y016113D01*
X001431Y016181D01*
X001594Y016248D01*
X001737Y016392D01*
X001815Y016579D01*
X001815Y016782D01*
X001737Y016970D01*
X001594Y017113D01*
X001406Y017191D01*
X001204Y017191D01*
X001016Y017113D01*
X000873Y016970D01*
X000820Y016843D01*
X000820Y019763D01*
X000828Y019864D01*
X000891Y020057D01*
X001010Y020220D01*
X001173Y020340D01*
X001366Y020402D01*
X001467Y020410D01*
X008349Y020410D01*
X008349Y019802D01*
X008974Y019802D01*
X008974Y019642D01*
X009134Y019642D01*
X009134Y018717D01*
X009603Y018717D01*
X009649Y018729D01*
X009690Y018753D01*
X009723Y018787D01*
X009747Y018828D01*
X009759Y018873D01*
X009759Y019642D01*
X009134Y019642D01*
X009134Y019802D01*
X009759Y019802D01*
X009759Y020410D01*
X009850Y020410D01*
X009850Y019598D01*
X009830Y019549D01*
X009830Y019311D01*
X009850Y019262D01*
X009850Y018802D01*
X009985Y018667D01*
X010000Y018667D01*
X010000Y017474D01*
X010107Y017075D01*
X010313Y016718D01*
X010313Y016718D01*
X010605Y016426D01*
X010962Y016220D01*
X010962Y016220D01*
X011084Y016187D01*
X011158Y016112D01*
X011153Y016109D01*
X011119Y016076D01*
X011096Y016035D01*
X011083Y015989D01*
X011083Y015780D01*
X011668Y015780D01*
X011668Y015730D01*
X011718Y015730D01*
X011718Y015365D01*
X012147Y015365D01*
X012193Y015378D01*
X012234Y015401D01*
X012267Y015435D01*
X012291Y015476D01*
X012303Y015522D01*
X012303Y015730D01*
X011718Y015730D01*
X011718Y015780D01*
X012303Y015780D01*
X012303Y015989D01*
X012291Y016035D01*
X012267Y016076D01*
X012234Y016109D01*
X012228Y016112D01*
X012353Y016237D01*
X012353Y016848D01*
X012261Y016941D01*
X012267Y016947D01*
X012291Y016988D01*
X012303Y017034D01*
X012303Y017243D01*
X011718Y017243D01*
X011718Y017293D01*
X011668Y017293D01*
X011668Y017658D01*
X011240Y017658D01*
X011194Y017645D01*
X011153Y017622D01*
X011119Y017588D01*
X011096Y017547D01*
X011083Y017501D01*
X011083Y017293D01*
X011668Y017293D01*
X011668Y017243D01*
X011083Y017243D01*
X011083Y017172D01*
X011006Y017249D01*
X010914Y017409D01*
X010866Y017588D01*
X010860Y017680D01*
X010860Y018667D01*
X010875Y018667D01*
X011010Y018802D01*
X011010Y019262D01*
X011030Y019311D01*
X011030Y019549D01*
X011010Y019598D01*
X011010Y020410D01*
X011101Y020410D01*
X011101Y019802D01*
X011726Y019802D01*
X011726Y019642D01*
X011886Y019642D01*
X011886Y019802D01*
X012511Y019802D01*
X012511Y020410D01*
X019385Y020410D01*
X019486Y020402D01*
X019679Y020340D01*
X019843Y020220D01*
X019962Y020057D01*
X020024Y019864D01*
X020032Y019763D01*
X020032Y009639D01*
X020021Y009650D01*
X015939Y013732D01*
X015900Y013827D01*
X015827Y013900D01*
X015732Y013939D01*
X015628Y013939D01*
X015533Y013900D01*
X015460Y013827D01*
X015421Y013732D01*
X015421Y013628D01*
X015460Y013533D01*
X015533Y013460D01*
X015628Y013421D01*
X016070Y012979D01*
X016000Y012950D01*
X015911Y012861D01*
X015862Y012744D01*
X015862Y012617D01*
X015911Y012500D01*
X016000Y012411D01*
X016044Y012393D01*
X018880Y009557D01*
X018880Y009101D01*
X018680Y008901D01*
X018391Y009190D01*
X017969Y009190D01*
X017880Y009101D01*
X017880Y010069D01*
X017900Y010089D01*
X017900Y010271D01*
X013046Y015125D01*
X012263Y015125D01*
X012263Y015173D01*
X012181Y015255D01*
X011205Y015255D01*
X011123Y015173D01*
X011123Y015105D01*
X010017Y015105D01*
X009997Y015125D01*
X009815Y015125D01*
X008210Y013521D01*
X008210Y010521D01*
X008135Y010446D01*
X008135Y010618D01*
X007868Y010885D01*
X007492Y010885D01*
X007225Y010618D01*
X007225Y010480D01*
X006495Y010480D01*
X006426Y010549D01*
X006267Y010615D01*
X006093Y010615D01*
X005934Y010549D01*
X005811Y010426D01*
X005745Y010267D01*
X005745Y010093D01*
X005811Y009934D01*
X005934Y009811D01*
X006093Y009745D01*
X006267Y009745D01*
X006426Y009811D01*
X006495Y009880D01*
X007490Y009880D01*
X007600Y009926D01*
X007649Y009975D01*
X007664Y009975D01*
X006293Y008604D01*
X006267Y008615D01*
X006093Y008615D01*
X005934Y008549D01*
X005811Y008426D01*
X005745Y008267D01*
X005745Y008093D01*
X005811Y007934D01*
X005934Y007811D01*
X006093Y007745D01*
X006267Y007745D01*
X006426Y007811D01*
X006549Y007934D01*
X006615Y008093D01*
X006615Y008267D01*
X006604Y008293D01*
X008521Y010210D01*
X008650Y010339D01*
X008650Y013338D01*
X010017Y014705D01*
X011123Y014705D01*
X011123Y014637D01*
X011205Y014555D01*
X012181Y014555D01*
X012263Y014637D01*
X012263Y014685D01*
X012863Y014685D01*
X017480Y010069D01*
X017480Y009746D01*
X017452Y009774D01*
X017358Y009813D01*
X012962Y014209D01*
X012833Y014338D01*
X012263Y014338D01*
X012263Y014386D01*
X012181Y014468D01*
X011205Y014468D01*
X011123Y014386D01*
X011123Y014318D01*
X010229Y014318D01*
X010209Y014338D01*
X010027Y014338D01*
X008710Y013021D01*
X008710Y010021D01*
X006293Y007604D01*
X006267Y007615D01*
X006093Y007615D01*
X005934Y007549D01*
X005811Y007426D01*
X005745Y007267D01*
X005745Y007093D01*
X005811Y006934D01*
X005934Y006811D01*
X006093Y006745D01*
X006267Y006745D01*
X006426Y006811D01*
X006549Y006934D01*
X006615Y007093D01*
X006615Y007267D01*
X006604Y007293D01*
X009021Y009710D01*
X009150Y009839D01*
X009150Y012839D01*
X010229Y013918D01*
X011123Y013918D01*
X011123Y013850D01*
X011205Y013768D01*
X012181Y013768D01*
X012263Y013850D01*
X012263Y013898D01*
X012651Y013898D01*
X017047Y009502D01*
X017086Y009408D01*
X017158Y009335D01*
X017254Y009296D01*
X017357Y009296D01*
X017452Y009335D01*
X017480Y009363D01*
X017480Y008391D01*
X017460Y008371D01*
X017460Y008041D01*
X017476Y008025D01*
X017497Y007975D01*
X017497Y007952D01*
X017570Y007879D01*
X017570Y007469D01*
X017869Y007170D01*
X017949Y007170D01*
X017670Y006891D01*
X017670Y006469D01*
X017969Y006170D01*
X018379Y006170D01*
X018710Y005839D01*
X018839Y005710D01*
X020021Y005710D01*
X020032Y005721D01*
X020032Y001967D01*
X020024Y001866D01*
X019962Y001673D01*
X019843Y001510D01*
X019679Y001391D01*
X019486Y001328D01*
X019385Y001320D01*
X010086Y001320D01*
X010092Y001326D01*
X010116Y001367D01*
X010128Y001413D01*
X010128Y001787D01*
X009598Y001787D01*
X009598Y001827D01*
X009558Y001827D01*
X009558Y001787D01*
X008598Y001787D01*
X008598Y001827D01*
X008558Y001827D01*
X008558Y002357D01*
X008535Y002357D01*
X008449Y002343D01*
X008367Y002317D01*
X008290Y002277D01*
X008220Y002226D01*
X008159Y002165D01*
X008108Y002095D01*
X008069Y002018D01*
X008057Y001983D01*
X008011Y002096D01*
X007867Y002239D01*
X007798Y002268D01*
X007798Y002873D01*
X007669Y003002D01*
X006604Y004067D01*
X006615Y004093D01*
X006615Y004267D01*
X006549Y004426D01*
X006426Y004549D01*
X006267Y004615D01*
X006093Y004615D01*
X005934Y004549D01*
X005811Y004426D01*
X005745Y004267D01*
X005745Y004093D01*
X005811Y003934D01*
X005934Y003811D01*
X006093Y003745D01*
X006267Y003745D01*
X006293Y003756D01*
X007358Y002691D01*
X007358Y002268D01*
X007289Y002239D01*
X007146Y002096D01*
X007078Y001933D01*
X007011Y002096D01*
X006867Y002239D01*
X006798Y002268D01*
X006798Y002373D01*
X006669Y002502D01*
X006161Y003010D01*
X006190Y003079D01*
X006190Y003281D01*
X006112Y003469D01*
X005969Y003612D01*
X005781Y003690D01*
X005579Y003690D01*
X005391Y003612D01*
X005248Y003469D01*
X005219Y003400D01*
X004271Y003400D01*
X003604Y004067D01*
X003615Y004093D01*
X003615Y004267D01*
X003549Y004426D01*
X003426Y004549D01*
X003267Y004615D01*
X003093Y004615D01*
X002934Y004549D01*
X002811Y004426D01*
X002800Y004400D01*
X002103Y004400D01*
X001868Y004635D01*
X001492Y004635D01*
X001225Y004368D01*
X001225Y003992D01*
X001492Y003725D01*
X001868Y003725D01*
X002103Y003960D01*
X002800Y003960D01*
X002811Y003934D01*
X002934Y003811D01*
X003093Y003745D01*
X003267Y003745D01*
X003293Y003756D01*
X004089Y002960D01*
X005219Y002960D01*
X005248Y002891D01*
X005391Y002748D01*
X005579Y002670D01*
X005781Y002670D01*
X005850Y002699D01*
X006304Y002245D01*
X006289Y002239D01*
X006146Y002096D01*
X006068Y001908D01*
X006068Y001706D01*
X006146Y001518D01*
X006289Y001375D01*
X006421Y001320D01*
X001467Y001320D01*
X001366Y001328D01*
X001173Y001391D01*
X001219Y001420D02*
X001301Y001394D01*
X001387Y001380D01*
X001410Y001380D01*
X001410Y001910D01*
X000880Y001910D01*
X000880Y001887D01*
X000894Y001801D01*
X000920Y001719D01*
X000960Y001642D01*
X001010Y001572D01*
X001072Y001510D01*
X001142Y001460D01*
X001219Y001420D01*
X001334Y001339D02*
X006377Y001339D01*
X006167Y001497D02*
X001770Y001497D01*
X001788Y001510D02*
X001850Y001572D01*
X001900Y001642D01*
X001940Y001719D01*
X001966Y001801D01*
X001980Y001887D01*
X001980Y001910D01*
X001450Y001910D01*
X001450Y001950D01*
X001410Y001950D01*
X001410Y002480D01*
X001387Y002480D01*
X001301Y002466D01*
X001219Y002440D01*
X001142Y002400D01*
X001072Y002350D01*
X001010Y002288D01*
X000960Y002218D01*
X000920Y002141D01*
X000894Y002059D01*
X000880Y001973D01*
X000880Y001950D01*
X001410Y001950D01*
X001410Y001910D01*
X001450Y001910D01*
X001450Y001380D01*
X001473Y001380D01*
X001559Y001394D01*
X001641Y001420D01*
X001718Y001460D01*
X001788Y001510D01*
X001907Y001656D02*
X006089Y001656D01*
X006068Y001814D02*
X001968Y001814D01*
X001980Y001950D02*
X001980Y001973D01*
X001966Y002059D01*
X001940Y002141D01*
X001900Y002218D01*
X001850Y002288D01*
X001788Y002350D01*
X001718Y002400D01*
X001641Y002440D01*
X001559Y002466D01*
X001473Y002480D01*
X001450Y002480D01*
X001450Y001950D01*
X001980Y001950D01*
X001980Y001973D02*
X006095Y001973D01*
X006181Y002131D02*
X001943Y002131D01*
X001848Y002290D02*
X006259Y002290D01*
X006101Y002448D02*
X001616Y002448D01*
X001450Y002448D02*
X001410Y002448D01*
X001410Y002290D02*
X001450Y002290D01*
X001450Y002131D02*
X001410Y002131D01*
X001410Y001973D02*
X001450Y001973D01*
X001450Y001814D02*
X001410Y001814D01*
X001410Y001656D02*
X001450Y001656D01*
X001450Y001497D02*
X001410Y001497D01*
X001090Y001497D02*
X001027Y001497D01*
X000953Y001656D02*
X000904Y001656D01*
X000892Y001814D02*
X000845Y001814D01*
X000820Y001973D02*
X000880Y001973D01*
X000917Y002131D02*
X000820Y002131D01*
X000820Y002290D02*
X001012Y002290D01*
X000820Y002448D02*
X001244Y002448D01*
X001391Y002748D02*
X001248Y002891D01*
X001170Y003079D01*
X001170Y003281D01*
X001248Y003469D01*
X001391Y003612D01*
X001579Y003690D01*
X001781Y003690D01*
X001969Y003612D01*
X002112Y003469D01*
X002190Y003281D01*
X002190Y003079D01*
X002112Y002891D01*
X001969Y002748D01*
X001781Y002670D01*
X001579Y002670D01*
X001391Y002748D01*
X001374Y002765D02*
X000820Y002765D01*
X000820Y002607D02*
X005942Y002607D01*
X006248Y002924D02*
X007125Y002924D01*
X006967Y003082D02*
X006190Y003082D01*
X006190Y003241D02*
X006808Y003241D01*
X006650Y003399D02*
X006141Y003399D01*
X006024Y003558D02*
X006491Y003558D01*
X006333Y003716D02*
X003955Y003716D01*
X003797Y003875D02*
X005870Y003875D01*
X005770Y004033D02*
X003638Y004033D01*
X003615Y004192D02*
X005745Y004192D01*
X005780Y004350D02*
X003580Y004350D01*
X003467Y004509D02*
X005893Y004509D01*
X005934Y004811D02*
X006093Y004745D01*
X006267Y004745D01*
X006426Y004811D01*
X006549Y004934D01*
X006615Y005093D01*
X006615Y005267D01*
X006604Y005293D01*
X006725Y005414D01*
X006670Y005281D01*
X006670Y005079D01*
X006748Y004891D01*
X006891Y004748D01*
X007079Y004670D01*
X007281Y004670D01*
X007469Y004748D01*
X007612Y004891D01*
X007690Y005079D01*
X007690Y005281D01*
X007612Y005469D01*
X007469Y005612D01*
X007281Y005690D01*
X007079Y005690D01*
X006946Y005635D01*
X010271Y008960D01*
X010400Y009089D01*
X010400Y012089D01*
X010592Y012281D01*
X011123Y012281D01*
X011123Y012213D01*
X011205Y012131D01*
X012181Y012131D01*
X012263Y012213D01*
X012263Y012749D01*
X012181Y012831D01*
X011205Y012831D01*
X011123Y012749D01*
X011123Y012681D01*
X010592Y012681D01*
X010572Y012701D01*
X010390Y012701D01*
X009960Y012271D01*
X009960Y009271D01*
X006293Y005604D01*
X006267Y005615D01*
X006093Y005615D01*
X005934Y005549D01*
X005811Y005426D01*
X005745Y005267D01*
X005745Y005093D01*
X005811Y004934D01*
X005934Y004811D01*
X005919Y004826D02*
X003441Y004826D01*
X003426Y004811D02*
X003549Y004934D01*
X003615Y005093D01*
X003615Y005267D01*
X003549Y005426D01*
X003426Y005549D01*
X003267Y005615D01*
X003093Y005615D01*
X002934Y005549D01*
X002811Y005426D01*
X002745Y005267D01*
X002745Y005093D01*
X002811Y004934D01*
X002934Y004811D01*
X003093Y004745D01*
X003267Y004745D01*
X003426Y004811D01*
X003570Y004984D02*
X005790Y004984D01*
X005745Y005143D02*
X003615Y005143D01*
X003601Y005301D02*
X005759Y005301D01*
X005844Y005460D02*
X003516Y005460D01*
X003343Y005777D02*
X006017Y005777D01*
X006093Y005745D02*
X006267Y005745D01*
X006426Y005811D01*
X006549Y005934D01*
X006615Y006093D01*
X006615Y006267D01*
X006604Y006293D01*
X009521Y009210D01*
X009650Y009339D01*
X009650Y012339D01*
X010442Y013131D01*
X011123Y013131D01*
X011123Y013063D01*
X011205Y012981D01*
X012181Y012981D01*
X012263Y013063D01*
X012263Y013111D01*
X012438Y013111D01*
X015584Y009964D01*
X015584Y007326D01*
X015545Y007232D01*
X015545Y007128D01*
X015585Y007033D01*
X015658Y006960D01*
X015753Y006921D01*
X015856Y006921D01*
X015951Y006960D01*
X016024Y007033D01*
X016063Y007128D01*
X016063Y007232D01*
X016024Y007326D01*
X016024Y010147D01*
X012749Y013422D01*
X012621Y013551D01*
X012263Y013551D01*
X012263Y013599D01*
X012181Y013681D01*
X011205Y013681D01*
X011123Y013599D01*
X011123Y013531D01*
X010442Y013531D01*
X010422Y013551D01*
X010239Y013551D01*
X009210Y012521D01*
X009210Y009521D01*
X006293Y006604D01*
X006267Y006615D01*
X006093Y006615D01*
X005934Y006549D01*
X005811Y006426D01*
X005745Y006267D01*
X005745Y006093D01*
X005811Y005934D01*
X005934Y005811D01*
X006093Y005745D01*
X006307Y005618D02*
X001942Y005618D01*
X001885Y005675D02*
X002175Y005385D01*
X002175Y005180D01*
X001680Y005180D01*
X001680Y005180D01*
X001680Y005675D01*
X001885Y005675D01*
X001680Y005675D02*
X001475Y005675D01*
X001185Y005385D01*
X001185Y005180D01*
X001680Y005180D01*
X001680Y005180D01*
X001680Y005180D01*
X001680Y005675D01*
X001680Y005618D02*
X001680Y005618D01*
X001680Y005460D02*
X001680Y005460D01*
X001680Y005301D02*
X001680Y005301D01*
X001680Y005180D02*
X001185Y005180D01*
X001185Y004975D01*
X001475Y004685D01*
X001680Y004685D01*
X001885Y004685D01*
X002175Y004975D01*
X002175Y005180D01*
X001680Y005180D01*
X001680Y004685D01*
X001680Y005180D01*
X001680Y005180D01*
X001680Y005143D02*
X001680Y005143D01*
X001680Y004984D02*
X001680Y004984D01*
X001680Y004826D02*
X001680Y004826D01*
X001334Y004826D02*
X000820Y004826D01*
X000820Y004984D02*
X001185Y004984D01*
X001185Y005143D02*
X000820Y005143D01*
X000820Y005301D02*
X001185Y005301D01*
X001259Y005460D02*
X000820Y005460D01*
X000820Y005618D02*
X001418Y005618D01*
X001579Y006170D02*
X001391Y006248D01*
X001248Y006391D01*
X001170Y006579D01*
X001170Y006781D01*
X001248Y006969D01*
X001391Y007112D01*
X001504Y007159D01*
X001469Y007170D01*
X001392Y007210D01*
X001322Y007260D01*
X001260Y007322D01*
X001210Y007392D01*
X001170Y007469D01*
X001144Y007551D01*
X001130Y007637D01*
X001130Y007680D01*
X001680Y007680D01*
X002230Y007680D01*
X002230Y007723D01*
X002216Y007809D01*
X002190Y007891D01*
X002150Y007968D01*
X002100Y008038D01*
X002038Y008100D01*
X001968Y008150D01*
X001891Y008190D01*
X001856Y008201D01*
X001969Y008248D01*
X002112Y008391D01*
X002190Y008579D01*
X002190Y008781D01*
X002161Y008850D01*
X002271Y008960D01*
X002800Y008960D01*
X002811Y008934D01*
X002934Y008811D01*
X003093Y008745D01*
X003267Y008745D01*
X003426Y008811D01*
X003549Y008934D01*
X003615Y009093D01*
X003615Y009267D01*
X003549Y009426D01*
X003426Y009549D01*
X003267Y009615D01*
X003093Y009615D01*
X002934Y009549D01*
X002811Y009426D01*
X002800Y009400D01*
X002141Y009400D01*
X002125Y009384D01*
X002075Y009363D01*
X002052Y009363D01*
X001850Y009161D01*
X001781Y009190D01*
X001579Y009190D01*
X001391Y009112D01*
X001248Y008969D01*
X001170Y008781D01*
X001170Y008579D01*
X001248Y008391D01*
X001391Y008248D01*
X001504Y008201D01*
X001469Y008190D01*
X001392Y008150D01*
X001322Y008100D01*
X001260Y008038D01*
X001210Y007968D01*
X001170Y007891D01*
X001144Y007809D01*
X001130Y007723D01*
X001130Y007680D01*
X001680Y007680D01*
X001680Y007680D01*
X001680Y007680D01*
X002230Y007680D01*
X002230Y007637D01*
X002216Y007551D01*
X002205Y007516D01*
X002756Y008067D01*
X002745Y008093D01*
X002745Y008267D01*
X002811Y008426D01*
X002934Y008549D01*
X003093Y008615D01*
X003267Y008615D01*
X003426Y008549D01*
X003549Y008426D01*
X003615Y008267D01*
X003615Y008093D01*
X003549Y007934D01*
X003426Y007811D01*
X003267Y007745D01*
X003093Y007745D01*
X003067Y007756D01*
X002161Y006850D01*
X002190Y006781D01*
X002190Y006579D01*
X002112Y006391D01*
X001969Y006248D01*
X001781Y006170D01*
X001579Y006170D01*
X001387Y006252D02*
X000820Y006252D01*
X000820Y006094D02*
X002745Y006094D01*
X002745Y006093D02*
X002811Y005934D01*
X002934Y005811D01*
X003093Y005745D01*
X003267Y005745D01*
X003426Y005811D01*
X003549Y005934D01*
X003615Y006093D01*
X003615Y006267D01*
X003549Y006426D01*
X003426Y006549D01*
X003267Y006615D01*
X003093Y006615D01*
X002934Y006549D01*
X002811Y006426D01*
X002745Y006267D01*
X002745Y006093D01*
X002745Y006252D02*
X001973Y006252D01*
X002120Y006411D02*
X002805Y006411D01*
X002982Y006569D02*
X002186Y006569D01*
X002190Y006728D02*
X006416Y006728D01*
X006501Y006886D02*
X006575Y006886D01*
X006595Y007045D02*
X006733Y007045D01*
X006615Y007203D02*
X006892Y007203D01*
X007050Y007362D02*
X006673Y007362D01*
X006831Y007520D02*
X007209Y007520D01*
X007367Y007679D02*
X006990Y007679D01*
X007148Y007837D02*
X007526Y007837D01*
X007684Y007996D02*
X007307Y007996D01*
X007465Y008154D02*
X007843Y008154D01*
X008001Y008313D02*
X007624Y008313D01*
X007782Y008471D02*
X008160Y008471D01*
X008318Y008630D02*
X007941Y008630D01*
X008099Y008788D02*
X008477Y008788D01*
X008635Y008947D02*
X008258Y008947D01*
X008416Y009105D02*
X008794Y009105D01*
X008952Y009264D02*
X008575Y009264D01*
X008733Y009422D02*
X009111Y009422D01*
X009210Y009581D02*
X008892Y009581D01*
X009050Y009739D02*
X009210Y009739D01*
X009210Y009898D02*
X009150Y009898D01*
X009150Y010056D02*
X009210Y010056D01*
X009210Y010215D02*
X009150Y010215D01*
X009150Y010373D02*
X009210Y010373D01*
X009210Y010532D02*
X009150Y010532D01*
X009150Y010690D02*
X009210Y010690D01*
X009210Y010849D02*
X009150Y010849D01*
X009150Y011007D02*
X009210Y011007D01*
X009210Y011166D02*
X009150Y011166D01*
X009150Y011324D02*
X009210Y011324D01*
X009210Y011483D02*
X009150Y011483D01*
X009150Y011641D02*
X009210Y011641D01*
X009210Y011800D02*
X009150Y011800D01*
X009150Y011958D02*
X009210Y011958D01*
X009210Y012117D02*
X009150Y012117D01*
X009150Y012275D02*
X009210Y012275D01*
X009210Y012434D02*
X009150Y012434D01*
X009150Y012592D02*
X009281Y012592D01*
X009150Y012751D02*
X009439Y012751D01*
X009598Y012909D02*
X009220Y012909D01*
X009379Y013068D02*
X009756Y013068D01*
X009915Y013226D02*
X009537Y013226D01*
X009696Y013385D02*
X010073Y013385D01*
X010232Y013543D02*
X009854Y013543D01*
X010013Y013702D02*
X012847Y013702D01*
X012689Y013860D02*
X012263Y013860D01*
X012628Y013543D02*
X013006Y013543D01*
X013164Y013385D02*
X012787Y013385D01*
X012945Y013226D02*
X013323Y013226D01*
X013481Y013068D02*
X013104Y013068D01*
X013262Y012909D02*
X013640Y012909D01*
X013798Y012751D02*
X013421Y012751D01*
X013579Y012592D02*
X013957Y012592D01*
X014115Y012434D02*
X013738Y012434D01*
X013896Y012275D02*
X014274Y012275D01*
X014432Y012117D02*
X014055Y012117D01*
X014213Y011958D02*
X014591Y011958D01*
X014749Y011800D02*
X014372Y011800D01*
X014530Y011641D02*
X014908Y011641D01*
X015066Y011483D02*
X014689Y011483D01*
X014847Y011324D02*
X015225Y011324D01*
X015383Y011166D02*
X015006Y011166D01*
X015164Y011007D02*
X015542Y011007D01*
X015700Y010849D02*
X015323Y010849D01*
X015481Y010690D02*
X015859Y010690D01*
X016017Y010532D02*
X015640Y010532D01*
X015798Y010373D02*
X016176Y010373D01*
X016334Y010215D02*
X015957Y010215D01*
X016024Y010056D02*
X016493Y010056D01*
X016651Y009898D02*
X016024Y009898D01*
X016024Y009739D02*
X016810Y009739D01*
X016968Y009581D02*
X016024Y009581D01*
X016024Y009422D02*
X017080Y009422D01*
X017305Y009555D02*
X012742Y014118D01*
X011693Y014118D01*
X011123Y014336D02*
X010212Y014336D01*
X010024Y014336D02*
X009647Y014336D01*
X009806Y014494D02*
X013055Y014494D01*
X013213Y014336D02*
X012836Y014336D01*
X012994Y014177D02*
X013372Y014177D01*
X013530Y014019D02*
X013153Y014019D01*
X013311Y013860D02*
X013689Y013860D01*
X013847Y013702D02*
X013470Y013702D01*
X013628Y013543D02*
X014006Y013543D01*
X014164Y013385D02*
X013787Y013385D01*
X013945Y013226D02*
X014323Y013226D01*
X014481Y013068D02*
X014104Y013068D01*
X014262Y012909D02*
X014640Y012909D01*
X014798Y012751D02*
X014421Y012751D01*
X014579Y012592D02*
X014957Y012592D01*
X015115Y012434D02*
X014738Y012434D01*
X014896Y012275D02*
X015274Y012275D01*
X015432Y012117D02*
X015055Y012117D01*
X015213Y011958D02*
X015591Y011958D01*
X015749Y011800D02*
X015372Y011800D01*
X015530Y011641D02*
X015908Y011641D01*
X016066Y011483D02*
X015689Y011483D01*
X015847Y011324D02*
X016225Y011324D01*
X016383Y011166D02*
X016006Y011166D01*
X016164Y011007D02*
X016542Y011007D01*
X016700Y010849D02*
X016323Y010849D01*
X016481Y010690D02*
X016859Y010690D01*
X017017Y010532D02*
X016640Y010532D01*
X016798Y010373D02*
X017176Y010373D01*
X017334Y010215D02*
X016957Y010215D01*
X017115Y010056D02*
X017480Y010056D01*
X017480Y009898D02*
X017274Y009898D01*
X017680Y010180D02*
X012955Y014905D01*
X011693Y014905D01*
X011668Y015365D02*
X011668Y015730D01*
X011083Y015730D01*
X011083Y015522D01*
X011096Y015476D01*
X011119Y015435D01*
X011153Y015401D01*
X011194Y015378D01*
X011240Y015365D01*
X011668Y015365D01*
X011668Y015445D02*
X011718Y015445D01*
X011718Y015604D02*
X011668Y015604D01*
X011668Y015762D02*
X008816Y015762D01*
X008816Y015781D02*
X008738Y015969D01*
X008595Y016112D01*
X008432Y016180D01*
X008595Y016248D01*
X008738Y016391D01*
X008816Y016579D01*
X008816Y016781D01*
X008738Y016969D01*
X008595Y017112D01*
X008407Y017190D01*
X008205Y017190D01*
X008017Y017112D01*
X007874Y016969D01*
X007796Y016781D01*
X007796Y016579D01*
X007874Y016391D01*
X008017Y016248D01*
X008180Y016180D01*
X008017Y016112D01*
X007874Y015969D01*
X007796Y015781D01*
X007796Y015579D01*
X007874Y015391D01*
X008017Y015248D01*
X008180Y015180D01*
X008017Y015112D01*
X007874Y014969D01*
X007796Y014781D01*
X007796Y014579D01*
X007874Y014391D01*
X008017Y014248D01*
X008205Y014170D01*
X008407Y014170D01*
X008595Y014248D01*
X008738Y014391D01*
X008816Y014579D01*
X008816Y014781D01*
X008738Y014969D01*
X008595Y015112D01*
X008432Y015180D01*
X008595Y015248D01*
X008738Y015391D01*
X008816Y015579D01*
X008816Y015781D01*
X008758Y015921D02*
X011083Y015921D01*
X011122Y016079D02*
X008628Y016079D01*
X008570Y016238D02*
X010931Y016238D01*
X010657Y016396D02*
X008740Y016396D01*
X008806Y016555D02*
X010476Y016555D01*
X010605Y016426D02*
X010605Y016426D01*
X010318Y016713D02*
X008816Y016713D01*
X008779Y016872D02*
X010224Y016872D01*
X010133Y017030D02*
X008677Y017030D01*
X008411Y017189D02*
X010076Y017189D01*
X010107Y017075D02*
X010107Y017075D01*
X010034Y017347D02*
X006582Y017347D01*
X006549Y017426D02*
X006426Y017549D01*
X006267Y017615D01*
X006093Y017615D01*
X005934Y017549D01*
X005811Y017426D01*
X005745Y017267D01*
X005745Y017093D01*
X005811Y016934D01*
X005934Y016811D01*
X006093Y016745D01*
X006267Y016745D01*
X006426Y016811D01*
X006549Y016934D01*
X006615Y017093D01*
X006615Y017267D01*
X006549Y017426D01*
X006470Y017506D02*
X010000Y017506D01*
X010000Y017664D02*
X000820Y017664D01*
X000820Y017506D02*
X002745Y017506D01*
X002745Y017533D02*
X002745Y016827D01*
X002827Y016745D01*
X003533Y016745D01*
X003615Y016827D01*
X003615Y017533D01*
X003533Y017615D01*
X002827Y017615D01*
X002745Y017533D01*
X002745Y017347D02*
X000820Y017347D01*
X000820Y017189D02*
X001198Y017189D01*
X001412Y017189D02*
X002745Y017189D01*
X002745Y017030D02*
X001677Y017030D01*
X001778Y016872D02*
X002745Y016872D01*
X002934Y016549D02*
X002811Y016426D01*
X002745Y016267D01*
X002745Y016093D01*
X002811Y015934D01*
X002934Y015811D01*
X003093Y015745D01*
X003267Y015745D01*
X003426Y015811D01*
X003549Y015934D01*
X003615Y016093D01*
X003615Y016267D01*
X003549Y016426D01*
X003426Y016549D01*
X003267Y016615D01*
X003093Y016615D01*
X002934Y016549D01*
X002947Y016555D02*
X001805Y016555D01*
X001815Y016713D02*
X007796Y016713D01*
X007806Y016555D02*
X006413Y016555D01*
X006426Y016549D02*
X006267Y016615D01*
X006093Y016615D01*
X005934Y016549D01*
X005811Y016426D01*
X005745Y016267D01*
X005745Y016093D01*
X005811Y015934D01*
X005934Y015811D01*
X006093Y015745D01*
X006267Y015745D01*
X006426Y015811D01*
X006549Y015934D01*
X006615Y016093D01*
X006615Y016267D01*
X006549Y016426D01*
X006426Y016549D01*
X006561Y016396D02*
X007872Y016396D01*
X008042Y016238D02*
X006615Y016238D01*
X006609Y016079D02*
X007984Y016079D01*
X007854Y015921D02*
X006536Y015921D01*
X006308Y015762D02*
X007796Y015762D01*
X007796Y015604D02*
X006294Y015604D01*
X006267Y015615D02*
X006093Y015615D01*
X005934Y015549D01*
X005811Y015426D01*
X005745Y015267D01*
X005745Y015093D01*
X005811Y014934D01*
X005934Y014811D01*
X003426Y014811D01*
X003549Y014934D01*
X003615Y015093D01*
X003615Y015267D01*
X003549Y015426D01*
X003426Y015549D01*
X003267Y015615D01*
X003093Y015615D01*
X002934Y015549D01*
X002811Y015426D01*
X002745Y015267D01*
X002745Y015093D01*
X002811Y014934D01*
X002934Y014811D01*
X001841Y014811D01*
X001855Y014653D02*
X007796Y014653D01*
X007808Y014811D02*
X006426Y014811D01*
X006549Y014934D01*
X006615Y015093D01*
X006615Y015267D01*
X006549Y015426D01*
X006426Y015549D01*
X006267Y015615D01*
X006066Y015604D02*
X003294Y015604D01*
X003308Y015762D02*
X006052Y015762D01*
X005824Y015921D02*
X003536Y015921D01*
X003609Y016079D02*
X005751Y016079D01*
X005745Y016238D02*
X003615Y016238D01*
X003561Y016396D02*
X005799Y016396D01*
X005947Y016555D02*
X003413Y016555D01*
X003615Y016872D02*
X005873Y016872D01*
X005771Y017030D02*
X003615Y017030D01*
X003615Y017189D02*
X005745Y017189D01*
X005778Y017347D02*
X003615Y017347D01*
X003615Y017506D02*
X005890Y017506D01*
X006615Y017189D02*
X008201Y017189D01*
X007935Y017030D02*
X006589Y017030D01*
X006487Y016872D02*
X007833Y016872D01*
X007851Y015445D02*
X006530Y015445D01*
X006607Y015287D02*
X007978Y015287D01*
X008055Y015128D02*
X006615Y015128D01*
X006564Y014970D02*
X007874Y014970D01*
X007831Y014494D02*
X006481Y014494D01*
X006426Y014549D02*
X006267Y014615D01*
X006093Y014615D01*
X005934Y014549D01*
X005811Y014426D01*
X005745Y014267D01*
X005745Y014093D01*
X005811Y013934D01*
X005934Y013811D01*
X006093Y013745D01*
X006267Y013745D01*
X006426Y013811D01*
X006549Y013934D01*
X006615Y014093D01*
X006615Y014267D01*
X006549Y014426D01*
X006426Y014549D01*
X006267Y014745D02*
X006426Y014811D01*
X006267Y014745D02*
X006093Y014745D01*
X005934Y014811D01*
X005796Y014970D02*
X003564Y014970D01*
X003615Y015128D02*
X005745Y015128D01*
X005753Y015287D02*
X003607Y015287D01*
X003530Y015445D02*
X005830Y015445D01*
X005879Y014494D02*
X003481Y014494D01*
X003426Y014549D02*
X003267Y014615D01*
X003093Y014615D01*
X002934Y014549D01*
X002811Y014426D01*
X002745Y014267D01*
X002745Y014093D01*
X002811Y013934D01*
X002934Y013811D01*
X003093Y013745D01*
X003267Y013745D01*
X003426Y013811D01*
X003549Y013934D01*
X003615Y014093D01*
X003615Y014267D01*
X003549Y014426D01*
X003426Y014549D01*
X003267Y014745D02*
X003426Y014811D01*
X003267Y014745D02*
X003093Y014745D01*
X002934Y014811D01*
X002796Y014970D02*
X001775Y014970D01*
X001625Y015128D02*
X002745Y015128D01*
X002753Y015287D02*
X001632Y015287D01*
X001759Y015445D02*
X002830Y015445D01*
X003066Y015604D02*
X001815Y015604D01*
X001815Y015762D02*
X003052Y015762D01*
X002824Y015921D02*
X001758Y015921D01*
X001628Y016079D02*
X002751Y016079D01*
X002745Y016238D02*
X001568Y016238D01*
X001739Y016396D02*
X002799Y016396D01*
X002879Y014494D02*
X001823Y014494D01*
X001734Y014336D02*
X002774Y014336D01*
X002745Y014177D02*
X001528Y014177D01*
X001689Y014019D02*
X002776Y014019D01*
X002885Y013860D02*
X001783Y013860D01*
X001815Y013702D02*
X007251Y013702D01*
X007185Y013635D02*
X007185Y013430D01*
X007680Y013430D01*
X007680Y013430D01*
X007680Y013925D01*
X007885Y013925D01*
X008175Y013635D01*
X008175Y013430D01*
X007680Y013430D01*
X007680Y013430D01*
X007680Y013430D01*
X007680Y013925D01*
X007475Y013925D01*
X007185Y013635D01*
X007185Y013543D02*
X006432Y013543D01*
X006426Y013549D02*
X006267Y013615D01*
X006093Y013615D01*
X005934Y013549D01*
X005811Y013426D01*
X005745Y013267D01*
X005745Y013093D01*
X005811Y012934D01*
X005934Y012811D01*
X006093Y012745D01*
X006267Y012745D01*
X006426Y012811D01*
X006549Y012934D01*
X006615Y013093D01*
X006615Y013267D01*
X006549Y013426D01*
X006426Y013549D01*
X006566Y013385D02*
X007185Y013385D01*
X007185Y013430D02*
X007185Y013225D01*
X007475Y012935D01*
X007680Y012935D01*
X007885Y012935D01*
X008175Y013225D01*
X008175Y013430D01*
X007680Y013430D01*
X007680Y012935D01*
X007680Y013430D01*
X007680Y013430D01*
X007185Y013430D01*
X007185Y013226D02*
X006615Y013226D01*
X006604Y013068D02*
X007342Y013068D01*
X007492Y012885D02*
X007225Y012618D01*
X007225Y012400D01*
X006560Y012400D01*
X006549Y012426D01*
X006426Y012549D01*
X006267Y012615D01*
X006093Y012615D01*
X005934Y012549D01*
X005811Y012426D01*
X005745Y012267D01*
X005745Y012093D01*
X005811Y011934D01*
X005934Y011811D01*
X006093Y011745D01*
X006267Y011745D01*
X006426Y011811D01*
X006549Y011934D01*
X006560Y011960D01*
X007521Y011960D01*
X007536Y011975D01*
X007868Y011975D01*
X008135Y012242D01*
X008135Y012618D01*
X007868Y012885D01*
X007492Y012885D01*
X007357Y012751D02*
X006280Y012751D01*
X006322Y012592D02*
X007225Y012592D01*
X007225Y012434D02*
X006542Y012434D01*
X006180Y012180D02*
X007430Y012180D01*
X007680Y012430D01*
X008003Y012751D02*
X008210Y012751D01*
X008210Y012909D02*
X006524Y012909D01*
X006080Y012751D02*
X003280Y012751D01*
X003322Y012592D02*
X006038Y012592D01*
X005818Y012434D02*
X003542Y012434D01*
X003611Y012275D02*
X005749Y012275D01*
X005745Y012117D02*
X003615Y012117D01*
X003559Y011958D02*
X005801Y011958D01*
X005962Y011800D02*
X003398Y011800D01*
X003267Y011615D02*
X003093Y011615D01*
X002934Y011549D01*
X002811Y011426D01*
X002745Y011267D01*
X002745Y011093D01*
X002811Y010934D01*
X002934Y010811D01*
X003093Y010745D01*
X003267Y010745D01*
X003426Y010811D01*
X003549Y010934D01*
X003615Y011093D01*
X003615Y011267D01*
X003549Y011426D01*
X003426Y011549D01*
X003267Y011615D01*
X003493Y011483D02*
X005813Y011483D01*
X005818Y011489D02*
X005774Y011429D01*
X005740Y011362D01*
X005717Y011291D01*
X005705Y011217D01*
X005705Y011198D01*
X006162Y011198D01*
X006162Y011655D01*
X006143Y011655D01*
X006069Y011643D01*
X005998Y011620D01*
X005931Y011586D01*
X005871Y011542D01*
X005818Y011489D01*
X005727Y011324D02*
X003591Y011324D01*
X003615Y011166D02*
X006162Y011166D01*
X006162Y011162D02*
X005705Y011162D01*
X005705Y011143D01*
X005717Y011069D01*
X005740Y010998D01*
X005774Y010931D01*
X005818Y010871D01*
X005871Y010818D01*
X005931Y010774D01*
X005998Y010740D01*
X006069Y010717D01*
X006143Y010705D01*
X006162Y010705D01*
X006162Y011162D01*
X006198Y011162D01*
X006198Y011198D01*
X006655Y011198D01*
X006655Y011217D01*
X006643Y011291D01*
X006620Y011362D01*
X006586Y011429D01*
X006542Y011489D01*
X006489Y011542D01*
X006429Y011586D01*
X006362Y011620D01*
X006291Y011643D01*
X006217Y011655D01*
X006198Y011655D01*
X006198Y011198D01*
X006162Y011198D01*
X006162Y011162D01*
X006198Y011162D02*
X006198Y010705D01*
X006217Y010705D01*
X006291Y010717D01*
X006362Y010740D01*
X006429Y010774D01*
X006489Y010818D01*
X006542Y010871D01*
X006586Y010931D01*
X006620Y010998D01*
X006643Y011069D01*
X006655Y011143D01*
X006655Y011162D01*
X006198Y011162D01*
X006198Y011166D02*
X007244Y011166D01*
X007185Y011225D02*
X007475Y010935D01*
X007680Y010935D01*
X007885Y010935D01*
X008175Y011225D01*
X008175Y011430D01*
X008175Y011635D01*
X007885Y011925D01*
X007680Y011925D01*
X007680Y011430D01*
X007680Y011430D01*
X008175Y011430D01*
X007680Y011430D01*
X007680Y011430D01*
X007680Y011430D01*
X007185Y011430D01*
X007185Y011635D01*
X007475Y011925D01*
X007680Y011925D01*
X007680Y011430D01*
X007680Y010935D01*
X007680Y011430D01*
X007680Y011430D01*
X007185Y011430D01*
X007185Y011225D01*
X007185Y011324D02*
X006633Y011324D01*
X006547Y011483D02*
X007185Y011483D01*
X007191Y011641D02*
X006298Y011641D01*
X006198Y011641D02*
X006162Y011641D01*
X006062Y011641D02*
X001952Y011641D01*
X001794Y011483D02*
X002867Y011483D01*
X002769Y011324D02*
X001669Y011324D01*
X001565Y011166D02*
X002745Y011166D01*
X002781Y011007D02*
X001748Y011007D01*
X001829Y010849D02*
X002896Y010849D01*
X002998Y010620D02*
X002931Y010586D01*
X002871Y010542D01*
X002818Y010489D01*
X002774Y010429D01*
X002740Y010362D01*
X002717Y010291D01*
X002705Y010217D01*
X002705Y010198D01*
X003162Y010198D01*
X003162Y010655D01*
X003143Y010655D01*
X003069Y010643D01*
X002998Y010620D01*
X002860Y010532D02*
X001835Y010532D01*
X001841Y010552D02*
X001855Y010638D01*
X001855Y010661D01*
X001325Y010661D01*
X001325Y010131D01*
X001348Y010131D01*
X001434Y010144D01*
X001516Y010171D01*
X001593Y010210D01*
X001663Y010261D01*
X001725Y010322D01*
X001775Y010393D01*
X001815Y010470D01*
X001841Y010552D01*
X001761Y010373D02*
X002745Y010373D01*
X002705Y010215D02*
X001599Y010215D01*
X001325Y010215D02*
X001285Y010215D01*
X001285Y010373D02*
X001325Y010373D01*
X001325Y010532D02*
X001285Y010532D01*
X001325Y010690D02*
X007297Y010690D01*
X007225Y010532D02*
X006444Y010532D01*
X006520Y010849D02*
X007455Y010849D01*
X007403Y011007D02*
X006623Y011007D01*
X006198Y011007D02*
X006162Y011007D01*
X006162Y010849D02*
X006198Y010849D01*
X005840Y010849D02*
X003464Y010849D01*
X003579Y011007D02*
X005737Y011007D01*
X005916Y010532D02*
X003500Y010532D01*
X003489Y010542D02*
X003429Y010586D01*
X003362Y010620D01*
X003291Y010643D01*
X003217Y010655D01*
X003198Y010655D01*
X003198Y010198D01*
X003655Y010198D01*
X003655Y010217D01*
X003643Y010291D01*
X003620Y010362D01*
X003586Y010429D01*
X003542Y010489D01*
X003489Y010542D01*
X003615Y010373D02*
X005789Y010373D01*
X005745Y010215D02*
X003655Y010215D01*
X003655Y010162D02*
X003198Y010162D01*
X003198Y010198D01*
X003162Y010198D01*
X003162Y010162D01*
X003198Y010162D01*
X003198Y009705D01*
X003217Y009705D01*
X003291Y009717D01*
X003362Y009740D01*
X003429Y009774D01*
X003489Y009818D01*
X003542Y009871D01*
X003586Y009931D01*
X003620Y009998D01*
X003643Y010069D01*
X003655Y010143D01*
X003655Y010162D01*
X003639Y010056D02*
X005761Y010056D01*
X005847Y009898D02*
X003562Y009898D01*
X003360Y009739D02*
X007428Y009739D01*
X007532Y009898D02*
X007586Y009898D01*
X007892Y009581D02*
X008269Y009581D01*
X008428Y009739D02*
X008050Y009739D01*
X008209Y009898D02*
X008586Y009898D01*
X008710Y010056D02*
X008367Y010056D01*
X008526Y010215D02*
X008710Y010215D01*
X008710Y010373D02*
X008650Y010373D01*
X008650Y010532D02*
X008710Y010532D01*
X008710Y010690D02*
X008650Y010690D01*
X008650Y010849D02*
X008710Y010849D01*
X008710Y011007D02*
X008650Y011007D01*
X008650Y011166D02*
X008710Y011166D01*
X008710Y011324D02*
X008650Y011324D01*
X008650Y011483D02*
X008710Y011483D01*
X008710Y011641D02*
X008650Y011641D01*
X008650Y011800D02*
X008710Y011800D01*
X008710Y011958D02*
X008650Y011958D01*
X008650Y012117D02*
X008710Y012117D01*
X008710Y012275D02*
X008650Y012275D01*
X008650Y012434D02*
X008710Y012434D01*
X008710Y012592D02*
X008650Y012592D01*
X008650Y012751D02*
X008710Y012751D01*
X008710Y012909D02*
X008650Y012909D01*
X008650Y013068D02*
X008756Y013068D01*
X008650Y013226D02*
X008915Y013226D01*
X009073Y013385D02*
X008696Y013385D01*
X008855Y013543D02*
X009232Y013543D01*
X009390Y013702D02*
X009013Y013702D01*
X009172Y013860D02*
X009549Y013860D01*
X009707Y014019D02*
X009330Y014019D01*
X009489Y014177D02*
X009866Y014177D01*
X010118Y014118D02*
X008930Y012930D01*
X008930Y009930D01*
X006180Y007180D01*
X005784Y007362D02*
X003576Y007362D01*
X003549Y007426D02*
X003426Y007549D01*
X003267Y007615D01*
X003093Y007615D01*
X002934Y007549D01*
X002811Y007426D01*
X002745Y007267D01*
X002745Y007093D01*
X002811Y006934D01*
X002934Y006811D01*
X003093Y006745D01*
X003267Y006745D01*
X003426Y006811D01*
X003549Y006934D01*
X003615Y007093D01*
X003615Y007267D01*
X003549Y007426D01*
X003455Y007520D02*
X005905Y007520D01*
X005745Y007203D02*
X003615Y007203D01*
X003595Y007045D02*
X005765Y007045D01*
X005859Y006886D02*
X003501Y006886D01*
X003378Y006569D02*
X005982Y006569D01*
X005805Y006411D02*
X003555Y006411D01*
X003615Y006252D02*
X005745Y006252D01*
X005745Y006094D02*
X003615Y006094D01*
X003549Y005935D02*
X005811Y005935D01*
X006180Y006180D02*
X009430Y009430D01*
X009430Y012430D01*
X010331Y013331D01*
X010429Y013543D02*
X011123Y013543D01*
X011123Y013860D02*
X010171Y013860D01*
X010379Y013068D02*
X011123Y013068D01*
X011125Y012751D02*
X010062Y012751D01*
X010220Y012909D02*
X012640Y012909D01*
X012798Y012751D02*
X012261Y012751D01*
X012263Y012592D02*
X012957Y012592D01*
X013115Y012434D02*
X012263Y012434D01*
X012263Y012275D02*
X013274Y012275D01*
X013432Y012117D02*
X010428Y012117D01*
X010400Y011958D02*
X011170Y011958D01*
X011205Y011993D02*
X011123Y011911D01*
X011123Y011375D01*
X011205Y011293D01*
X012181Y011293D01*
X012263Y011375D01*
X012263Y011911D01*
X012181Y011993D01*
X011205Y011993D01*
X011123Y011800D02*
X010400Y011800D01*
X010400Y011641D02*
X011123Y011641D01*
X011123Y011483D02*
X010400Y011483D01*
X010400Y011324D02*
X011174Y011324D01*
X011392Y011112D02*
X011248Y010969D01*
X011170Y010781D01*
X011170Y010579D01*
X011248Y010391D01*
X011392Y010248D01*
X011579Y010170D01*
X011782Y010170D01*
X011969Y010248D01*
X012113Y010391D01*
X012141Y010460D01*
X012720Y010460D01*
X012748Y010391D01*
X012892Y010248D01*
X013079Y010170D01*
X013282Y010170D01*
X013469Y010248D01*
X013613Y010391D01*
X013690Y010579D01*
X013690Y010781D01*
X013613Y010969D01*
X013469Y011112D01*
X013282Y011190D01*
X013079Y011190D01*
X012892Y011112D01*
X012748Y010969D01*
X012720Y010900D01*
X012141Y010900D01*
X012113Y010969D01*
X011969Y011112D01*
X011782Y011190D01*
X011579Y011190D01*
X011392Y011112D01*
X011520Y011166D02*
X010400Y011166D01*
X010400Y011007D02*
X011286Y011007D01*
X011198Y010849D02*
X010400Y010849D01*
X010400Y010690D02*
X011170Y010690D01*
X011190Y010532D02*
X010400Y010532D01*
X010400Y010373D02*
X011266Y010373D01*
X011471Y010215D02*
X010400Y010215D01*
X010400Y010056D02*
X015493Y010056D01*
X015584Y009898D02*
X014078Y009898D01*
X014076Y009900D02*
X013981Y009939D01*
X013878Y009939D01*
X013784Y009900D01*
X011076Y009900D01*
X010982Y009939D01*
X010879Y009939D01*
X010784Y009900D01*
X010711Y009827D01*
X010671Y009732D01*
X010671Y009628D01*
X010711Y009533D01*
X010784Y009460D01*
X010879Y009421D01*
X010982Y009421D01*
X011076Y009460D01*
X013784Y009460D01*
X013878Y009421D01*
X013981Y009421D01*
X014076Y009460D01*
X014149Y009533D01*
X014189Y009628D01*
X014189Y009732D01*
X014149Y009827D01*
X014076Y009900D01*
X014186Y009739D02*
X015584Y009739D01*
X015584Y009581D02*
X014169Y009581D01*
X013984Y009422D02*
X015584Y009422D01*
X015584Y009264D02*
X010400Y009264D01*
X010400Y009422D02*
X010876Y009422D01*
X010985Y009422D02*
X013875Y009422D01*
X013930Y009680D02*
X010930Y009680D01*
X010691Y009581D02*
X010400Y009581D01*
X010400Y009739D02*
X010674Y009739D01*
X010782Y009898D02*
X010400Y009898D01*
X009960Y009898D02*
X009650Y009898D01*
X009650Y010056D02*
X009960Y010056D01*
X009960Y010215D02*
X009650Y010215D01*
X009650Y010373D02*
X009960Y010373D01*
X009960Y010532D02*
X009650Y010532D01*
X009650Y010690D02*
X009960Y010690D01*
X009960Y010849D02*
X009650Y010849D01*
X009650Y011007D02*
X009960Y011007D01*
X009960Y011166D02*
X009650Y011166D01*
X009650Y011324D02*
X009960Y011324D01*
X009960Y011483D02*
X009650Y011483D01*
X009650Y011641D02*
X009960Y011641D01*
X009960Y011800D02*
X009650Y011800D01*
X009650Y011958D02*
X009960Y011958D01*
X009960Y012117D02*
X009650Y012117D01*
X009650Y012275D02*
X009964Y012275D01*
X010122Y012434D02*
X009745Y012434D01*
X009903Y012592D02*
X010281Y012592D01*
X010481Y012481D02*
X010180Y012180D01*
X010180Y009180D01*
X006180Y005180D01*
X006570Y004984D02*
X006709Y004984D01*
X006670Y005143D02*
X006615Y005143D01*
X006612Y005301D02*
X006678Y005301D01*
X006813Y004826D02*
X006441Y004826D01*
X006467Y004509D02*
X012058Y004509D01*
X011935Y004385D02*
X011935Y004180D01*
X012430Y004180D01*
X012430Y004180D01*
X012430Y004675D01*
X012635Y004675D01*
X012925Y004385D01*
X012925Y004180D01*
X012430Y004180D01*
X012430Y004180D01*
X012430Y004180D01*
X012430Y004675D01*
X012225Y004675D01*
X011935Y004385D01*
X011935Y004350D02*
X006580Y004350D01*
X006615Y004192D02*
X011935Y004192D01*
X011935Y004180D02*
X011935Y003975D01*
X012225Y003685D01*
X012430Y003685D01*
X012635Y003685D01*
X012925Y003975D01*
X012925Y004180D01*
X012430Y004180D01*
X012430Y003685D01*
X012430Y004180D01*
X012430Y004180D01*
X011935Y004180D01*
X011935Y004033D02*
X010909Y004033D01*
X010900Y004039D02*
X010841Y004069D01*
X010778Y004090D01*
X010713Y004100D01*
X010680Y004100D01*
X010680Y003680D01*
X011100Y003680D01*
X011100Y003713D01*
X011090Y003778D01*
X011069Y003841D01*
X011039Y003900D01*
X011000Y003954D01*
X010954Y004000D01*
X010900Y004039D01*
X010680Y004033D02*
X010680Y004033D01*
X010680Y004100D02*
X010680Y003680D01*
X010680Y003680D01*
X010680Y003680D01*
X011100Y003680D01*
X011100Y003647D01*
X011090Y003582D01*
X011069Y003519D01*
X011039Y003460D01*
X011018Y003430D01*
X011060Y003388D01*
X011060Y002792D01*
X010978Y002710D01*
X010382Y002710D01*
X010300Y002792D01*
X010300Y003388D01*
X010342Y003430D01*
X010321Y003460D01*
X010291Y003519D01*
X010270Y003582D01*
X010260Y003647D01*
X010260Y003680D01*
X010680Y003680D01*
X010680Y003680D01*
X010260Y003680D01*
X010260Y003713D01*
X010270Y003778D01*
X010291Y003841D01*
X010321Y003900D01*
X010360Y003954D01*
X010406Y004000D01*
X010460Y004039D01*
X010519Y004069D01*
X010582Y004090D01*
X010647Y004100D01*
X010680Y004100D01*
X010680Y003875D02*
X010680Y003875D01*
X010680Y003716D02*
X010680Y003716D01*
X011052Y003875D02*
X012035Y003875D01*
X012194Y003716D02*
X011100Y003716D01*
X011082Y003558D02*
X012164Y003558D01*
X012242Y003635D02*
X011975Y003368D01*
X011975Y002992D01*
X012242Y002725D01*
X012618Y002725D01*
X012885Y002992D01*
X012885Y003368D01*
X012618Y003635D01*
X012242Y003635D01*
X012430Y003716D02*
X012430Y003716D01*
X012430Y003875D02*
X012430Y003875D01*
X012430Y004033D02*
X012430Y004033D01*
X012430Y004192D02*
X012430Y004192D01*
X012430Y004350D02*
X012430Y004350D01*
X012430Y004509D02*
X012430Y004509D01*
X012430Y004667D02*
X012430Y004667D01*
X012643Y004667D02*
X015967Y004667D01*
X015975Y004675D02*
X015685Y004385D01*
X015685Y004180D01*
X016180Y004180D01*
X016180Y004180D01*
X016180Y004675D01*
X016385Y004675D01*
X016675Y004385D01*
X016675Y004180D01*
X016180Y004180D01*
X016180Y004180D01*
X016180Y004180D01*
X016180Y004675D01*
X015975Y004675D01*
X016180Y004667D02*
X016180Y004667D01*
X016180Y004509D02*
X016180Y004509D01*
X016180Y004350D02*
X016180Y004350D01*
X016180Y004192D02*
X016180Y004192D01*
X016180Y004180D02*
X015685Y004180D01*
X015685Y003975D01*
X015975Y003685D01*
X016180Y003685D01*
X016385Y003685D01*
X016675Y003975D01*
X016675Y004180D01*
X016180Y004180D01*
X016180Y003685D01*
X016180Y004180D01*
X016180Y004180D01*
X016180Y004033D02*
X016180Y004033D01*
X016180Y003875D02*
X016180Y003875D01*
X016180Y003716D02*
X016180Y003716D01*
X016368Y003635D02*
X015992Y003635D01*
X015837Y003480D01*
X015115Y003480D01*
X015115Y003533D01*
X015033Y003615D01*
X014327Y003615D01*
X014245Y003533D01*
X014245Y002827D01*
X014327Y002745D01*
X015033Y002745D01*
X015115Y002827D01*
X015115Y002880D01*
X015837Y002880D01*
X015992Y002725D01*
X016368Y002725D01*
X016523Y002880D01*
X017902Y002880D01*
X018026Y002757D01*
X018195Y002687D01*
X018378Y002687D01*
X018547Y002757D01*
X018658Y002868D01*
X018692Y002821D01*
X018748Y002765D01*
X018812Y002719D01*
X018882Y002683D01*
X018957Y002659D01*
X019034Y002647D01*
X019074Y002647D01*
X019113Y002647D01*
X019191Y002659D01*
X019266Y002683D01*
X019336Y002719D01*
X019399Y002765D01*
X020032Y002765D01*
X020032Y002607D02*
X014115Y002607D01*
X014115Y002765D02*
X014307Y002765D01*
X014245Y002924D02*
X014115Y002924D01*
X014115Y003033D02*
X014033Y003115D01*
X013327Y003115D01*
X013245Y003033D01*
X013245Y002327D01*
X013327Y002245D01*
X014033Y002245D01*
X014115Y002327D01*
X014115Y003033D01*
X014066Y003082D02*
X014245Y003082D01*
X014245Y003241D02*
X013864Y003241D01*
X013862Y003240D02*
X013929Y003274D01*
X013989Y003318D01*
X014042Y003371D01*
X014086Y003431D01*
X014120Y003498D01*
X014143Y003569D01*
X014155Y003643D01*
X014155Y003662D01*
X013698Y003662D01*
X013698Y003698D01*
X013662Y003698D01*
X013662Y004155D01*
X013643Y004155D01*
X013569Y004143D01*
X013498Y004120D01*
X013431Y004086D01*
X013371Y004042D01*
X013318Y003989D01*
X013274Y003929D01*
X013240Y003862D01*
X013217Y003791D01*
X013205Y003717D01*
X013205Y003698D01*
X013662Y003698D01*
X013662Y003662D01*
X013205Y003662D01*
X013205Y003643D01*
X013217Y003569D01*
X013240Y003498D01*
X013274Y003431D01*
X013318Y003371D01*
X013371Y003318D01*
X013431Y003274D01*
X013498Y003240D01*
X013569Y003217D01*
X013643Y003205D01*
X013662Y003205D01*
X013662Y003662D01*
X013698Y003662D01*
X013698Y003205D01*
X013717Y003205D01*
X013791Y003217D01*
X013862Y003240D01*
X013698Y003241D02*
X013662Y003241D01*
X013662Y003399D02*
X013698Y003399D01*
X013698Y003558D02*
X013662Y003558D01*
X013698Y003698D02*
X014155Y003698D01*
X014155Y003717D01*
X014143Y003791D01*
X014120Y003862D01*
X014086Y003929D01*
X014042Y003989D01*
X013989Y004042D01*
X013929Y004086D01*
X013862Y004120D01*
X013791Y004143D01*
X013717Y004155D01*
X013698Y004155D01*
X013698Y003698D01*
X013698Y003716D02*
X013662Y003716D01*
X013662Y003875D02*
X013698Y003875D01*
X013698Y004033D02*
X013662Y004033D01*
X013361Y004033D02*
X012925Y004033D01*
X012925Y004192D02*
X015685Y004192D01*
X015685Y004350D02*
X012925Y004350D01*
X012802Y004509D02*
X015808Y004509D01*
X015685Y004033D02*
X013999Y004033D01*
X014114Y003875D02*
X015785Y003875D01*
X015944Y003716D02*
X014155Y003716D01*
X014140Y003558D02*
X014270Y003558D01*
X014245Y003399D02*
X014063Y003399D01*
X013496Y003241D02*
X012885Y003241D01*
X012885Y003082D02*
X013294Y003082D01*
X013245Y002924D02*
X012817Y002924D01*
X012658Y002765D02*
X013245Y002765D01*
X013245Y002607D02*
X007798Y002607D01*
X007798Y002765D02*
X010327Y002765D01*
X010300Y002924D02*
X007748Y002924D01*
X007578Y002782D02*
X007578Y001807D01*
X007095Y001973D02*
X007062Y001973D01*
X006975Y002131D02*
X007181Y002131D01*
X007358Y002290D02*
X006798Y002290D01*
X006723Y002448D02*
X007358Y002448D01*
X007358Y002607D02*
X006565Y002607D01*
X006406Y002765D02*
X007284Y002765D01*
X007578Y002782D02*
X006180Y004180D01*
X006638Y004033D02*
X010451Y004033D01*
X010308Y003875D02*
X006797Y003875D01*
X006955Y003716D02*
X010260Y003716D01*
X010278Y003558D02*
X007114Y003558D01*
X007272Y003399D02*
X010311Y003399D01*
X010300Y003241D02*
X007431Y003241D01*
X007589Y003082D02*
X010300Y003082D01*
X011060Y003082D02*
X011975Y003082D01*
X011975Y003241D02*
X011060Y003241D01*
X011049Y003399D02*
X012006Y003399D01*
X012043Y002924D02*
X011060Y002924D01*
X011033Y002765D02*
X012202Y002765D01*
X012854Y003399D02*
X013297Y003399D01*
X013220Y003558D02*
X012696Y003558D01*
X012666Y003716D02*
X013205Y003716D01*
X013246Y003875D02*
X012825Y003875D01*
X012217Y004667D02*
X000820Y004667D01*
X000820Y004509D02*
X001365Y004509D01*
X001225Y004350D02*
X000820Y004350D01*
X000820Y004192D02*
X001225Y004192D01*
X001225Y004033D02*
X000820Y004033D01*
X000820Y003875D02*
X001342Y003875D01*
X001336Y003558D02*
X000820Y003558D01*
X000820Y003716D02*
X003333Y003716D01*
X003491Y003558D02*
X002024Y003558D01*
X002141Y003399D02*
X003650Y003399D01*
X003808Y003241D02*
X002190Y003241D01*
X002190Y003082D02*
X003967Y003082D01*
X004180Y003180D02*
X003180Y004180D01*
X001680Y004180D01*
X001995Y004509D02*
X002893Y004509D01*
X002919Y004826D02*
X002026Y004826D01*
X002175Y004984D02*
X002790Y004984D01*
X002745Y005143D02*
X002175Y005143D01*
X002175Y005301D02*
X002759Y005301D01*
X002844Y005460D02*
X002101Y005460D01*
X002811Y005935D02*
X000820Y005935D01*
X000820Y005777D02*
X003017Y005777D01*
X002859Y006886D02*
X002197Y006886D01*
X002356Y007045D02*
X002765Y007045D01*
X002745Y007203D02*
X002514Y007203D01*
X002673Y007362D02*
X002784Y007362D01*
X002831Y007520D02*
X002905Y007520D01*
X002990Y007679D02*
X006367Y007679D01*
X006452Y007837D02*
X006526Y007837D01*
X006574Y007996D02*
X006684Y007996D01*
X006615Y008154D02*
X006843Y008154D01*
X007001Y008313D02*
X006624Y008313D01*
X006782Y008471D02*
X007160Y008471D01*
X007318Y008630D02*
X006941Y008630D01*
X007099Y008788D02*
X007477Y008788D01*
X007635Y008947D02*
X007258Y008947D01*
X007416Y009105D02*
X007794Y009105D01*
X007952Y009264D02*
X007575Y009264D01*
X007733Y009422D02*
X008111Y009422D01*
X007269Y009581D02*
X006350Y009581D01*
X006426Y009549D02*
X006267Y009615D01*
X006093Y009615D01*
X005934Y009549D01*
X005811Y009426D01*
X005745Y009267D01*
X005745Y009093D01*
X005811Y008934D01*
X005934Y008811D01*
X006093Y008745D01*
X006267Y008745D01*
X006426Y008811D01*
X006549Y008934D01*
X006615Y009093D01*
X006615Y009267D01*
X006549Y009426D01*
X006426Y009549D01*
X006551Y009422D02*
X007111Y009422D01*
X006952Y009264D02*
X006615Y009264D01*
X006615Y009105D02*
X006794Y009105D01*
X006635Y008947D02*
X006554Y008947D01*
X006477Y008788D02*
X006370Y008788D01*
X006318Y008630D02*
X002190Y008630D01*
X002187Y008788D02*
X002990Y008788D01*
X002806Y008947D02*
X002258Y008947D01*
X002144Y009143D02*
X002159Y009156D01*
X002175Y009166D01*
X002193Y009174D01*
X002212Y009178D01*
X002232Y009180D01*
X003180Y009180D01*
X003370Y008788D02*
X005990Y008788D01*
X005806Y008947D02*
X003554Y008947D01*
X003615Y009105D02*
X005745Y009105D01*
X005745Y009264D02*
X003615Y009264D01*
X003551Y009422D02*
X005809Y009422D01*
X006010Y009581D02*
X003350Y009581D01*
X003198Y009739D02*
X003162Y009739D01*
X003162Y009705D02*
X003162Y010162D01*
X002705Y010162D01*
X002705Y010143D01*
X002717Y010069D01*
X002740Y009998D01*
X002774Y009931D01*
X002818Y009871D01*
X002871Y009818D01*
X002931Y009774D01*
X002998Y009740D01*
X003069Y009717D01*
X003143Y009705D01*
X003162Y009705D01*
X003000Y009739D02*
X000820Y009739D01*
X000820Y009581D02*
X003010Y009581D01*
X002809Y009422D02*
X000820Y009422D01*
X000820Y009264D02*
X001952Y009264D01*
X002143Y009143D02*
X001680Y008680D01*
X001326Y008313D02*
X000820Y008313D01*
X000820Y008471D02*
X001215Y008471D01*
X001170Y008630D02*
X000820Y008630D01*
X000820Y008788D02*
X001173Y008788D01*
X001238Y008947D02*
X000820Y008947D01*
X000820Y009105D02*
X001384Y009105D01*
X000820Y009898D02*
X002798Y009898D01*
X002721Y010056D02*
X000820Y010056D01*
X000820Y010215D02*
X001011Y010215D01*
X000849Y010373D02*
X000820Y010373D01*
X001305Y011681D02*
X001681Y011681D01*
X002143Y012143D01*
X002232Y012180D02*
X003180Y012180D01*
X002962Y011800D02*
X002111Y011800D01*
X002269Y011958D02*
X002801Y011958D01*
X002818Y012434D02*
X001755Y012434D01*
X001815Y012592D02*
X003038Y012592D01*
X003080Y012751D02*
X001815Y012751D01*
X001844Y012909D02*
X002836Y012909D01*
X003180Y013180D02*
X001804Y013180D01*
X001305Y012681D01*
X001620Y012275D02*
X001964Y012275D01*
X001805Y012117D02*
X001586Y012117D01*
X001305Y011806D02*
X001305Y011681D01*
X002144Y012143D02*
X002159Y012156D01*
X002175Y012166D01*
X002193Y012174D01*
X002212Y012178D01*
X002232Y012180D01*
X001800Y013543D02*
X002928Y013543D01*
X003432Y013543D02*
X005928Y013543D01*
X005794Y013385D02*
X003566Y013385D01*
X003615Y013226D02*
X005745Y013226D01*
X005756Y013068D02*
X003604Y013068D01*
X003524Y012909D02*
X005836Y012909D01*
X005885Y013860D02*
X003475Y013860D01*
X003584Y014019D02*
X005776Y014019D01*
X005745Y014177D02*
X003615Y014177D01*
X003586Y014336D02*
X005774Y014336D01*
X006586Y014336D02*
X007929Y014336D01*
X008188Y014177D02*
X006615Y014177D01*
X006584Y014019D02*
X008708Y014019D01*
X008866Y014177D02*
X008424Y014177D01*
X008683Y014336D02*
X009025Y014336D01*
X009183Y014494D02*
X008781Y014494D01*
X008816Y014653D02*
X009342Y014653D01*
X009500Y014811D02*
X008804Y014811D01*
X008738Y014970D02*
X009659Y014970D01*
X009906Y014905D02*
X008430Y013430D01*
X008430Y010430D01*
X006180Y008180D01*
X005786Y007996D02*
X003574Y007996D01*
X003615Y008154D02*
X005745Y008154D01*
X005764Y008313D02*
X003596Y008313D01*
X003504Y008471D02*
X005856Y008471D01*
X005908Y007837D02*
X003452Y007837D01*
X003180Y008180D02*
X001680Y006680D01*
X001323Y007045D02*
X000820Y007045D01*
X000820Y007203D02*
X001405Y007203D01*
X001232Y007362D02*
X000820Y007362D01*
X000820Y007520D02*
X001154Y007520D01*
X001130Y007679D02*
X000820Y007679D01*
X000820Y007837D02*
X001153Y007837D01*
X001229Y007996D02*
X000820Y007996D01*
X000820Y008154D02*
X001399Y008154D01*
X001961Y008154D02*
X002745Y008154D01*
X002764Y008313D02*
X002034Y008313D01*
X002145Y008471D02*
X002856Y008471D01*
X002684Y007996D02*
X002131Y007996D01*
X002207Y007837D02*
X002526Y007837D01*
X002367Y007679D02*
X002230Y007679D01*
X002206Y007520D02*
X002209Y007520D01*
X001213Y006886D02*
X000820Y006886D01*
X000820Y006728D02*
X001170Y006728D01*
X001174Y006569D02*
X000820Y006569D01*
X000820Y006411D02*
X001240Y006411D01*
X002018Y003875D02*
X002870Y003875D01*
X002126Y002924D02*
X005234Y002924D01*
X005374Y002765D02*
X001986Y002765D01*
X001234Y002924D02*
X000820Y002924D01*
X000820Y003082D02*
X001170Y003082D01*
X001170Y003241D02*
X000820Y003241D01*
X000820Y003399D02*
X001219Y003399D01*
X004114Y003558D02*
X005336Y003558D01*
X005680Y003180D02*
X006578Y002282D01*
X006578Y001807D01*
X007798Y002290D02*
X008314Y002290D01*
X008134Y002131D02*
X007975Y002131D01*
X007798Y002448D02*
X013245Y002448D01*
X013283Y002290D02*
X010090Y002290D01*
X010092Y002287D02*
X010059Y002321D01*
X010018Y002345D01*
X009972Y002357D01*
X009598Y002357D01*
X009598Y001827D01*
X010128Y001827D01*
X010128Y002201D01*
X010116Y002246D01*
X010092Y002287D01*
X010128Y002131D02*
X020032Y002131D01*
X020032Y001973D02*
X010128Y001973D01*
X010128Y001656D02*
X019948Y001656D01*
X020007Y001814D02*
X009598Y001814D01*
X009558Y001814D02*
X008598Y001814D01*
X008598Y001827D02*
X009128Y001827D01*
X009558Y001827D01*
X009558Y002357D01*
X009185Y002357D01*
X009139Y002345D01*
X009098Y002321D01*
X009064Y002287D01*
X009040Y002246D01*
X009028Y002201D01*
X009028Y002123D01*
X008998Y002165D01*
X008937Y002226D01*
X008866Y002277D01*
X008789Y002317D01*
X008707Y002343D01*
X008622Y002357D01*
X008598Y002357D01*
X008598Y001827D01*
X008598Y001973D02*
X008558Y001973D01*
X008558Y002131D02*
X008598Y002131D01*
X008598Y002290D02*
X008558Y002290D01*
X008843Y002290D02*
X009066Y002290D01*
X009028Y002131D02*
X009023Y002131D01*
X009558Y002131D02*
X009598Y002131D01*
X009598Y001973D02*
X009558Y001973D01*
X009558Y002290D02*
X009598Y002290D01*
X010128Y001497D02*
X019825Y001497D01*
X019518Y001339D02*
X010099Y001339D01*
X011079Y004670D02*
X010891Y004748D01*
X010748Y004891D01*
X010670Y005079D01*
X010670Y005281D01*
X010748Y005469D01*
X010891Y005612D01*
X011079Y005690D01*
X011281Y005690D01*
X011469Y005612D01*
X011612Y005469D01*
X011690Y005281D01*
X011690Y005079D01*
X011612Y004891D01*
X011469Y004748D01*
X011281Y004670D01*
X011079Y004670D01*
X010813Y004826D02*
X007547Y004826D01*
X007651Y004984D02*
X010709Y004984D01*
X010670Y005143D02*
X007690Y005143D01*
X007682Y005301D02*
X010678Y005301D01*
X010744Y005460D02*
X007616Y005460D01*
X007455Y005618D02*
X010905Y005618D01*
X011455Y005618D02*
X020032Y005618D01*
X020032Y005460D02*
X011616Y005460D01*
X011682Y005301D02*
X020032Y005301D01*
X020032Y005143D02*
X011690Y005143D01*
X011651Y004984D02*
X020032Y004984D01*
X020032Y004826D02*
X011547Y004826D01*
X011637Y006130D02*
X011552Y006144D01*
X011469Y006170D01*
X011392Y006210D01*
X011322Y006260D01*
X011261Y006322D01*
X011210Y006392D01*
X011171Y006469D01*
X011144Y006551D01*
X011130Y006637D01*
X011130Y006671D01*
X011672Y006671D01*
X011689Y006671D01*
X011689Y006130D01*
X011724Y006130D01*
X011809Y006144D01*
X011892Y006170D01*
X011969Y006210D01*
X012039Y006260D01*
X012100Y006322D01*
X012151Y006392D01*
X012190Y006469D01*
X012217Y006551D01*
X012230Y006637D01*
X012230Y006671D01*
X011689Y006671D01*
X011689Y006689D01*
X011672Y006689D01*
X011672Y007230D01*
X011637Y007230D01*
X011552Y007216D01*
X011469Y007190D01*
X011392Y007150D01*
X011322Y007100D01*
X011261Y007038D01*
X011210Y006968D01*
X011171Y006891D01*
X011144Y006809D01*
X011130Y006723D01*
X011130Y006689D01*
X011672Y006689D01*
X011672Y006671D01*
X011672Y006130D01*
X011637Y006130D01*
X011672Y006252D02*
X011689Y006252D01*
X011672Y006411D02*
X011689Y006411D01*
X011672Y006569D02*
X011689Y006569D01*
X011689Y006689D02*
X012230Y006689D01*
X012230Y006723D01*
X012217Y006809D01*
X012190Y006891D01*
X012151Y006968D01*
X012100Y007038D01*
X012039Y007100D01*
X011969Y007150D01*
X011892Y007190D01*
X011809Y007216D01*
X011724Y007230D01*
X011689Y007230D01*
X011689Y006689D01*
X011689Y006728D02*
X011672Y006728D01*
X011672Y006886D02*
X011689Y006886D01*
X011672Y007045D02*
X011689Y007045D01*
X011672Y007203D02*
X011689Y007203D01*
X011851Y007203D02*
X015545Y007203D01*
X015580Y007045D02*
X013537Y007045D01*
X013469Y007112D02*
X013613Y006969D01*
X013690Y006781D01*
X013690Y006579D01*
X013613Y006391D01*
X013469Y006248D01*
X013282Y006170D01*
X013079Y006170D01*
X012892Y006248D01*
X012748Y006391D01*
X012670Y006579D01*
X012670Y006781D01*
X012748Y006969D01*
X012892Y007112D01*
X013079Y007190D01*
X013282Y007190D01*
X013469Y007112D01*
X013647Y006886D02*
X017670Y006886D01*
X017670Y006728D02*
X013690Y006728D01*
X013686Y006569D02*
X017670Y006569D01*
X017728Y006411D02*
X013621Y006411D01*
X013474Y006252D02*
X017887Y006252D01*
X018180Y006680D02*
X018930Y005930D01*
X019930Y005930D01*
X019930Y009430D01*
X015680Y013680D01*
X015494Y013860D02*
X014311Y013860D01*
X014153Y014019D02*
X018860Y014019D01*
X018860Y014177D02*
X013994Y014177D01*
X013836Y014336D02*
X018860Y014336D01*
X018860Y014386D02*
X018942Y014468D01*
X019918Y014468D01*
X020000Y014386D01*
X020000Y013850D01*
X019918Y013768D01*
X018942Y013768D01*
X018860Y013850D01*
X018860Y014386D01*
X018942Y014618D02*
X019918Y014618D01*
X020000Y014700D01*
X020000Y015236D01*
X019918Y015318D01*
X018942Y015318D01*
X018860Y015236D01*
X018860Y014700D01*
X018942Y014618D01*
X018907Y014653D02*
X013519Y014653D01*
X013360Y014811D02*
X018860Y014811D01*
X018860Y014970D02*
X013202Y014970D01*
X012896Y014653D02*
X012263Y014653D01*
X012263Y015128D02*
X018860Y015128D01*
X018911Y015287D02*
X008634Y015287D01*
X008557Y015128D02*
X011123Y015128D01*
X011123Y014653D02*
X009964Y014653D01*
X011113Y015445D02*
X008761Y015445D01*
X008816Y015604D02*
X011083Y015604D01*
X011718Y015762D02*
X018860Y015762D01*
X018860Y015604D02*
X012303Y015604D01*
X012273Y015445D02*
X018902Y015445D01*
X018942Y015405D02*
X019918Y015405D01*
X020000Y015487D01*
X020000Y016023D01*
X019918Y016105D01*
X018942Y016105D01*
X018860Y016023D01*
X018860Y015487D01*
X018942Y015405D01*
X018860Y015921D02*
X012303Y015921D01*
X012264Y016079D02*
X018916Y016079D01*
X018942Y016193D02*
X019918Y016193D01*
X020000Y016275D01*
X020000Y016811D01*
X019918Y016893D01*
X018942Y016893D01*
X018860Y016811D01*
X018860Y016275D01*
X018942Y016193D01*
X018897Y016238D02*
X012353Y016238D01*
X012353Y016396D02*
X018860Y016396D01*
X018860Y016555D02*
X012353Y016555D01*
X012353Y016713D02*
X018860Y016713D01*
X018921Y016872D02*
X012330Y016872D01*
X012302Y017030D02*
X018860Y017030D01*
X018860Y017000D02*
X018942Y016918D01*
X019918Y016918D01*
X020000Y017000D01*
X020000Y017536D01*
X019918Y017618D01*
X019730Y017618D01*
X019730Y017837D01*
X019885Y017992D01*
X019885Y018368D01*
X019618Y018635D01*
X019242Y018635D01*
X018975Y018368D01*
X018975Y017992D01*
X019130Y017837D01*
X019130Y017618D01*
X018942Y017618D01*
X018860Y017536D01*
X018860Y017000D01*
X018860Y017189D02*
X012303Y017189D01*
X012303Y017293D02*
X012303Y017501D01*
X012291Y017547D01*
X012267Y017588D01*
X012234Y017622D01*
X012193Y017645D01*
X012147Y017658D01*
X011718Y017658D01*
X011718Y017293D01*
X012303Y017293D01*
X012303Y017347D02*
X018860Y017347D01*
X018860Y017506D02*
X012302Y017506D01*
X011718Y017506D02*
X011668Y017506D01*
X011668Y017347D02*
X011718Y017347D01*
X011083Y017347D02*
X010950Y017347D01*
X010888Y017506D02*
X011084Y017506D01*
X010861Y017664D02*
X019130Y017664D01*
X019130Y017823D02*
X018773Y017823D01*
X018635Y017685D02*
X018430Y017685D01*
X018430Y018180D01*
X018925Y018180D01*
X018925Y018385D01*
X018635Y018675D01*
X018430Y018675D01*
X018430Y018180D01*
X018430Y018180D01*
X018430Y018180D01*
X018925Y018180D01*
X018925Y017975D01*
X018635Y017685D01*
X018430Y017685D02*
X018430Y018180D01*
X018430Y018180D01*
X018430Y018180D01*
X017935Y018180D01*
X017935Y018385D01*
X018225Y018675D01*
X018430Y018675D01*
X018430Y018180D01*
X017935Y018180D01*
X017935Y017975D01*
X018225Y017685D01*
X018430Y017685D01*
X018430Y017823D02*
X018430Y017823D01*
X018430Y017981D02*
X018430Y017981D01*
X018430Y018140D02*
X018430Y018140D01*
X018430Y018298D02*
X018430Y018298D01*
X018430Y018457D02*
X018430Y018457D01*
X018430Y018615D02*
X018430Y018615D01*
X018695Y018615D02*
X019222Y018615D01*
X019063Y018457D02*
X018854Y018457D01*
X018925Y018298D02*
X018975Y018298D01*
X018975Y018140D02*
X018925Y018140D01*
X018925Y017981D02*
X018986Y017981D01*
X019638Y018615D02*
X020032Y018615D01*
X020032Y018457D02*
X019797Y018457D01*
X019885Y018298D02*
X020032Y018298D01*
X020032Y018140D02*
X019885Y018140D01*
X019874Y017981D02*
X020032Y017981D01*
X020032Y017823D02*
X019730Y017823D01*
X019730Y017664D02*
X020032Y017664D01*
X020032Y017506D02*
X020000Y017506D01*
X020000Y017347D02*
X020032Y017347D01*
X020032Y017189D02*
X020000Y017189D01*
X020000Y017030D02*
X020032Y017030D01*
X020032Y016872D02*
X019939Y016872D01*
X020000Y016713D02*
X020032Y016713D01*
X020032Y016555D02*
X020000Y016555D01*
X020000Y016396D02*
X020032Y016396D01*
X020032Y016238D02*
X019963Y016238D01*
X019944Y016079D02*
X020032Y016079D01*
X020032Y015921D02*
X020000Y015921D01*
X020000Y015762D02*
X020032Y015762D01*
X020032Y015604D02*
X020000Y015604D01*
X020032Y015445D02*
X019958Y015445D01*
X019949Y015287D02*
X020032Y015287D01*
X020032Y015128D02*
X020000Y015128D01*
X020000Y014970D02*
X020032Y014970D01*
X020032Y014811D02*
X020000Y014811D01*
X020032Y014653D02*
X019953Y014653D01*
X020032Y014494D02*
X013677Y014494D01*
X014470Y013702D02*
X015421Y013702D01*
X015456Y013543D02*
X014628Y013543D01*
X014787Y013385D02*
X015664Y013385D01*
X015823Y013226D02*
X014945Y013226D01*
X015104Y013068D02*
X015981Y013068D01*
X015959Y012909D02*
X015262Y012909D01*
X015421Y012751D02*
X015865Y012751D01*
X015873Y012592D02*
X015579Y012592D01*
X015738Y012434D02*
X015977Y012434D01*
X015896Y012275D02*
X016162Y012275D01*
X016055Y012117D02*
X016320Y012117D01*
X016213Y011958D02*
X016479Y011958D01*
X016372Y011800D02*
X016637Y011800D01*
X016530Y011641D02*
X016796Y011641D01*
X016689Y011483D02*
X016954Y011483D01*
X016847Y011324D02*
X017113Y011324D01*
X017006Y011166D02*
X017271Y011166D01*
X017164Y011007D02*
X017430Y011007D01*
X017323Y010849D02*
X017588Y010849D01*
X017481Y010690D02*
X017747Y010690D01*
X017640Y010532D02*
X017905Y010532D01*
X017798Y010373D02*
X018064Y010373D01*
X018222Y010215D02*
X017900Y010215D01*
X017880Y010056D02*
X018381Y010056D01*
X018539Y009898D02*
X017880Y009898D01*
X017880Y009739D02*
X018698Y009739D01*
X018856Y009581D02*
X017880Y009581D01*
X017880Y009422D02*
X018880Y009422D01*
X018880Y009264D02*
X017880Y009264D01*
X017880Y009105D02*
X017884Y009105D01*
X017480Y009105D02*
X016024Y009105D01*
X016024Y008947D02*
X017480Y008947D01*
X017480Y008788D02*
X016024Y008788D01*
X016024Y008630D02*
X017480Y008630D01*
X017480Y008471D02*
X016024Y008471D01*
X016024Y008313D02*
X017460Y008313D01*
X017460Y008154D02*
X016024Y008154D01*
X016024Y007996D02*
X017488Y007996D01*
X017570Y007837D02*
X016024Y007837D01*
X016024Y007679D02*
X017570Y007679D01*
X017570Y007520D02*
X016024Y007520D01*
X016024Y007362D02*
X017677Y007362D01*
X017836Y007203D02*
X016063Y007203D01*
X016029Y007045D02*
X017823Y007045D01*
X018080Y007680D02*
X017717Y008043D01*
X017680Y008132D02*
X017680Y008280D01*
X017680Y008132D02*
X017682Y008112D01*
X017686Y008093D01*
X017694Y008075D01*
X017704Y008059D01*
X017717Y008044D01*
X017480Y009264D02*
X016024Y009264D01*
X015584Y009105D02*
X010400Y009105D01*
X010258Y008947D02*
X015584Y008947D01*
X015584Y008788D02*
X010099Y008788D01*
X009941Y008630D02*
X015584Y008630D01*
X015584Y008471D02*
X009782Y008471D01*
X009624Y008313D02*
X015584Y008313D01*
X015584Y008154D02*
X009465Y008154D01*
X009307Y007996D02*
X015584Y007996D01*
X015584Y007837D02*
X009148Y007837D01*
X008990Y007679D02*
X015584Y007679D01*
X015584Y007520D02*
X008831Y007520D01*
X008673Y007362D02*
X015584Y007362D01*
X015804Y007180D02*
X015804Y010056D01*
X012529Y013331D01*
X011693Y013331D01*
X012263Y013068D02*
X012481Y013068D01*
X012216Y011958D02*
X013591Y011958D01*
X013749Y011800D02*
X012263Y011800D01*
X012263Y011641D02*
X013908Y011641D01*
X014066Y011483D02*
X012263Y011483D01*
X012212Y011324D02*
X014225Y011324D01*
X014383Y011166D02*
X013341Y011166D01*
X013575Y011007D02*
X014542Y011007D01*
X014700Y010849D02*
X013663Y010849D01*
X013690Y010690D02*
X014859Y010690D01*
X015017Y010532D02*
X013671Y010532D01*
X013595Y010373D02*
X015176Y010373D01*
X015334Y010215D02*
X013389Y010215D01*
X012971Y010215D02*
X011889Y010215D01*
X012095Y010373D02*
X012766Y010373D01*
X013180Y010680D02*
X011680Y010680D01*
X011841Y011166D02*
X013020Y011166D01*
X012786Y011007D02*
X012075Y011007D01*
X011123Y012275D02*
X010586Y012275D01*
X008549Y013860D02*
X007950Y013860D01*
X008109Y013702D02*
X008391Y013702D01*
X008232Y013543D02*
X008175Y013543D01*
X008175Y013385D02*
X008210Y013385D01*
X008210Y013226D02*
X008175Y013226D01*
X008210Y013068D02*
X008018Y013068D01*
X007680Y013068D02*
X007680Y013068D01*
X007680Y013226D02*
X007680Y013226D01*
X007680Y013385D02*
X007680Y013385D01*
X007680Y013543D02*
X007680Y013543D01*
X007680Y013702D02*
X007680Y013702D01*
X007680Y013860D02*
X007680Y013860D01*
X007410Y013860D02*
X006475Y013860D01*
X008010Y012117D02*
X008210Y012117D01*
X008210Y012275D02*
X008135Y012275D01*
X008135Y012434D02*
X008210Y012434D01*
X008210Y012592D02*
X008135Y012592D01*
X008210Y011958D02*
X006559Y011958D01*
X006398Y011800D02*
X007349Y011800D01*
X007680Y011800D02*
X007680Y011800D01*
X007680Y011641D02*
X007680Y011641D01*
X007680Y011483D02*
X007680Y011483D01*
X007680Y011324D02*
X007680Y011324D01*
X007680Y011166D02*
X007680Y011166D01*
X007680Y011007D02*
X007680Y011007D01*
X007905Y010849D02*
X008210Y010849D01*
X008210Y011007D02*
X007957Y011007D01*
X008116Y011166D02*
X008210Y011166D01*
X008210Y011324D02*
X008175Y011324D01*
X008175Y011483D02*
X008210Y011483D01*
X008210Y011641D02*
X008169Y011641D01*
X008210Y011800D02*
X008011Y011800D01*
X008063Y010690D02*
X008210Y010690D01*
X008210Y010532D02*
X008135Y010532D01*
X009416Y009105D02*
X009794Y009105D01*
X009952Y009264D02*
X009575Y009264D01*
X009650Y009422D02*
X009960Y009422D01*
X009960Y009581D02*
X009650Y009581D01*
X009650Y009739D02*
X009960Y009739D01*
X009635Y008947D02*
X009258Y008947D01*
X009099Y008788D02*
X009477Y008788D01*
X009318Y008630D02*
X008941Y008630D01*
X008782Y008471D02*
X009160Y008471D01*
X009001Y008313D02*
X008624Y008313D01*
X008465Y008154D02*
X008843Y008154D01*
X008684Y007996D02*
X008307Y007996D01*
X008148Y007837D02*
X008526Y007837D01*
X008367Y007679D02*
X007990Y007679D01*
X007831Y007520D02*
X008209Y007520D01*
X008050Y007362D02*
X007673Y007362D01*
X007514Y007203D02*
X007892Y007203D01*
X007733Y007045D02*
X007356Y007045D01*
X007197Y006886D02*
X007575Y006886D01*
X007416Y006728D02*
X007039Y006728D01*
X006880Y006569D02*
X007258Y006569D01*
X007099Y006411D02*
X006722Y006411D01*
X006615Y006252D02*
X006941Y006252D01*
X006782Y006094D02*
X006615Y006094D01*
X006624Y005935D02*
X006549Y005935D01*
X006465Y005777D02*
X006343Y005777D01*
X007088Y005777D02*
X018772Y005777D01*
X018614Y005935D02*
X007246Y005935D01*
X007405Y006094D02*
X018455Y006094D01*
X020032Y004667D02*
X016393Y004667D01*
X016552Y004509D02*
X020032Y004509D01*
X020032Y004350D02*
X016675Y004350D01*
X016675Y004192D02*
X020032Y004192D01*
X020032Y004033D02*
X016675Y004033D01*
X016575Y003875D02*
X020032Y003875D01*
X020032Y003716D02*
X016416Y003716D01*
X016368Y003635D02*
X016523Y003480D01*
X017969Y003480D01*
X018026Y003537D01*
X018195Y003607D01*
X018378Y003607D01*
X018547Y003537D01*
X018658Y003425D01*
X018692Y003472D01*
X018748Y003528D01*
X018812Y003574D01*
X018882Y003610D01*
X018957Y003634D01*
X019034Y003647D01*
X019074Y003647D01*
X019074Y003147D01*
X019074Y003147D01*
X019574Y003147D01*
X019574Y003186D01*
X019561Y003264D01*
X019537Y003338D01*
X019501Y003409D01*
X019455Y003472D01*
X019399Y003528D01*
X019336Y003574D01*
X019266Y003610D01*
X019191Y003634D01*
X019113Y003647D01*
X019074Y003647D01*
X019074Y003147D01*
X019074Y003147D01*
X019574Y003147D01*
X019574Y003107D01*
X019561Y003029D01*
X019537Y002955D01*
X019501Y002884D01*
X019455Y002821D01*
X019399Y002765D01*
X019521Y002924D02*
X020032Y002924D01*
X020032Y003082D02*
X019570Y003082D01*
X019565Y003241D02*
X020032Y003241D01*
X020032Y003399D02*
X019506Y003399D01*
X019359Y003558D02*
X020032Y003558D01*
X019074Y003558D02*
X019074Y003558D01*
X019074Y003399D02*
X019074Y003399D01*
X019074Y003241D02*
X019074Y003241D01*
X019074Y003147D02*
X019074Y002647D01*
X019074Y003147D01*
X019074Y003147D01*
X019074Y003082D02*
X019074Y003082D01*
X019074Y002924D02*
X019074Y002924D01*
X019074Y002765D02*
X019074Y002765D01*
X018748Y002765D02*
X018555Y002765D01*
X018017Y002765D02*
X016408Y002765D01*
X015952Y002765D02*
X015053Y002765D01*
X015090Y003558D02*
X015914Y003558D01*
X016446Y003558D02*
X018076Y003558D01*
X018496Y003558D02*
X018789Y003558D01*
X020032Y002448D02*
X014115Y002448D01*
X014077Y002290D02*
X020032Y002290D01*
X018725Y008947D02*
X018635Y008947D01*
X018476Y009105D02*
X018880Y009105D01*
X019774Y009898D02*
X020032Y009898D01*
X020032Y010056D02*
X019615Y010056D01*
X019457Y010215D02*
X020032Y010215D01*
X020032Y010373D02*
X019298Y010373D01*
X019140Y010532D02*
X020032Y010532D01*
X020032Y010690D02*
X018981Y010690D01*
X018823Y010849D02*
X020032Y010849D01*
X020032Y011007D02*
X018664Y011007D01*
X018506Y011166D02*
X020032Y011166D01*
X020032Y011324D02*
X019924Y011324D01*
X019918Y011318D02*
X020000Y011400D01*
X020000Y011936D01*
X019918Y012018D01*
X018942Y012018D01*
X018860Y011936D01*
X018860Y011400D01*
X018942Y011318D01*
X019918Y011318D01*
X020000Y011483D02*
X020032Y011483D01*
X020032Y011641D02*
X020000Y011641D01*
X020000Y011800D02*
X020032Y011800D01*
X020032Y011958D02*
X019978Y011958D01*
X019918Y012106D02*
X020000Y012188D01*
X020000Y012724D01*
X019918Y012806D01*
X018942Y012806D01*
X018860Y012724D01*
X018860Y012657D01*
X018651Y012650D01*
X017826Y012650D01*
X017732Y012689D01*
X017628Y012689D01*
X017533Y012650D01*
X017460Y012577D01*
X017421Y012482D01*
X017421Y012378D01*
X017460Y012283D01*
X017533Y012210D01*
X017628Y012171D01*
X017732Y012171D01*
X017826Y012210D01*
X018568Y012210D01*
X018571Y012207D01*
X018658Y012210D01*
X018746Y012210D01*
X018749Y012213D01*
X018860Y012217D01*
X018860Y012188D01*
X018942Y012106D01*
X019918Y012106D01*
X019929Y012117D02*
X020032Y012117D01*
X020032Y012275D02*
X020000Y012275D01*
X020000Y012434D02*
X020032Y012434D01*
X020032Y012592D02*
X020000Y012592D01*
X019973Y012751D02*
X020032Y012751D01*
X020032Y012909D02*
X016762Y012909D01*
X016604Y013068D02*
X018860Y013068D01*
X018860Y013025D02*
X018942Y012943D01*
X019918Y012943D01*
X020000Y013025D01*
X020000Y013561D01*
X019918Y013643D01*
X018942Y013643D01*
X018860Y013561D01*
X018860Y013025D01*
X018860Y013226D02*
X016445Y013226D01*
X016287Y013385D02*
X018860Y013385D01*
X018860Y013543D02*
X016128Y013543D01*
X015970Y013702D02*
X020032Y013702D01*
X020032Y013860D02*
X020000Y013860D01*
X020000Y014019D02*
X020032Y014019D01*
X020032Y014177D02*
X020000Y014177D01*
X020000Y014336D02*
X020032Y014336D01*
X020000Y013543D02*
X020032Y013543D01*
X020032Y013385D02*
X020000Y013385D01*
X020000Y013226D02*
X020032Y013226D01*
X020032Y013068D02*
X020000Y013068D01*
X019430Y012456D02*
X018654Y012430D01*
X017680Y012430D01*
X017421Y012434D02*
X017238Y012434D01*
X017079Y012592D02*
X017476Y012592D01*
X017469Y012275D02*
X017396Y012275D01*
X017555Y012117D02*
X018931Y012117D01*
X018882Y011958D02*
X017713Y011958D01*
X017872Y011800D02*
X018860Y011800D01*
X018860Y011641D02*
X018030Y011641D01*
X018189Y011483D02*
X018860Y011483D01*
X018936Y011324D02*
X018347Y011324D01*
X018887Y012751D02*
X016921Y012751D01*
X015866Y013860D02*
X018860Y013860D01*
X018087Y017823D02*
X010860Y017823D01*
X010860Y017981D02*
X017935Y017981D01*
X017935Y018140D02*
X010860Y018140D01*
X010860Y018298D02*
X017935Y018298D01*
X018006Y018457D02*
X010860Y018457D01*
X010860Y018615D02*
X018165Y018615D01*
X019010Y019447D02*
X018960Y019517D01*
X018920Y019594D01*
X018894Y019676D01*
X018880Y019762D01*
X018880Y019785D01*
X019410Y019785D01*
X019410Y019825D01*
X019410Y020355D01*
X019387Y020355D01*
X019301Y020341D01*
X019219Y020315D01*
X019142Y020275D01*
X019072Y020224D01*
X019010Y020163D01*
X018960Y020093D01*
X018920Y020016D01*
X018894Y019934D01*
X018880Y019848D01*
X018880Y019825D01*
X019410Y019825D01*
X019450Y019825D01*
X019450Y020355D01*
X019473Y020355D01*
X019559Y020341D01*
X019641Y020315D01*
X019718Y020275D01*
X019788Y020224D01*
X019850Y020163D01*
X019900Y020093D01*
X019940Y020016D01*
X019966Y019934D01*
X019980Y019848D01*
X019980Y019825D01*
X019450Y019825D01*
X019450Y019785D01*
X019980Y019785D01*
X019980Y019762D01*
X019966Y019676D01*
X019940Y019594D01*
X019900Y019517D01*
X019850Y019447D01*
X019788Y019385D01*
X019718Y019334D01*
X019641Y019295D01*
X019559Y019268D01*
X019473Y019255D01*
X019450Y019255D01*
X019450Y019785D01*
X019410Y019785D01*
X019410Y019255D01*
X019387Y019255D01*
X019301Y019268D01*
X019219Y019295D01*
X019142Y019334D01*
X019072Y019385D01*
X019010Y019447D01*
X019049Y019408D02*
X012511Y019408D01*
X012511Y019566D02*
X018934Y019566D01*
X018886Y019725D02*
X011886Y019725D01*
X011886Y019642D02*
X012511Y019642D01*
X012511Y018873D01*
X012499Y018828D01*
X012475Y018787D01*
X012441Y018753D01*
X012400Y018729D01*
X012355Y018717D01*
X011886Y018717D01*
X011886Y019642D01*
X011886Y019566D02*
X011726Y019566D01*
X011726Y019642D02*
X011726Y018717D01*
X011257Y018717D01*
X011211Y018729D01*
X011170Y018753D01*
X011137Y018787D01*
X011113Y018828D01*
X011101Y018873D01*
X011101Y019642D01*
X011726Y019642D01*
X011726Y019725D02*
X011010Y019725D01*
X011010Y019883D02*
X011101Y019883D01*
X011101Y020042D02*
X011010Y020042D01*
X011010Y020200D02*
X011101Y020200D01*
X011101Y020359D02*
X011010Y020359D01*
X011023Y019566D02*
X011101Y019566D01*
X011101Y019408D02*
X011030Y019408D01*
X011010Y019249D02*
X011101Y019249D01*
X011101Y019091D02*
X011010Y019091D01*
X011010Y018932D02*
X011101Y018932D01*
X011150Y018774D02*
X010982Y018774D01*
X011726Y018774D02*
X011886Y018774D01*
X011886Y018932D02*
X011726Y018932D01*
X011726Y019091D02*
X011886Y019091D01*
X011886Y019249D02*
X011726Y019249D01*
X011726Y019408D02*
X011886Y019408D01*
X012511Y019249D02*
X020032Y019249D01*
X020032Y019091D02*
X012511Y019091D01*
X012511Y018932D02*
X020032Y018932D01*
X020032Y018774D02*
X012462Y018774D01*
X012511Y019883D02*
X018886Y019883D01*
X018933Y020042D02*
X012511Y020042D01*
X012511Y020200D02*
X019047Y020200D01*
X019410Y020200D02*
X019450Y020200D01*
X019450Y020042D02*
X019410Y020042D01*
X019410Y019883D02*
X019450Y019883D01*
X019450Y019725D02*
X019410Y019725D01*
X019410Y019566D02*
X019450Y019566D01*
X019450Y019408D02*
X019410Y019408D01*
X019811Y019408D02*
X020032Y019408D01*
X020032Y019566D02*
X019926Y019566D01*
X019974Y019725D02*
X020032Y019725D01*
X020018Y019883D02*
X019974Y019883D01*
X019966Y020042D02*
X019927Y020042D01*
X019857Y020200D02*
X019813Y020200D01*
X019620Y020359D02*
X012511Y020359D01*
X009850Y020359D02*
X009759Y020359D01*
X009759Y020200D02*
X009850Y020200D01*
X009850Y020042D02*
X009759Y020042D01*
X009759Y019883D02*
X009850Y019883D01*
X009850Y019725D02*
X009134Y019725D01*
X009134Y019566D02*
X008974Y019566D01*
X008974Y019642D02*
X008974Y018717D01*
X008505Y018717D01*
X008460Y018729D01*
X008419Y018753D01*
X008385Y018787D01*
X008361Y018828D01*
X008349Y018873D01*
X008349Y019642D01*
X008974Y019642D01*
X008974Y019725D02*
X001974Y019725D01*
X001980Y019762D02*
X001980Y019785D01*
X001450Y019785D01*
X001450Y019825D01*
X001410Y019825D01*
X001410Y020355D01*
X001387Y020355D01*
X001301Y020341D01*
X001219Y020315D01*
X001142Y020275D01*
X001072Y020224D01*
X001010Y020163D01*
X000960Y020093D01*
X000920Y020016D01*
X000894Y019934D01*
X000880Y019848D01*
X000880Y019825D01*
X001410Y019825D01*
X001410Y019785D01*
X000880Y019785D01*
X000880Y019762D01*
X000894Y019676D01*
X000920Y019594D01*
X000960Y019517D01*
X001010Y019447D01*
X001072Y019385D01*
X001142Y019334D01*
X001219Y019295D01*
X001301Y019268D01*
X001387Y019255D01*
X001410Y019255D01*
X001410Y019785D01*
X001450Y019785D01*
X001450Y019255D01*
X001473Y019255D01*
X001559Y019268D01*
X001641Y019295D01*
X001718Y019334D01*
X001788Y019385D01*
X001850Y019447D01*
X001900Y019517D01*
X001940Y019594D01*
X001966Y019676D01*
X001980Y019762D01*
X001980Y019825D02*
X001980Y019848D01*
X001966Y019934D01*
X001940Y020016D01*
X001900Y020093D01*
X001850Y020163D01*
X001788Y020224D01*
X001718Y020275D01*
X001641Y020315D01*
X001559Y020341D01*
X001473Y020355D01*
X001450Y020355D01*
X001450Y019825D01*
X001980Y019825D01*
X001974Y019883D02*
X008349Y019883D01*
X008349Y020042D02*
X001927Y020042D01*
X001813Y020200D02*
X008349Y020200D01*
X008349Y020359D02*
X001232Y020359D01*
X001410Y020200D02*
X001450Y020200D01*
X001450Y020042D02*
X001410Y020042D01*
X001410Y019883D02*
X001450Y019883D01*
X001450Y019725D02*
X001410Y019725D01*
X001410Y019566D02*
X001450Y019566D01*
X001450Y019408D02*
X001410Y019408D01*
X001049Y019408D02*
X000820Y019408D01*
X000820Y019566D02*
X000934Y019566D01*
X000886Y019725D02*
X000820Y019725D01*
X000834Y019883D02*
X000886Y019883D01*
X000886Y020042D02*
X000933Y020042D01*
X000995Y020200D02*
X001047Y020200D01*
X000820Y019249D02*
X008349Y019249D01*
X008349Y019091D02*
X000820Y019091D01*
X000820Y018932D02*
X008349Y018932D01*
X008398Y018774D02*
X000820Y018774D01*
X000820Y018615D02*
X010000Y018615D01*
X010000Y018457D02*
X000820Y018457D01*
X000820Y018298D02*
X010000Y018298D01*
X010000Y018140D02*
X000820Y018140D01*
X000820Y017981D02*
X010000Y017981D01*
X010000Y017823D02*
X000820Y017823D01*
X000820Y017030D02*
X000933Y017030D01*
X000832Y016872D02*
X000820Y016872D01*
X001811Y019408D02*
X008349Y019408D01*
X008349Y019566D02*
X001926Y019566D01*
X008974Y019408D02*
X009134Y019408D01*
X009134Y019249D02*
X008974Y019249D01*
X008974Y019091D02*
X009134Y019091D01*
X009134Y018932D02*
X008974Y018932D01*
X008974Y018774D02*
X009134Y018774D01*
X009710Y018774D02*
X009878Y018774D01*
X009850Y018932D02*
X009759Y018932D01*
X009759Y019091D02*
X009850Y019091D01*
X009850Y019249D02*
X009759Y019249D01*
X009759Y019408D02*
X009830Y019408D01*
X009837Y019566D02*
X009759Y019566D01*
X011067Y017189D02*
X011083Y017189D01*
X006198Y011483D02*
X006162Y011483D01*
X006162Y011324D02*
X006198Y011324D01*
X003198Y010532D02*
X003162Y010532D01*
X003162Y010373D02*
X003198Y010373D01*
X003198Y010215D02*
X003162Y010215D01*
X003162Y010056D02*
X003198Y010056D01*
X003198Y009898D02*
X003162Y009898D01*
X007563Y006252D02*
X011334Y006252D01*
X011200Y006411D02*
X007722Y006411D01*
X007880Y006569D02*
X011141Y006569D01*
X011131Y006728D02*
X008039Y006728D01*
X008197Y006886D02*
X011169Y006886D01*
X011267Y007045D02*
X008356Y007045D01*
X008514Y007203D02*
X011510Y007203D01*
X012094Y007045D02*
X012824Y007045D01*
X012714Y006886D02*
X012192Y006886D01*
X012230Y006728D02*
X012670Y006728D01*
X012674Y006569D02*
X012220Y006569D01*
X012160Y006411D02*
X012740Y006411D01*
X012887Y006252D02*
X012027Y006252D01*
X005680Y003180D02*
X004180Y003180D01*
X019932Y009739D02*
X020032Y009739D01*
D26*
X017680Y010180D02*
X017680Y008280D01*
X011693Y012481D02*
X010481Y012481D01*
X010331Y013331D02*
X011693Y013331D01*
X011693Y014118D02*
X010118Y014118D01*
X009906Y014905D02*
X011693Y014905D01*
D27*
X010930Y015305D03*
X010930Y014430D03*
X011056Y013680D03*
X011056Y012930D03*
X011056Y012055D03*
X011056Y011180D03*
X011056Y010180D03*
X010930Y009680D03*
X011682Y009180D03*
X012180Y010180D03*
X012430Y011430D03*
X012804Y012062D03*
X013180Y012180D03*
X013680Y012680D03*
X014430Y012930D03*
X014930Y013680D03*
X015430Y014430D03*
X016183Y014562D03*
X016304Y013808D03*
X015680Y013680D03*
X015680Y012930D03*
X015930Y011430D03*
X015430Y010930D03*
X014430Y011930D03*
X013930Y011430D03*
X013930Y009680D03*
X013930Y008430D03*
X013930Y007180D03*
X013930Y006180D03*
X013180Y005680D03*
X012430Y005180D03*
X011680Y005680D03*
X012430Y006180D03*
X012430Y007054D03*
X012430Y008180D03*
X010556Y006181D03*
X009430Y006680D03*
X008930Y007430D03*
X008430Y007930D03*
X007930Y008430D03*
X007430Y008930D03*
X006798Y009305D03*
X005430Y008430D03*
X005430Y007430D03*
X005430Y006430D03*
X005430Y005430D03*
X005180Y004430D03*
X006305Y003430D03*
X006929Y004180D03*
X006680Y004680D03*
X007680Y004432D03*
X008305Y004180D03*
X008930Y004431D03*
X008927Y003799D03*
X009927Y004423D03*
X010680Y004680D03*
X011430Y004180D03*
X011680Y003180D03*
X011555Y002180D03*
X011555Y001430D03*
X010430Y001430D03*
X009930Y003180D03*
X008554Y006056D03*
X008055Y006555D03*
X007430Y006930D03*
X006930Y007430D03*
X007430Y005930D03*
X009430Y007930D03*
X009180Y008680D03*
X008680Y009180D03*
X006930Y010930D03*
X006930Y011680D03*
X006930Y012680D03*
X006930Y013430D03*
X006930Y014430D03*
X007802Y014179D03*
X007804Y015180D03*
X006930Y015430D03*
X006930Y016430D03*
X006930Y017180D03*
X007804Y017180D03*
X007804Y016180D03*
X008804Y016180D03*
X008804Y015182D03*
X010180Y015305D03*
X010930Y016180D03*
X010305Y016555D03*
X009930Y017180D03*
X009930Y017805D03*
X009930Y018305D03*
X009430Y018555D03*
X009805Y019180D03*
X009805Y020180D03*
X011055Y020180D03*
X011055Y019180D03*
X011430Y018555D03*
X010930Y018305D03*
X010930Y017805D03*
X011680Y017930D03*
X012180Y018555D03*
X012680Y018680D03*
X013305Y018680D03*
X013930Y018680D03*
X013936Y019435D03*
X013305Y019430D03*
X012680Y019430D03*
X012680Y020180D03*
X013305Y020180D03*
X013930Y020180D03*
X014680Y020180D03*
X014680Y019430D03*
X015430Y018680D03*
X016180Y019430D03*
X016180Y020180D03*
X015430Y020180D03*
X016930Y020180D03*
X017680Y020180D03*
X017680Y019430D03*
X016930Y018680D03*
X017680Y018180D03*
X016930Y017680D03*
X017680Y016930D03*
X016930Y016180D03*
X017680Y015430D03*
X018430Y016180D03*
X018680Y014430D03*
X017930Y013680D03*
X017180Y012930D03*
X017680Y012430D03*
X018181Y012056D03*
X018688Y011684D03*
X019180Y010930D03*
X019680Y010930D03*
X019680Y010180D03*
X018558Y009553D03*
X018055Y009555D03*
X018055Y010054D03*
X017305Y009555D03*
X015804Y007180D03*
X015805Y006304D03*
X015805Y005178D03*
X015180Y004430D03*
X015430Y003930D03*
X015430Y002680D03*
X015555Y001430D03*
X016680Y001430D03*
X016683Y002668D03*
X017680Y002680D03*
X018682Y001430D03*
X019806Y001806D03*
X019930Y003180D03*
X019930Y004180D03*
X019930Y005180D03*
X018680Y005180D03*
X018680Y004180D03*
X017430Y004180D03*
X017430Y005180D03*
X017430Y006180D03*
X014180Y004180D03*
X013930Y004930D03*
X013180Y004180D03*
X013180Y003180D03*
X012926Y002175D03*
X012930Y001430D03*
X014305Y001430D03*
X014305Y002430D03*
X005555Y002430D03*
X005555Y001430D03*
X004680Y001430D03*
X004680Y002430D03*
X003680Y002430D03*
X003680Y001430D03*
X002680Y001430D03*
X002680Y002430D03*
X002430Y003805D03*
X002430Y005180D03*
X002430Y006180D03*
X000930Y006180D03*
X000930Y005180D03*
X000930Y004180D03*
X000930Y002930D03*
X003930Y004430D03*
X003930Y005430D03*
X003930Y006430D03*
X003930Y007430D03*
X003930Y008430D03*
X003930Y009430D03*
X002682Y009669D03*
X001795Y009437D03*
X000930Y009180D03*
X002677Y008688D03*
X003930Y011430D03*
X003930Y012430D03*
X005430Y012430D03*
X005430Y011430D03*
X005430Y010430D03*
X005430Y013430D03*
X005430Y014430D03*
X005430Y015430D03*
X005430Y016430D03*
X003930Y016430D03*
X003930Y015430D03*
X003930Y014430D03*
X002430Y017430D03*
X001930Y018180D03*
X002430Y018930D03*
X003180Y018430D03*
X003930Y019180D03*
X004675Y019582D03*
X004680Y020180D03*
X003930Y020180D03*
X003180Y020180D03*
X003171Y019581D03*
X002430Y020180D03*
X000930Y018680D03*
X000930Y017680D03*
X004680Y018430D03*
X005430Y019180D03*
X006179Y019581D03*
X006180Y020180D03*
X005430Y020180D03*
X006930Y020180D03*
X007555Y020180D03*
X008180Y020180D03*
X008180Y019430D03*
X007555Y019430D03*
X006930Y019180D03*
X007555Y018680D03*
X008055Y018180D03*
X008680Y018555D03*
X009055Y018055D03*
X009305Y017430D03*
X006930Y018180D03*
X006180Y018430D03*
X009305Y013803D03*
X009305Y012805D03*
X012430Y012930D03*
X012930Y013430D03*
X013680Y013680D03*
X014180Y014430D03*
X013430Y015180D03*
X012430Y015305D03*
X012430Y014430D03*
X012430Y016180D03*
X012430Y016930D03*
X012430Y017430D03*
X013050Y017950D03*
X013930Y017680D03*
X014680Y016930D03*
X013930Y016180D03*
X014680Y015430D03*
X015431Y015438D03*
X015430Y016180D03*
X016180Y015430D03*
X016930Y014430D03*
X018680Y012930D03*
X016180Y016930D03*
X015430Y017680D03*
X013180Y016930D03*
X018430Y019430D03*
X018430Y020180D03*
X019930Y018930D03*
D28*
X011567Y016543D02*
X011501Y016545D01*
X011435Y016551D01*
X011370Y016560D01*
X011305Y016574D01*
X011241Y016591D01*
X011178Y016612D01*
X011117Y016636D01*
X011057Y016664D01*
X010998Y016695D01*
X010942Y016730D01*
X010888Y016768D01*
X010836Y016809D01*
X010787Y016853D01*
X010740Y016900D01*
X010696Y016949D01*
X010655Y017001D01*
X010617Y017055D01*
X010582Y017112D01*
X010551Y017170D01*
X010523Y017230D01*
X010499Y017291D01*
X010478Y017354D01*
X010461Y017418D01*
X010447Y017483D01*
X010438Y017548D01*
X010432Y017614D01*
X010430Y017680D01*
X010430Y019430D01*
X011567Y016543D02*
X011693Y016543D01*
M02*
