G75*
%MOIN*%
%OFA0B0*%
%FSLAX24Y24*%
%IPPOS*%
%LPD*%
%AMOC8*
5,1,8,0,0,1.08239X$1,22.5*
%
%ADD10C,0.0000*%
%ADD11C,0.0060*%
%ADD12C,0.0030*%
%ADD13C,0.0040*%
%ADD14R,0.0008X0.0080*%
%ADD15R,0.0008X0.0136*%
%ADD16R,0.0008X0.0176*%
%ADD17R,0.0008X0.0208*%
%ADD18R,0.0008X0.0224*%
%ADD19R,0.0008X0.0248*%
%ADD20R,0.0008X0.0272*%
%ADD21R,0.0008X0.0288*%
%ADD22R,0.0008X0.0304*%
%ADD23R,0.0008X0.0312*%
%ADD24R,0.0008X0.0320*%
%ADD25R,0.0008X0.0336*%
%ADD26R,0.0008X0.0344*%
%ADD27R,0.0008X0.0352*%
%ADD28R,0.0008X0.0368*%
%ADD29R,0.0008X0.0376*%
%ADD30R,0.0008X0.0384*%
%ADD31R,0.0008X0.0400*%
%ADD32R,0.0008X0.0384*%
%ADD33R,0.0008X0.0408*%
%ADD34R,0.0008X0.0416*%
%ADD35R,0.0008X0.0432*%
%ADD36R,0.0008X0.0104*%
%ADD37R,0.0008X0.0104*%
%ADD38R,0.0008X0.0096*%
%ADD39R,0.0008X0.0240*%
%ADD40R,0.0008X0.0192*%
%ADD41R,0.0008X0.0200*%
%ADD42R,0.0008X0.0168*%
%ADD43R,0.0008X0.0040*%
%ADD44R,0.0008X0.0048*%
%ADD45R,0.0008X0.0144*%
%ADD46R,0.0008X0.0256*%
%ADD47R,0.0008X0.0440*%
%ADD48R,0.0008X0.0432*%
%ADD49R,0.0008X0.0392*%
%ADD50R,0.0008X0.0064*%
%ADD51R,0.0008X0.0072*%
%ADD52R,0.0008X0.0072*%
%ADD53R,0.0008X0.0056*%
%ADD54R,0.0008X0.0128*%
%ADD55R,0.0008X0.0152*%
%ADD56R,0.0008X0.0184*%
%ADD57R,0.0008X0.0064*%
%ADD58R,0.0008X0.0216*%
%ADD59R,0.0008X0.0232*%
%ADD60R,0.0008X0.0192*%
%ADD61R,0.0008X0.0160*%
%ADD62R,0.0008X0.0352*%
%ADD63R,0.0008X0.0448*%
%ADD64R,0.0008X0.0464*%
%ADD65R,0.0008X0.0472*%
%ADD66R,0.0008X0.0480*%
%ADD67R,0.0008X0.0496*%
%ADD68R,0.0008X0.0504*%
%ADD69R,0.0008X0.0512*%
%ADD70R,0.0008X0.0504*%
%ADD71R,0.0008X0.0120*%
%ADD72R,0.0008X0.0184*%
%ADD73R,0.0008X0.0344*%
%ADD74R,0.0008X0.0264*%
%ADD75R,0.0008X0.0272*%
%ADD76R,0.0008X0.0280*%
%ADD77R,0.0008X0.0296*%
%ADD78R,0.0008X0.0088*%
%ADD79R,0.0008X0.0112*%
%ADD80R,0.0008X0.0224*%
%ADD81R,0.0008X0.0304*%
%ADD82R,0.0008X0.0312*%
%ADD83R,0.0008X0.0328*%
%ADD84R,0.0008X0.0144*%
%ADD85R,0.0008X0.0264*%
%ADD86R,0.0008X0.0360*%
%ADD87R,0.0008X0.0424*%
%ADD88C,0.0056*%
%ADD89C,0.0016*%
%ADD90C,0.0050*%
%ADD91C,0.0080*%
%ADD92R,0.0200X0.0200*%
%ADD93C,0.0100*%
%ADD94R,0.0394X0.1604*%
D10*
X001467Y001180D02*
X019385Y001180D01*
X019439Y001182D01*
X019492Y001187D01*
X019545Y001196D01*
X019597Y001209D01*
X019649Y001225D01*
X019699Y001245D01*
X019747Y001268D01*
X019794Y001295D01*
X019839Y001324D01*
X019882Y001357D01*
X019922Y001392D01*
X019960Y001430D01*
X019995Y001470D01*
X020028Y001513D01*
X020057Y001558D01*
X020084Y001605D01*
X020107Y001653D01*
X020127Y001703D01*
X020143Y001755D01*
X020156Y001807D01*
X020165Y001860D01*
X020170Y001913D01*
X020172Y001967D01*
X020172Y019763D01*
X020170Y019817D01*
X020165Y019870D01*
X020156Y019923D01*
X020143Y019975D01*
X020127Y020027D01*
X020107Y020077D01*
X020084Y020125D01*
X020057Y020172D01*
X020028Y020217D01*
X019995Y020260D01*
X019960Y020300D01*
X019922Y020338D01*
X019882Y020373D01*
X019839Y020406D01*
X019794Y020435D01*
X019747Y020462D01*
X019699Y020485D01*
X019649Y020505D01*
X019597Y020521D01*
X019545Y020534D01*
X019492Y020543D01*
X019439Y020548D01*
X019385Y020550D01*
X001467Y020550D01*
X001413Y020548D01*
X001360Y020543D01*
X001307Y020534D01*
X001255Y020521D01*
X001203Y020505D01*
X001153Y020485D01*
X001105Y020462D01*
X001058Y020435D01*
X001013Y020406D01*
X000970Y020373D01*
X000930Y020338D01*
X000892Y020300D01*
X000857Y020260D01*
X000824Y020217D01*
X000795Y020172D01*
X000768Y020125D01*
X000745Y020077D01*
X000725Y020027D01*
X000709Y019975D01*
X000696Y019923D01*
X000687Y019870D01*
X000682Y019817D01*
X000680Y019763D01*
X000680Y001967D01*
X000682Y001913D01*
X000687Y001860D01*
X000696Y001807D01*
X000709Y001755D01*
X000725Y001703D01*
X000745Y001653D01*
X000768Y001605D01*
X000795Y001558D01*
X000824Y001513D01*
X000857Y001470D01*
X000892Y001430D01*
X000930Y001392D01*
X000970Y001357D01*
X001013Y001324D01*
X001058Y001295D01*
X001105Y001268D01*
X001153Y001245D01*
X001203Y001225D01*
X001255Y001209D01*
X001307Y001196D01*
X001360Y001187D01*
X001413Y001182D01*
X001467Y001180D01*
X003200Y003830D02*
X003200Y017530D01*
X004560Y017530D01*
X004800Y017530D01*
X006160Y017530D01*
X006160Y003830D01*
X003200Y003830D01*
X003210Y003980D02*
X002990Y003980D01*
X002990Y004370D01*
X003210Y004380D01*
X003210Y003980D01*
X003210Y004980D02*
X002990Y004980D01*
X002990Y005380D01*
X003210Y005380D01*
X003210Y004980D01*
X003210Y005980D02*
X002990Y005980D01*
X002990Y006380D01*
X003210Y006380D01*
X003210Y005980D01*
X003210Y006980D02*
X002990Y006980D01*
X002990Y007380D01*
X003210Y007380D01*
X003210Y006980D01*
X003210Y007980D02*
X002990Y007980D01*
X002990Y008380D01*
X003210Y008380D01*
X003210Y007980D01*
X003210Y008980D02*
X002990Y008980D01*
X002980Y009380D01*
X003200Y009380D01*
X003210Y008980D01*
X003200Y009980D02*
X002980Y009980D01*
X002980Y010380D01*
X003200Y010380D01*
X003200Y009980D01*
X003200Y010980D02*
X002980Y010980D01*
X002980Y011380D01*
X003200Y011380D01*
X003200Y010980D01*
X003200Y011980D02*
X002980Y011980D01*
X002980Y012380D01*
X003200Y012380D01*
X003200Y011980D01*
X003200Y012980D02*
X002980Y012980D01*
X002980Y013380D01*
X003200Y013380D01*
X003200Y012980D01*
X003200Y013980D02*
X002980Y013980D01*
X002980Y014380D01*
X003200Y014380D01*
X003200Y013980D01*
X003200Y014980D02*
X002980Y014980D01*
X002980Y015380D01*
X003200Y015380D01*
X003200Y014980D01*
X003200Y015980D02*
X002980Y015980D01*
X002980Y016380D01*
X003200Y016380D01*
X003200Y015980D01*
X003200Y016980D02*
X002980Y016980D01*
X002980Y017380D01*
X003200Y017380D01*
X003200Y016980D01*
X004560Y017530D02*
X004562Y017509D01*
X004567Y017489D01*
X004576Y017470D01*
X004588Y017453D01*
X004603Y017438D01*
X004620Y017426D01*
X004639Y017417D01*
X004659Y017412D01*
X004680Y017410D01*
X004701Y017412D01*
X004721Y017417D01*
X004740Y017426D01*
X004757Y017438D01*
X004772Y017453D01*
X004784Y017470D01*
X004793Y017489D01*
X004798Y017509D01*
X004800Y017530D01*
X006150Y017380D02*
X006150Y016980D01*
X006370Y016980D01*
X006370Y017380D01*
X006150Y017380D01*
X006150Y016380D02*
X006370Y016380D01*
X006370Y015980D01*
X006150Y015980D01*
X006150Y016380D01*
X006150Y015380D02*
X006370Y015380D01*
X006370Y014980D01*
X006150Y014980D01*
X006150Y015380D01*
X006150Y014380D02*
X006370Y014380D01*
X006370Y013980D01*
X006150Y013980D01*
X006150Y014380D01*
X006150Y013380D02*
X006370Y013380D01*
X006370Y012980D01*
X006150Y012980D01*
X006150Y013380D01*
X006150Y012380D02*
X006370Y012380D01*
X006370Y011980D01*
X006150Y011980D01*
X006150Y012380D01*
X006150Y011380D02*
X006370Y011380D01*
X006370Y010980D01*
X006150Y010980D01*
X006150Y011380D01*
X006150Y010380D02*
X006370Y010380D01*
X006370Y009980D01*
X006150Y009980D01*
X006150Y010380D01*
X006150Y009380D02*
X006370Y009380D01*
X006370Y008980D01*
X006150Y008980D01*
X006150Y009380D01*
X006150Y008380D02*
X006370Y008380D01*
X006370Y007980D01*
X006150Y007980D01*
X006150Y008380D01*
X006150Y007380D02*
X006370Y007380D01*
X006370Y006980D01*
X006150Y006980D01*
X006150Y007380D01*
X006150Y006380D02*
X006370Y006380D01*
X006370Y005980D01*
X006150Y005980D01*
X006150Y006380D01*
X006150Y005380D02*
X006370Y005380D01*
X006380Y004980D01*
X006160Y004980D01*
X006150Y005380D01*
X006150Y004380D02*
X006370Y004380D01*
X006380Y003980D01*
X006160Y003980D01*
X006150Y004380D01*
X008230Y020555D02*
X012630Y020555D01*
D11*
X010010Y016698D02*
X010650Y016271D01*
X010650Y016055D02*
X010544Y015948D01*
X010117Y015948D01*
X010223Y015841D02*
X010223Y016055D01*
X010330Y015624D02*
X010437Y015624D01*
X010437Y015197D01*
X010544Y015197D02*
X010330Y015197D01*
X010223Y015303D01*
X010223Y015517D01*
X010330Y015624D01*
X010650Y015517D02*
X010650Y015303D01*
X010544Y015197D01*
X010650Y014979D02*
X010330Y014979D01*
X010223Y014872D01*
X010223Y014552D01*
X010650Y014552D01*
X010650Y014337D02*
X010650Y014230D01*
X010544Y014230D01*
X010544Y014337D01*
X010650Y014337D01*
X010544Y014012D02*
X010437Y013905D01*
X010437Y013692D01*
X010330Y013585D01*
X010223Y013692D01*
X010223Y014012D01*
X010544Y014012D02*
X010650Y013905D01*
X010650Y013585D01*
X010650Y013368D02*
X010330Y013368D01*
X010223Y013261D01*
X010223Y013047D01*
X010437Y013047D02*
X010437Y013368D01*
X010650Y013368D02*
X010650Y013047D01*
X010544Y012941D01*
X010437Y013047D01*
X010330Y012723D02*
X010650Y012723D01*
X010330Y012723D02*
X010223Y012616D01*
X010223Y012403D01*
X010330Y012296D01*
X010223Y012079D02*
X010437Y011759D01*
X010650Y012079D01*
X010650Y012296D02*
X010010Y012296D01*
X010010Y011759D02*
X010650Y011759D01*
X010650Y011541D02*
X010223Y011541D01*
X010223Y011114D02*
X010544Y011114D01*
X010650Y011221D01*
X010650Y011541D01*
X010010Y010897D02*
X010650Y010470D01*
X010650Y009825D02*
X010010Y010252D01*
X010223Y009610D02*
X010330Y009610D01*
X010330Y009503D01*
X010223Y009503D01*
X010223Y009610D01*
X010223Y009286D02*
X010223Y008965D01*
X010330Y008858D01*
X010437Y008965D01*
X010437Y009179D01*
X010544Y009286D01*
X010650Y009179D01*
X010650Y008858D01*
X010544Y008641D02*
X010330Y008641D01*
X010223Y008534D01*
X010223Y008214D01*
X010864Y008214D01*
X010650Y008214D02*
X010650Y008534D01*
X010544Y008641D01*
X010650Y007998D02*
X010544Y007891D01*
X010117Y007891D01*
X010223Y007784D02*
X010223Y007998D01*
X010223Y007568D02*
X010223Y007355D01*
X010117Y007461D02*
X010544Y007461D01*
X010650Y007568D01*
X010650Y007137D02*
X010330Y007137D01*
X010223Y007030D01*
X010223Y006817D01*
X010330Y006710D01*
X010010Y006710D02*
X010650Y006710D01*
X012030Y004630D02*
X012830Y004630D01*
X012847Y004628D01*
X012864Y004624D01*
X012880Y004617D01*
X012894Y004607D01*
X012907Y004594D01*
X012917Y004580D01*
X012924Y004564D01*
X012928Y004547D01*
X012930Y004530D01*
X012930Y002830D01*
X012928Y002813D01*
X012924Y002796D01*
X012917Y002780D01*
X012907Y002766D01*
X012894Y002753D01*
X012880Y002743D01*
X012864Y002736D01*
X012847Y002732D01*
X012830Y002730D01*
X012030Y002730D01*
X012013Y002732D01*
X011996Y002736D01*
X011980Y002743D01*
X011966Y002753D01*
X011953Y002766D01*
X011943Y002780D01*
X011936Y002796D01*
X011932Y002813D01*
X011930Y002830D01*
X011930Y004530D01*
X011932Y004547D01*
X011936Y004564D01*
X011943Y004580D01*
X011953Y004594D01*
X011966Y004607D01*
X011980Y004617D01*
X011996Y004624D01*
X012013Y004628D01*
X012030Y004630D01*
X012430Y004180D02*
X012430Y003830D01*
X012430Y003780D01*
X012430Y003580D02*
X012430Y003530D01*
X012430Y003180D01*
X013560Y003250D02*
X013560Y003090D01*
X013740Y004110D02*
X013798Y004136D01*
X013857Y004157D01*
X013918Y004175D01*
X013979Y004189D01*
X014042Y004199D01*
X014104Y004205D01*
X014168Y004208D01*
X014231Y004207D01*
X014294Y004201D01*
X014356Y004192D01*
X014418Y004179D01*
X014479Y004162D01*
X014539Y004142D01*
X014597Y004118D01*
X014654Y004090D01*
X014709Y004059D01*
X014761Y004024D01*
X014812Y003986D01*
X014860Y003946D01*
X014906Y003902D01*
X014949Y003856D01*
X014989Y003807D01*
X015026Y003755D01*
X015059Y003702D01*
X015090Y003647D01*
X015116Y003589D01*
X015140Y003531D01*
X015159Y003471D01*
X015175Y003409D01*
X015187Y003347D01*
X015195Y003285D01*
X015199Y003222D01*
X015200Y003159D01*
X015196Y003096D01*
X015189Y003033D01*
X015178Y002971D01*
X015162Y002909D01*
X015144Y002849D01*
X015121Y002790D01*
X015095Y002732D01*
X015065Y002677D01*
X015033Y002623D01*
X014996Y002571D01*
X014957Y002522D01*
X014915Y002475D01*
X014870Y002431D01*
X014822Y002389D01*
X014772Y002351D01*
X014719Y002316D01*
X014664Y002284D01*
X014608Y002256D01*
X014550Y002231D01*
X014491Y002210D01*
X014430Y002192D01*
X014368Y002178D01*
X014306Y002168D01*
X014243Y002162D01*
X014180Y002160D01*
X013560Y002370D02*
X013560Y003990D01*
X013730Y002260D02*
X013784Y002237D01*
X013838Y002217D01*
X013894Y002200D01*
X013950Y002185D01*
X014007Y002174D01*
X014065Y002166D01*
X014122Y002162D01*
X014180Y002160D01*
X013560Y002370D02*
X013612Y002333D01*
X013665Y002300D01*
X013720Y002269D01*
X013778Y002243D01*
X013836Y002219D01*
X013896Y002200D01*
X013957Y002184D01*
X014019Y002172D01*
X014082Y002164D01*
X014145Y002160D01*
X014208Y002159D01*
X014271Y002163D01*
X014334Y002170D01*
X014396Y002182D01*
X014457Y002197D01*
X014517Y002216D01*
X014576Y002238D01*
X014634Y002264D01*
X014689Y002294D01*
X014743Y002327D01*
X014795Y002363D01*
X014844Y002403D01*
X014891Y002445D01*
X014935Y002490D01*
X014976Y002538D01*
X015014Y002588D01*
X015049Y002641D01*
X015081Y002695D01*
X015109Y002752D01*
X015134Y002810D01*
X015155Y002869D01*
X015172Y002930D01*
X015185Y002992D01*
X015195Y003054D01*
X015201Y003117D01*
X015203Y003180D01*
X015201Y003243D01*
X015195Y003306D01*
X015185Y003368D01*
X015172Y003430D01*
X015155Y003491D01*
X015134Y003550D01*
X015109Y003608D01*
X015081Y003665D01*
X015049Y003719D01*
X015014Y003772D01*
X014976Y003822D01*
X014935Y003870D01*
X014891Y003915D01*
X014844Y003957D01*
X014795Y003997D01*
X014743Y004033D01*
X014689Y004066D01*
X014634Y004096D01*
X014576Y004122D01*
X014517Y004144D01*
X014457Y004163D01*
X014396Y004178D01*
X014334Y004190D01*
X014271Y004197D01*
X014208Y004201D01*
X014145Y004200D01*
X014082Y004196D01*
X014019Y004188D01*
X013957Y004176D01*
X013896Y004160D01*
X013836Y004141D01*
X013778Y004117D01*
X013720Y004091D01*
X013665Y004060D01*
X013612Y004027D01*
X013560Y003990D01*
X014616Y005210D02*
X014509Y005317D01*
X014509Y005530D01*
X014616Y005637D01*
X014830Y005530D02*
X014936Y005637D01*
X015043Y005637D01*
X015150Y005530D01*
X015150Y005317D01*
X015043Y005210D01*
X014830Y005317D02*
X014830Y005530D01*
X014830Y005317D02*
X014723Y005210D01*
X014616Y005210D01*
X014830Y005855D02*
X014723Y005961D01*
X014723Y006175D01*
X014830Y006282D01*
X014936Y006282D01*
X014936Y005855D01*
X014830Y005855D02*
X015043Y005855D01*
X015150Y005961D01*
X015150Y006175D01*
X015150Y006499D02*
X014723Y006499D01*
X014723Y006819D01*
X014830Y006926D01*
X015150Y006926D01*
X015150Y007144D02*
X015150Y007464D01*
X015043Y007571D01*
X014936Y007464D01*
X014936Y007250D01*
X014830Y007144D01*
X014723Y007250D01*
X014723Y007571D01*
X014830Y007788D02*
X014723Y007895D01*
X014723Y008108D01*
X014830Y008215D01*
X015043Y008215D01*
X015150Y008108D01*
X015150Y007895D01*
X015043Y007788D01*
X014830Y007788D01*
X014936Y008433D02*
X014723Y008646D01*
X014723Y008753D01*
X014723Y008433D02*
X015150Y008433D01*
X014936Y009614D02*
X014509Y009614D01*
X014509Y010041D02*
X014936Y010041D01*
X015150Y009828D01*
X014936Y009614D01*
X015043Y010259D02*
X015150Y010366D01*
X015150Y010579D01*
X015043Y010686D01*
X014936Y010686D01*
X014830Y010579D01*
X014830Y010472D01*
X014830Y010579D02*
X014723Y010686D01*
X014616Y010686D01*
X014509Y010579D01*
X014509Y010366D01*
X014616Y010259D01*
X016259Y010364D02*
X016900Y010364D01*
X016259Y009937D01*
X016900Y009937D01*
X016793Y009719D02*
X016366Y009719D01*
X016259Y009612D01*
X016259Y009292D01*
X016900Y009292D01*
X016900Y009612D01*
X016793Y009719D01*
X016793Y009075D02*
X016366Y009075D01*
X016793Y008648D01*
X016900Y008754D01*
X016900Y008968D01*
X016793Y009075D01*
X016366Y009075D02*
X016259Y008968D01*
X016259Y008754D01*
X016366Y008648D01*
X016793Y008648D01*
X016900Y008430D02*
X016259Y008430D01*
X016473Y008217D01*
X016259Y008003D01*
X016900Y008003D01*
X016900Y007142D02*
X016900Y006929D01*
X016900Y007036D02*
X016259Y007036D01*
X016259Y006929D01*
X016259Y006606D02*
X016152Y006606D01*
X016473Y006606D02*
X016473Y006499D01*
X016473Y006606D02*
X016900Y006606D01*
X016900Y006499D02*
X016900Y006713D01*
X016900Y006282D02*
X016579Y006282D01*
X016473Y006175D01*
X016473Y005961D01*
X016579Y005855D01*
X016579Y005637D02*
X016686Y005530D01*
X016686Y005210D01*
X016900Y005210D02*
X016259Y005210D01*
X016259Y005530D01*
X016366Y005637D01*
X016579Y005637D01*
X016259Y005855D02*
X016900Y005855D01*
X016580Y004630D02*
X015780Y004630D01*
X015763Y004628D01*
X015746Y004624D01*
X015730Y004617D01*
X015716Y004607D01*
X015703Y004594D01*
X015693Y004580D01*
X015686Y004564D01*
X015682Y004547D01*
X015680Y004530D01*
X015680Y002830D01*
X015682Y002813D01*
X015686Y002796D01*
X015693Y002780D01*
X015703Y002766D01*
X015716Y002753D01*
X015730Y002743D01*
X015746Y002736D01*
X015763Y002732D01*
X015780Y002730D01*
X016580Y002730D01*
X016597Y002732D01*
X016614Y002736D01*
X016630Y002743D01*
X016644Y002753D01*
X016657Y002766D01*
X016667Y002780D01*
X016674Y002796D01*
X016678Y002813D01*
X016680Y002830D01*
X016680Y004530D01*
X016678Y004547D01*
X016674Y004564D01*
X016667Y004580D01*
X016657Y004594D01*
X016644Y004607D01*
X016630Y004617D01*
X016614Y004624D01*
X016597Y004628D01*
X016580Y004630D01*
X016180Y004180D02*
X016180Y003830D01*
X016180Y003780D01*
X016180Y003580D02*
X016180Y003530D01*
X016180Y003180D01*
X010930Y002150D02*
X010430Y002150D01*
X010930Y002150D01*
X010680Y001900D02*
X010680Y002400D01*
X010680Y001900D01*
X010680Y002500D02*
X010622Y002502D01*
X010564Y002508D01*
X010507Y002517D01*
X010451Y002530D01*
X010396Y002547D01*
X010341Y002567D01*
X010289Y002591D01*
X010237Y002619D01*
X010188Y002649D01*
X010141Y002683D01*
X010096Y002720D01*
X010054Y002759D01*
X010015Y002801D01*
X009978Y002846D01*
X009944Y002893D01*
X009914Y002943D01*
X009886Y002994D01*
X009862Y003046D01*
X009842Y003101D01*
X009825Y003156D01*
X009812Y003212D01*
X009803Y003269D01*
X009797Y003327D01*
X009795Y003385D01*
X009797Y003443D01*
X009803Y003501D01*
X009812Y003558D01*
X009825Y003614D01*
X009842Y003669D01*
X009862Y003724D01*
X009886Y003776D01*
X009914Y003828D01*
X009944Y003877D01*
X009978Y003924D01*
X010015Y003969D01*
X010054Y004011D01*
X010096Y004050D01*
X010141Y004087D01*
X010188Y004121D01*
X010238Y004151D01*
X010289Y004179D01*
X010341Y004203D01*
X010396Y004223D01*
X010451Y004240D01*
X010507Y004253D01*
X010564Y004262D01*
X010622Y004268D01*
X010680Y004270D01*
X010738Y004268D01*
X010796Y004262D01*
X010853Y004253D01*
X010909Y004240D01*
X010964Y004223D01*
X011019Y004203D01*
X011071Y004179D01*
X011122Y004151D01*
X011172Y004121D01*
X011219Y004087D01*
X011264Y004050D01*
X011306Y004011D01*
X011345Y003969D01*
X011382Y003924D01*
X011416Y003877D01*
X011446Y003828D01*
X011474Y003776D01*
X011498Y003724D01*
X011518Y003669D01*
X011535Y003614D01*
X011548Y003558D01*
X011557Y003501D01*
X011563Y003443D01*
X011565Y003385D01*
X011563Y003327D01*
X011557Y003269D01*
X011548Y003212D01*
X011535Y003156D01*
X011518Y003101D01*
X011498Y003046D01*
X011474Y002994D01*
X011446Y002943D01*
X011416Y002893D01*
X011382Y002846D01*
X011345Y002801D01*
X011306Y002759D01*
X011264Y002720D01*
X011219Y002683D01*
X011172Y002649D01*
X011123Y002619D01*
X011071Y002591D01*
X011019Y002567D01*
X010964Y002547D01*
X010909Y002530D01*
X010853Y002517D01*
X010796Y002508D01*
X010738Y002502D01*
X010680Y002500D01*
X010622Y002502D01*
X010564Y002508D01*
X010507Y002517D01*
X010451Y002530D01*
X010396Y002547D01*
X010341Y002567D01*
X010289Y002591D01*
X010237Y002619D01*
X010188Y002649D01*
X010141Y002683D01*
X010096Y002720D01*
X010054Y002759D01*
X010015Y002801D01*
X009978Y002846D01*
X009944Y002893D01*
X009914Y002943D01*
X009886Y002994D01*
X009862Y003046D01*
X009842Y003101D01*
X009825Y003156D01*
X009812Y003212D01*
X009803Y003269D01*
X009797Y003327D01*
X009795Y003385D01*
X009797Y003443D01*
X009803Y003501D01*
X009812Y003558D01*
X009825Y003614D01*
X009842Y003669D01*
X009862Y003724D01*
X009886Y003776D01*
X009914Y003828D01*
X009944Y003877D01*
X009978Y003924D01*
X010015Y003969D01*
X010054Y004011D01*
X010096Y004050D01*
X010141Y004087D01*
X010188Y004121D01*
X010238Y004151D01*
X010289Y004179D01*
X010341Y004203D01*
X010396Y004223D01*
X010451Y004240D01*
X010507Y004253D01*
X010564Y004262D01*
X010622Y004268D01*
X010680Y004270D01*
X010738Y004268D01*
X010796Y004262D01*
X010853Y004253D01*
X010909Y004240D01*
X010964Y004223D01*
X011019Y004203D01*
X011071Y004179D01*
X011122Y004151D01*
X011172Y004121D01*
X011219Y004087D01*
X011264Y004050D01*
X011306Y004011D01*
X011345Y003969D01*
X011382Y003924D01*
X011416Y003877D01*
X011446Y003828D01*
X011474Y003776D01*
X011498Y003724D01*
X011518Y003669D01*
X011535Y003614D01*
X011548Y003558D01*
X011557Y003501D01*
X011563Y003443D01*
X011565Y003385D01*
X011563Y003327D01*
X011557Y003269D01*
X011548Y003212D01*
X011535Y003156D01*
X011518Y003101D01*
X011498Y003046D01*
X011474Y002994D01*
X011446Y002943D01*
X011416Y002893D01*
X011382Y002846D01*
X011345Y002801D01*
X011306Y002759D01*
X011264Y002720D01*
X011219Y002683D01*
X011172Y002649D01*
X011123Y002619D01*
X011071Y002591D01*
X011019Y002567D01*
X010964Y002547D01*
X010909Y002530D01*
X010853Y002517D01*
X010796Y002508D01*
X010738Y002502D01*
X010680Y002500D01*
X006160Y004610D02*
X006160Y004750D01*
X006160Y005610D02*
X006160Y005750D01*
X006160Y006610D02*
X006160Y006750D01*
X006160Y007610D02*
X006160Y007750D01*
X006160Y008610D02*
X006160Y008750D01*
X006160Y009610D02*
X006160Y009750D01*
X006160Y010610D02*
X006160Y010750D01*
X006160Y011610D02*
X006160Y011750D01*
X006160Y012610D02*
X006160Y012750D01*
X006160Y013610D02*
X006160Y013750D01*
X006160Y014610D02*
X006160Y014750D01*
X006160Y015610D02*
X006160Y015750D01*
X006160Y016610D02*
X006160Y016750D01*
X005940Y017530D02*
X004800Y017530D01*
X004560Y017530D01*
X003590Y017530D01*
X003200Y016750D02*
X003200Y016610D01*
X003200Y015750D02*
X003200Y015610D01*
X003200Y014750D02*
X003200Y014610D01*
X003200Y013750D02*
X003200Y013610D01*
X003200Y012750D02*
X003200Y012610D01*
X003200Y011750D02*
X003200Y011610D01*
X003200Y010750D02*
X003200Y010610D01*
X003200Y009750D02*
X003200Y009610D01*
X003200Y008750D02*
X003200Y008610D01*
X003200Y007750D02*
X003200Y007610D01*
X003200Y006750D02*
X003200Y006610D01*
X003200Y005750D02*
X003200Y005610D01*
X003200Y004750D02*
X003200Y004610D01*
X003420Y003830D02*
X005940Y003830D01*
X002180Y003830D02*
X002180Y005530D01*
X002178Y005547D01*
X002174Y005564D01*
X002167Y005580D01*
X002157Y005594D01*
X002144Y005607D01*
X002130Y005617D01*
X002114Y005624D01*
X002097Y005628D01*
X002080Y005630D01*
X001280Y005630D01*
X001263Y005628D01*
X001246Y005624D01*
X001230Y005617D01*
X001216Y005607D01*
X001203Y005594D01*
X001193Y005580D01*
X001186Y005564D01*
X001182Y005547D01*
X001180Y005530D01*
X001180Y003830D01*
X001182Y003813D01*
X001186Y003796D01*
X001193Y003780D01*
X001203Y003766D01*
X001216Y003753D01*
X001230Y003743D01*
X001246Y003736D01*
X001263Y003732D01*
X001280Y003730D01*
X002080Y003730D01*
X002097Y003732D01*
X002114Y003736D01*
X002130Y003743D01*
X002144Y003753D01*
X002157Y003766D01*
X002167Y003780D01*
X002174Y003796D01*
X002178Y003813D01*
X002180Y003830D01*
X001680Y004180D02*
X001680Y004530D01*
X001680Y004580D01*
X001680Y004780D02*
X001680Y004830D01*
X001680Y005180D01*
X007180Y010080D02*
X007180Y011780D01*
X007182Y011797D01*
X007186Y011814D01*
X007193Y011830D01*
X007203Y011844D01*
X007216Y011857D01*
X007230Y011867D01*
X007246Y011874D01*
X007263Y011878D01*
X007280Y011880D01*
X008080Y011880D01*
X008097Y011878D01*
X008114Y011874D01*
X008130Y011867D01*
X008144Y011857D01*
X008157Y011844D01*
X008167Y011830D01*
X008174Y011814D01*
X008178Y011797D01*
X008180Y011780D01*
X008180Y010080D01*
X008178Y010063D01*
X008174Y010046D01*
X008167Y010030D01*
X008157Y010016D01*
X008144Y010003D01*
X008130Y009993D01*
X008114Y009986D01*
X008097Y009982D01*
X008080Y009980D01*
X007280Y009980D01*
X007263Y009982D01*
X007246Y009986D01*
X007230Y009993D01*
X007216Y010003D01*
X007203Y010016D01*
X007193Y010030D01*
X007186Y010046D01*
X007182Y010063D01*
X007180Y010080D01*
X007680Y010430D02*
X007680Y010780D01*
X007680Y010830D01*
X007680Y011030D02*
X007680Y011080D01*
X007680Y011430D01*
X007280Y011980D02*
X008080Y011980D01*
X008097Y011982D01*
X008114Y011986D01*
X008130Y011993D01*
X008144Y012003D01*
X008157Y012016D01*
X008167Y012030D01*
X008174Y012046D01*
X008178Y012063D01*
X008180Y012080D01*
X008180Y013780D01*
X008178Y013797D01*
X008174Y013814D01*
X008167Y013830D01*
X008157Y013844D01*
X008144Y013857D01*
X008130Y013867D01*
X008114Y013874D01*
X008097Y013878D01*
X008080Y013880D01*
X007280Y013880D01*
X007263Y013878D01*
X007246Y013874D01*
X007230Y013867D01*
X007216Y013857D01*
X007203Y013844D01*
X007193Y013830D01*
X007186Y013814D01*
X007182Y013797D01*
X007180Y013780D01*
X007180Y012080D01*
X007182Y012063D01*
X007186Y012046D01*
X007193Y012030D01*
X007203Y012016D01*
X007216Y012003D01*
X007230Y011993D01*
X007246Y011986D01*
X007263Y011982D01*
X007280Y011980D01*
X007680Y012430D02*
X007680Y012780D01*
X007680Y012830D01*
X007680Y013030D02*
X007680Y013080D01*
X007680Y013430D01*
X010544Y009610D02*
X010650Y009610D01*
X010650Y009503D01*
X010544Y009503D01*
X010544Y009610D01*
X016259Y010581D02*
X016366Y010581D01*
X016579Y010795D01*
X016900Y010795D01*
X016579Y010795D02*
X016366Y011008D01*
X016259Y011008D01*
X018080Y017680D02*
X019780Y017680D01*
X019797Y017682D01*
X019814Y017686D01*
X019830Y017693D01*
X019844Y017703D01*
X019857Y017716D01*
X019867Y017730D01*
X019874Y017746D01*
X019878Y017763D01*
X019880Y017780D01*
X019880Y018580D01*
X019878Y018597D01*
X019874Y018614D01*
X019867Y018630D01*
X019857Y018644D01*
X019844Y018657D01*
X019830Y018667D01*
X019814Y018674D01*
X019797Y018678D01*
X019780Y018680D01*
X018080Y018680D01*
X018063Y018678D01*
X018046Y018674D01*
X018030Y018667D01*
X018016Y018657D01*
X018003Y018644D01*
X017993Y018630D01*
X017986Y018614D01*
X017982Y018597D01*
X017980Y018580D01*
X017980Y017780D01*
X017982Y017763D01*
X017986Y017746D01*
X017993Y017730D01*
X018003Y017716D01*
X018016Y017703D01*
X018030Y017693D01*
X018046Y017686D01*
X018063Y017682D01*
X018080Y017680D01*
X018430Y018180D02*
X018780Y018180D01*
X018830Y018180D01*
X019030Y018180D02*
X019080Y018180D01*
X019430Y018180D01*
X004800Y017530D02*
X004798Y017509D01*
X004793Y017489D01*
X004784Y017470D01*
X004772Y017453D01*
X004757Y017438D01*
X004740Y017426D01*
X004721Y017417D01*
X004701Y017412D01*
X004680Y017410D01*
X004659Y017412D01*
X004639Y017417D01*
X004620Y017426D01*
X004603Y017438D01*
X004588Y017453D01*
X004576Y017470D01*
X004567Y017489D01*
X004562Y017509D01*
X004560Y017530D01*
D12*
X003279Y017613D02*
X002965Y017927D01*
X003279Y017613D01*
X003122Y017613D02*
X003122Y017927D01*
X003122Y017613D01*
X002965Y017613D02*
X003279Y017927D01*
X002965Y017613D01*
X002965Y017770D02*
X003279Y017770D01*
X002965Y017770D01*
X002560Y016816D02*
X002313Y016446D01*
X002192Y016446D02*
X002068Y016569D01*
X002130Y016569D02*
X001945Y016569D01*
X001945Y016446D02*
X001945Y016816D01*
X002130Y016816D01*
X002192Y016754D01*
X002192Y016631D01*
X002130Y016569D01*
X002313Y016816D02*
X002560Y016446D01*
X002560Y015816D02*
X002313Y015446D01*
X002068Y015446D02*
X002068Y015816D01*
X001945Y015816D02*
X002192Y015816D01*
X002313Y015816D02*
X002560Y015446D01*
X002498Y012816D02*
X002560Y012754D01*
X002560Y012693D01*
X002498Y012631D01*
X002560Y012569D01*
X002560Y012508D01*
X002498Y012446D01*
X002375Y012446D01*
X002313Y012508D01*
X002192Y012508D02*
X002192Y012754D01*
X002130Y012816D01*
X001945Y012816D01*
X001945Y012446D01*
X002130Y012446D01*
X002192Y012508D01*
X002437Y012631D02*
X002498Y012631D01*
X002498Y012816D02*
X002375Y012816D01*
X002313Y012754D01*
X002130Y011816D02*
X001945Y011816D01*
X001945Y011446D01*
X002130Y011446D01*
X002192Y011508D01*
X002192Y011754D01*
X002130Y011816D01*
X002313Y011631D02*
X002560Y011631D01*
X002498Y011446D02*
X002498Y011816D01*
X002313Y011631D01*
X006068Y002815D02*
X005945Y002692D01*
X006068Y002815D02*
X006068Y002445D01*
X005945Y002445D02*
X006192Y002445D01*
X006313Y002507D02*
X006313Y002568D01*
X006375Y002630D01*
X006498Y002630D01*
X006560Y002568D01*
X006560Y002507D01*
X006498Y002445D01*
X006375Y002445D01*
X006313Y002507D01*
X006375Y002630D02*
X006313Y002692D01*
X006313Y002754D01*
X006375Y002815D01*
X006498Y002815D01*
X006560Y002754D01*
X006560Y002692D01*
X006498Y002630D01*
X006682Y002630D02*
X006867Y002630D01*
X006929Y002568D01*
X006929Y002507D01*
X006867Y002445D01*
X006682Y002445D01*
X006682Y002815D01*
X006867Y002815D01*
X006929Y002754D01*
X006929Y002692D01*
X006867Y002630D01*
X007050Y002754D02*
X007112Y002815D01*
X007235Y002815D01*
X007297Y002754D01*
X007297Y002692D01*
X007050Y002445D01*
X007297Y002445D01*
X007418Y002507D02*
X007665Y002754D01*
X007665Y002507D01*
X007603Y002445D01*
X007480Y002445D01*
X007418Y002507D01*
X007418Y002754D01*
X007480Y002815D01*
X007603Y002815D01*
X007665Y002754D01*
X007787Y002445D02*
X008033Y002815D01*
X008155Y002815D02*
X008155Y002445D01*
X008340Y002445D01*
X008402Y002507D01*
X008402Y002754D01*
X008340Y002815D01*
X008155Y002815D01*
X008523Y002815D02*
X008523Y002445D01*
X008523Y002630D02*
X008770Y002630D01*
X008770Y002815D02*
X008770Y002445D01*
X009015Y002445D02*
X009015Y002815D01*
X008892Y002815D02*
X009138Y002815D01*
X009260Y002754D02*
X009322Y002815D01*
X009445Y002815D01*
X009507Y002754D01*
X009507Y002692D01*
X009260Y002445D01*
X009507Y002445D01*
X009628Y002445D02*
X009875Y002692D01*
X009875Y002754D01*
X009813Y002815D01*
X009690Y002815D01*
X009628Y002754D01*
X009628Y002445D02*
X009875Y002445D01*
X017570Y001692D02*
X017570Y001445D01*
X017693Y001445D02*
X017693Y001630D01*
X017755Y001692D01*
X017817Y001630D01*
X017817Y001445D01*
X017938Y001507D02*
X018000Y001568D01*
X018185Y001568D01*
X018185Y001630D02*
X018185Y001445D01*
X018000Y001445D01*
X017938Y001507D01*
X018000Y001692D02*
X018123Y001692D01*
X018185Y001630D01*
X018307Y001692D02*
X018554Y001445D01*
X018307Y001445D02*
X018554Y001692D01*
X019043Y001630D02*
X019228Y001630D01*
X019290Y001568D01*
X019290Y001507D01*
X019228Y001445D01*
X019105Y001445D01*
X019043Y001507D01*
X019043Y001630D01*
X019167Y001754D01*
X019290Y001815D01*
X019412Y001815D02*
X019412Y001568D01*
X019535Y001445D01*
X019658Y001568D01*
X019658Y001815D01*
X017693Y001630D02*
X017632Y001692D01*
X017570Y001692D01*
D13*
X018151Y002231D02*
X018151Y002538D01*
X018304Y002385D02*
X017997Y002385D01*
X018784Y002385D02*
X019091Y002385D01*
X017155Y012094D02*
X017155Y012555D01*
X017001Y012248D02*
X017155Y012094D01*
X017001Y012248D02*
X016848Y012094D01*
X016848Y012555D01*
X016694Y012555D02*
X016694Y012094D01*
X016694Y012324D02*
X016387Y012324D01*
X016234Y012324D02*
X016004Y012324D01*
X015927Y012401D01*
X015927Y012478D01*
X016004Y012555D01*
X016157Y012555D01*
X016234Y012478D01*
X016234Y012171D01*
X016157Y012094D01*
X016004Y012094D01*
X015927Y012171D01*
X015774Y012171D02*
X015774Y012248D01*
X015697Y012324D01*
X015467Y012324D01*
X015467Y012171D01*
X015543Y012094D01*
X015697Y012094D01*
X015774Y012171D01*
X015620Y012478D02*
X015467Y012324D01*
X015620Y012478D02*
X015774Y012555D01*
X015313Y012555D02*
X015313Y012094D01*
X015006Y012094D02*
X015006Y012555D01*
X015160Y012401D01*
X015313Y012555D01*
X014853Y012555D02*
X014546Y012555D01*
X014546Y012094D01*
X014392Y012094D02*
X014239Y012248D01*
X014316Y012248D02*
X014086Y012248D01*
X014086Y012094D02*
X014086Y012555D01*
X014316Y012555D01*
X014392Y012478D01*
X014392Y012324D01*
X014316Y012248D01*
X014546Y012324D02*
X014699Y012324D01*
X016387Y012094D02*
X016387Y012555D01*
X007590Y014450D02*
X007283Y014450D01*
X007436Y014450D02*
X007436Y014910D01*
X007283Y014757D01*
X007129Y014757D02*
X007129Y014450D01*
X007129Y014680D02*
X006822Y014680D01*
X006822Y014757D02*
X006976Y014910D01*
X007129Y014757D01*
X006822Y014757D02*
X006822Y014450D01*
X006822Y015450D02*
X006822Y015757D01*
X006976Y015910D01*
X007129Y015757D01*
X007129Y015450D01*
X007283Y015450D02*
X007590Y015757D01*
X007590Y015834D01*
X007513Y015910D01*
X007360Y015910D01*
X007283Y015834D01*
X007129Y015680D02*
X006822Y015680D01*
X007283Y015450D02*
X007590Y015450D01*
X007513Y016450D02*
X007360Y016450D01*
X007283Y016527D01*
X007129Y016450D02*
X007129Y016757D01*
X006976Y016910D01*
X006822Y016757D01*
X006822Y016450D01*
X006822Y016680D02*
X007129Y016680D01*
X007283Y016834D02*
X007360Y016910D01*
X007513Y016910D01*
X007590Y016834D01*
X007590Y016757D01*
X007513Y016680D01*
X007590Y016603D01*
X007590Y016527D01*
X007513Y016450D01*
X007513Y016680D02*
X007436Y016680D01*
X002257Y014834D02*
X002180Y014911D01*
X002027Y014911D01*
X001950Y014834D01*
X001950Y014528D01*
X002027Y014451D01*
X002180Y014451D01*
X002257Y014528D01*
X002257Y014681D01*
X002103Y014681D01*
X002103Y013834D02*
X002103Y013528D01*
X001950Y013681D02*
X002257Y013681D01*
X002180Y010911D02*
X002027Y010911D01*
X001950Y010834D01*
X001950Y010528D01*
X002027Y010451D01*
X002180Y010451D01*
X002257Y010528D01*
X002257Y010681D01*
X002103Y010681D01*
X002257Y010834D02*
X002180Y010911D01*
D14*
X007154Y008120D03*
X007146Y008104D03*
X007138Y008088D03*
X007170Y008144D03*
X007178Y008160D03*
X007186Y008176D03*
X007194Y008192D03*
X007202Y008200D03*
X007210Y008216D03*
X007218Y008232D03*
X007226Y008248D03*
X007242Y008272D03*
X007250Y008288D03*
X007258Y008304D03*
X007266Y008320D03*
X007282Y008344D03*
X007290Y008360D03*
X007298Y008376D03*
X007306Y008392D03*
X007322Y008416D03*
X007330Y008432D03*
X007338Y008448D03*
X007346Y008464D03*
X007354Y008472D03*
X007362Y008488D03*
X007370Y008504D03*
X007378Y008520D03*
X007394Y008544D03*
X007402Y008560D03*
X007410Y008576D03*
X007418Y008592D03*
X007434Y008616D03*
X007442Y008632D03*
X007450Y008648D03*
X007458Y008664D03*
X007474Y008688D03*
X007482Y008704D03*
X007490Y008720D03*
X007498Y008736D03*
X007506Y008744D03*
X007514Y008760D03*
X007522Y008776D03*
X007530Y008792D03*
X007546Y008816D03*
X007554Y008832D03*
X007562Y008848D03*
X007570Y008864D03*
X007586Y008888D03*
X007594Y008904D03*
X007602Y008920D03*
X007610Y008936D03*
X007626Y008960D03*
X007634Y008976D03*
X007642Y008992D03*
X007650Y009008D03*
X007658Y009016D03*
X007666Y009032D03*
X007674Y009048D03*
X007682Y009064D03*
X007698Y009088D03*
X007706Y009104D03*
X007714Y009120D03*
X007722Y009136D03*
X007738Y009160D03*
X007746Y009176D03*
X007754Y009192D03*
X007210Y007888D03*
X008338Y007488D03*
X009050Y006424D03*
X009402Y008120D03*
X009794Y008120D03*
D15*
X009786Y008124D03*
X008674Y008572D03*
X007722Y009356D03*
X007122Y007660D03*
D16*
X007362Y006432D03*
X007626Y006432D03*
X008658Y006424D03*
X009034Y006424D03*
X009778Y008120D03*
X008506Y008568D03*
D17*
X009770Y008120D03*
X009026Y006424D03*
X008666Y006424D03*
X007618Y006432D03*
X006906Y007896D03*
D18*
X009434Y008120D03*
X009762Y008120D03*
D19*
X009754Y008124D03*
X007906Y009356D03*
X007162Y007892D03*
X006922Y007892D03*
X007394Y006436D03*
X007594Y006436D03*
D20*
X008690Y006424D03*
X009002Y006424D03*
X009450Y008120D03*
X009746Y008120D03*
X007874Y009360D03*
X007866Y009360D03*
X007858Y009360D03*
X007810Y009360D03*
D21*
X007778Y009336D03*
X007874Y007488D03*
X008298Y007488D03*
X008698Y006424D03*
X008994Y006424D03*
X007570Y006432D03*
X007562Y006432D03*
X009458Y008120D03*
X009738Y008120D03*
D22*
X009730Y008120D03*
X009474Y008120D03*
X009466Y008120D03*
X008290Y007488D03*
X007882Y007488D03*
X008706Y006424D03*
X008986Y006424D03*
X007762Y009320D03*
D23*
X009722Y008124D03*
D24*
X009714Y008120D03*
X009482Y008120D03*
X008282Y007488D03*
X007890Y007488D03*
X007522Y006432D03*
X007514Y006432D03*
X007506Y006432D03*
X007498Y006432D03*
X007490Y006432D03*
X007482Y006432D03*
X007474Y006432D03*
X007466Y006432D03*
X008714Y006424D03*
X008978Y006424D03*
D25*
X008970Y006424D03*
X009490Y008120D03*
X009706Y008120D03*
D26*
X009698Y008124D03*
D27*
X009690Y008120D03*
X008962Y006424D03*
X007090Y007880D03*
D28*
X007130Y007928D03*
X007906Y007488D03*
X008746Y006424D03*
X008754Y006424D03*
X009530Y008120D03*
X009674Y008120D03*
X009682Y008120D03*
D29*
X009666Y008124D03*
X008738Y006436D03*
X007914Y007492D03*
D30*
X007922Y007488D03*
X007098Y007864D03*
X008730Y006440D03*
X008762Y006424D03*
X008770Y006424D03*
X008922Y006424D03*
X009538Y008120D03*
X009546Y008120D03*
X009554Y008120D03*
X009642Y008120D03*
X009650Y008120D03*
X009658Y008120D03*
D31*
X009634Y008120D03*
X009626Y008120D03*
X009618Y008120D03*
X009610Y008120D03*
X009602Y008120D03*
X009594Y008120D03*
X009586Y008120D03*
X009578Y008120D03*
X009570Y008120D03*
X009562Y008120D03*
X007930Y007488D03*
X007426Y006488D03*
X008786Y006424D03*
X008794Y006424D03*
X008802Y006424D03*
X008890Y006424D03*
X008898Y006424D03*
X008906Y006424D03*
X008930Y006432D03*
D32*
X007434Y006472D03*
X009522Y008112D03*
D33*
X009514Y008100D03*
X008938Y006444D03*
X008882Y006428D03*
X008810Y006428D03*
D34*
X008818Y006424D03*
X008826Y006424D03*
X008834Y006424D03*
X008842Y006424D03*
X008850Y006424D03*
X008858Y006424D03*
X008866Y006424D03*
X008874Y006424D03*
X008250Y007472D03*
X008242Y007480D03*
X008234Y007488D03*
X007938Y007488D03*
X009506Y008088D03*
D35*
X009498Y008080D03*
X008258Y007464D03*
D36*
X009130Y007052D03*
X009114Y007012D03*
X009010Y006772D03*
X008994Y006732D03*
X009234Y007292D03*
X009250Y007332D03*
X009370Y007612D03*
X009386Y007652D03*
X009490Y007892D03*
X008474Y008572D03*
D37*
X009394Y007668D03*
X009410Y007708D03*
X009418Y007724D03*
X009434Y007764D03*
X009442Y007780D03*
X009458Y007820D03*
X009466Y007836D03*
X009482Y007876D03*
X009362Y007596D03*
X009346Y007556D03*
X009338Y007540D03*
X009322Y007500D03*
X009314Y007484D03*
X009298Y007444D03*
X009290Y007428D03*
X009274Y007388D03*
X009226Y007276D03*
X009210Y007236D03*
X009202Y007220D03*
X009186Y007180D03*
X009178Y007164D03*
X009162Y007124D03*
X009154Y007108D03*
X009138Y007068D03*
X009106Y006996D03*
X009090Y006956D03*
X009082Y006940D03*
X009066Y006900D03*
X009058Y006884D03*
X009042Y006844D03*
X009034Y006828D03*
X009018Y006788D03*
X008970Y006676D03*
D38*
X008962Y006656D03*
X008978Y006696D03*
X008986Y006712D03*
X009002Y006752D03*
X009026Y006808D03*
X009050Y006864D03*
X009074Y006920D03*
X009098Y006976D03*
X009122Y007032D03*
X009146Y007088D03*
X009170Y007144D03*
X009194Y007200D03*
X009218Y007256D03*
X009242Y007312D03*
X009258Y007352D03*
X009266Y007368D03*
X009282Y007408D03*
X009306Y007464D03*
X009330Y007520D03*
X009354Y007576D03*
X009378Y007632D03*
X009402Y007688D03*
X009426Y007744D03*
X009450Y007800D03*
X009474Y007856D03*
D39*
X009442Y008120D03*
X008314Y007496D03*
X008674Y006424D03*
X009018Y006424D03*
X007602Y006432D03*
X007386Y006432D03*
X007914Y009360D03*
D40*
X009426Y008120D03*
D41*
X009418Y008124D03*
X008642Y008572D03*
X008634Y008572D03*
X008522Y008572D03*
X007938Y009356D03*
X007746Y009356D03*
D42*
X007730Y009356D03*
X007954Y009356D03*
X008658Y008572D03*
X009410Y008100D03*
D43*
X009402Y008036D03*
X009386Y008028D03*
X009378Y008028D03*
X009362Y008020D03*
X009346Y008012D03*
X009338Y008012D03*
X009322Y008004D03*
X009306Y007996D03*
X009298Y007996D03*
X009282Y007988D03*
X009266Y007980D03*
X009258Y007980D03*
X009242Y007972D03*
X009226Y007964D03*
X009218Y007964D03*
X009202Y007956D03*
X009186Y007948D03*
X009178Y007948D03*
X009162Y007940D03*
X009146Y007932D03*
X009138Y007932D03*
X009122Y007924D03*
X009106Y007916D03*
X009082Y007908D03*
X009066Y007900D03*
X009050Y007892D03*
X009042Y007892D03*
X009026Y007884D03*
X009010Y007876D03*
X009002Y007876D03*
X008986Y007868D03*
X008970Y007860D03*
X008962Y007860D03*
X008946Y007852D03*
X008930Y007844D03*
X008922Y007844D03*
X008906Y007836D03*
X008890Y007828D03*
X008882Y007828D03*
X008866Y007820D03*
X008850Y007812D03*
X008842Y007812D03*
X008826Y007804D03*
X008810Y007796D03*
X008802Y007796D03*
X008786Y007788D03*
X008770Y007780D03*
X008762Y007780D03*
X008746Y007772D03*
X008730Y007764D03*
X008722Y007764D03*
X008706Y007756D03*
X008690Y007748D03*
X008682Y007748D03*
X008666Y007740D03*
X008650Y007732D03*
X008642Y007732D03*
X008626Y007724D03*
X008610Y007716D03*
X008602Y007716D03*
X008586Y007708D03*
X008570Y007700D03*
X008546Y007692D03*
X008530Y007684D03*
X008514Y007676D03*
X008506Y007676D03*
X008490Y007668D03*
X008474Y007660D03*
X008466Y007660D03*
X008450Y007652D03*
X008434Y007644D03*
X008426Y007644D03*
X008410Y007636D03*
X008394Y007628D03*
X008386Y007628D03*
X008370Y007620D03*
X008354Y007612D03*
X008346Y007612D03*
X008330Y007604D03*
X007850Y007620D03*
X007834Y007628D03*
X007826Y007628D03*
X007810Y007636D03*
X007794Y007644D03*
X007786Y007644D03*
X007770Y007652D03*
X007754Y007660D03*
X007746Y007660D03*
X007730Y007668D03*
X007714Y007676D03*
X007706Y007676D03*
X007690Y007684D03*
X007682Y007684D03*
X007666Y007692D03*
X007650Y007700D03*
X007642Y007700D03*
X007626Y007708D03*
X007610Y007716D03*
X007602Y007716D03*
X007586Y007724D03*
X007570Y007732D03*
X007562Y007732D03*
X007546Y007740D03*
X007530Y007748D03*
X007522Y007748D03*
X007506Y007756D03*
X007490Y007764D03*
X007482Y007764D03*
X007466Y007772D03*
X007458Y007772D03*
X007442Y007780D03*
X007426Y007788D03*
X007418Y007788D03*
X007402Y007796D03*
X007386Y007804D03*
X007378Y007804D03*
X007362Y007812D03*
X007346Y007820D03*
X007338Y007820D03*
X007322Y007828D03*
X007306Y007836D03*
X007298Y007836D03*
X007282Y007844D03*
X007274Y007844D03*
X007258Y007852D03*
X007242Y007860D03*
X007234Y007860D03*
X007218Y007868D03*
X008690Y008516D03*
X008706Y008508D03*
X008714Y008508D03*
X008730Y008500D03*
X008746Y008492D03*
X008762Y008484D03*
X008770Y008484D03*
X008786Y008476D03*
X008802Y008468D03*
X008818Y008460D03*
X008826Y008460D03*
X008842Y008452D03*
X008858Y008444D03*
X008874Y008436D03*
X008882Y008436D03*
X008898Y008428D03*
X008914Y008420D03*
X008930Y008412D03*
X008938Y008412D03*
X008954Y008404D03*
X008970Y008396D03*
X008986Y008388D03*
X008994Y008388D03*
X009010Y008380D03*
X009026Y008372D03*
X009042Y008364D03*
X009050Y008364D03*
X009066Y008356D03*
X009082Y008348D03*
X009090Y008348D03*
X009098Y008340D03*
X009106Y008340D03*
X009122Y008332D03*
X009138Y008324D03*
X009146Y008324D03*
X009154Y008316D03*
X009162Y008316D03*
X009178Y008308D03*
X009194Y008300D03*
X009202Y008300D03*
X009210Y008292D03*
X009218Y008292D03*
X009234Y008284D03*
X009250Y008276D03*
X009258Y008276D03*
X009266Y008268D03*
X009274Y008268D03*
X009290Y008260D03*
X009306Y008252D03*
X009314Y008252D03*
X009330Y008244D03*
X009346Y008236D03*
X009362Y008228D03*
X009370Y008228D03*
X009386Y008220D03*
X009402Y008212D03*
X009410Y008212D03*
D44*
X009394Y008216D03*
X009378Y008224D03*
X009354Y008232D03*
X009338Y008240D03*
X009322Y008248D03*
X009298Y008256D03*
X009282Y008264D03*
X009242Y008280D03*
X009226Y008288D03*
X009186Y008304D03*
X009170Y008312D03*
X009130Y008328D03*
X009114Y008336D03*
X009074Y008352D03*
X009058Y008360D03*
X009034Y008368D03*
X009018Y008376D03*
X009002Y008384D03*
X008978Y008392D03*
X008962Y008400D03*
X008946Y008408D03*
X008922Y008416D03*
X008906Y008424D03*
X008890Y008432D03*
X008866Y008440D03*
X008850Y008448D03*
X008834Y008456D03*
X008810Y008464D03*
X008794Y008472D03*
X008778Y008480D03*
X008754Y008488D03*
X008738Y008496D03*
X008722Y008504D03*
X008698Y008512D03*
X008954Y007856D03*
X008938Y007848D03*
X008914Y007840D03*
X008898Y007832D03*
X008874Y007824D03*
X008858Y007816D03*
X008834Y007808D03*
X008818Y007800D03*
X008794Y007792D03*
X008778Y007784D03*
X008754Y007776D03*
X008738Y007768D03*
X008714Y007760D03*
X008698Y007752D03*
X008674Y007744D03*
X008658Y007736D03*
X008634Y007728D03*
X008618Y007720D03*
X008594Y007712D03*
X008578Y007704D03*
X008562Y007696D03*
X008554Y007696D03*
X008538Y007688D03*
X008522Y007680D03*
X008498Y007672D03*
X008482Y007664D03*
X008458Y007656D03*
X008442Y007648D03*
X008418Y007640D03*
X008402Y007632D03*
X008378Y007624D03*
X008362Y007616D03*
X008338Y007608D03*
X007842Y007624D03*
X007818Y007632D03*
X007802Y007640D03*
X007778Y007648D03*
X007762Y007656D03*
X007738Y007664D03*
X007722Y007672D03*
X007698Y007680D03*
X007674Y007688D03*
X007658Y007696D03*
X007634Y007704D03*
X007618Y007712D03*
X007594Y007720D03*
X007578Y007728D03*
X007554Y007736D03*
X007538Y007744D03*
X007514Y007752D03*
X007498Y007760D03*
X007474Y007768D03*
X007450Y007776D03*
X007434Y007784D03*
X007410Y007792D03*
X007394Y007800D03*
X007370Y007808D03*
X007354Y007816D03*
X007330Y007824D03*
X007314Y007832D03*
X007290Y007840D03*
X007266Y007848D03*
X007250Y007856D03*
X007226Y007864D03*
X008978Y007864D03*
X008994Y007872D03*
X009018Y007880D03*
X009034Y007888D03*
X009058Y007896D03*
X009074Y007904D03*
X009090Y007912D03*
X009098Y007912D03*
X009114Y007920D03*
X009130Y007928D03*
X009154Y007936D03*
X009170Y007944D03*
X009194Y007952D03*
X009210Y007960D03*
X009234Y007968D03*
X009250Y007976D03*
X009274Y007984D03*
X009290Y007992D03*
X009314Y008000D03*
X009330Y008008D03*
X009354Y008016D03*
X009370Y008024D03*
X009394Y008032D03*
D45*
X008330Y007488D03*
X007842Y007488D03*
X007266Y007168D03*
X007274Y007136D03*
X007290Y007088D03*
X007298Y007056D03*
X007314Y007000D03*
X007322Y006976D03*
X007330Y006944D03*
X007338Y006920D03*
X007346Y006888D03*
X007354Y006864D03*
X007362Y006840D03*
X007370Y006808D03*
X007378Y006784D03*
X007394Y006728D03*
X007402Y006696D03*
X007418Y006648D03*
X007250Y007224D03*
X007242Y007248D03*
X007234Y007280D03*
X007226Y007304D03*
X007218Y007328D03*
X007210Y007360D03*
X007202Y007384D03*
X007194Y007416D03*
X007186Y007440D03*
X007170Y007496D03*
X007162Y007528D03*
X007146Y007576D03*
X007138Y007608D03*
X007962Y009360D03*
X009042Y006424D03*
D46*
X009010Y006424D03*
X008682Y006424D03*
X008306Y007488D03*
X007586Y006432D03*
X007402Y006432D03*
D47*
X008954Y006468D03*
D48*
X008946Y006456D03*
X008266Y007456D03*
X008226Y007488D03*
X008218Y007488D03*
X007954Y007488D03*
X007946Y007488D03*
D49*
X008722Y006452D03*
X008778Y006428D03*
X008914Y006428D03*
D50*
X008642Y006424D03*
X008714Y006624D03*
X008698Y006648D03*
X008642Y006728D03*
X008610Y006776D03*
X008554Y006856D03*
X008538Y006880D03*
X008498Y006936D03*
X008482Y006960D03*
X008466Y006984D03*
X008410Y007064D03*
X008394Y007088D03*
X008338Y007168D03*
X008306Y007216D03*
X007834Y007488D03*
D51*
X008282Y007252D03*
X008290Y007236D03*
X008298Y007228D03*
X008346Y007156D03*
X008354Y007148D03*
X008362Y007132D03*
X008402Y007076D03*
X008418Y007052D03*
X008434Y007028D03*
X008458Y006996D03*
X008474Y006972D03*
X008490Y006948D03*
X008514Y006916D03*
X008530Y006892D03*
X008546Y006868D03*
X008586Y006812D03*
X008594Y006796D03*
X008602Y006788D03*
X008650Y006716D03*
X008658Y006708D03*
X008666Y006692D03*
X008682Y006668D03*
X008706Y006636D03*
X007650Y006436D03*
X006874Y007892D03*
X007978Y009356D03*
D52*
X008274Y007260D03*
X008314Y007204D03*
X008330Y007180D03*
X008370Y007124D03*
X008386Y007100D03*
X008426Y007044D03*
X008442Y007020D03*
X008450Y007004D03*
X008506Y006924D03*
X008522Y006900D03*
X008562Y006844D03*
X008578Y006820D03*
X008618Y006764D03*
X008634Y006740D03*
X008674Y006684D03*
X008690Y006660D03*
D53*
X008690Y008572D03*
X008466Y008572D03*
X007706Y009356D03*
D54*
X008482Y008576D03*
X008682Y008560D03*
X008650Y006424D03*
X007642Y006432D03*
X007346Y006432D03*
D55*
X007354Y006436D03*
X007634Y006436D03*
X007194Y007892D03*
X006890Y007892D03*
X008490Y008572D03*
X008666Y008572D03*
D56*
X008650Y008572D03*
X007186Y007892D03*
X006898Y007892D03*
D57*
X007338Y006432D03*
X008322Y007192D03*
X008378Y007112D03*
X008570Y006832D03*
X008626Y006752D03*
D58*
X007178Y007892D03*
X008530Y008572D03*
X008538Y008572D03*
X008546Y008572D03*
X008610Y008572D03*
X008618Y008572D03*
X008626Y008572D03*
X007930Y009356D03*
X007754Y009356D03*
D59*
X007922Y009356D03*
X008554Y008572D03*
X008562Y008572D03*
X008570Y008572D03*
X008578Y008572D03*
X008586Y008572D03*
X008594Y008572D03*
X008602Y008572D03*
X008322Y007508D03*
X007170Y007892D03*
X006914Y007892D03*
D60*
X007850Y007488D03*
X007370Y006432D03*
X008514Y008576D03*
D61*
X008498Y008568D03*
D62*
X008274Y007488D03*
X007442Y006456D03*
D63*
X007962Y007488D03*
X007970Y007488D03*
X008202Y007488D03*
X008210Y007488D03*
D64*
X008194Y007488D03*
X007986Y007488D03*
X007978Y007488D03*
D65*
X008186Y007492D03*
X007114Y007852D03*
D66*
X007994Y007488D03*
X008002Y007488D03*
X008010Y007488D03*
X008162Y007488D03*
X008170Y007488D03*
X008178Y007488D03*
D67*
X008154Y007488D03*
X008146Y007488D03*
X008138Y007488D03*
X008130Y007488D03*
X008050Y007488D03*
X008042Y007488D03*
X008034Y007488D03*
X008026Y007488D03*
X008018Y007488D03*
D68*
X008122Y007492D03*
D69*
X008114Y007488D03*
X008106Y007488D03*
X008098Y007488D03*
X008090Y007488D03*
X008082Y007488D03*
X008074Y007488D03*
X008066Y007488D03*
D70*
X008058Y007484D03*
D71*
X007202Y007892D03*
X006882Y007892D03*
X007970Y009356D03*
D72*
X007946Y009356D03*
X007738Y009356D03*
D73*
X007074Y007892D03*
X007066Y007892D03*
X007058Y007892D03*
X007050Y007892D03*
X007042Y007892D03*
X007034Y007892D03*
X007026Y007892D03*
X007018Y007892D03*
X007010Y007892D03*
X007898Y007492D03*
D74*
X007858Y007508D03*
X007882Y009356D03*
X007890Y009356D03*
X007898Y009356D03*
X007802Y009356D03*
X007794Y009356D03*
D75*
X006938Y007896D03*
X007866Y007496D03*
X007578Y006432D03*
X007418Y006432D03*
X007410Y006432D03*
D76*
X007146Y007892D03*
X007138Y007892D03*
X006946Y007892D03*
X007786Y009348D03*
X007818Y009356D03*
X007826Y009356D03*
X007834Y009356D03*
X007842Y009356D03*
X007850Y009356D03*
D77*
X007770Y009324D03*
X006962Y007892D03*
X006954Y007892D03*
D78*
X007162Y008132D03*
X007234Y008260D03*
X007274Y008332D03*
X007314Y008404D03*
X007386Y008532D03*
X007426Y008604D03*
X007466Y008676D03*
X007538Y008804D03*
X007578Y008876D03*
X007618Y008948D03*
X007690Y009076D03*
X007730Y009148D03*
D79*
X007714Y009360D03*
D80*
X007610Y006432D03*
X007378Y006432D03*
D81*
X007458Y006432D03*
X007538Y006432D03*
X007546Y006432D03*
X007554Y006432D03*
D82*
X007530Y006436D03*
X006978Y007892D03*
X006970Y007892D03*
D83*
X006986Y007892D03*
X006994Y007892D03*
X007002Y007892D03*
X007082Y007892D03*
X007450Y006444D03*
D84*
X007410Y006672D03*
X007386Y006752D03*
X007306Y007032D03*
X007282Y007112D03*
X007258Y007192D03*
X007178Y007472D03*
X007154Y007552D03*
X007130Y007632D03*
D85*
X007154Y007892D03*
X006930Y007892D03*
D86*
X007122Y007924D03*
D87*
X007106Y007860D03*
D88*
X004686Y002029D02*
X005196Y002029D01*
X005195Y002029D02*
X005204Y002016D01*
X005215Y002006D01*
X005228Y001999D01*
X005242Y001995D01*
X005258Y001995D01*
X005272Y001999D01*
X005285Y002006D01*
X005296Y002016D01*
X005305Y002029D01*
X005814Y002029D01*
X005814Y002028D01*
X005810Y001982D01*
X005802Y001936D01*
X005790Y001891D01*
X005775Y001847D01*
X005756Y001805D01*
X005734Y001764D01*
X005708Y001725D01*
X005679Y001689D01*
X005648Y001655D01*
X005614Y001623D01*
X005577Y001595D01*
X005538Y001570D01*
X005497Y001548D01*
X005454Y001529D01*
X005410Y001514D01*
X005365Y001503D01*
X005320Y001495D01*
X005273Y001491D01*
X005227Y001491D01*
X005180Y001495D01*
X005135Y001503D01*
X005090Y001514D01*
X005046Y001529D01*
X005003Y001548D01*
X004962Y001570D01*
X004923Y001595D01*
X004886Y001623D01*
X004852Y001655D01*
X004821Y001689D01*
X004792Y001725D01*
X004766Y001764D01*
X004744Y001805D01*
X004725Y001847D01*
X004710Y001891D01*
X004698Y001936D01*
X004690Y001982D01*
X004686Y002028D01*
X004738Y002028D01*
X004742Y001984D01*
X004750Y001940D01*
X004762Y001897D01*
X004778Y001856D01*
X004797Y001816D01*
X004819Y001777D01*
X004845Y001741D01*
X004874Y001707D01*
X004905Y001676D01*
X004940Y001648D01*
X004976Y001622D01*
X005015Y001600D01*
X005055Y001581D01*
X005097Y001566D01*
X005140Y001555D01*
X005184Y001547D01*
X005228Y001543D01*
X005272Y001543D01*
X005316Y001547D01*
X005360Y001555D01*
X005403Y001566D01*
X005445Y001581D01*
X005485Y001600D01*
X005524Y001622D01*
X005560Y001648D01*
X005595Y001676D01*
X005626Y001707D01*
X005655Y001741D01*
X005681Y001777D01*
X005703Y001816D01*
X005722Y001856D01*
X005738Y001897D01*
X005750Y001940D01*
X005758Y001984D01*
X005762Y002028D01*
X005710Y002028D01*
X005706Y001986D01*
X005697Y001945D01*
X005685Y001904D01*
X005670Y001865D01*
X005650Y001828D01*
X005628Y001792D01*
X005602Y001759D01*
X005574Y001728D01*
X005542Y001699D01*
X005508Y001674D01*
X005472Y001652D01*
X005435Y001634D01*
X005395Y001618D01*
X005355Y001607D01*
X005313Y001599D01*
X005271Y001595D01*
X005229Y001595D01*
X005187Y001599D01*
X005145Y001607D01*
X005105Y001618D01*
X005065Y001634D01*
X005028Y001652D01*
X004992Y001674D01*
X004958Y001699D01*
X004926Y001728D01*
X004898Y001759D01*
X004872Y001792D01*
X004850Y001828D01*
X004830Y001865D01*
X004815Y001904D01*
X004803Y001945D01*
X004794Y001986D01*
X004790Y002028D01*
X004842Y002028D01*
X004847Y001989D01*
X004855Y001950D01*
X004867Y001912D01*
X004883Y001876D01*
X004902Y001841D01*
X004924Y001808D01*
X004950Y001778D01*
X004978Y001750D01*
X005009Y001726D01*
X005042Y001704D01*
X005077Y001685D01*
X005114Y001670D01*
X005152Y001659D01*
X005191Y001651D01*
X005230Y001647D01*
X005270Y001647D01*
X005309Y001651D01*
X005348Y001659D01*
X005386Y001670D01*
X005423Y001685D01*
X005458Y001704D01*
X005491Y001726D01*
X005522Y001750D01*
X005550Y001778D01*
X005576Y001808D01*
X005598Y001841D01*
X005617Y001876D01*
X005633Y001912D01*
X005645Y001950D01*
X005653Y001989D01*
X005658Y002028D01*
X005606Y002028D01*
X005601Y001992D01*
X005593Y001956D01*
X005581Y001921D01*
X005565Y001888D01*
X005546Y001856D01*
X005524Y001827D01*
X005499Y001800D01*
X005471Y001776D01*
X005441Y001755D01*
X005409Y001737D01*
X005376Y001722D01*
X005341Y001711D01*
X005305Y001703D01*
X005268Y001699D01*
X005232Y001699D01*
X005195Y001703D01*
X005159Y001711D01*
X005124Y001722D01*
X005091Y001737D01*
X005059Y001755D01*
X005029Y001776D01*
X005001Y001800D01*
X004976Y001827D01*
X004954Y001856D01*
X004935Y001888D01*
X004919Y001921D01*
X004907Y001956D01*
X004899Y001992D01*
X004894Y002028D01*
X004946Y002028D01*
X004951Y001994D01*
X004960Y001960D01*
X004973Y001928D01*
X004989Y001897D01*
X005009Y001869D01*
X005032Y001843D01*
X005058Y001819D01*
X005086Y001799D01*
X005116Y001782D01*
X005148Y001769D01*
X005181Y001759D01*
X005215Y001753D01*
X005250Y001751D01*
X005285Y001753D01*
X005319Y001759D01*
X005352Y001769D01*
X005384Y001782D01*
X005414Y001799D01*
X005442Y001819D01*
X005468Y001843D01*
X005491Y001869D01*
X005511Y001897D01*
X005527Y001928D01*
X005540Y001960D01*
X005549Y001994D01*
X005554Y002028D01*
X005501Y002028D01*
X005496Y001998D01*
X005487Y001968D01*
X005475Y001940D01*
X005459Y001914D01*
X005440Y001889D01*
X005419Y001867D01*
X005395Y001848D01*
X005368Y001832D01*
X005340Y001820D01*
X005311Y001810D01*
X005281Y001805D01*
X005250Y001803D01*
X005219Y001805D01*
X005189Y001810D01*
X005160Y001820D01*
X005132Y001832D01*
X005105Y001848D01*
X005081Y001867D01*
X005060Y001889D01*
X005041Y001914D01*
X005025Y001940D01*
X005013Y001968D01*
X005004Y001998D01*
X004999Y002028D01*
X005051Y002028D01*
X005057Y002001D01*
X005066Y001976D01*
X005078Y001951D01*
X005094Y001929D01*
X005113Y001909D01*
X005134Y001892D01*
X005158Y001877D01*
X005183Y001867D01*
X005209Y001859D01*
X005236Y001855D01*
X005264Y001855D01*
X005291Y001859D01*
X005317Y001867D01*
X005342Y001877D01*
X005366Y001892D01*
X005387Y001909D01*
X005406Y001929D01*
X005422Y001951D01*
X005434Y001976D01*
X005443Y002001D01*
X005449Y002028D01*
X005396Y002028D01*
X005390Y002006D01*
X005381Y001985D01*
X005369Y001966D01*
X005354Y001949D01*
X005336Y001934D01*
X005316Y001923D01*
X005295Y001914D01*
X005273Y001909D01*
X005250Y001907D01*
X005227Y001909D01*
X005205Y001914D01*
X005184Y001923D01*
X005164Y001934D01*
X005146Y001949D01*
X005131Y001966D01*
X005119Y001985D01*
X005110Y002006D01*
X005104Y002028D01*
X005157Y002028D01*
X005164Y002012D01*
X005173Y001997D01*
X005185Y001984D01*
X005199Y001973D01*
X005215Y001965D01*
X005232Y001961D01*
X005250Y001959D01*
X005268Y001961D01*
X005285Y001965D01*
X005301Y001973D01*
X005315Y001984D01*
X005327Y001997D01*
X005336Y002012D01*
X005343Y002028D01*
D89*
X004239Y017574D02*
X004383Y017574D01*
X004382Y017573D02*
X004385Y017540D01*
X004391Y017507D01*
X004401Y017475D01*
X004415Y017444D01*
X004431Y017415D01*
X004451Y017388D01*
X004474Y017363D01*
X004499Y017341D01*
X004527Y017322D01*
X004556Y017306D01*
X004587Y017293D01*
X004619Y017284D01*
X004653Y017279D01*
X004686Y017277D01*
X004719Y017279D01*
X004753Y017284D01*
X004785Y017293D01*
X004816Y017306D01*
X004845Y017322D01*
X004873Y017341D01*
X004898Y017363D01*
X004921Y017388D01*
X004941Y017415D01*
X004957Y017444D01*
X004971Y017475D01*
X004981Y017507D01*
X004987Y017540D01*
X004990Y017573D01*
X005133Y017574D01*
X005134Y017573D01*
X005131Y017532D01*
X005125Y017492D01*
X005115Y017452D01*
X005101Y017413D01*
X005084Y017376D01*
X005064Y017341D01*
X005041Y017307D01*
X005014Y017276D01*
X004985Y017247D01*
X004953Y017222D01*
X004919Y017199D01*
X004884Y017179D01*
X004846Y017163D01*
X004807Y017150D01*
X004767Y017140D01*
X004727Y017135D01*
X004686Y017133D01*
X004645Y017135D01*
X004605Y017140D01*
X004565Y017150D01*
X004526Y017163D01*
X004488Y017179D01*
X004453Y017199D01*
X004419Y017222D01*
X004387Y017247D01*
X004358Y017276D01*
X004331Y017307D01*
X004308Y017341D01*
X004288Y017376D01*
X004271Y017413D01*
X004257Y017452D01*
X004247Y017492D01*
X004241Y017532D01*
X004238Y017573D01*
X004252Y017573D01*
X004255Y017532D01*
X004261Y017492D01*
X004271Y017452D01*
X004285Y017414D01*
X004303Y017377D01*
X004324Y017342D01*
X004348Y017309D01*
X004375Y017279D01*
X004405Y017251D01*
X004437Y017226D01*
X004471Y017204D01*
X004508Y017185D01*
X004546Y017170D01*
X004585Y017159D01*
X004625Y017151D01*
X004666Y017147D01*
X004706Y017147D01*
X004747Y017151D01*
X004787Y017159D01*
X004826Y017170D01*
X004864Y017185D01*
X004901Y017204D01*
X004935Y017226D01*
X004967Y017251D01*
X004997Y017279D01*
X005024Y017309D01*
X005048Y017342D01*
X005069Y017377D01*
X005087Y017414D01*
X005101Y017452D01*
X005111Y017492D01*
X005117Y017532D01*
X005120Y017573D01*
X005106Y017573D01*
X005103Y017534D01*
X005097Y017495D01*
X005087Y017456D01*
X005074Y017419D01*
X005057Y017384D01*
X005037Y017350D01*
X005013Y017318D01*
X004987Y017288D01*
X004958Y017261D01*
X004927Y017237D01*
X004894Y017216D01*
X004858Y017198D01*
X004822Y017184D01*
X004784Y017173D01*
X004745Y017165D01*
X004706Y017161D01*
X004666Y017161D01*
X004627Y017165D01*
X004588Y017173D01*
X004550Y017184D01*
X004514Y017198D01*
X004478Y017216D01*
X004445Y017237D01*
X004414Y017261D01*
X004385Y017288D01*
X004359Y017318D01*
X004335Y017350D01*
X004315Y017384D01*
X004298Y017419D01*
X004285Y017456D01*
X004275Y017495D01*
X004269Y017534D01*
X004266Y017573D01*
X004280Y017573D01*
X004283Y017534D01*
X004289Y017495D01*
X004299Y017457D01*
X004313Y017420D01*
X004331Y017385D01*
X004351Y017351D01*
X004375Y017320D01*
X004402Y017291D01*
X004431Y017265D01*
X004463Y017242D01*
X004497Y017222D01*
X004532Y017205D01*
X004570Y017192D01*
X004608Y017183D01*
X004647Y017177D01*
X004686Y017175D01*
X004725Y017177D01*
X004764Y017183D01*
X004802Y017192D01*
X004840Y017205D01*
X004875Y017222D01*
X004909Y017242D01*
X004941Y017265D01*
X004970Y017291D01*
X004997Y017320D01*
X005021Y017351D01*
X005041Y017385D01*
X005059Y017420D01*
X005073Y017457D01*
X005083Y017495D01*
X005089Y017534D01*
X005092Y017573D01*
X005078Y017573D01*
X005075Y017535D01*
X005069Y017498D01*
X005059Y017461D01*
X005046Y017425D01*
X005029Y017391D01*
X005009Y017359D01*
X004986Y017329D01*
X004960Y017301D01*
X004932Y017276D01*
X004901Y017253D01*
X004869Y017234D01*
X004834Y017218D01*
X004798Y017205D01*
X004761Y017196D01*
X004724Y017191D01*
X004686Y017189D01*
X004648Y017191D01*
X004611Y017196D01*
X004574Y017205D01*
X004538Y017218D01*
X004503Y017234D01*
X004471Y017253D01*
X004440Y017276D01*
X004412Y017301D01*
X004386Y017329D01*
X004363Y017359D01*
X004343Y017391D01*
X004326Y017425D01*
X004313Y017461D01*
X004303Y017498D01*
X004297Y017535D01*
X004294Y017573D01*
X004308Y017573D01*
X004311Y017535D01*
X004317Y017498D01*
X004327Y017462D01*
X004341Y017426D01*
X004358Y017393D01*
X004379Y017361D01*
X004402Y017331D01*
X004428Y017304D01*
X004457Y017280D01*
X004488Y017259D01*
X004522Y017241D01*
X004556Y017226D01*
X004593Y017215D01*
X004630Y017207D01*
X004667Y017203D01*
X004705Y017203D01*
X004742Y017207D01*
X004779Y017215D01*
X004816Y017226D01*
X004850Y017241D01*
X004884Y017259D01*
X004915Y017280D01*
X004944Y017304D01*
X004970Y017331D01*
X004993Y017361D01*
X005014Y017393D01*
X005031Y017426D01*
X005045Y017462D01*
X005055Y017498D01*
X005061Y017535D01*
X005064Y017573D01*
X005050Y017573D01*
X005047Y017536D01*
X005041Y017499D01*
X005030Y017462D01*
X005016Y017428D01*
X004999Y017394D01*
X004978Y017363D01*
X004954Y017334D01*
X004927Y017308D01*
X004897Y017285D01*
X004866Y017264D01*
X004832Y017248D01*
X004797Y017234D01*
X004761Y017225D01*
X004724Y017219D01*
X004686Y017217D01*
X004648Y017219D01*
X004611Y017225D01*
X004575Y017234D01*
X004540Y017248D01*
X004506Y017264D01*
X004475Y017285D01*
X004445Y017308D01*
X004418Y017334D01*
X004394Y017363D01*
X004373Y017394D01*
X004356Y017428D01*
X004342Y017462D01*
X004331Y017499D01*
X004325Y017536D01*
X004322Y017573D01*
X004336Y017573D01*
X004339Y017537D01*
X004345Y017501D01*
X004355Y017467D01*
X004369Y017433D01*
X004386Y017401D01*
X004406Y017371D01*
X004429Y017344D01*
X004455Y017318D01*
X004483Y017296D01*
X004513Y017277D01*
X004546Y017260D01*
X004579Y017248D01*
X004614Y017238D01*
X004650Y017233D01*
X004686Y017231D01*
X004722Y017233D01*
X004758Y017238D01*
X004793Y017248D01*
X004826Y017260D01*
X004859Y017277D01*
X004889Y017296D01*
X004917Y017318D01*
X004943Y017344D01*
X004966Y017371D01*
X004986Y017401D01*
X005003Y017433D01*
X005017Y017467D01*
X005027Y017501D01*
X005033Y017537D01*
X005036Y017573D01*
X005022Y017573D01*
X005019Y017537D01*
X005013Y017502D01*
X005002Y017468D01*
X004988Y017435D01*
X004971Y017403D01*
X004951Y017374D01*
X004927Y017347D01*
X004901Y017323D01*
X004872Y017301D01*
X004841Y017283D01*
X004809Y017268D01*
X004775Y017257D01*
X004740Y017249D01*
X004704Y017245D01*
X004668Y017245D01*
X004632Y017249D01*
X004597Y017257D01*
X004563Y017268D01*
X004531Y017283D01*
X004500Y017301D01*
X004471Y017323D01*
X004445Y017347D01*
X004421Y017374D01*
X004401Y017403D01*
X004384Y017435D01*
X004370Y017468D01*
X004359Y017502D01*
X004353Y017537D01*
X004350Y017573D01*
X004364Y017573D01*
X004367Y017539D01*
X004373Y017505D01*
X004383Y017472D01*
X004396Y017441D01*
X004413Y017411D01*
X004433Y017382D01*
X004455Y017357D01*
X004480Y017333D01*
X004508Y017313D01*
X004537Y017295D01*
X004569Y017281D01*
X004601Y017270D01*
X004635Y017263D01*
X004669Y017259D01*
X004703Y017259D01*
X004737Y017263D01*
X004771Y017270D01*
X004803Y017281D01*
X004835Y017295D01*
X004864Y017313D01*
X004892Y017333D01*
X004917Y017357D01*
X004939Y017382D01*
X004959Y017411D01*
X004976Y017441D01*
X004989Y017472D01*
X004999Y017505D01*
X005005Y017539D01*
X005008Y017573D01*
X004994Y017573D01*
X004991Y017539D01*
X004985Y017506D01*
X004975Y017473D01*
X004961Y017442D01*
X004944Y017413D01*
X004924Y017385D01*
X004901Y017360D01*
X004875Y017338D01*
X004847Y017319D01*
X004818Y017303D01*
X004786Y017290D01*
X004753Y017280D01*
X004720Y017275D01*
X004686Y017273D01*
X004652Y017275D01*
X004619Y017280D01*
X004586Y017290D01*
X004554Y017303D01*
X004525Y017319D01*
X004497Y017338D01*
X004471Y017360D01*
X004448Y017385D01*
X004428Y017413D01*
X004411Y017442D01*
X004397Y017473D01*
X004387Y017506D01*
X004381Y017539D01*
X004378Y017573D01*
D90*
X008485Y013516D02*
X008485Y013336D01*
X008755Y013336D01*
X008755Y013222D02*
X008575Y013222D01*
X008620Y013336D02*
X008620Y013426D01*
X008755Y013222D02*
X008755Y013087D01*
X008710Y013042D01*
X008575Y013042D01*
X008755Y012927D02*
X008755Y012747D01*
X008755Y012837D02*
X008485Y012837D01*
X008575Y012747D01*
X008710Y012645D02*
X008755Y012645D01*
X008755Y012600D01*
X008710Y012600D01*
X008710Y012645D01*
X008710Y012485D02*
X008755Y012440D01*
X008755Y012350D01*
X008710Y012305D01*
X008530Y012485D01*
X008710Y012485D01*
X008710Y012305D02*
X008530Y012305D01*
X008485Y012350D01*
X008485Y012440D01*
X008530Y012485D01*
X008485Y011516D02*
X008485Y011336D01*
X008755Y011336D01*
X008755Y011222D02*
X008575Y011222D01*
X008620Y011336D02*
X008620Y011426D01*
X008755Y011222D02*
X008755Y011087D01*
X008710Y011042D01*
X008575Y011042D01*
X008755Y010927D02*
X008755Y010747D01*
X008755Y010837D02*
X008485Y010837D01*
X008575Y010747D01*
X008710Y010645D02*
X008755Y010645D01*
X008755Y010600D01*
X008710Y010600D01*
X008710Y010645D01*
X008710Y010485D02*
X008530Y010485D01*
X008710Y010305D01*
X008755Y010350D01*
X008755Y010440D01*
X008710Y010485D01*
X008710Y010305D02*
X008530Y010305D01*
X008485Y010350D01*
X008485Y010440D01*
X008530Y010485D01*
X011693Y011256D02*
X011693Y011570D01*
X011711Y011572D01*
X011728Y011577D01*
X011745Y011585D01*
X011759Y011596D01*
X011771Y011609D01*
X011781Y011624D01*
X011787Y011641D01*
X011791Y011659D01*
X011791Y011677D01*
X011787Y011695D01*
X011781Y011712D01*
X011771Y011727D01*
X011759Y011740D01*
X011745Y011751D01*
X011728Y011759D01*
X011711Y011764D01*
X011693Y011766D01*
X011693Y011767D02*
X011693Y012382D01*
X011693Y012383D02*
X011711Y012385D01*
X011728Y012390D01*
X011745Y012398D01*
X011759Y012409D01*
X011771Y012422D01*
X011781Y012437D01*
X011787Y012454D01*
X011791Y012472D01*
X011791Y012490D01*
X011787Y012508D01*
X011781Y012525D01*
X011771Y012540D01*
X011759Y012553D01*
X011745Y012564D01*
X011728Y012572D01*
X011711Y012577D01*
X011693Y012579D01*
X011693Y013232D01*
X011693Y013233D02*
X011711Y013235D01*
X011728Y013240D01*
X011745Y013248D01*
X011759Y013259D01*
X011771Y013272D01*
X011781Y013287D01*
X011787Y013304D01*
X011791Y013322D01*
X011791Y013340D01*
X011787Y013358D01*
X011781Y013375D01*
X011771Y013390D01*
X011759Y013403D01*
X011745Y013414D01*
X011728Y013422D01*
X011711Y013427D01*
X011693Y013429D01*
X011693Y014020D01*
X011711Y014022D01*
X011728Y014027D01*
X011745Y014035D01*
X011759Y014046D01*
X011771Y014059D01*
X011781Y014074D01*
X011787Y014091D01*
X011791Y014109D01*
X011791Y014127D01*
X011787Y014145D01*
X011781Y014162D01*
X011771Y014177D01*
X011759Y014190D01*
X011745Y014201D01*
X011728Y014209D01*
X011711Y014214D01*
X011693Y014216D01*
X011693Y014807D01*
X011711Y014809D01*
X011728Y014814D01*
X011745Y014822D01*
X011759Y014833D01*
X011771Y014846D01*
X011781Y014861D01*
X011787Y014878D01*
X011791Y014896D01*
X011791Y014914D01*
X011787Y014932D01*
X011781Y014949D01*
X011771Y014964D01*
X011759Y014977D01*
X011745Y014988D01*
X011728Y014996D01*
X011711Y015001D01*
X011693Y015003D01*
X011693Y015004D02*
X011693Y015657D01*
X011711Y015659D01*
X011728Y015664D01*
X011745Y015672D01*
X011759Y015683D01*
X011771Y015696D01*
X011781Y015711D01*
X011787Y015728D01*
X011791Y015746D01*
X011791Y015764D01*
X011787Y015782D01*
X011781Y015799D01*
X011771Y015814D01*
X011759Y015827D01*
X011745Y015838D01*
X011728Y015846D01*
X011711Y015851D01*
X011693Y015853D01*
X011693Y015854D02*
X011693Y016444D01*
X011693Y016445D02*
X011711Y016447D01*
X011728Y016452D01*
X011745Y016460D01*
X011759Y016471D01*
X011771Y016484D01*
X011781Y016499D01*
X011787Y016516D01*
X011791Y016534D01*
X011791Y016552D01*
X011787Y016570D01*
X011781Y016587D01*
X011771Y016602D01*
X011759Y016615D01*
X011745Y016626D01*
X011728Y016634D01*
X011711Y016639D01*
X011693Y016641D01*
X011693Y017169D01*
X011693Y017170D02*
X011711Y017172D01*
X011728Y017177D01*
X011745Y017185D01*
X011759Y017196D01*
X011771Y017209D01*
X011781Y017224D01*
X011787Y017241D01*
X011791Y017259D01*
X011791Y017277D01*
X011787Y017295D01*
X011781Y017312D01*
X011771Y017327D01*
X011759Y017340D01*
X011745Y017351D01*
X011728Y017359D01*
X011711Y017364D01*
X011693Y017366D01*
X011693Y017680D01*
X019430Y017680D01*
X019430Y017366D01*
X019412Y017364D01*
X019395Y017359D01*
X019378Y017351D01*
X019364Y017340D01*
X019352Y017327D01*
X019342Y017312D01*
X019336Y017295D01*
X019332Y017277D01*
X019332Y017259D01*
X019336Y017241D01*
X019342Y017224D01*
X019352Y017209D01*
X019364Y017196D01*
X019378Y017185D01*
X019395Y017177D01*
X019412Y017172D01*
X019430Y017170D01*
X019430Y017169D02*
X019430Y016641D01*
X019412Y016639D01*
X019395Y016634D01*
X019378Y016626D01*
X019364Y016615D01*
X019352Y016602D01*
X019342Y016587D01*
X019336Y016570D01*
X019332Y016552D01*
X019332Y016534D01*
X019336Y016516D01*
X019342Y016499D01*
X019352Y016484D01*
X019364Y016471D01*
X019378Y016460D01*
X019395Y016452D01*
X019412Y016447D01*
X019430Y016445D01*
X019430Y016444D02*
X019430Y015854D01*
X019430Y015853D02*
X019412Y015851D01*
X019395Y015846D01*
X019378Y015838D01*
X019364Y015827D01*
X019352Y015814D01*
X019342Y015799D01*
X019336Y015782D01*
X019332Y015764D01*
X019332Y015746D01*
X019336Y015728D01*
X019342Y015711D01*
X019352Y015696D01*
X019364Y015683D01*
X019378Y015672D01*
X019395Y015664D01*
X019412Y015659D01*
X019430Y015657D01*
X019430Y015066D01*
X019412Y015064D01*
X019395Y015059D01*
X019378Y015051D01*
X019364Y015040D01*
X019352Y015027D01*
X019342Y015012D01*
X019336Y014995D01*
X019332Y014977D01*
X019332Y014959D01*
X019336Y014941D01*
X019342Y014924D01*
X019352Y014909D01*
X019364Y014896D01*
X019378Y014885D01*
X019395Y014877D01*
X019412Y014872D01*
X019430Y014870D01*
X019430Y014869D02*
X019430Y014216D01*
X019412Y014214D01*
X019395Y014209D01*
X019378Y014201D01*
X019364Y014190D01*
X019352Y014177D01*
X019342Y014162D01*
X019336Y014145D01*
X019332Y014127D01*
X019332Y014109D01*
X019336Y014091D01*
X019342Y014074D01*
X019352Y014059D01*
X019364Y014046D01*
X019378Y014035D01*
X019395Y014027D01*
X019412Y014022D01*
X019430Y014020D01*
X019430Y013429D01*
X019412Y013427D01*
X019395Y013422D01*
X019378Y013414D01*
X019364Y013403D01*
X019352Y013390D01*
X019342Y013375D01*
X019336Y013358D01*
X019332Y013340D01*
X019332Y013322D01*
X019336Y013304D01*
X019342Y013287D01*
X019352Y013272D01*
X019364Y013259D01*
X019378Y013248D01*
X019395Y013240D01*
X019412Y013235D01*
X019430Y013233D01*
X019430Y013232D02*
X019430Y012579D01*
X019412Y012577D01*
X019395Y012572D01*
X019378Y012564D01*
X019364Y012553D01*
X019352Y012540D01*
X019342Y012525D01*
X019336Y012508D01*
X019332Y012490D01*
X019332Y012472D01*
X019336Y012454D01*
X019342Y012437D01*
X019352Y012422D01*
X019364Y012409D01*
X019378Y012398D01*
X019395Y012390D01*
X019412Y012385D01*
X019430Y012383D01*
X019430Y012382D02*
X019430Y011767D01*
X019430Y011766D02*
X019412Y011764D01*
X019395Y011759D01*
X019378Y011751D01*
X019364Y011740D01*
X019352Y011727D01*
X019342Y011712D01*
X019336Y011695D01*
X019332Y011677D01*
X019332Y011659D01*
X019336Y011641D01*
X019342Y011624D01*
X019352Y011609D01*
X019364Y011596D01*
X019378Y011585D01*
X019395Y011577D01*
X019412Y011572D01*
X019430Y011570D01*
X019430Y011256D01*
X011693Y011256D01*
X013180Y011430D02*
X018430Y011430D01*
X018430Y013305D01*
X013180Y013305D01*
X013180Y011430D01*
X013055Y008741D02*
X013325Y008741D01*
X013325Y008560D02*
X013055Y008560D01*
X013145Y008650D01*
X013055Y008741D01*
X013055Y008446D02*
X013100Y008446D01*
X013280Y008266D01*
X013325Y008266D01*
X013325Y008163D02*
X013325Y008118D01*
X013280Y008118D01*
X013280Y008163D01*
X013325Y008163D01*
X013325Y007959D02*
X013055Y007959D01*
X013190Y007824D01*
X013190Y008004D01*
X013055Y008266D02*
X013055Y008446D01*
X011805Y008280D02*
X011535Y008280D01*
X011625Y008190D01*
X011535Y008100D01*
X011805Y008100D01*
X011805Y007985D02*
X011805Y007805D01*
X011805Y007895D02*
X011535Y007895D01*
X011625Y007805D01*
X009074Y005325D02*
X008894Y005145D01*
X008939Y005190D02*
X009074Y005055D01*
X008894Y005055D02*
X008894Y005325D01*
X008780Y005280D02*
X008600Y005100D01*
X008645Y005055D01*
X008735Y005055D01*
X008780Y005100D01*
X008780Y005280D01*
X008735Y005325D01*
X008645Y005325D01*
X008600Y005280D01*
X008600Y005100D01*
X008485Y005055D02*
X008305Y005055D01*
X008395Y005055D02*
X008395Y005325D01*
X008305Y005235D01*
X008735Y003810D02*
X008600Y003675D01*
X008780Y003675D01*
X008735Y003540D02*
X008735Y003810D01*
X008895Y003810D02*
X009075Y003810D01*
X009075Y003765D01*
X008895Y003585D01*
X008895Y003540D01*
X009189Y003585D02*
X009234Y003540D01*
X009369Y003540D01*
X009369Y003720D01*
X009484Y003675D02*
X009574Y003675D01*
X009484Y003540D02*
X009484Y003810D01*
X009664Y003810D01*
X009189Y003720D02*
X009189Y003585D01*
X011779Y002460D02*
X011779Y002280D01*
X011959Y002460D01*
X011959Y002280D01*
X011914Y002235D01*
X011824Y002235D01*
X011779Y002280D01*
X011779Y002460D02*
X011824Y002505D01*
X011914Y002505D01*
X011959Y002460D01*
X012074Y002280D02*
X012119Y002280D01*
X012119Y002235D01*
X012074Y002235D01*
X012074Y002280D01*
X012221Y002235D02*
X012401Y002235D01*
X012311Y002235D02*
X012311Y002505D01*
X012221Y002415D01*
X012516Y002415D02*
X012516Y002280D01*
X012561Y002235D01*
X012696Y002235D01*
X012696Y002415D01*
X012810Y002370D02*
X012900Y002370D01*
X012810Y002235D02*
X012810Y002505D01*
X012991Y002505D01*
X015529Y002460D02*
X015529Y002280D01*
X015709Y002460D01*
X015709Y002280D01*
X015664Y002235D01*
X015574Y002235D01*
X015529Y002280D01*
X015529Y002460D02*
X015574Y002505D01*
X015664Y002505D01*
X015709Y002460D01*
X015824Y002280D02*
X015869Y002280D01*
X015869Y002235D01*
X015824Y002235D01*
X015824Y002280D01*
X015971Y002235D02*
X016151Y002235D01*
X016061Y002235D02*
X016061Y002505D01*
X015971Y002415D01*
X016266Y002415D02*
X016266Y002280D01*
X016311Y002235D01*
X016446Y002235D01*
X016446Y002415D01*
X016560Y002370D02*
X016650Y002370D01*
X016560Y002235D02*
X016560Y002505D01*
X016741Y002505D01*
X016868Y014805D02*
X018243Y014805D01*
X018243Y016243D01*
X016868Y016243D01*
X016868Y016180D02*
X016868Y014805D01*
X018350Y018855D02*
X018305Y018900D01*
X018485Y019080D01*
X018485Y018900D01*
X018440Y018855D01*
X018350Y018855D01*
X018305Y018900D02*
X018305Y019080D01*
X018350Y019125D01*
X018440Y019125D01*
X018485Y019080D01*
X018600Y018900D02*
X018645Y018900D01*
X018645Y018855D01*
X018600Y018855D01*
X018600Y018900D01*
X018747Y018855D02*
X018927Y018855D01*
X018837Y018855D02*
X018837Y019125D01*
X018747Y019035D01*
X019042Y019035D02*
X019042Y018900D01*
X019087Y018855D01*
X019222Y018855D01*
X019222Y019035D01*
X019336Y018990D02*
X019426Y018990D01*
X019336Y018855D02*
X019336Y019125D01*
X019516Y019125D01*
X003722Y003325D02*
X003542Y003145D01*
X003587Y003190D02*
X003722Y003055D01*
X003542Y003055D02*
X003542Y003325D01*
X003427Y003325D02*
X003427Y003280D01*
X003247Y003100D01*
X003247Y003055D01*
X003145Y003055D02*
X003100Y003055D01*
X003100Y003100D01*
X003145Y003100D01*
X003145Y003055D01*
X002940Y003055D02*
X002940Y003325D01*
X002805Y003190D01*
X002985Y003190D01*
X003247Y003325D02*
X003427Y003325D01*
X002086Y005730D02*
X002086Y006000D01*
X002266Y006000D01*
X002176Y005865D02*
X002086Y005865D01*
X001972Y005910D02*
X001972Y005730D01*
X001837Y005730D01*
X001792Y005775D01*
X001792Y005910D01*
X001677Y005730D02*
X001497Y005730D01*
X001587Y005730D02*
X001587Y006000D01*
X001497Y005910D01*
X001395Y005775D02*
X001395Y005730D01*
X001350Y005730D01*
X001350Y005775D01*
X001395Y005775D01*
X001235Y005775D02*
X001235Y005955D01*
X001055Y005775D01*
X001100Y005730D01*
X001190Y005730D01*
X001235Y005775D01*
X001055Y005775D02*
X001055Y005955D01*
X001100Y006000D01*
X001190Y006000D01*
X001235Y005955D01*
D91*
X001180Y001430D02*
X001680Y001430D01*
X001930Y001680D01*
X001930Y002180D01*
X001680Y002430D01*
X001180Y002430D01*
X000930Y002180D01*
X000930Y001680D01*
X001180Y001430D01*
X002440Y002708D02*
X004920Y002708D01*
X004920Y003652D01*
X002440Y003652D01*
X002440Y002708D01*
X006078Y002057D02*
X006078Y001557D01*
X006328Y001307D01*
X006828Y001307D01*
X007078Y001557D01*
X007328Y001307D01*
X007828Y001307D01*
X008078Y001557D01*
X008328Y001307D01*
X008828Y001307D01*
X009078Y001557D01*
X009328Y001307D01*
X009828Y001307D01*
X010078Y001557D01*
X010078Y002057D01*
X009828Y002307D01*
X009328Y002307D01*
X009078Y002057D01*
X008828Y002307D01*
X008328Y002307D01*
X008078Y002057D01*
X007828Y002307D01*
X007328Y002307D01*
X007078Y002057D01*
X006828Y002307D01*
X006328Y002307D01*
X006078Y002057D01*
X007940Y004708D02*
X010420Y004708D01*
X010420Y005652D01*
X007940Y005652D01*
X007940Y004708D01*
X000980Y006780D02*
X000962Y006959D01*
X000948Y007139D01*
X000938Y007319D01*
X000932Y007500D01*
X000930Y007680D01*
X000932Y007860D01*
X000938Y008041D01*
X000948Y008221D01*
X000962Y008401D01*
X000980Y008580D01*
X000990Y008632D01*
X001004Y008683D01*
X001022Y008733D01*
X001043Y008781D01*
X001068Y008828D01*
X001096Y008872D01*
X001128Y008915D01*
X001162Y008955D01*
X001200Y008992D01*
X001240Y009026D01*
X001282Y009058D01*
X001327Y009086D01*
X001374Y009110D01*
X001422Y009131D01*
X001472Y009149D01*
X001523Y009162D01*
X001575Y009172D01*
X001627Y009178D01*
X001680Y009180D01*
X001733Y009178D01*
X001785Y009172D01*
X001837Y009162D01*
X001888Y009149D01*
X001938Y009131D01*
X001986Y009110D01*
X002033Y009086D01*
X002078Y009058D01*
X002120Y009026D01*
X002160Y008992D01*
X002198Y008955D01*
X002232Y008915D01*
X002264Y008872D01*
X002292Y008828D01*
X002317Y008781D01*
X002338Y008733D01*
X002356Y008683D01*
X002370Y008632D01*
X002380Y008580D01*
X001555Y010181D02*
X001055Y010181D01*
X000805Y010431D01*
X000805Y010931D01*
X001055Y011181D01*
X000805Y011431D01*
X000805Y011931D01*
X001055Y012181D01*
X000805Y012431D01*
X000805Y012931D01*
X001055Y013181D01*
X000805Y013431D01*
X000805Y013931D01*
X001055Y014181D01*
X000805Y014431D01*
X000805Y014931D01*
X001055Y015181D01*
X000805Y015431D01*
X000805Y015931D01*
X001055Y016181D01*
X000805Y016431D01*
X000805Y016931D01*
X001055Y017181D01*
X001555Y017181D01*
X001805Y016931D01*
X001805Y016431D01*
X001555Y016181D01*
X001805Y015931D01*
X001805Y015431D01*
X001555Y015181D01*
X001805Y014931D01*
X001805Y014431D01*
X001555Y014181D01*
X001805Y013931D01*
X001805Y013431D01*
X001555Y013181D01*
X001805Y012931D01*
X001805Y012431D01*
X001555Y012181D01*
X001805Y011931D01*
X001805Y011431D01*
X001555Y011181D01*
X001805Y010931D01*
X001805Y010431D01*
X001555Y010181D01*
X002380Y008580D02*
X002398Y008401D01*
X002412Y008221D01*
X002422Y008041D01*
X002428Y007860D01*
X002430Y007680D01*
X002428Y007500D01*
X002422Y007319D01*
X002412Y007139D01*
X002398Y006959D01*
X002380Y006780D01*
X002370Y006728D01*
X002356Y006677D01*
X002338Y006627D01*
X002317Y006579D01*
X002292Y006532D01*
X002264Y006488D01*
X002232Y006445D01*
X002198Y006405D01*
X002160Y006368D01*
X002120Y006334D01*
X002078Y006302D01*
X002033Y006274D01*
X001986Y006250D01*
X001938Y006229D01*
X001888Y006211D01*
X001837Y006198D01*
X001785Y006188D01*
X001733Y006182D01*
X001680Y006180D01*
X001627Y006182D01*
X001575Y006188D01*
X001523Y006198D01*
X001472Y006211D01*
X001422Y006229D01*
X001374Y006250D01*
X001327Y006274D01*
X001282Y006302D01*
X001240Y006334D01*
X001200Y006368D01*
X001162Y006405D01*
X001128Y006445D01*
X001096Y006488D01*
X001068Y006532D01*
X001043Y006579D01*
X001022Y006627D01*
X001004Y006677D01*
X000990Y006728D01*
X000980Y006780D01*
X008056Y014180D02*
X007806Y014430D01*
X007806Y014930D01*
X008056Y015180D01*
X007806Y015430D01*
X007806Y015930D01*
X008056Y016180D01*
X007806Y016430D01*
X007806Y016930D01*
X008056Y017180D01*
X008556Y017180D01*
X008806Y016930D01*
X008806Y016430D01*
X008556Y016180D01*
X008806Y015930D01*
X008806Y015430D01*
X008556Y015180D01*
X008806Y014930D01*
X008806Y014430D01*
X008556Y014180D01*
X008056Y014180D01*
X011208Y009920D02*
X012153Y009920D01*
X012153Y007440D01*
X011208Y007440D01*
X011208Y009920D01*
X012708Y009920D02*
X012708Y007440D01*
X013653Y007440D01*
X013653Y009920D01*
X012708Y009920D01*
X017548Y008930D02*
X017548Y008430D01*
X017680Y008430D02*
X017680Y008930D01*
X017930Y009180D01*
X019430Y009180D01*
X019680Y008930D01*
X019680Y008430D01*
X019430Y008180D01*
X017930Y008180D01*
X017680Y007930D01*
X017680Y007430D01*
X017930Y007180D01*
X019430Y007180D01*
X019680Y006930D01*
X019680Y006430D01*
X019430Y006180D01*
X017930Y006180D01*
X017680Y006430D01*
X017680Y006930D01*
X017930Y007180D01*
X017930Y008180D02*
X017680Y008430D01*
X019430Y008180D02*
X019680Y007930D01*
X019680Y007430D01*
X019430Y007180D01*
X019074Y003816D02*
X019074Y003619D01*
X018286Y003619D01*
X018286Y003816D01*
X017519Y003816D01*
X017519Y002044D01*
X019841Y002044D01*
X019841Y003816D01*
X019074Y003816D01*
X012261Y018941D02*
X011946Y018941D01*
X011946Y020594D01*
X008914Y020594D01*
X008914Y018941D01*
X008599Y018941D01*
X008599Y021165D01*
X008599Y020594D01*
X008599Y021165D02*
X009643Y021165D01*
X009643Y022012D01*
X009347Y022307D01*
X009347Y023803D01*
X009682Y023803D01*
X009682Y024266D01*
X011178Y024266D01*
X011178Y023803D01*
X011513Y023803D01*
X011513Y022307D01*
X011217Y022012D01*
X011217Y021165D01*
X012261Y021165D01*
X012261Y020594D01*
X012261Y021165D02*
X012261Y018941D01*
X010930Y019180D02*
X010930Y019680D01*
X010680Y019930D01*
X010180Y019930D01*
X009930Y019680D01*
X009930Y019180D01*
X010180Y018930D01*
X010680Y018930D01*
X010930Y019180D01*
X018930Y019555D02*
X019180Y019305D01*
X019680Y019305D01*
X019930Y019555D01*
X019930Y020055D01*
X019680Y020305D01*
X019180Y020305D01*
X018930Y020055D01*
X018930Y019555D01*
X001930Y019555D02*
X001930Y020055D01*
X001680Y020305D01*
X001180Y020305D01*
X000930Y020055D01*
X000930Y019555D01*
X001180Y019305D01*
X001680Y019305D01*
X001930Y019555D01*
D92*
X001430Y019805D03*
X001305Y016681D03*
X001305Y015681D03*
X001305Y014681D03*
X001305Y013681D03*
X001305Y012681D03*
X001305Y011681D03*
X001305Y010681D03*
X008306Y014680D03*
X008306Y015680D03*
X008306Y016680D03*
X010430Y019430D03*
X019430Y019805D03*
X019180Y008680D03*
X019180Y007680D03*
X019180Y006680D03*
X018180Y006680D03*
X018180Y007680D03*
X018180Y008680D03*
X009578Y001807D03*
X008578Y001807D03*
X007578Y001807D03*
X006578Y001807D03*
X001430Y001930D03*
D93*
X001380Y004580D02*
X001680Y004580D01*
X001980Y004580D01*
X001980Y004780D02*
X001680Y004780D01*
X001380Y004780D01*
X007380Y010830D02*
X007680Y010830D01*
X007980Y010830D01*
X007980Y011030D02*
X007680Y011030D01*
X007380Y011030D01*
X007380Y012830D02*
X007680Y012830D01*
X007980Y012830D01*
X007980Y013030D02*
X007680Y013030D01*
X007380Y013030D01*
X012130Y003780D02*
X012430Y003780D01*
X012730Y003780D01*
X012730Y003580D02*
X012430Y003580D01*
X012130Y003580D01*
X015880Y003580D02*
X016180Y003580D01*
X016480Y003580D01*
X016480Y003780D02*
X016180Y003780D01*
X015880Y003780D01*
X018830Y017880D02*
X018830Y018180D01*
X018830Y018480D01*
X019030Y018480D02*
X019030Y018180D01*
X019030Y017880D01*
D94*
X010430Y019763D03*
M02*
