%
M48
M72
T01C0.0118
T02C0.0236
T03C0.0276
T04C0.0280
T05C0.0315
T06C0.0320
T07C0.0354
T08C0.0390
T09C0.0400
%
T01
X19806Y1806
X18682Y1430
X17680Y2680
X16683Y2668
X16680Y1430
X15555Y1430
X15430Y2680
X14305Y2430
X14305Y1430
X12930Y1430
X12926Y2175
X13180Y3180
X13180Y4180
X13930Y4930
X14180Y4180
X15180Y4430
X15430Y3930
X15805Y5178
X15805Y6304
X15804Y7180
X13930Y7180
X13930Y6180
X13180Y5680
X12430Y5180
X11680Y5680
X12430Y6180
X12430Y7054
X12430Y8180
X11682Y9180
X10930Y9680
X11056Y10180
X11056Y11180
X11056Y12055
X11056Y12930
X11056Y13680
X10930Y14430
X10930Y15305
X10180Y15305
X9430Y15305
X9180Y16180
X8180Y16180
X8180Y15180
X6930Y15430
X6930Y14430
X6930Y13430
X6930Y12680
X6930Y11680
X6930Y10930
X6798Y9305
X7430Y8930
X7930Y8430
X8430Y7930
X8930Y7430
X9430Y7930
X9180Y8680
X8680Y9180
X6930Y7430
X7430Y6930
X8055Y6555
X8554Y6056
X9430Y6680
X10556Y6181
X10680Y4680
X11430Y4180
X11680Y3180
X11555Y2180
X11555Y1430
X10430Y1430
X9930Y3180
X8927Y3799
X8930Y4431
X8305Y4180
X7680Y4432
X6929Y4180
X6680Y4680
X6305Y3430
X5555Y2430
X5555Y1430
X4680Y1430
X4680Y2430
X3680Y2430
X3680Y1430
X2680Y1430
X2680Y2430
X2430Y3805
X2430Y5180
X2430Y6180
X930Y6180
X930Y5180
X930Y4180
X930Y2930
X3930Y4430
X3930Y5430
X3930Y6430
X3930Y7430
X3930Y8430
X3930Y9430
X2677Y8688
X1795Y9437
X930Y9180
X3930Y11430
X3930Y12430
X5430Y12430
X5430Y11430
X5430Y10430
X5430Y8430
X5430Y7430
X5430Y6430
X5430Y5430
X5180Y4430
X7430Y5930
X9927Y4423
X13930Y8430
X13930Y9680
X13930Y11430
X14430Y11930
X13680Y12680
X13180Y12180
X12804Y12062
X12430Y11430
X12180Y10180
X12430Y12930
X12930Y13430
X13680Y13680
X14180Y14430
X14930Y13680
X15430Y14430
X16183Y14562
X16304Y13808
X15680Y13680
X15680Y12930
X14430Y12930
X15930Y11430
X15430Y10930
X17180Y12930
X17680Y12430
X18181Y12056
X18688Y11684
X19180Y10930
X19680Y10930
X19680Y10180
X18558Y9553
X18055Y9555
X18055Y10054
X17305Y9555
X18680Y12930
X17930Y13680
X18680Y14430
X17680Y15430
X16930Y16180
X17680Y16930
X16930Y17680
X17680Y18180
X16930Y18680
X17680Y19430
X17680Y20180
X16930Y20180
X16180Y20180
X16180Y19430
X15430Y18680
X15430Y17680
X16180Y16930
X15430Y16180
X15431Y15438
X16180Y15430
X16930Y14430
X18430Y16180
X19930Y18930
X18430Y19430
X18430Y20180
X15430Y20180
X14680Y20180
X14680Y19430
X13936Y19435
X13305Y19430
X12680Y19430
X12680Y18680
X12180Y18555
X11680Y17930
X11430Y18555
X10930Y18305
X10930Y17805
X9930Y17805
X9930Y17180
X10305Y16555
X10930Y16180
X12430Y16180
X12430Y16930
X12430Y17430
X13050Y17950
X13305Y18680
X13930Y18680
X13930Y17680
X14680Y16930
X13930Y16180
X14680Y15430
X13430Y15180
X12430Y15305
X12430Y14430
X13180Y16930
X11055Y19180
X11055Y20180
X9805Y20180
X9805Y19180
X9430Y18555
X9930Y18305
X9055Y18055
X9180Y17430
X8180Y17180
X8055Y18180
X7555Y18680
X7555Y19430
X8180Y19430
X8180Y20180
X12680Y20180
X13305Y20180
X13930Y20180
X9554Y14179
X8930Y13555
X9305Y12805
X6930Y16430
X6930Y17180
X6930Y18180
X6180Y18430
X5430Y19180
X6179Y19581
X6180Y20180
X5430Y20180
X4680Y20180
X4675Y19582
X3930Y19180
X4680Y18430
X3180Y18430
X2430Y18930
X1930Y18180
X2430Y17430
X1555Y16930
X930Y17680
X930Y18680
X2430Y20180
X3180Y20180
X3171Y19581
X3930Y20180
X6930Y20180
X7555Y20180
X6930Y19180
X8680Y18555
X5430Y16430
X5430Y15430
X5430Y14430
X5430Y13430
X3930Y14430
X3930Y15430
X3930Y16430
X17430Y6180
X17430Y5180
X17430Y4180
X18680Y4180
X18680Y5180
X19930Y5180
X19930Y4180
X19930Y3180
T02
X16180Y12680
T03
X18286Y3147
X19074Y3147
T04
X10680Y3090
X10680Y3680
T05
X1680Y6680
X1680Y7680
X1680Y8680
T06
X16180Y3180
X16180Y4180
X12430Y4180
X12430Y3180
X7680Y10430
X7680Y11430
X7680Y12430
X7680Y13430
X18430Y18180
X19430Y18180
X1680Y5180
X1680Y4180
T07
X1680Y3180
X5680Y3180
X7180Y5180
X11180Y5180
X11680Y6680
X13180Y6680
X13180Y10680
X11680Y10680
T08
X3180Y4180
X3180Y5180
X3180Y6180
X3180Y7180
X3180Y8180
X3180Y9180
X3180Y10180
X3180Y11180
X3180Y12180
X3180Y13180
X3180Y14180
X3180Y15180
X3180Y16180
X3180Y17180
X6180Y17180
X6180Y16180
X6180Y15180
X6180Y14180
X6180Y13180
X6180Y12180
X6180Y11180
X6180Y10180
X6180Y9180
X6180Y8180
X6180Y7180
X6180Y6180
X6180Y5180
X6180Y4180
X13680Y3680
X14680Y3180
X13680Y2680
T09
X19430Y19805
X1430Y19805
X1430Y1930
X6578Y1807
X7578Y1807
X8578Y1807
X9578Y1807
X1305Y10180
X1305Y11180
X1305Y12180
X1305Y13180
X1305Y14180
X1305Y15180
X1305Y16180
X7680Y15680
X7680Y14680
X7680Y16680
X10430Y19430
X18180Y8680
X19180Y8680
X19080Y7680
X19180Y6680
X18180Y6680
X18080Y7680
M30
