G75*
%MOIN*%
%OFA0B0*%
%FSLAX24Y24*%
%IPPOS*%
%LPD*%
%AMOC8*
5,1,8,0,0,1.08239X$1,22.5*
%
%ADD10C,0.0000*%
%ADD11OC8,0.0740*%
%ADD12C,0.0740*%
%ADD13R,0.0590X0.0590*%
%ADD14C,0.0590*%
%ADD15R,0.0480X0.0480*%
%ADD16C,0.0480*%
%ADD17OC8,0.0630*%
%ADD18R,0.1050X0.1650*%
%ADD19R,0.0740X0.0740*%
%ADD20C,0.0640*%
%ADD21C,0.0320*%
%ADD22C,0.0356*%
%ADD23C,0.0400*%
%ADD24C,0.0160*%
%ADD25C,0.0238*%
%ADD26C,0.0120*%
D10*
X001467Y001180D02*
X019385Y001180D01*
X019439Y001182D01*
X019492Y001187D01*
X019545Y001196D01*
X019597Y001209D01*
X019649Y001225D01*
X019699Y001245D01*
X019747Y001268D01*
X019794Y001295D01*
X019839Y001324D01*
X019882Y001357D01*
X019922Y001392D01*
X019960Y001430D01*
X019995Y001470D01*
X020028Y001513D01*
X020057Y001558D01*
X020084Y001605D01*
X020107Y001653D01*
X020127Y001703D01*
X020143Y001755D01*
X020156Y001807D01*
X020165Y001860D01*
X020170Y001913D01*
X020172Y001967D01*
X020172Y019763D01*
X020170Y019817D01*
X020165Y019870D01*
X020156Y019923D01*
X020143Y019975D01*
X020127Y020027D01*
X020107Y020077D01*
X020084Y020125D01*
X020057Y020172D01*
X020028Y020217D01*
X019995Y020260D01*
X019960Y020300D01*
X019922Y020338D01*
X019882Y020373D01*
X019839Y020406D01*
X019794Y020435D01*
X019747Y020462D01*
X019699Y020485D01*
X019649Y020505D01*
X019597Y020521D01*
X019545Y020534D01*
X019492Y020543D01*
X019439Y020548D01*
X019385Y020550D01*
X001467Y020550D01*
X001413Y020548D01*
X001360Y020543D01*
X001307Y020534D01*
X001255Y020521D01*
X001203Y020505D01*
X001153Y020485D01*
X001105Y020462D01*
X001058Y020435D01*
X001013Y020406D01*
X000970Y020373D01*
X000930Y020338D01*
X000892Y020300D01*
X000857Y020260D01*
X000824Y020217D01*
X000795Y020172D01*
X000768Y020125D01*
X000745Y020077D01*
X000725Y020027D01*
X000709Y019975D01*
X000696Y019923D01*
X000687Y019870D01*
X000682Y019817D01*
X000680Y019763D01*
X000680Y001967D01*
X000682Y001913D01*
X000687Y001860D01*
X000696Y001807D01*
X000709Y001755D01*
X000725Y001703D01*
X000745Y001653D01*
X000768Y001605D01*
X000795Y001558D01*
X000824Y001513D01*
X000857Y001470D01*
X000892Y001430D01*
X000930Y001392D01*
X000970Y001357D01*
X001013Y001324D01*
X001058Y001295D01*
X001105Y001268D01*
X001153Y001245D01*
X001203Y001225D01*
X001255Y001209D01*
X001307Y001196D01*
X001360Y001187D01*
X001413Y001182D01*
X001467Y001180D01*
X008230Y020555D02*
X012630Y020555D01*
D11*
X018180Y008680D03*
X019180Y008680D03*
X019080Y007680D03*
X019180Y006680D03*
X018180Y006680D03*
X018080Y007680D03*
D12*
X013180Y006680D03*
X011680Y006680D03*
X011180Y005180D03*
X008578Y001807D03*
X007578Y001807D03*
X006578Y001807D03*
X005680Y003180D03*
X007180Y005180D03*
X011680Y010680D03*
X013180Y010680D03*
X008306Y014680D03*
X008306Y015680D03*
X008306Y016680D03*
X010430Y019430D03*
X001430Y019805D03*
X001305Y016681D03*
X001305Y015681D03*
X001305Y014681D03*
X001305Y013681D03*
X001305Y012681D03*
X001305Y011681D03*
X001305Y010681D03*
X001680Y008680D03*
X001680Y007680D03*
X001680Y006680D03*
X001680Y003180D03*
X001430Y001930D03*
X019430Y019805D03*
D13*
X014680Y003180D03*
X013680Y002680D03*
X003180Y017180D03*
D14*
X003180Y016180D03*
X003180Y015180D03*
X003180Y014180D03*
X003180Y013180D03*
X003180Y012180D03*
X003180Y011180D03*
X003180Y010180D03*
X003180Y009180D03*
X003180Y008180D03*
X003180Y007180D03*
X003180Y006180D03*
X003180Y005180D03*
X003180Y004180D03*
X006180Y004180D03*
X006180Y005180D03*
X006180Y006180D03*
X006180Y007180D03*
X006180Y008180D03*
X006180Y009180D03*
X006180Y010180D03*
X006180Y011180D03*
X006180Y012180D03*
X006180Y013180D03*
X006180Y014180D03*
X006180Y015180D03*
X006180Y016180D03*
X006180Y017180D03*
X013680Y003680D03*
D15*
X010680Y003090D03*
D16*
X010680Y003680D03*
D17*
X012430Y003180D03*
X012430Y004180D03*
X016180Y004180D03*
X016180Y003180D03*
X007680Y010430D03*
X007680Y011430D03*
X007680Y012430D03*
X007680Y013430D03*
X001680Y005180D03*
X001680Y004180D03*
X018430Y018180D03*
X019430Y018180D03*
D18*
X011806Y019722D03*
X009054Y019722D03*
D19*
X009578Y001807D03*
D20*
X018286Y003147D03*
X019074Y003147D03*
D21*
X006180Y009180D02*
X005680Y009180D01*
X003680Y011180D01*
X003180Y011180D01*
X002930Y011180D01*
X002430Y011680D01*
X002430Y012680D01*
X001429Y013681D01*
X001305Y013681D01*
D22*
X016180Y012680D03*
D23*
X009430Y005930D01*
X009430Y005180D01*
X009430Y002680D01*
X010680Y002680D01*
X010680Y003090D01*
X010680Y002680D02*
X012430Y002680D01*
X012430Y003180D01*
X012430Y002680D02*
X013680Y002680D01*
X009430Y005930D02*
X006180Y009180D01*
X016180Y012680D02*
X019430Y015930D01*
X019430Y018180D01*
D24*
X001173Y001391D02*
X001010Y001510D01*
X000891Y001673D01*
X000828Y001866D01*
X000820Y001967D01*
X000820Y010421D01*
X000835Y010393D01*
X000885Y010322D01*
X000947Y010261D01*
X001017Y010210D01*
X001094Y010171D01*
X001176Y010144D01*
X001262Y010131D01*
X001285Y010131D01*
X001285Y010661D01*
X001325Y010661D01*
X001325Y010701D01*
X001855Y010701D01*
X001855Y010724D01*
X001841Y010810D01*
X001815Y010892D01*
X001775Y010969D01*
X001725Y011039D01*
X001663Y011100D01*
X001593Y011151D01*
X001516Y011190D01*
X001481Y011202D01*
X001594Y011248D01*
X001737Y011392D01*
X001815Y011579D01*
X001815Y011782D01*
X001737Y011970D01*
X001594Y012113D01*
X001431Y012181D01*
X001594Y012248D01*
X001737Y012392D01*
X001815Y012579D01*
X001815Y012782D01*
X001752Y012933D01*
X002130Y012556D01*
X002130Y011620D01*
X002176Y011510D01*
X002260Y011426D01*
X002260Y011426D01*
X002760Y010926D01*
X002861Y010884D01*
X002934Y010811D01*
X003093Y010745D01*
X003267Y010745D01*
X003426Y010811D01*
X003495Y010880D01*
X003556Y010880D01*
X005426Y009010D01*
X005510Y008926D01*
X005620Y008880D01*
X005865Y008880D01*
X005934Y008811D01*
X006093Y008745D01*
X006134Y008745D01*
X006264Y008615D01*
X006093Y008615D01*
X005934Y008549D01*
X005811Y008426D01*
X005745Y008267D01*
X005745Y008093D01*
X005811Y007934D01*
X005934Y007811D01*
X006093Y007745D01*
X006267Y007745D01*
X006426Y007811D01*
X006549Y007934D01*
X006615Y008093D01*
X006615Y008264D01*
X009090Y005789D01*
X009090Y002612D01*
X009142Y002487D01*
X009237Y002392D01*
X009321Y002357D01*
X009185Y002357D01*
X009139Y002345D01*
X009098Y002321D01*
X009064Y002287D01*
X009040Y002246D01*
X009028Y002201D01*
X009028Y002123D01*
X008998Y002165D01*
X008937Y002226D01*
X008866Y002277D01*
X008789Y002317D01*
X008707Y002343D01*
X008622Y002357D01*
X008598Y002357D01*
X008598Y001827D01*
X008558Y001827D01*
X008558Y002357D01*
X008535Y002357D01*
X008449Y002343D01*
X008367Y002317D01*
X008290Y002277D01*
X008220Y002226D01*
X008159Y002165D01*
X008108Y002095D01*
X008069Y002018D01*
X008057Y001983D01*
X008011Y002096D01*
X007867Y002239D01*
X007680Y002317D01*
X007477Y002317D01*
X007289Y002239D01*
X007146Y002096D01*
X007078Y001933D01*
X007011Y002096D01*
X006867Y002239D01*
X006680Y002317D01*
X006477Y002317D01*
X006289Y002239D01*
X006146Y002096D01*
X006068Y001908D01*
X006068Y001706D01*
X006146Y001518D01*
X006289Y001375D01*
X006421Y001320D01*
X001467Y001320D01*
X001366Y001328D01*
X001173Y001391D01*
X001219Y001420D02*
X001301Y001394D01*
X001387Y001380D01*
X001410Y001380D01*
X001410Y001910D01*
X000880Y001910D01*
X000880Y001887D01*
X000894Y001801D01*
X000920Y001719D01*
X000960Y001642D01*
X001010Y001572D01*
X001072Y001510D01*
X001142Y001460D01*
X001219Y001420D01*
X001334Y001339D02*
X006377Y001339D01*
X006167Y001497D02*
X001770Y001497D01*
X001788Y001510D02*
X001850Y001572D01*
X001900Y001642D01*
X001940Y001719D01*
X001966Y001801D01*
X001980Y001887D01*
X001980Y001910D01*
X001450Y001910D01*
X001450Y001950D01*
X001410Y001950D01*
X001410Y002480D01*
X001387Y002480D01*
X001301Y002466D01*
X001219Y002440D01*
X001142Y002400D01*
X001072Y002350D01*
X001010Y002288D01*
X000960Y002218D01*
X000920Y002141D01*
X000894Y002059D01*
X000880Y001973D01*
X000880Y001950D01*
X001410Y001950D01*
X001410Y001910D01*
X001450Y001910D01*
X001450Y001380D01*
X001473Y001380D01*
X001559Y001394D01*
X001641Y001420D01*
X001718Y001460D01*
X001788Y001510D01*
X001907Y001656D02*
X006089Y001656D01*
X006068Y001814D02*
X001968Y001814D01*
X001980Y001950D02*
X001980Y001973D01*
X001966Y002059D01*
X001940Y002141D01*
X001900Y002218D01*
X001850Y002288D01*
X001788Y002350D01*
X001718Y002400D01*
X001641Y002440D01*
X001559Y002466D01*
X001473Y002480D01*
X001450Y002480D01*
X001450Y001950D01*
X001980Y001950D01*
X001980Y001973D02*
X006095Y001973D01*
X006181Y002131D02*
X001943Y002131D01*
X001848Y002290D02*
X006410Y002290D01*
X006746Y002290D02*
X007410Y002290D01*
X007181Y002131D02*
X006975Y002131D01*
X007062Y001973D02*
X007095Y001973D01*
X007746Y002290D02*
X008314Y002290D01*
X008134Y002131D02*
X007975Y002131D01*
X008558Y002131D02*
X008598Y002131D01*
X008598Y001973D02*
X008558Y001973D01*
X008598Y001827D02*
X009128Y001827D01*
X009558Y001827D01*
X009558Y001787D01*
X008598Y001787D01*
X008598Y001827D01*
X008598Y001814D02*
X009558Y001814D01*
X009598Y001814D02*
X020007Y001814D01*
X020024Y001866D02*
X019962Y001673D01*
X019843Y001510D01*
X019679Y001391D01*
X019486Y001328D01*
X019385Y001320D01*
X010086Y001320D01*
X010092Y001326D01*
X010116Y001367D01*
X010128Y001413D01*
X010128Y001787D01*
X009598Y001787D01*
X009598Y001827D01*
X010128Y001827D01*
X010128Y002201D01*
X010116Y002246D01*
X010092Y002287D01*
X010059Y002321D01*
X010026Y002340D01*
X013245Y002340D01*
X013245Y002327D01*
X013327Y002245D01*
X014033Y002245D01*
X014115Y002327D01*
X014115Y003033D01*
X014033Y003115D01*
X013327Y003115D01*
X013245Y003033D01*
X013245Y003020D01*
X012885Y003020D01*
X012885Y003368D01*
X012618Y003635D01*
X012242Y003635D01*
X011975Y003368D01*
X011975Y003020D01*
X011060Y003020D01*
X011060Y003388D01*
X011018Y003430D01*
X011039Y003460D01*
X011069Y003519D01*
X011090Y003582D01*
X011100Y003647D01*
X011100Y003680D01*
X011100Y003713D01*
X011090Y003778D01*
X011069Y003841D01*
X011039Y003900D01*
X011000Y003954D01*
X010954Y004000D01*
X010900Y004039D01*
X010841Y004069D01*
X010778Y004090D01*
X010713Y004100D01*
X010680Y004100D01*
X010680Y003680D01*
X010680Y003680D01*
X011100Y003680D01*
X010680Y003680D01*
X010680Y003680D01*
X010680Y004100D01*
X010647Y004100D01*
X010582Y004090D01*
X010519Y004069D01*
X010460Y004039D01*
X010406Y004000D01*
X010360Y003954D01*
X010321Y003900D01*
X010291Y003841D01*
X010270Y003778D01*
X010260Y003713D01*
X010260Y003680D01*
X010680Y003680D01*
X010680Y003680D01*
X010260Y003680D01*
X010260Y003647D01*
X010270Y003582D01*
X010291Y003519D01*
X010321Y003460D01*
X010342Y003430D01*
X010300Y003388D01*
X010300Y003020D01*
X009770Y003020D01*
X009770Y004960D01*
X010719Y004960D01*
X010748Y004891D01*
X010891Y004748D01*
X011079Y004670D01*
X011281Y004670D01*
X011469Y004748D01*
X011612Y004891D01*
X011690Y005079D01*
X011690Y005281D01*
X011612Y005469D01*
X011469Y005612D01*
X011281Y005690D01*
X011079Y005690D01*
X010891Y005612D01*
X010748Y005469D01*
X010719Y005400D01*
X009770Y005400D01*
X009770Y005789D01*
X013671Y009690D01*
X013671Y009628D01*
X013710Y009533D01*
X013783Y009460D01*
X013878Y009421D01*
X013981Y009421D01*
X014075Y009460D01*
X015021Y009460D01*
X015150Y009589D01*
X017732Y012171D01*
X017827Y012210D01*
X017900Y012283D01*
X017939Y012378D01*
X017939Y012482D01*
X017900Y012577D01*
X017827Y012650D01*
X017732Y012689D01*
X017628Y012689D01*
X017533Y012650D01*
X017460Y012577D01*
X017421Y012482D01*
X014839Y009900D01*
X014075Y009900D01*
X013981Y009939D01*
X013920Y009939D01*
X016469Y012488D01*
X019623Y015642D01*
X019718Y015737D01*
X019770Y015862D01*
X019770Y017877D01*
X019885Y017992D01*
X019885Y018368D01*
X019618Y018635D01*
X019242Y018635D01*
X018975Y018368D01*
X018975Y017992D01*
X019090Y017877D01*
X019090Y016071D01*
X015988Y012969D01*
X015988Y012969D01*
X013690Y010671D01*
X013690Y010781D01*
X013613Y010969D01*
X013469Y011112D01*
X013282Y011190D01*
X013079Y011190D01*
X012892Y011112D01*
X012748Y010969D01*
X012670Y010781D01*
X012670Y010579D01*
X012748Y010391D01*
X012892Y010248D01*
X013079Y010170D01*
X013189Y010170D01*
X009430Y006411D01*
X006615Y009226D01*
X006615Y009267D01*
X006549Y009426D01*
X006515Y009460D01*
X010785Y009460D01*
X010879Y009421D01*
X010982Y009421D01*
X011077Y009460D01*
X011150Y009533D01*
X011189Y009628D01*
X011189Y009732D01*
X011150Y009827D01*
X011077Y009900D01*
X010982Y009939D01*
X010879Y009939D01*
X010785Y009900D01*
X006515Y009900D01*
X006549Y009934D01*
X006615Y010093D01*
X006615Y010267D01*
X006549Y010426D01*
X006426Y010549D01*
X006267Y010615D01*
X006093Y010615D01*
X005934Y010549D01*
X005811Y010426D01*
X005745Y010267D01*
X005745Y010093D01*
X005811Y009934D01*
X005845Y009900D01*
X005771Y009900D01*
X004900Y010771D01*
X004900Y012771D01*
X003604Y014067D01*
X003615Y014093D01*
X003615Y014267D01*
X003549Y014426D01*
X003426Y014549D01*
X003267Y014615D01*
X003093Y014615D01*
X002934Y014549D01*
X002811Y014426D01*
X002745Y014267D01*
X002745Y014093D01*
X002811Y013934D01*
X002934Y013811D01*
X003093Y013745D01*
X003267Y013745D01*
X003293Y013756D01*
X004460Y012589D01*
X004460Y010824D01*
X003850Y011434D01*
X003740Y011480D01*
X003495Y011480D01*
X003426Y011549D01*
X003267Y011615D01*
X003093Y011615D01*
X002970Y011564D01*
X002730Y011804D01*
X002730Y012740D01*
X002684Y012850D01*
X001815Y013719D01*
X001815Y013782D01*
X001737Y013970D01*
X001594Y014113D01*
X001481Y014160D01*
X001516Y014171D01*
X001593Y014210D01*
X001663Y014261D01*
X001725Y014322D01*
X001775Y014393D01*
X001815Y014470D01*
X001841Y014552D01*
X001855Y014638D01*
X001855Y014661D01*
X001325Y014661D01*
X001325Y014701D01*
X001855Y014701D01*
X001855Y014724D01*
X001841Y014810D01*
X001815Y014892D01*
X001780Y014960D01*
X002800Y014960D01*
X002811Y014934D01*
X002934Y014811D01*
X001841Y014811D01*
X001855Y014653D02*
X006341Y014653D01*
X006293Y014604D02*
X006267Y014615D01*
X006093Y014615D01*
X005934Y014549D01*
X005811Y014426D01*
X005745Y014267D01*
X005745Y014093D01*
X005811Y013934D01*
X005934Y013811D01*
X006093Y013745D01*
X006267Y013745D01*
X006426Y013811D01*
X006549Y013934D01*
X006615Y014093D01*
X006615Y014267D01*
X006604Y014293D01*
X007771Y015460D01*
X007845Y015460D01*
X007874Y015391D01*
X008017Y015248D01*
X008180Y015180D01*
X008017Y015112D01*
X007874Y014969D01*
X007845Y014900D01*
X007589Y014900D01*
X006293Y013604D01*
X006267Y013615D01*
X006093Y013615D01*
X005934Y013549D01*
X005811Y013426D01*
X005745Y013267D01*
X005745Y013093D01*
X005811Y012934D01*
X005934Y012811D01*
X006093Y012745D01*
X006267Y012745D01*
X006426Y012811D01*
X006549Y012934D01*
X006615Y013093D01*
X006615Y013267D01*
X006604Y013293D01*
X007771Y014460D01*
X007845Y014460D01*
X007874Y014391D01*
X008017Y014248D01*
X008205Y014170D01*
X008407Y014170D01*
X008595Y014248D01*
X008738Y014391D01*
X008816Y014579D01*
X008816Y014781D01*
X008738Y014969D01*
X008595Y015112D01*
X008432Y015180D01*
X008595Y015248D01*
X008738Y015391D01*
X008816Y015579D01*
X008816Y015781D01*
X008738Y015969D01*
X008595Y016112D01*
X008432Y016180D01*
X008595Y016248D01*
X008738Y016391D01*
X008816Y016579D01*
X008816Y016781D01*
X008738Y016969D01*
X008595Y017112D01*
X008407Y017190D01*
X008205Y017190D01*
X008017Y017112D01*
X007874Y016969D01*
X007845Y016900D01*
X007589Y016900D01*
X006293Y015604D01*
X006267Y015615D01*
X006093Y015615D01*
X005934Y015549D01*
X005811Y015426D01*
X005745Y015267D01*
X005745Y015093D01*
X005811Y014934D01*
X005934Y014811D01*
X003426Y014811D01*
X003549Y014934D01*
X003615Y015093D01*
X003615Y015267D01*
X003549Y015426D01*
X003426Y015549D01*
X003267Y015615D01*
X003093Y015615D01*
X002934Y015549D01*
X002811Y015426D01*
X002800Y015400D01*
X001897Y015400D01*
X001786Y015510D01*
X001815Y015579D01*
X001815Y015782D01*
X001741Y015960D01*
X002800Y015960D01*
X002811Y015934D01*
X002934Y015811D01*
X003093Y015745D01*
X003267Y015745D01*
X003426Y015811D01*
X003549Y015934D01*
X003615Y016093D01*
X003615Y016267D01*
X003549Y016426D01*
X003426Y016549D01*
X003267Y016615D01*
X003093Y016615D01*
X002934Y016549D01*
X002811Y016426D01*
X002800Y016400D01*
X001897Y016400D01*
X001786Y016510D01*
X001815Y016579D01*
X001815Y016782D01*
X001737Y016970D01*
X001594Y017113D01*
X001406Y017191D01*
X001204Y017191D01*
X001016Y017113D01*
X000873Y016970D01*
X000820Y016843D01*
X000820Y019763D01*
X000828Y019864D01*
X000891Y020057D01*
X001010Y020220D01*
X001173Y020340D01*
X001366Y020402D01*
X001467Y020410D01*
X008349Y020410D01*
X008349Y019802D01*
X008974Y019802D01*
X008974Y019642D01*
X009134Y019642D01*
X009134Y018717D01*
X009603Y018717D01*
X009649Y018729D01*
X009690Y018753D01*
X009723Y018787D01*
X009747Y018828D01*
X009759Y018873D01*
X009759Y019642D01*
X009134Y019642D01*
X009134Y019802D01*
X009759Y019802D01*
X009759Y020410D01*
X011101Y020410D01*
X011101Y019802D01*
X011726Y019802D01*
X011726Y019642D01*
X011886Y019642D01*
X011886Y019802D01*
X012511Y019802D01*
X012511Y020410D01*
X019385Y020410D01*
X019486Y020402D01*
X019679Y020340D01*
X019843Y020220D01*
X019962Y020057D01*
X020024Y019864D01*
X020032Y019763D01*
X020032Y001967D01*
X020024Y001866D01*
X020032Y001973D02*
X010128Y001973D01*
X010128Y002131D02*
X020032Y002131D01*
X020032Y002290D02*
X014077Y002290D01*
X014115Y002448D02*
X020032Y002448D01*
X020032Y002607D02*
X014115Y002607D01*
X014115Y002765D02*
X014307Y002765D01*
X014327Y002745D02*
X014245Y002827D01*
X014245Y003533D01*
X014327Y003615D01*
X014460Y003615D01*
X014460Y006460D01*
X013641Y006460D01*
X013613Y006391D01*
X013469Y006248D01*
X013282Y006170D01*
X013079Y006170D01*
X012892Y006248D01*
X012748Y006391D01*
X012670Y006579D01*
X012670Y006781D01*
X012748Y006969D01*
X012892Y007112D01*
X013079Y007190D01*
X013282Y007190D01*
X013469Y007112D01*
X013613Y006969D01*
X013641Y006900D01*
X014771Y006900D01*
X014900Y006771D01*
X014900Y003615D01*
X015033Y003615D01*
X015115Y003533D01*
X015115Y002827D01*
X015033Y002745D01*
X014327Y002745D01*
X014245Y002924D02*
X014115Y002924D01*
X014066Y003082D02*
X014245Y003082D01*
X014245Y003241D02*
X013864Y003241D01*
X013862Y003240D02*
X013929Y003274D01*
X013989Y003318D01*
X014042Y003371D01*
X014086Y003431D01*
X014120Y003498D01*
X014143Y003569D01*
X014155Y003643D01*
X014155Y003662D01*
X013698Y003662D01*
X013698Y003698D01*
X013662Y003698D01*
X013662Y004155D01*
X013643Y004155D01*
X013569Y004143D01*
X013498Y004120D01*
X013431Y004086D01*
X013371Y004042D01*
X013318Y003989D01*
X013274Y003929D01*
X013240Y003862D01*
X013217Y003791D01*
X013205Y003717D01*
X013205Y003698D01*
X013662Y003698D01*
X013662Y003662D01*
X013205Y003662D01*
X013205Y003643D01*
X013217Y003569D01*
X013240Y003498D01*
X013274Y003431D01*
X013318Y003371D01*
X013371Y003318D01*
X013431Y003274D01*
X013498Y003240D01*
X013569Y003217D01*
X013643Y003205D01*
X013662Y003205D01*
X013662Y003662D01*
X013698Y003662D01*
X013698Y003205D01*
X013717Y003205D01*
X013791Y003217D01*
X013862Y003240D01*
X013698Y003241D02*
X013662Y003241D01*
X013662Y003399D02*
X013698Y003399D01*
X013698Y003558D02*
X013662Y003558D01*
X013698Y003698D02*
X014155Y003698D01*
X014155Y003717D01*
X014143Y003791D01*
X014120Y003862D01*
X014086Y003929D01*
X014042Y003989D01*
X013989Y004042D01*
X013929Y004086D01*
X013862Y004120D01*
X013791Y004143D01*
X013717Y004155D01*
X013698Y004155D01*
X013698Y003698D01*
X013698Y003716D02*
X013662Y003716D01*
X013662Y003875D02*
X013698Y003875D01*
X013698Y004033D02*
X013662Y004033D01*
X013361Y004033D02*
X012925Y004033D01*
X012925Y003975D02*
X012925Y004180D01*
X012925Y004385D01*
X012635Y004675D01*
X012430Y004675D01*
X012430Y004180D01*
X012430Y004180D01*
X012925Y004180D01*
X012430Y004180D01*
X012430Y004180D01*
X012430Y004180D01*
X011935Y004180D01*
X011935Y004385D01*
X012225Y004675D01*
X012430Y004675D01*
X012430Y004180D01*
X012430Y003685D01*
X012635Y003685D01*
X012925Y003975D01*
X012825Y003875D02*
X013246Y003875D01*
X013205Y003716D02*
X012666Y003716D01*
X012696Y003558D02*
X013220Y003558D01*
X013297Y003399D02*
X012854Y003399D01*
X012885Y003241D02*
X013496Y003241D01*
X013294Y003082D02*
X012885Y003082D01*
X012430Y003685D02*
X012225Y003685D01*
X011935Y003975D01*
X011935Y004180D01*
X012430Y004180D01*
X012430Y004180D01*
X012430Y003685D01*
X012430Y003716D02*
X012430Y003716D01*
X012430Y003875D02*
X012430Y003875D01*
X012430Y004033D02*
X012430Y004033D01*
X012430Y004192D02*
X012430Y004192D01*
X012430Y004350D02*
X012430Y004350D01*
X012430Y004509D02*
X012430Y004509D01*
X012430Y004667D02*
X012430Y004667D01*
X012643Y004667D02*
X014460Y004667D01*
X014460Y004509D02*
X012802Y004509D01*
X012925Y004350D02*
X014460Y004350D01*
X014460Y004192D02*
X012925Y004192D01*
X012217Y004667D02*
X009770Y004667D01*
X009770Y004509D02*
X012058Y004509D01*
X011935Y004350D02*
X009770Y004350D01*
X009770Y004192D02*
X011935Y004192D01*
X011935Y004033D02*
X010909Y004033D01*
X011052Y003875D02*
X012035Y003875D01*
X012194Y003716D02*
X011100Y003716D01*
X011082Y003558D02*
X012164Y003558D01*
X012006Y003399D02*
X011049Y003399D01*
X011060Y003241D02*
X011975Y003241D01*
X011975Y003082D02*
X011060Y003082D01*
X010680Y003716D02*
X010680Y003716D01*
X010680Y003875D02*
X010680Y003875D01*
X010680Y004033D02*
X010680Y004033D01*
X010451Y004033D02*
X009770Y004033D01*
X009770Y003875D02*
X010308Y003875D01*
X010260Y003716D02*
X009770Y003716D01*
X009770Y003558D02*
X010278Y003558D01*
X010311Y003399D02*
X009770Y003399D01*
X009770Y003241D02*
X010300Y003241D01*
X010300Y003082D02*
X009770Y003082D01*
X009090Y003082D02*
X006190Y003082D01*
X006190Y003079D02*
X006112Y002891D01*
X005969Y002748D01*
X005781Y002670D01*
X005579Y002670D01*
X005391Y002748D01*
X005248Y002891D01*
X005170Y003079D01*
X005170Y003281D01*
X005248Y003469D01*
X005391Y003612D01*
X005579Y003690D01*
X005781Y003690D01*
X005969Y003612D01*
X006112Y003469D01*
X006190Y003281D01*
X006190Y003079D01*
X006190Y003241D02*
X009090Y003241D01*
X009090Y003399D02*
X006141Y003399D01*
X006024Y003558D02*
X009090Y003558D01*
X009090Y003716D02*
X005277Y003716D01*
X005336Y003558D02*
X005119Y003558D01*
X005219Y003399D02*
X004960Y003399D01*
X004802Y003241D02*
X005170Y003241D01*
X005170Y003082D02*
X004643Y003082D01*
X004650Y003089D02*
X005521Y003960D01*
X005800Y003960D01*
X005811Y003934D01*
X005934Y003811D01*
X006093Y003745D01*
X006267Y003745D01*
X006426Y003811D01*
X006549Y003934D01*
X006615Y004093D01*
X006615Y004267D01*
X006549Y004426D01*
X006426Y004549D01*
X006267Y004615D01*
X006093Y004615D01*
X005934Y004549D01*
X005811Y004426D01*
X005800Y004400D01*
X005339Y004400D01*
X005210Y004271D01*
X004339Y003400D01*
X002141Y003400D01*
X002112Y003469D01*
X001969Y003612D01*
X001781Y003690D01*
X001579Y003690D01*
X001391Y003612D01*
X001248Y003469D01*
X001170Y003281D01*
X001170Y003079D01*
X001248Y002891D01*
X001391Y002748D01*
X001579Y002670D01*
X001781Y002670D01*
X001969Y002748D01*
X002112Y002891D01*
X002141Y002960D01*
X004521Y002960D01*
X004650Y003089D01*
X004430Y003180D02*
X001680Y003180D01*
X001336Y003558D02*
X000820Y003558D01*
X000820Y003716D02*
X004655Y003716D01*
X004813Y003875D02*
X003490Y003875D01*
X003549Y003934D02*
X003426Y003811D01*
X003267Y003745D01*
X003093Y003745D01*
X002934Y003811D01*
X002811Y003934D01*
X002745Y004093D01*
X002745Y004267D01*
X002811Y004426D01*
X002934Y004549D01*
X003093Y004615D01*
X003267Y004615D01*
X003426Y004549D01*
X003549Y004426D01*
X003615Y004267D01*
X003615Y004093D01*
X003549Y003934D01*
X003590Y004033D02*
X004972Y004033D01*
X005130Y004192D02*
X003615Y004192D01*
X003580Y004350D02*
X005289Y004350D01*
X005430Y004180D02*
X006180Y004180D01*
X005893Y004509D02*
X003467Y004509D01*
X003426Y004811D02*
X003267Y004745D01*
X003093Y004745D01*
X002934Y004811D01*
X002811Y004934D01*
X002745Y005093D01*
X002745Y005267D01*
X002811Y005426D01*
X002934Y005549D01*
X003093Y005615D01*
X003267Y005615D01*
X003426Y005549D01*
X003549Y005426D01*
X003615Y005267D01*
X003615Y005093D01*
X003549Y004934D01*
X003426Y004811D01*
X003441Y004826D02*
X005919Y004826D01*
X005934Y004811D02*
X006093Y004745D01*
X006267Y004745D01*
X006426Y004811D01*
X006549Y004934D01*
X006560Y004960D01*
X006719Y004960D01*
X006748Y004891D01*
X006891Y004748D01*
X007079Y004670D01*
X007281Y004670D01*
X007469Y004748D01*
X007612Y004891D01*
X007690Y005079D01*
X007690Y005281D01*
X007612Y005469D01*
X007469Y005612D01*
X007281Y005690D01*
X007079Y005690D01*
X006891Y005612D01*
X006748Y005469D01*
X006719Y005400D01*
X006560Y005400D01*
X006549Y005426D01*
X006426Y005549D01*
X006267Y005615D01*
X006093Y005615D01*
X005934Y005549D01*
X005811Y005426D01*
X005745Y005267D01*
X005745Y005093D01*
X005811Y004934D01*
X005934Y004811D01*
X005790Y004984D02*
X003570Y004984D01*
X003615Y005143D02*
X005745Y005143D01*
X005759Y005301D02*
X003601Y005301D01*
X003516Y005460D02*
X005844Y005460D01*
X006017Y005777D02*
X003343Y005777D01*
X003267Y005745D02*
X003426Y005811D01*
X003549Y005934D01*
X003615Y006093D01*
X003615Y006267D01*
X003549Y006426D01*
X003426Y006549D01*
X003267Y006615D01*
X003093Y006615D01*
X002934Y006549D01*
X002811Y006426D01*
X002745Y006267D01*
X002745Y006093D01*
X002811Y005934D01*
X002934Y005811D01*
X003093Y005745D01*
X003267Y005745D01*
X003017Y005777D02*
X000820Y005777D01*
X000820Y005935D02*
X002811Y005935D01*
X002745Y006094D02*
X000820Y006094D01*
X000820Y006252D02*
X001387Y006252D01*
X001391Y006248D02*
X001579Y006170D01*
X001781Y006170D01*
X001969Y006248D01*
X002112Y006391D01*
X002190Y006579D01*
X002190Y006781D01*
X002112Y006969D01*
X001969Y007112D01*
X001856Y007159D01*
X001891Y007170D01*
X001968Y007210D01*
X002038Y007260D01*
X002100Y007322D01*
X002150Y007392D01*
X002190Y007469D01*
X002216Y007551D01*
X002230Y007637D01*
X002230Y007680D01*
X002230Y007723D01*
X002216Y007809D01*
X002190Y007891D01*
X002150Y007968D01*
X002100Y008038D01*
X002038Y008100D01*
X001968Y008150D01*
X001891Y008190D01*
X001856Y008201D01*
X001969Y008248D01*
X002112Y008391D01*
X002190Y008579D01*
X002190Y008781D01*
X002112Y008969D01*
X001969Y009112D01*
X001781Y009190D01*
X001579Y009190D01*
X001391Y009112D01*
X001248Y008969D01*
X001170Y008781D01*
X001170Y008579D01*
X001248Y008391D01*
X001391Y008248D01*
X001504Y008201D01*
X001469Y008190D01*
X001392Y008150D01*
X001322Y008100D01*
X001260Y008038D01*
X001210Y007968D01*
X001170Y007891D01*
X001144Y007809D01*
X001130Y007723D01*
X001130Y007680D01*
X001680Y007680D01*
X002230Y007680D01*
X001680Y007680D01*
X001680Y007680D01*
X001680Y007680D01*
X001130Y007680D01*
X001130Y007637D01*
X001144Y007551D01*
X001170Y007469D01*
X001210Y007392D01*
X001260Y007322D01*
X001322Y007260D01*
X001392Y007210D01*
X001469Y007170D01*
X001504Y007159D01*
X001391Y007112D01*
X001248Y006969D01*
X001170Y006781D01*
X001170Y006579D01*
X001248Y006391D01*
X001391Y006248D01*
X001240Y006411D02*
X000820Y006411D01*
X000820Y006569D02*
X001174Y006569D01*
X001170Y006728D02*
X000820Y006728D01*
X000820Y006886D02*
X001213Y006886D01*
X001323Y007045D02*
X000820Y007045D01*
X000820Y007203D02*
X001405Y007203D01*
X001232Y007362D02*
X000820Y007362D01*
X000820Y007520D02*
X001154Y007520D01*
X001130Y007679D02*
X000820Y007679D01*
X000820Y007837D02*
X001153Y007837D01*
X001229Y007996D02*
X000820Y007996D01*
X000820Y008154D02*
X001399Y008154D01*
X001326Y008313D02*
X000820Y008313D01*
X000820Y008471D02*
X001215Y008471D01*
X001170Y008630D02*
X000820Y008630D01*
X000820Y008788D02*
X001173Y008788D01*
X001238Y008947D02*
X000820Y008947D01*
X000820Y009105D02*
X001384Y009105D01*
X000820Y009264D02*
X002745Y009264D01*
X002745Y009267D02*
X002745Y009093D01*
X002811Y008934D01*
X002934Y008811D01*
X003093Y008745D01*
X003267Y008745D01*
X003426Y008811D01*
X003549Y008934D01*
X003615Y009093D01*
X003615Y009267D01*
X003549Y009426D01*
X003426Y009549D01*
X003267Y009615D01*
X003093Y009615D01*
X002934Y009549D01*
X002811Y009426D01*
X002745Y009267D01*
X002745Y009105D02*
X001976Y009105D01*
X002122Y008947D02*
X002806Y008947D01*
X002990Y008788D02*
X002187Y008788D01*
X002190Y008630D02*
X006250Y008630D01*
X005990Y008788D02*
X003370Y008788D01*
X003267Y008615D02*
X003093Y008615D01*
X002934Y008549D01*
X002811Y008426D01*
X002745Y008267D01*
X002745Y008093D01*
X002811Y007934D01*
X002934Y007811D01*
X003093Y007745D01*
X003267Y007745D01*
X003426Y007811D01*
X003549Y007934D01*
X003615Y008093D01*
X003615Y008267D01*
X003549Y008426D01*
X003426Y008549D01*
X003267Y008615D01*
X003504Y008471D02*
X005856Y008471D01*
X005764Y008313D02*
X003596Y008313D01*
X003615Y008154D02*
X005745Y008154D01*
X005786Y007996D02*
X003574Y007996D01*
X003452Y007837D02*
X005908Y007837D01*
X006093Y007615D02*
X005934Y007549D01*
X005811Y007426D01*
X005745Y007267D01*
X005745Y007093D01*
X005811Y006934D01*
X005934Y006811D01*
X006093Y006745D01*
X006267Y006745D01*
X006426Y006811D01*
X006549Y006934D01*
X006615Y007093D01*
X006615Y007267D01*
X006549Y007426D01*
X006426Y007549D01*
X006267Y007615D01*
X006093Y007615D01*
X005905Y007520D02*
X003455Y007520D01*
X003426Y007549D02*
X003267Y007615D01*
X003093Y007615D01*
X002934Y007549D01*
X002811Y007426D01*
X002745Y007267D01*
X002745Y007093D01*
X002811Y006934D01*
X002934Y006811D01*
X003093Y006745D01*
X003267Y006745D01*
X003426Y006811D01*
X003549Y006934D01*
X003615Y007093D01*
X003615Y007267D01*
X003549Y007426D01*
X003426Y007549D01*
X003576Y007362D02*
X005784Y007362D01*
X005745Y007203D02*
X003615Y007203D01*
X003595Y007045D02*
X005765Y007045D01*
X005859Y006886D02*
X003501Y006886D01*
X003378Y006569D02*
X005982Y006569D01*
X005934Y006549D02*
X006093Y006615D01*
X006267Y006615D01*
X006426Y006549D01*
X006549Y006426D01*
X006615Y006267D01*
X006615Y006093D01*
X006549Y005934D01*
X006426Y005811D01*
X006267Y005745D01*
X006093Y005745D01*
X005934Y005811D01*
X005811Y005934D01*
X005745Y006093D01*
X005745Y006267D01*
X005811Y006426D01*
X005934Y006549D01*
X005805Y006411D02*
X003555Y006411D01*
X003615Y006252D02*
X005745Y006252D01*
X005745Y006094D02*
X003615Y006094D01*
X003549Y005935D02*
X005811Y005935D01*
X006343Y005777D02*
X009090Y005777D01*
X009090Y005618D02*
X007455Y005618D01*
X007616Y005460D02*
X009090Y005460D01*
X009090Y005301D02*
X007682Y005301D01*
X007690Y005143D02*
X009090Y005143D01*
X009090Y004984D02*
X007651Y004984D01*
X007547Y004826D02*
X009090Y004826D01*
X009090Y004667D02*
X000820Y004667D01*
X000820Y004509D02*
X001365Y004509D01*
X001492Y004635D02*
X001225Y004368D01*
X001225Y003992D01*
X001492Y003725D01*
X001868Y003725D01*
X002135Y003992D01*
X002135Y004368D01*
X001868Y004635D01*
X001492Y004635D01*
X001475Y004685D02*
X001185Y004975D01*
X001185Y005180D01*
X001680Y005180D01*
X001680Y005180D01*
X001680Y005675D01*
X001885Y005675D01*
X002175Y005385D01*
X002175Y005180D01*
X001680Y005180D01*
X001680Y005180D01*
X001680Y005180D01*
X001680Y005675D01*
X001475Y005675D01*
X001185Y005385D01*
X001185Y005180D01*
X001680Y005180D01*
X002175Y005180D01*
X002175Y004975D01*
X001885Y004685D01*
X001680Y004685D01*
X001680Y005180D01*
X001680Y005180D01*
X001680Y004685D01*
X001475Y004685D01*
X001334Y004826D02*
X000820Y004826D01*
X000820Y004984D02*
X001185Y004984D01*
X001185Y005143D02*
X000820Y005143D01*
X000820Y005301D02*
X001185Y005301D01*
X001259Y005460D02*
X000820Y005460D01*
X000820Y005618D02*
X001418Y005618D01*
X001680Y005618D02*
X001680Y005618D01*
X001680Y005460D02*
X001680Y005460D01*
X001680Y005301D02*
X001680Y005301D01*
X001680Y005143D02*
X001680Y005143D01*
X001680Y004984D02*
X001680Y004984D01*
X001680Y004826D02*
X001680Y004826D01*
X002026Y004826D02*
X002919Y004826D01*
X002790Y004984D02*
X002175Y004984D01*
X002175Y005143D02*
X002745Y005143D01*
X002759Y005301D02*
X002175Y005301D01*
X002101Y005460D02*
X002844Y005460D01*
X002745Y006252D02*
X001973Y006252D01*
X002120Y006411D02*
X002805Y006411D01*
X002982Y006569D02*
X002186Y006569D01*
X002190Y006728D02*
X008152Y006728D01*
X007993Y006886D02*
X006501Y006886D01*
X006595Y007045D02*
X007835Y007045D01*
X007676Y007203D02*
X006615Y007203D01*
X006576Y007362D02*
X007518Y007362D01*
X007359Y007520D02*
X006455Y007520D01*
X006452Y007837D02*
X007042Y007837D01*
X006884Y007996D02*
X006574Y007996D01*
X006615Y008154D02*
X006725Y008154D01*
X007201Y007679D02*
X002230Y007679D01*
X002207Y007837D02*
X002908Y007837D01*
X002786Y007996D02*
X002131Y007996D01*
X001961Y008154D02*
X002745Y008154D01*
X002764Y008313D02*
X002034Y008313D01*
X002145Y008471D02*
X002856Y008471D01*
X003554Y008947D02*
X005489Y008947D01*
X005331Y009105D02*
X003615Y009105D01*
X003615Y009264D02*
X005172Y009264D01*
X005014Y009422D02*
X003551Y009422D01*
X003350Y009581D02*
X004855Y009581D01*
X004697Y009739D02*
X003360Y009739D01*
X003362Y009740D02*
X003429Y009774D01*
X003489Y009818D01*
X003542Y009871D01*
X003586Y009931D01*
X003620Y009998D01*
X003643Y010069D01*
X003655Y010143D01*
X003655Y010162D01*
X003198Y010162D01*
X003198Y010198D01*
X003655Y010198D01*
X003655Y010217D01*
X003643Y010291D01*
X003620Y010362D01*
X003586Y010429D01*
X003542Y010489D01*
X003489Y010542D01*
X003429Y010586D01*
X003362Y010620D01*
X003291Y010643D01*
X003217Y010655D01*
X003198Y010655D01*
X003198Y010198D01*
X003162Y010198D01*
X003162Y010655D01*
X003143Y010655D01*
X003069Y010643D01*
X002998Y010620D01*
X002931Y010586D01*
X002871Y010542D01*
X002818Y010489D01*
X002774Y010429D01*
X002740Y010362D01*
X002717Y010291D01*
X002705Y010217D01*
X002705Y010198D01*
X003162Y010198D01*
X003162Y010162D01*
X003198Y010162D01*
X003198Y009705D01*
X003217Y009705D01*
X003291Y009717D01*
X003362Y009740D01*
X003198Y009739D02*
X003162Y009739D01*
X003162Y009705D02*
X003162Y010162D01*
X002705Y010162D01*
X002705Y010143D01*
X002717Y010069D01*
X002740Y009998D01*
X002774Y009931D01*
X002818Y009871D01*
X002871Y009818D01*
X002931Y009774D01*
X002998Y009740D01*
X003069Y009717D01*
X003143Y009705D01*
X003162Y009705D01*
X003000Y009739D02*
X000820Y009739D01*
X000820Y009581D02*
X003010Y009581D01*
X002809Y009422D02*
X000820Y009422D01*
X000820Y009898D02*
X002798Y009898D01*
X002721Y010056D02*
X000820Y010056D01*
X000820Y010215D02*
X001011Y010215D01*
X000849Y010373D02*
X000820Y010373D01*
X001285Y010373D02*
X001325Y010373D01*
X001325Y010215D02*
X001285Y010215D01*
X001325Y010131D02*
X001348Y010131D01*
X001434Y010144D01*
X001516Y010171D01*
X001593Y010210D01*
X001663Y010261D01*
X001725Y010322D01*
X001775Y010393D01*
X001815Y010470D01*
X001841Y010552D01*
X001855Y010638D01*
X001855Y010661D01*
X001325Y010661D01*
X001325Y010131D01*
X001599Y010215D02*
X002705Y010215D01*
X002745Y010373D02*
X001761Y010373D01*
X001835Y010532D02*
X002860Y010532D01*
X003162Y010532D02*
X003198Y010532D01*
X003198Y010373D02*
X003162Y010373D01*
X003162Y010215D02*
X003198Y010215D01*
X003198Y010056D02*
X003162Y010056D01*
X003162Y009898D02*
X003198Y009898D01*
X003562Y009898D02*
X004538Y009898D01*
X004380Y010056D02*
X003639Y010056D01*
X003655Y010215D02*
X004221Y010215D01*
X004063Y010373D02*
X003615Y010373D01*
X003500Y010532D02*
X003904Y010532D01*
X003746Y010690D02*
X001325Y010690D01*
X001325Y010532D02*
X001285Y010532D01*
X001829Y010849D02*
X002896Y010849D01*
X002679Y011007D02*
X001748Y011007D01*
X001565Y011166D02*
X002520Y011166D01*
X002362Y011324D02*
X001669Y011324D01*
X001775Y011483D02*
X002203Y011483D01*
X002130Y011641D02*
X001815Y011641D01*
X001808Y011800D02*
X002130Y011800D01*
X002130Y011958D02*
X001742Y011958D01*
X001586Y012117D02*
X002130Y012117D01*
X002130Y012275D02*
X001620Y012275D01*
X001755Y012434D02*
X002130Y012434D01*
X002094Y012592D02*
X001815Y012592D01*
X001815Y012751D02*
X001935Y012751D01*
X001777Y012909D02*
X001762Y012909D01*
X002150Y013385D02*
X002794Y013385D01*
X002811Y013426D02*
X002745Y013267D01*
X002745Y013093D01*
X002811Y012934D01*
X002934Y012811D01*
X003093Y012745D01*
X003267Y012745D01*
X003426Y012811D01*
X003549Y012934D01*
X003615Y013093D01*
X003615Y013267D01*
X003549Y013426D01*
X003426Y013549D01*
X003267Y013615D01*
X003093Y013615D01*
X002934Y013549D01*
X002811Y013426D01*
X002928Y013543D02*
X001991Y013543D01*
X001833Y013702D02*
X003347Y013702D01*
X003432Y013543D02*
X003506Y013543D01*
X003566Y013385D02*
X003664Y013385D01*
X003615Y013226D02*
X003823Y013226D01*
X003981Y013068D02*
X003604Y013068D01*
X003524Y012909D02*
X004140Y012909D01*
X004298Y012751D02*
X003280Y012751D01*
X003267Y012615D02*
X003093Y012615D01*
X002934Y012549D01*
X002811Y012426D01*
X002745Y012267D01*
X002745Y012093D01*
X002811Y011934D01*
X002934Y011811D01*
X003093Y011745D01*
X003267Y011745D01*
X003426Y011811D01*
X003549Y011934D01*
X003615Y012093D01*
X003615Y012267D01*
X003549Y012426D01*
X003426Y012549D01*
X003267Y012615D01*
X003322Y012592D02*
X004457Y012592D01*
X004460Y012434D02*
X003542Y012434D01*
X003611Y012275D02*
X004460Y012275D01*
X004460Y012117D02*
X003615Y012117D01*
X003559Y011958D02*
X004460Y011958D01*
X004460Y011800D02*
X003398Y011800D01*
X003493Y011483D02*
X004460Y011483D01*
X004460Y011641D02*
X002893Y011641D01*
X002962Y011800D02*
X002735Y011800D01*
X002730Y011958D02*
X002801Y011958D01*
X002745Y012117D02*
X002730Y012117D01*
X002730Y012275D02*
X002749Y012275D01*
X002730Y012434D02*
X002818Y012434D01*
X002730Y012592D02*
X003038Y012592D01*
X003080Y012751D02*
X002726Y012751D01*
X002625Y012909D02*
X002836Y012909D01*
X002756Y013068D02*
X002467Y013068D01*
X002308Y013226D02*
X002745Y013226D01*
X002885Y013860D02*
X001783Y013860D01*
X001689Y014019D02*
X002776Y014019D01*
X002745Y014177D02*
X001528Y014177D01*
X001734Y014336D02*
X002774Y014336D01*
X002879Y014494D02*
X001823Y014494D01*
X001806Y015180D02*
X001305Y015681D01*
X001758Y015921D02*
X002824Y015921D01*
X003052Y015762D02*
X001815Y015762D01*
X001815Y015604D02*
X003066Y015604D01*
X003294Y015604D02*
X006066Y015604D01*
X006093Y015745D02*
X005934Y015811D01*
X005811Y015934D01*
X005745Y016093D01*
X005745Y016267D01*
X005811Y016426D01*
X005934Y016549D01*
X006093Y016615D01*
X006267Y016615D01*
X006426Y016549D01*
X006549Y016426D01*
X006615Y016267D01*
X006615Y016093D01*
X006549Y015934D01*
X006426Y015811D01*
X006267Y015745D01*
X006093Y015745D01*
X006052Y015762D02*
X003308Y015762D01*
X003536Y015921D02*
X005824Y015921D01*
X005751Y016079D02*
X003609Y016079D01*
X003615Y016238D02*
X005745Y016238D01*
X005799Y016396D02*
X003561Y016396D01*
X003413Y016555D02*
X005947Y016555D01*
X006093Y016745D02*
X005934Y016811D01*
X005811Y016934D01*
X005745Y017093D01*
X005745Y017267D01*
X005811Y017426D01*
X005845Y017460D01*
X005271Y017460D01*
X004771Y016960D01*
X003615Y016960D01*
X003615Y016827D01*
X003533Y016745D01*
X002827Y016745D01*
X002745Y016827D01*
X002745Y017533D01*
X002827Y017615D01*
X003533Y017615D01*
X003615Y017533D01*
X003615Y017400D01*
X004589Y017400D01*
X004960Y017771D01*
X004960Y017771D01*
X005089Y017900D01*
X008685Y017900D01*
X009785Y016799D01*
X009914Y016670D01*
X009914Y015900D01*
X013719Y015900D01*
X013735Y015884D01*
X013785Y015863D01*
X013808Y015863D01*
X015732Y013939D01*
X015827Y013900D01*
X015900Y013827D01*
X015939Y013732D01*
X015939Y013628D01*
X015900Y013533D01*
X015827Y013460D01*
X015732Y013421D01*
X015628Y013421D01*
X015533Y013460D01*
X015460Y013533D01*
X015421Y013628D01*
X013589Y015460D01*
X009590Y015460D01*
X009462Y015589D01*
X009462Y015771D01*
X009474Y015784D01*
X009474Y016488D01*
X008502Y017460D01*
X006515Y017460D01*
X006549Y017426D01*
X006615Y017267D01*
X006615Y017093D01*
X006549Y016934D01*
X006426Y016811D01*
X006267Y016745D01*
X006093Y016745D01*
X005873Y016872D02*
X003615Y016872D01*
X003180Y017180D02*
X004680Y017180D01*
X005180Y017680D01*
X008593Y017680D01*
X009694Y016579D01*
X009694Y015693D01*
X009682Y015680D01*
X013628Y015680D01*
X013717Y015643D02*
X015680Y013680D01*
X015866Y013860D02*
X016879Y013860D01*
X016721Y013702D02*
X015939Y013702D01*
X015904Y013543D02*
X016562Y013543D01*
X016404Y013385D02*
X008175Y013385D01*
X008175Y013430D02*
X008175Y013225D01*
X007885Y012935D01*
X007680Y012935D01*
X007680Y013430D01*
X007680Y013430D01*
X007680Y013925D01*
X007885Y013925D01*
X008175Y013635D01*
X008175Y013430D01*
X007680Y013430D01*
X007680Y013430D01*
X007680Y013430D01*
X007185Y013430D01*
X007185Y013635D01*
X007475Y013925D01*
X007680Y013925D01*
X007680Y013430D01*
X008175Y013430D01*
X008175Y013543D02*
X015456Y013543D01*
X015347Y013702D02*
X008109Y013702D01*
X007950Y013860D02*
X015189Y013860D01*
X015030Y014019D02*
X007330Y014019D01*
X007410Y013860D02*
X007171Y013860D01*
X007251Y013702D02*
X007013Y013702D01*
X006854Y013543D02*
X007185Y013543D01*
X007185Y013430D02*
X007185Y013225D01*
X007475Y012935D01*
X007680Y012935D01*
X007680Y013430D01*
X007680Y013430D01*
X007185Y013430D01*
X007185Y013385D02*
X006696Y013385D01*
X006615Y013226D02*
X007185Y013226D01*
X007342Y013068D02*
X006604Y013068D01*
X006524Y012909D02*
X015928Y012909D01*
X015770Y012751D02*
X008003Y012751D01*
X008135Y012618D02*
X008135Y012286D01*
X009521Y010900D01*
X011220Y010900D01*
X011248Y010969D01*
X011392Y011112D01*
X011579Y011190D01*
X011782Y011190D01*
X011969Y011112D01*
X012113Y010969D01*
X012190Y010781D01*
X012190Y010579D01*
X012113Y010391D01*
X011969Y010248D01*
X011782Y010170D01*
X011579Y010170D01*
X011392Y010248D01*
X011248Y010391D01*
X011220Y010460D01*
X009339Y010460D01*
X008175Y011624D01*
X008175Y011430D01*
X007680Y011430D01*
X007680Y011430D01*
X007680Y011430D01*
X007680Y011925D01*
X007874Y011925D01*
X007824Y011975D01*
X007492Y011975D01*
X007225Y012242D01*
X007225Y012618D01*
X007492Y012885D01*
X007868Y012885D01*
X008135Y012618D01*
X008135Y012592D02*
X015611Y012592D01*
X015453Y012434D02*
X008135Y012434D01*
X008146Y012275D02*
X015294Y012275D01*
X015136Y012117D02*
X008305Y012117D01*
X008463Y011958D02*
X014977Y011958D01*
X014819Y011800D02*
X008622Y011800D01*
X008780Y011641D02*
X014660Y011641D01*
X014502Y011483D02*
X008939Y011483D01*
X009097Y011324D02*
X014343Y011324D01*
X014185Y011166D02*
X013341Y011166D01*
X013575Y011007D02*
X014026Y011007D01*
X013868Y010849D02*
X013663Y010849D01*
X013690Y010690D02*
X013709Y010690D01*
X014195Y010215D02*
X015153Y010215D01*
X015312Y010373D02*
X014354Y010373D01*
X014512Y010532D02*
X015470Y010532D01*
X015629Y010690D02*
X014671Y010690D01*
X014829Y010849D02*
X015787Y010849D01*
X015946Y011007D02*
X014988Y011007D01*
X015146Y011166D02*
X016104Y011166D01*
X016263Y011324D02*
X015305Y011324D01*
X015463Y011483D02*
X016421Y011483D01*
X016580Y011641D02*
X015622Y011641D01*
X015780Y011800D02*
X016738Y011800D01*
X016897Y011958D02*
X015939Y011958D01*
X016097Y012117D02*
X017055Y012117D01*
X017214Y012275D02*
X016256Y012275D01*
X016414Y012434D02*
X017372Y012434D01*
X017476Y012592D02*
X016573Y012592D01*
X016469Y012488D02*
X016469Y012488D01*
X016731Y012751D02*
X020032Y012751D01*
X020032Y012909D02*
X016890Y012909D01*
X017048Y013068D02*
X020032Y013068D01*
X020032Y013226D02*
X017207Y013226D01*
X017365Y013385D02*
X020032Y013385D01*
X020032Y013543D02*
X017524Y013543D01*
X017682Y013702D02*
X020032Y013702D01*
X020032Y013860D02*
X017841Y013860D01*
X017999Y014019D02*
X020032Y014019D01*
X020032Y014177D02*
X018158Y014177D01*
X018316Y014336D02*
X020032Y014336D01*
X020032Y014494D02*
X018475Y014494D01*
X018633Y014653D02*
X020032Y014653D01*
X020032Y014811D02*
X018792Y014811D01*
X018950Y014970D02*
X020032Y014970D01*
X020032Y015128D02*
X019109Y015128D01*
X019267Y015287D02*
X020032Y015287D01*
X020032Y015445D02*
X019426Y015445D01*
X019584Y015604D02*
X020032Y015604D01*
X020032Y015762D02*
X019728Y015762D01*
X019770Y015921D02*
X020032Y015921D01*
X020032Y016079D02*
X019770Y016079D01*
X019770Y016238D02*
X020032Y016238D01*
X020032Y016396D02*
X019770Y016396D01*
X019770Y016555D02*
X020032Y016555D01*
X020032Y016713D02*
X019770Y016713D01*
X019770Y016872D02*
X020032Y016872D01*
X020032Y017030D02*
X019770Y017030D01*
X019770Y017189D02*
X020032Y017189D01*
X020032Y017347D02*
X019770Y017347D01*
X019770Y017506D02*
X020032Y017506D01*
X020032Y017664D02*
X019770Y017664D01*
X019770Y017823D02*
X020032Y017823D01*
X020032Y017981D02*
X019874Y017981D01*
X019885Y018140D02*
X020032Y018140D01*
X020032Y018298D02*
X019885Y018298D01*
X019797Y018457D02*
X020032Y018457D01*
X020032Y018615D02*
X019638Y018615D01*
X019222Y018615D02*
X018695Y018615D01*
X018635Y018675D02*
X018430Y018675D01*
X018430Y018180D01*
X018925Y018180D01*
X018925Y018385D01*
X018635Y018675D01*
X018430Y018675D02*
X018225Y018675D01*
X017935Y018385D01*
X017935Y018180D01*
X018430Y018180D01*
X018430Y018180D01*
X018430Y018180D01*
X018925Y018180D01*
X018925Y017975D01*
X018635Y017685D01*
X018430Y017685D01*
X018430Y018180D01*
X018430Y018180D01*
X018430Y018180D01*
X018430Y018675D01*
X018430Y018615D02*
X018430Y018615D01*
X018430Y018457D02*
X018430Y018457D01*
X018430Y018298D02*
X018430Y018298D01*
X018430Y018180D02*
X017935Y018180D01*
X017935Y017975D01*
X018225Y017685D01*
X018430Y017685D01*
X018430Y018180D01*
X018430Y018140D02*
X018430Y018140D01*
X018430Y017981D02*
X018430Y017981D01*
X018430Y017823D02*
X018430Y017823D01*
X018773Y017823D02*
X019090Y017823D01*
X019090Y017664D02*
X008920Y017664D01*
X008762Y017823D02*
X018087Y017823D01*
X017935Y017981D02*
X000820Y017981D01*
X000820Y017823D02*
X005011Y017823D01*
X004853Y017664D02*
X000820Y017664D01*
X000820Y017506D02*
X002745Y017506D01*
X002745Y017347D02*
X000820Y017347D01*
X000820Y017189D02*
X001198Y017189D01*
X001412Y017189D02*
X002745Y017189D01*
X002745Y017030D02*
X001677Y017030D01*
X001778Y016872D02*
X002745Y016872D01*
X002947Y016555D02*
X001805Y016555D01*
X001815Y016713D02*
X007402Y016713D01*
X007560Y016872D02*
X006487Y016872D01*
X006589Y017030D02*
X007935Y017030D01*
X008201Y017189D02*
X006615Y017189D01*
X006582Y017347D02*
X008615Y017347D01*
X008774Y017189D02*
X008411Y017189D01*
X008677Y017030D02*
X008932Y017030D01*
X008779Y016872D02*
X009091Y016872D01*
X009249Y016713D02*
X008816Y016713D01*
X008806Y016555D02*
X009408Y016555D01*
X009474Y016396D02*
X008740Y016396D01*
X008570Y016238D02*
X009474Y016238D01*
X009474Y016079D02*
X008628Y016079D01*
X008758Y015921D02*
X009474Y015921D01*
X009462Y015762D02*
X008816Y015762D01*
X008816Y015604D02*
X009462Y015604D01*
X009914Y015921D02*
X018940Y015921D01*
X019090Y016079D02*
X009914Y016079D01*
X009914Y016238D02*
X019090Y016238D01*
X019090Y016396D02*
X009914Y016396D01*
X009914Y016555D02*
X019090Y016555D01*
X019090Y016713D02*
X009871Y016713D01*
X009713Y016872D02*
X019090Y016872D01*
X019090Y017030D02*
X009554Y017030D01*
X009396Y017189D02*
X019090Y017189D01*
X019090Y017347D02*
X009237Y017347D01*
X009079Y017506D02*
X019090Y017506D01*
X018986Y017981D02*
X018925Y017981D01*
X018925Y018140D02*
X018975Y018140D01*
X018975Y018298D02*
X018925Y018298D01*
X018854Y018457D02*
X019063Y018457D01*
X019301Y019268D02*
X019387Y019255D01*
X019410Y019255D01*
X019410Y019785D01*
X018880Y019785D01*
X018880Y019762D01*
X018894Y019676D01*
X018920Y019594D01*
X018960Y019517D01*
X019010Y019447D01*
X019072Y019385D01*
X019142Y019334D01*
X019219Y019295D01*
X019301Y019268D01*
X019450Y019255D02*
X019473Y019255D01*
X019559Y019268D01*
X019641Y019295D01*
X019718Y019334D01*
X019788Y019385D01*
X019850Y019447D01*
X019900Y019517D01*
X019940Y019594D01*
X019966Y019676D01*
X019980Y019762D01*
X019980Y019785D01*
X019450Y019785D01*
X019450Y019825D01*
X019410Y019825D01*
X019410Y020355D01*
X019387Y020355D01*
X019301Y020341D01*
X019219Y020315D01*
X019142Y020275D01*
X019072Y020224D01*
X019010Y020163D01*
X018960Y020093D01*
X018920Y020016D01*
X018894Y019934D01*
X018880Y019848D01*
X018880Y019825D01*
X019410Y019825D01*
X019410Y019785D01*
X019450Y019785D01*
X019450Y019255D01*
X019450Y019408D02*
X019410Y019408D01*
X019410Y019566D02*
X019450Y019566D01*
X019450Y019725D02*
X019410Y019725D01*
X019450Y019825D02*
X019980Y019825D01*
X019980Y019848D01*
X019966Y019934D01*
X019940Y020016D01*
X019900Y020093D01*
X019850Y020163D01*
X019788Y020224D01*
X019718Y020275D01*
X019641Y020315D01*
X019559Y020341D01*
X019473Y020355D01*
X019450Y020355D01*
X019450Y019825D01*
X019450Y019883D02*
X019410Y019883D01*
X019410Y020042D02*
X019450Y020042D01*
X019450Y020200D02*
X019410Y020200D01*
X019620Y020359D02*
X012511Y020359D01*
X012511Y020200D02*
X019047Y020200D01*
X018933Y020042D02*
X012511Y020042D01*
X012511Y019883D02*
X018886Y019883D01*
X018886Y019725D02*
X011886Y019725D01*
X011886Y019642D02*
X012511Y019642D01*
X012511Y018873D01*
X012499Y018828D01*
X012475Y018787D01*
X012441Y018753D01*
X012400Y018729D01*
X012355Y018717D01*
X011886Y018717D01*
X011886Y019642D01*
X011886Y019566D02*
X011726Y019566D01*
X011726Y019642D02*
X011726Y018717D01*
X011257Y018717D01*
X011211Y018729D01*
X011170Y018753D01*
X011137Y018787D01*
X011113Y018828D01*
X011101Y018873D01*
X011101Y019642D01*
X011726Y019642D01*
X011726Y019725D02*
X010957Y019725D01*
X010939Y019770D02*
X011030Y019549D01*
X011030Y019311D01*
X010939Y019090D01*
X010770Y018921D01*
X010549Y018830D01*
X010311Y018830D01*
X010090Y018921D01*
X009921Y019090D01*
X009830Y019311D01*
X009830Y019549D01*
X009921Y019770D01*
X010090Y019939D01*
X010311Y020030D01*
X010549Y020030D01*
X010770Y019939D01*
X010939Y019770D01*
X010825Y019883D02*
X011101Y019883D01*
X011101Y020042D02*
X009759Y020042D01*
X009759Y020200D02*
X011101Y020200D01*
X011101Y020359D02*
X009759Y020359D01*
X009759Y019883D02*
X010035Y019883D01*
X009903Y019725D02*
X009134Y019725D01*
X009134Y019566D02*
X008974Y019566D01*
X008974Y019642D02*
X008974Y018717D01*
X008505Y018717D01*
X008460Y018729D01*
X008419Y018753D01*
X008385Y018787D01*
X008361Y018828D01*
X008349Y018873D01*
X008349Y019642D01*
X008974Y019642D01*
X008974Y019725D02*
X001974Y019725D01*
X001980Y019762D02*
X001980Y019785D01*
X001450Y019785D01*
X001450Y019825D01*
X001410Y019825D01*
X001410Y020355D01*
X001387Y020355D01*
X001301Y020341D01*
X001219Y020315D01*
X001142Y020275D01*
X001072Y020224D01*
X001010Y020163D01*
X000960Y020093D01*
X000920Y020016D01*
X000894Y019934D01*
X000880Y019848D01*
X000880Y019825D01*
X001410Y019825D01*
X001410Y019785D01*
X000880Y019785D01*
X000880Y019762D01*
X000894Y019676D01*
X000920Y019594D01*
X000960Y019517D01*
X001010Y019447D01*
X001072Y019385D01*
X001142Y019334D01*
X001219Y019295D01*
X001301Y019268D01*
X001387Y019255D01*
X001410Y019255D01*
X001410Y019785D01*
X001450Y019785D01*
X001450Y019255D01*
X001473Y019255D01*
X001559Y019268D01*
X001641Y019295D01*
X001718Y019334D01*
X001788Y019385D01*
X001850Y019447D01*
X001900Y019517D01*
X001940Y019594D01*
X001966Y019676D01*
X001980Y019762D01*
X001980Y019825D02*
X001980Y019848D01*
X001966Y019934D01*
X001940Y020016D01*
X001900Y020093D01*
X001850Y020163D01*
X001788Y020224D01*
X001718Y020275D01*
X001641Y020315D01*
X001559Y020341D01*
X001473Y020355D01*
X001450Y020355D01*
X001450Y019825D01*
X001980Y019825D01*
X001974Y019883D02*
X008349Y019883D01*
X008349Y020042D02*
X001927Y020042D01*
X001813Y020200D02*
X008349Y020200D01*
X008349Y020359D02*
X001232Y020359D01*
X001410Y020200D02*
X001450Y020200D01*
X001450Y020042D02*
X001410Y020042D01*
X001410Y019883D02*
X001450Y019883D01*
X001450Y019725D02*
X001410Y019725D01*
X001410Y019566D02*
X001450Y019566D01*
X001450Y019408D02*
X001410Y019408D01*
X001049Y019408D02*
X000820Y019408D01*
X000820Y019566D02*
X000934Y019566D01*
X000886Y019725D02*
X000820Y019725D01*
X000834Y019883D02*
X000886Y019883D01*
X000886Y020042D02*
X000933Y020042D01*
X000995Y020200D02*
X001047Y020200D01*
X000820Y019249D02*
X008349Y019249D01*
X008349Y019091D02*
X000820Y019091D01*
X000820Y018932D02*
X008349Y018932D01*
X008398Y018774D02*
X000820Y018774D01*
X000820Y018615D02*
X018165Y018615D01*
X018006Y018457D02*
X000820Y018457D01*
X000820Y018298D02*
X017935Y018298D01*
X017935Y018140D02*
X000820Y018140D01*
X000820Y017030D02*
X000933Y017030D01*
X000832Y016872D02*
X000820Y016872D01*
X001305Y016681D02*
X001806Y016180D01*
X003180Y016180D01*
X002830Y015445D02*
X001852Y015445D01*
X001806Y015180D02*
X003180Y015180D01*
X003564Y014970D02*
X005796Y014970D01*
X005745Y015128D02*
X003615Y015128D01*
X003607Y015287D02*
X005753Y015287D01*
X005830Y015445D02*
X003530Y015445D01*
X003426Y014811D02*
X003267Y014745D01*
X003093Y014745D01*
X002934Y014811D01*
X003180Y014180D02*
X004680Y012680D01*
X004680Y010680D01*
X005680Y009680D01*
X010930Y009680D01*
X011170Y009581D02*
X012600Y009581D01*
X012758Y009739D02*
X011186Y009739D01*
X011079Y009898D02*
X012917Y009898D01*
X013075Y010056D02*
X007949Y010056D01*
X007868Y009975D02*
X008135Y010242D01*
X008135Y010618D01*
X007868Y010885D01*
X007492Y010885D01*
X007225Y010618D01*
X007225Y010242D01*
X007492Y009975D01*
X007868Y009975D01*
X008108Y010215D02*
X011471Y010215D01*
X011266Y010373D02*
X008135Y010373D01*
X008135Y010532D02*
X009267Y010532D01*
X009430Y010680D02*
X007680Y012430D01*
X007350Y012117D02*
X006615Y012117D01*
X006615Y012093D02*
X006549Y011934D01*
X006426Y011811D01*
X006267Y011745D01*
X006093Y011745D01*
X005934Y011811D01*
X005811Y011934D01*
X005745Y012093D01*
X005745Y012267D01*
X005811Y012426D01*
X005934Y012549D01*
X006093Y012615D01*
X006267Y012615D01*
X006426Y012549D01*
X006549Y012426D01*
X006615Y012267D01*
X006615Y012093D01*
X006559Y011958D02*
X007841Y011958D01*
X007680Y011925D02*
X007475Y011925D01*
X007185Y011635D01*
X007185Y011430D01*
X007680Y011430D01*
X008175Y011430D01*
X008175Y011225D01*
X007885Y010935D01*
X007680Y010935D01*
X007680Y011430D01*
X007680Y011430D01*
X007680Y011430D01*
X007680Y011925D01*
X007680Y011800D02*
X007680Y011800D01*
X007680Y011641D02*
X007680Y011641D01*
X007680Y011483D02*
X007680Y011483D01*
X007680Y011430D02*
X007185Y011430D01*
X007185Y011225D01*
X007475Y010935D01*
X007680Y010935D01*
X007680Y011430D01*
X007680Y011324D02*
X007680Y011324D01*
X007680Y011166D02*
X007680Y011166D01*
X007680Y011007D02*
X007680Y011007D01*
X007455Y010849D02*
X006520Y010849D01*
X006542Y010871D02*
X006586Y010931D01*
X006620Y010998D01*
X006643Y011069D01*
X006655Y011143D01*
X006655Y011162D01*
X006198Y011162D01*
X006198Y011198D01*
X006655Y011198D01*
X006655Y011217D01*
X006643Y011291D01*
X006620Y011362D01*
X006586Y011429D01*
X006542Y011489D01*
X006489Y011542D01*
X006429Y011586D01*
X006362Y011620D01*
X006291Y011643D01*
X006217Y011655D01*
X006198Y011655D01*
X006198Y011198D01*
X006162Y011198D01*
X006162Y011655D01*
X006143Y011655D01*
X006069Y011643D01*
X005998Y011620D01*
X005931Y011586D01*
X005871Y011542D01*
X005818Y011489D01*
X005774Y011429D01*
X005740Y011362D01*
X005717Y011291D01*
X005705Y011217D01*
X005705Y011198D01*
X006162Y011198D01*
X006162Y011162D01*
X006198Y011162D01*
X006198Y010705D01*
X006217Y010705D01*
X006291Y010717D01*
X006362Y010740D01*
X006429Y010774D01*
X006489Y010818D01*
X006542Y010871D01*
X006623Y011007D02*
X007403Y011007D01*
X007244Y011166D02*
X006198Y011166D01*
X006162Y011166D02*
X004900Y011166D01*
X004900Y011324D02*
X005727Y011324D01*
X005705Y011162D02*
X005705Y011143D01*
X005717Y011069D01*
X005740Y010998D01*
X005774Y010931D01*
X005818Y010871D01*
X005871Y010818D01*
X005931Y010774D01*
X005998Y010740D01*
X006069Y010717D01*
X006143Y010705D01*
X006162Y010705D01*
X006162Y011162D01*
X005705Y011162D01*
X005737Y011007D02*
X004900Y011007D01*
X004900Y010849D02*
X005840Y010849D01*
X006162Y010849D02*
X006198Y010849D01*
X006198Y011007D02*
X006162Y011007D01*
X006162Y011324D02*
X006198Y011324D01*
X006198Y011483D02*
X006162Y011483D01*
X006162Y011641D02*
X006198Y011641D01*
X006298Y011641D02*
X007191Y011641D01*
X007185Y011483D02*
X006547Y011483D01*
X006633Y011324D02*
X007185Y011324D01*
X007349Y011800D02*
X006398Y011800D01*
X006062Y011641D02*
X004900Y011641D01*
X004900Y011483D02*
X005813Y011483D01*
X005962Y011800D02*
X004900Y011800D01*
X004900Y011958D02*
X005801Y011958D01*
X005745Y012117D02*
X004900Y012117D01*
X004900Y012275D02*
X005749Y012275D01*
X005818Y012434D02*
X004900Y012434D01*
X004900Y012592D02*
X006038Y012592D01*
X006080Y012751D02*
X004900Y012751D01*
X004762Y012909D02*
X005836Y012909D01*
X005756Y013068D02*
X004604Y013068D01*
X004445Y013226D02*
X005745Y013226D01*
X005794Y013385D02*
X004287Y013385D01*
X004128Y013543D02*
X005928Y013543D01*
X005885Y013860D02*
X003811Y013860D01*
X003653Y014019D02*
X005776Y014019D01*
X005745Y014177D02*
X003615Y014177D01*
X003586Y014336D02*
X005774Y014336D01*
X005879Y014494D02*
X003481Y014494D01*
X003970Y013702D02*
X006390Y013702D01*
X006475Y013860D02*
X006549Y013860D01*
X006584Y014019D02*
X006707Y014019D01*
X006615Y014177D02*
X006866Y014177D01*
X007024Y014336D02*
X006647Y014336D01*
X006805Y014494D02*
X007183Y014494D01*
X007341Y014653D02*
X006964Y014653D01*
X007122Y014811D02*
X007500Y014811D01*
X007680Y014680D02*
X006180Y013180D01*
X006280Y012751D02*
X007357Y012751D01*
X007225Y012592D02*
X006322Y012592D01*
X006542Y012434D02*
X007225Y012434D01*
X007225Y012275D02*
X006611Y012275D01*
X007680Y013068D02*
X007680Y013068D01*
X007680Y013226D02*
X007680Y013226D01*
X007680Y013385D02*
X007680Y013385D01*
X007680Y013543D02*
X007680Y013543D01*
X007680Y013702D02*
X007680Y013702D01*
X007680Y013860D02*
X007680Y013860D01*
X007488Y014177D02*
X008188Y014177D01*
X008424Y014177D02*
X014872Y014177D01*
X014713Y014336D02*
X008683Y014336D01*
X008781Y014494D02*
X014555Y014494D01*
X014396Y014653D02*
X008816Y014653D01*
X008804Y014811D02*
X014238Y014811D01*
X014079Y014970D02*
X008738Y014970D01*
X008557Y015128D02*
X013921Y015128D01*
X013762Y015287D02*
X008634Y015287D01*
X008761Y015445D02*
X013604Y015445D01*
X013716Y015643D02*
X013701Y015656D01*
X013685Y015666D01*
X013667Y015674D01*
X013648Y015678D01*
X013628Y015680D01*
X013909Y015762D02*
X018781Y015762D01*
X018623Y015604D02*
X014068Y015604D01*
X014226Y015445D02*
X018464Y015445D01*
X018306Y015287D02*
X014385Y015287D01*
X014543Y015128D02*
X018147Y015128D01*
X017989Y014970D02*
X014702Y014970D01*
X014860Y014811D02*
X017830Y014811D01*
X017672Y014653D02*
X015019Y014653D01*
X015177Y014494D02*
X017513Y014494D01*
X017355Y014336D02*
X015336Y014336D01*
X015494Y014177D02*
X017196Y014177D01*
X017038Y014019D02*
X015653Y014019D01*
X016245Y013226D02*
X008175Y013226D01*
X008018Y013068D02*
X016087Y013068D01*
X017361Y011800D02*
X020032Y011800D01*
X020032Y011958D02*
X017519Y011958D01*
X017678Y012117D02*
X020032Y012117D01*
X020032Y012275D02*
X017891Y012275D01*
X017939Y012434D02*
X020032Y012434D01*
X020032Y012592D02*
X017884Y012592D01*
X017680Y012430D02*
X014930Y009680D01*
X013930Y009680D01*
X013690Y009581D02*
X013561Y009581D01*
X013403Y009422D02*
X013875Y009422D01*
X013984Y009422D02*
X017080Y009422D01*
X017086Y009408D02*
X017158Y009335D01*
X017253Y009296D01*
X017670Y008879D01*
X017670Y008469D01*
X017949Y008190D01*
X017869Y008190D01*
X017570Y007891D01*
X017570Y007469D01*
X017659Y007380D01*
X015971Y007380D01*
X015951Y007400D01*
X015856Y007439D01*
X015753Y007439D01*
X015658Y007400D01*
X015585Y007327D01*
X015545Y007232D01*
X015545Y007128D01*
X015585Y007033D01*
X015658Y006960D01*
X015753Y006921D01*
X015856Y006921D01*
X015951Y006960D01*
X015971Y006980D01*
X017759Y006980D01*
X017670Y006891D01*
X017670Y006469D01*
X017969Y006170D01*
X018391Y006170D01*
X018652Y006430D01*
X018952Y006130D01*
X019160Y006130D01*
X019160Y006660D01*
X019200Y006660D01*
X019200Y006700D01*
X019730Y006700D01*
X019730Y006908D01*
X019408Y007230D01*
X019351Y007230D01*
X019590Y007469D01*
X019590Y007891D01*
X019311Y008170D01*
X019391Y008170D01*
X019690Y008469D01*
X019690Y008891D01*
X019391Y009190D01*
X018969Y009190D01*
X018680Y008901D01*
X018391Y009190D01*
X017981Y009190D01*
X017564Y009607D01*
X017525Y009702D01*
X017452Y009774D01*
X017357Y009814D01*
X017254Y009814D01*
X017158Y009774D01*
X017086Y009702D01*
X017046Y009606D01*
X017046Y009503D01*
X017086Y009408D01*
X017046Y009581D02*
X015142Y009581D01*
X015150Y009589D02*
X015150Y009589D01*
X015300Y009739D02*
X017123Y009739D01*
X017305Y009555D02*
X018180Y008680D01*
X017826Y008313D02*
X012293Y008313D01*
X012452Y008471D02*
X017670Y008471D01*
X017670Y008630D02*
X012610Y008630D01*
X012769Y008788D02*
X017670Y008788D01*
X017602Y008947D02*
X012927Y008947D01*
X013086Y009105D02*
X017444Y009105D01*
X017285Y009264D02*
X013244Y009264D01*
X012441Y009422D02*
X010985Y009422D01*
X010876Y009422D02*
X006551Y009422D01*
X006615Y009264D02*
X012283Y009264D01*
X012124Y009105D02*
X006736Y009105D01*
X006894Y008947D02*
X011966Y008947D01*
X011807Y008788D02*
X007053Y008788D01*
X007211Y008630D02*
X011649Y008630D01*
X011490Y008471D02*
X007370Y008471D01*
X007528Y008313D02*
X011332Y008313D01*
X011173Y008154D02*
X007687Y008154D01*
X007845Y007996D02*
X011015Y007996D01*
X010856Y007837D02*
X008004Y007837D01*
X008162Y007679D02*
X010698Y007679D01*
X010539Y007520D02*
X008321Y007520D01*
X008479Y007362D02*
X010381Y007362D01*
X010222Y007203D02*
X008638Y007203D01*
X008796Y007045D02*
X010064Y007045D01*
X009905Y006886D02*
X008955Y006886D01*
X009113Y006728D02*
X009747Y006728D01*
X009588Y006569D02*
X009272Y006569D01*
X008786Y006094D02*
X006615Y006094D01*
X006615Y006252D02*
X008627Y006252D01*
X008469Y006411D02*
X006555Y006411D01*
X006378Y006569D02*
X008310Y006569D01*
X008944Y005935D02*
X006549Y005935D01*
X006905Y005618D02*
X001942Y005618D01*
X001995Y004509D02*
X002893Y004509D01*
X002780Y004350D02*
X002135Y004350D01*
X002135Y004192D02*
X002745Y004192D01*
X002770Y004033D02*
X002135Y004033D01*
X002018Y003875D02*
X002870Y003875D01*
X002024Y003558D02*
X004496Y003558D01*
X004430Y003180D02*
X005430Y004180D01*
X005436Y003875D02*
X005870Y003875D01*
X006490Y003875D02*
X009090Y003875D01*
X009090Y004033D02*
X006590Y004033D01*
X006615Y004192D02*
X009090Y004192D01*
X009090Y004350D02*
X006580Y004350D01*
X006467Y004509D02*
X009090Y004509D01*
X009770Y004826D02*
X010813Y004826D01*
X011180Y005180D02*
X009430Y005180D01*
X009770Y005460D02*
X010744Y005460D01*
X010905Y005618D02*
X009770Y005618D01*
X009770Y005777D02*
X014460Y005777D01*
X014460Y005935D02*
X009916Y005935D01*
X010074Y006094D02*
X014460Y006094D01*
X014460Y006252D02*
X013474Y006252D01*
X013621Y006411D02*
X014460Y006411D01*
X014680Y006680D02*
X013180Y006680D01*
X012824Y007045D02*
X012094Y007045D01*
X012100Y007038D02*
X012039Y007100D01*
X011969Y007150D01*
X011892Y007190D01*
X011809Y007216D01*
X011724Y007230D01*
X011689Y007230D01*
X011689Y006689D01*
X011672Y006689D01*
X011672Y007230D01*
X011637Y007230D01*
X011552Y007216D01*
X011469Y007190D01*
X011392Y007150D01*
X011322Y007100D01*
X011261Y007038D01*
X011210Y006968D01*
X011171Y006891D01*
X011144Y006809D01*
X011130Y006723D01*
X011130Y006689D01*
X011672Y006689D01*
X011672Y006671D01*
X011689Y006671D01*
X011689Y006130D01*
X011724Y006130D01*
X011809Y006144D01*
X011892Y006170D01*
X011969Y006210D01*
X012039Y006260D01*
X012100Y006322D01*
X012151Y006392D01*
X012190Y006469D01*
X012217Y006551D01*
X012230Y006637D01*
X012230Y006671D01*
X011689Y006671D01*
X011689Y006689D01*
X012230Y006689D01*
X012230Y006723D01*
X012217Y006809D01*
X012190Y006891D01*
X012151Y006968D01*
X012100Y007038D01*
X012192Y006886D02*
X012714Y006886D01*
X012670Y006728D02*
X012230Y006728D01*
X012220Y006569D02*
X012674Y006569D01*
X012740Y006411D02*
X012160Y006411D01*
X012027Y006252D02*
X012887Y006252D01*
X013537Y007045D02*
X015580Y007045D01*
X015545Y007203D02*
X011851Y007203D01*
X011689Y007203D02*
X011672Y007203D01*
X011672Y007045D02*
X011689Y007045D01*
X011672Y006886D02*
X011689Y006886D01*
X011672Y006728D02*
X011689Y006728D01*
X011672Y006671D02*
X011130Y006671D01*
X011130Y006637D01*
X011144Y006551D01*
X011171Y006469D01*
X011210Y006392D01*
X011261Y006322D01*
X011322Y006260D01*
X011392Y006210D01*
X011469Y006170D01*
X011552Y006144D01*
X011637Y006130D01*
X011672Y006130D01*
X011672Y006671D01*
X011672Y006569D02*
X011689Y006569D01*
X011672Y006411D02*
X011689Y006411D01*
X011672Y006252D02*
X011689Y006252D01*
X011334Y006252D02*
X010233Y006252D01*
X010391Y006411D02*
X011200Y006411D01*
X011141Y006569D02*
X010550Y006569D01*
X010708Y006728D02*
X011131Y006728D01*
X011169Y006886D02*
X010867Y006886D01*
X011025Y007045D02*
X011267Y007045D01*
X011184Y007203D02*
X011510Y007203D01*
X011342Y007362D02*
X015620Y007362D01*
X014900Y006728D02*
X017670Y006728D01*
X017670Y006886D02*
X014785Y006886D01*
X014680Y006680D02*
X014680Y003180D01*
X015115Y003241D02*
X015725Y003241D01*
X015725Y003368D02*
X015725Y002992D01*
X015992Y002725D01*
X016368Y002725D01*
X016635Y002992D01*
X016635Y003368D01*
X016368Y003635D01*
X015992Y003635D01*
X015725Y003368D01*
X015756Y003399D02*
X015115Y003399D01*
X015090Y003558D02*
X015914Y003558D01*
X015975Y003685D02*
X015685Y003975D01*
X015685Y004180D01*
X016180Y004180D01*
X016180Y004180D01*
X016180Y004675D01*
X016385Y004675D01*
X016675Y004385D01*
X016675Y004180D01*
X016180Y004180D01*
X016180Y004180D01*
X016180Y004180D01*
X016180Y004675D01*
X015975Y004675D01*
X015685Y004385D01*
X015685Y004180D01*
X016180Y004180D01*
X016675Y004180D01*
X016675Y003975D01*
X016385Y003685D01*
X016180Y003685D01*
X016180Y004180D01*
X016180Y004180D01*
X016180Y003685D01*
X015975Y003685D01*
X015944Y003716D02*
X014900Y003716D01*
X014900Y003875D02*
X015785Y003875D01*
X015685Y004033D02*
X014900Y004033D01*
X014900Y004192D02*
X015685Y004192D01*
X015685Y004350D02*
X014900Y004350D01*
X014900Y004509D02*
X015808Y004509D01*
X015967Y004667D02*
X014900Y004667D01*
X014900Y004826D02*
X020032Y004826D01*
X020032Y004984D02*
X014900Y004984D01*
X014900Y005143D02*
X020032Y005143D01*
X020032Y005301D02*
X014900Y005301D01*
X014900Y005460D02*
X020032Y005460D01*
X020032Y005618D02*
X014900Y005618D01*
X014900Y005777D02*
X020032Y005777D01*
X020032Y005935D02*
X014900Y005935D01*
X014900Y006094D02*
X020032Y006094D01*
X020032Y006252D02*
X019530Y006252D01*
X019408Y006130D02*
X019730Y006452D01*
X019730Y006660D01*
X019200Y006660D01*
X019200Y006130D01*
X019408Y006130D01*
X019200Y006252D02*
X019160Y006252D01*
X019160Y006411D02*
X019200Y006411D01*
X019200Y006569D02*
X019160Y006569D01*
X018830Y006252D02*
X018473Y006252D01*
X018632Y006411D02*
X018672Y006411D01*
X019435Y007203D02*
X020032Y007203D01*
X020032Y007045D02*
X019593Y007045D01*
X019730Y006886D02*
X020032Y006886D01*
X020032Y006728D02*
X019730Y006728D01*
X019730Y006569D02*
X020032Y006569D01*
X020032Y006411D02*
X019688Y006411D01*
X019483Y007362D02*
X020032Y007362D01*
X020032Y007520D02*
X019590Y007520D01*
X019590Y007679D02*
X020032Y007679D01*
X020032Y007837D02*
X019590Y007837D01*
X019486Y007996D02*
X020032Y007996D01*
X020032Y008154D02*
X019327Y008154D01*
X019534Y008313D02*
X020032Y008313D01*
X020032Y008471D02*
X019690Y008471D01*
X019690Y008630D02*
X020032Y008630D01*
X020032Y008788D02*
X019690Y008788D01*
X019635Y008947D02*
X020032Y008947D01*
X020032Y009105D02*
X019476Y009105D01*
X020032Y009264D02*
X017908Y009264D01*
X017749Y009422D02*
X020032Y009422D01*
X020032Y009581D02*
X017591Y009581D01*
X017487Y009739D02*
X020032Y009739D01*
X020032Y009898D02*
X015459Y009898D01*
X015617Y010056D02*
X020032Y010056D01*
X020032Y010215D02*
X015776Y010215D01*
X015934Y010373D02*
X020032Y010373D01*
X020032Y010532D02*
X016093Y010532D01*
X016251Y010690D02*
X020032Y010690D01*
X020032Y010849D02*
X016410Y010849D01*
X016568Y011007D02*
X020032Y011007D01*
X020032Y011166D02*
X016727Y011166D01*
X016885Y011324D02*
X020032Y011324D01*
X020032Y011483D02*
X017044Y011483D01*
X017202Y011641D02*
X020032Y011641D01*
X018884Y009105D02*
X018476Y009105D01*
X018635Y008947D02*
X018725Y008947D01*
X017833Y008154D02*
X012135Y008154D01*
X011976Y007996D02*
X017674Y007996D01*
X017570Y007837D02*
X011818Y007837D01*
X011659Y007679D02*
X017570Y007679D01*
X017570Y007520D02*
X011501Y007520D01*
X011455Y005618D02*
X014460Y005618D01*
X014460Y005460D02*
X011616Y005460D01*
X011682Y005301D02*
X014460Y005301D01*
X014460Y005143D02*
X011690Y005143D01*
X011651Y004984D02*
X014460Y004984D01*
X014460Y004826D02*
X011547Y004826D01*
X010090Y002290D02*
X013283Y002290D01*
X014063Y003399D02*
X014245Y003399D01*
X014270Y003558D02*
X014140Y003558D01*
X014155Y003716D02*
X014460Y003716D01*
X014460Y003875D02*
X014114Y003875D01*
X013999Y004033D02*
X014460Y004033D01*
X015115Y003082D02*
X015725Y003082D01*
X015793Y002924D02*
X015115Y002924D01*
X015053Y002765D02*
X015952Y002765D01*
X016408Y002765D02*
X018017Y002765D01*
X018026Y002757D02*
X018195Y002687D01*
X018378Y002687D01*
X018547Y002757D01*
X018658Y002868D01*
X018692Y002821D01*
X018748Y002765D01*
X018812Y002719D01*
X018882Y002683D01*
X018957Y002659D01*
X019034Y002647D01*
X019074Y002647D01*
X019113Y002647D01*
X019191Y002659D01*
X019266Y002683D01*
X019336Y002719D01*
X019399Y002765D01*
X020032Y002765D01*
X020032Y002924D02*
X019521Y002924D01*
X019537Y002955D02*
X019501Y002884D01*
X019455Y002821D01*
X019399Y002765D01*
X019537Y002955D02*
X019561Y003029D01*
X019574Y003107D01*
X019574Y003147D01*
X019574Y003186D01*
X019561Y003264D01*
X019537Y003338D01*
X019501Y003409D01*
X019455Y003472D01*
X019399Y003528D01*
X019336Y003574D01*
X019266Y003610D01*
X019191Y003634D01*
X019113Y003647D01*
X019074Y003647D01*
X019074Y003147D01*
X019074Y003147D01*
X019574Y003147D01*
X019074Y003147D01*
X019074Y003147D01*
X019074Y003647D01*
X019034Y003647D01*
X018957Y003634D01*
X018882Y003610D01*
X018812Y003574D01*
X018748Y003528D01*
X018692Y003472D01*
X018658Y003425D01*
X018547Y003537D01*
X018378Y003607D01*
X018195Y003607D01*
X018026Y003537D01*
X017896Y003407D01*
X017826Y003238D01*
X017826Y003055D01*
X017896Y002886D01*
X018026Y002757D01*
X017881Y002924D02*
X016567Y002924D01*
X016635Y003082D02*
X017826Y003082D01*
X017827Y003241D02*
X016635Y003241D01*
X016604Y003399D02*
X017893Y003399D01*
X018076Y003558D02*
X016446Y003558D01*
X016416Y003716D02*
X020032Y003716D01*
X020032Y003558D02*
X019359Y003558D01*
X019506Y003399D02*
X020032Y003399D01*
X020032Y003241D02*
X019565Y003241D01*
X019570Y003082D02*
X020032Y003082D01*
X020032Y003875D02*
X016575Y003875D01*
X016675Y004033D02*
X020032Y004033D01*
X020032Y004192D02*
X016675Y004192D01*
X016675Y004350D02*
X020032Y004350D01*
X020032Y004509D02*
X016552Y004509D01*
X016393Y004667D02*
X020032Y004667D01*
X019074Y003558D02*
X019074Y003558D01*
X019074Y003399D02*
X019074Y003399D01*
X019074Y003241D02*
X019074Y003241D01*
X019074Y003147D02*
X019074Y002647D01*
X019074Y003147D01*
X019074Y003147D01*
X019074Y003082D02*
X019074Y003082D01*
X019074Y002924D02*
X019074Y002924D01*
X019074Y002765D02*
X019074Y002765D01*
X018748Y002765D02*
X018555Y002765D01*
X018496Y003558D02*
X018789Y003558D01*
X019948Y001656D02*
X010128Y001656D01*
X010128Y001497D02*
X019825Y001497D01*
X019518Y001339D02*
X010099Y001339D01*
X009028Y002131D02*
X009023Y002131D01*
X009066Y002290D02*
X008843Y002290D01*
X008598Y002290D02*
X008558Y002290D01*
X009092Y002607D02*
X000820Y002607D01*
X000820Y002765D02*
X001374Y002765D01*
X001234Y002924D02*
X000820Y002924D01*
X000820Y003082D02*
X001170Y003082D01*
X001170Y003241D02*
X000820Y003241D01*
X000820Y003399D02*
X001219Y003399D01*
X001342Y003875D02*
X000820Y003875D01*
X000820Y004033D02*
X001225Y004033D01*
X001225Y004192D02*
X000820Y004192D01*
X000820Y004350D02*
X001225Y004350D01*
X002126Y002924D02*
X005234Y002924D01*
X005374Y002765D02*
X001986Y002765D01*
X001616Y002448D02*
X009181Y002448D01*
X009090Y002765D02*
X005986Y002765D01*
X006126Y002924D02*
X009090Y002924D01*
X007180Y005180D02*
X006180Y005180D01*
X006516Y005460D02*
X006744Y005460D01*
X006813Y004826D02*
X006441Y004826D01*
X002859Y006886D02*
X002147Y006886D01*
X002037Y007045D02*
X002765Y007045D01*
X002745Y007203D02*
X001955Y007203D01*
X002128Y007362D02*
X002784Y007362D01*
X002905Y007520D02*
X002206Y007520D01*
X004981Y010690D02*
X007297Y010690D01*
X007225Y010532D02*
X006444Y010532D01*
X006571Y010373D02*
X007225Y010373D01*
X007252Y010215D02*
X006615Y010215D01*
X006599Y010056D02*
X007411Y010056D01*
X008063Y010690D02*
X009109Y010690D01*
X008950Y010849D02*
X007905Y010849D01*
X007957Y011007D02*
X008792Y011007D01*
X008633Y011166D02*
X008116Y011166D01*
X008175Y011324D02*
X008475Y011324D01*
X008316Y011483D02*
X008175Y011483D01*
X009256Y011166D02*
X011520Y011166D01*
X011286Y011007D02*
X009414Y011007D01*
X009430Y010680D02*
X011680Y010680D01*
X011889Y010215D02*
X012971Y010215D01*
X012766Y010373D02*
X012095Y010373D01*
X012171Y010532D02*
X012690Y010532D01*
X012670Y010690D02*
X012190Y010690D01*
X012163Y010849D02*
X012698Y010849D01*
X012786Y011007D02*
X012075Y011007D01*
X011841Y011166D02*
X013020Y011166D01*
X014037Y010056D02*
X014995Y010056D01*
X014900Y006569D02*
X017670Y006569D01*
X017728Y006411D02*
X014900Y006411D01*
X014900Y006252D02*
X017887Y006252D01*
X016180Y004667D02*
X016180Y004667D01*
X016180Y004509D02*
X016180Y004509D01*
X016180Y004350D02*
X016180Y004350D01*
X016180Y004192D02*
X016180Y004192D01*
X016180Y004033D02*
X016180Y004033D01*
X016180Y003875D02*
X016180Y003875D01*
X016180Y003716D02*
X016180Y003716D01*
X007929Y014336D02*
X007647Y014336D01*
X007680Y014680D02*
X008306Y014680D01*
X008055Y015128D02*
X007439Y015128D01*
X007281Y014970D02*
X007874Y014970D01*
X007978Y015287D02*
X007598Y015287D01*
X007756Y015445D02*
X007851Y015445D01*
X007680Y015680D02*
X006180Y014180D01*
X006293Y014604D02*
X007589Y015900D01*
X007845Y015900D01*
X007874Y015969D01*
X008017Y016112D01*
X008180Y016180D01*
X008017Y016248D01*
X007874Y016391D01*
X007845Y016460D01*
X007771Y016460D01*
X006604Y015293D01*
X006615Y015267D01*
X006615Y015093D01*
X006549Y014934D01*
X006426Y014811D01*
X006500Y014811D01*
X006426Y014811D02*
X006267Y014745D01*
X006093Y014745D01*
X005934Y014811D01*
X006180Y015180D02*
X007680Y016680D01*
X008306Y016680D01*
X008042Y016238D02*
X007549Y016238D01*
X007707Y016396D02*
X007872Y016396D01*
X007984Y016079D02*
X007390Y016079D01*
X007232Y015921D02*
X007854Y015921D01*
X007680Y015680D02*
X008306Y015680D01*
X007451Y015762D02*
X007073Y015762D01*
X006915Y015604D02*
X007292Y015604D01*
X007134Y015445D02*
X006756Y015445D01*
X006607Y015287D02*
X006975Y015287D01*
X006817Y015128D02*
X006615Y015128D01*
X006658Y014970D02*
X006564Y014970D01*
X006451Y015762D02*
X006308Y015762D01*
X006536Y015921D02*
X006609Y015921D01*
X006609Y016079D02*
X006768Y016079D01*
X006615Y016238D02*
X006926Y016238D01*
X007085Y016396D02*
X006561Y016396D01*
X006413Y016555D02*
X007243Y016555D01*
X005771Y017030D02*
X004841Y017030D01*
X005000Y017189D02*
X005745Y017189D01*
X005778Y017347D02*
X005158Y017347D01*
X004694Y017506D02*
X003615Y017506D01*
X001811Y019408D02*
X008349Y019408D01*
X008349Y019566D02*
X001926Y019566D01*
X008974Y019408D02*
X009134Y019408D01*
X009134Y019249D02*
X008974Y019249D01*
X008974Y019091D02*
X009134Y019091D01*
X009134Y018932D02*
X008974Y018932D01*
X008974Y018774D02*
X009134Y018774D01*
X009710Y018774D02*
X011150Y018774D01*
X011101Y018932D02*
X010781Y018932D01*
X010939Y019091D02*
X011101Y019091D01*
X011101Y019249D02*
X011004Y019249D01*
X011030Y019408D02*
X011101Y019408D01*
X011101Y019566D02*
X011023Y019566D01*
X011726Y019408D02*
X011886Y019408D01*
X011886Y019249D02*
X011726Y019249D01*
X011726Y019091D02*
X011886Y019091D01*
X011886Y018932D02*
X011726Y018932D01*
X011726Y018774D02*
X011886Y018774D01*
X012462Y018774D02*
X020032Y018774D01*
X020032Y018932D02*
X012511Y018932D01*
X012511Y019091D02*
X020032Y019091D01*
X020032Y019249D02*
X012511Y019249D01*
X012511Y019408D02*
X019049Y019408D01*
X018934Y019566D02*
X012511Y019566D01*
X010079Y018932D02*
X009759Y018932D01*
X009759Y019091D02*
X009921Y019091D01*
X009856Y019249D02*
X009759Y019249D01*
X009759Y019408D02*
X009830Y019408D01*
X009837Y019566D02*
X009759Y019566D01*
X004460Y011324D02*
X003960Y011324D01*
X004119Y011166D02*
X004460Y011166D01*
X004460Y011007D02*
X004277Y011007D01*
X004436Y010849D02*
X004460Y010849D01*
X005140Y010532D02*
X005916Y010532D01*
X005789Y010373D02*
X005298Y010373D01*
X005457Y010215D02*
X005745Y010215D01*
X005761Y010056D02*
X005615Y010056D01*
X003587Y010849D02*
X003464Y010849D01*
X001450Y002448D02*
X001410Y002448D01*
X001410Y002290D02*
X001450Y002290D01*
X001450Y002131D02*
X001410Y002131D01*
X001410Y001973D02*
X001450Y001973D01*
X001450Y001814D02*
X001410Y001814D01*
X001410Y001656D02*
X001450Y001656D01*
X001450Y001497D02*
X001410Y001497D01*
X001090Y001497D02*
X001027Y001497D01*
X000953Y001656D02*
X000904Y001656D01*
X000892Y001814D02*
X000845Y001814D01*
X000820Y001973D02*
X000880Y001973D01*
X000917Y002131D02*
X000820Y002131D01*
X000820Y002290D02*
X001012Y002290D01*
X000820Y002448D02*
X001244Y002448D01*
X019811Y019408D02*
X020032Y019408D01*
X020032Y019566D02*
X019926Y019566D01*
X019974Y019725D02*
X020032Y019725D01*
X020018Y019883D02*
X019974Y019883D01*
X019966Y020042D02*
X019927Y020042D01*
X019857Y020200D02*
X019813Y020200D01*
D25*
X019930Y018930D03*
X018430Y019430D03*
X018430Y020180D03*
X017680Y020180D03*
X017680Y019430D03*
X016930Y018680D03*
X017680Y018180D03*
X016930Y017680D03*
X017680Y016930D03*
X016930Y016180D03*
X017680Y015430D03*
X018430Y016180D03*
X018680Y014430D03*
X017930Y013680D03*
X017180Y012930D03*
X017680Y012430D03*
X018181Y012056D03*
X018688Y011684D03*
X019180Y010930D03*
X019680Y010930D03*
X019680Y010180D03*
X018558Y009553D03*
X018055Y009555D03*
X018055Y010054D03*
X017305Y009555D03*
X015930Y011430D03*
X015430Y010930D03*
X014430Y011930D03*
X013930Y011430D03*
X013180Y012180D03*
X012804Y012062D03*
X012430Y011430D03*
X012180Y010180D03*
X011682Y009180D03*
X010930Y009680D03*
X011056Y010180D03*
X011056Y011180D03*
X011056Y012055D03*
X011056Y012930D03*
X011056Y013680D03*
X010930Y014430D03*
X010930Y015305D03*
X010180Y015305D03*
X010930Y016180D03*
X010305Y016555D03*
X009930Y017180D03*
X009930Y017805D03*
X009930Y018305D03*
X009430Y018555D03*
X009805Y019180D03*
X009805Y020180D03*
X011055Y020180D03*
X011055Y019180D03*
X011430Y018555D03*
X010930Y018305D03*
X010930Y017805D03*
X011680Y017930D03*
X012180Y018555D03*
X012680Y018680D03*
X013305Y018680D03*
X013930Y018680D03*
X013936Y019435D03*
X013305Y019430D03*
X012680Y019430D03*
X012680Y020180D03*
X013305Y020180D03*
X013930Y020180D03*
X014680Y020180D03*
X014680Y019430D03*
X015430Y018680D03*
X016180Y019430D03*
X016180Y020180D03*
X015430Y020180D03*
X016930Y020180D03*
X015430Y017680D03*
X016180Y016930D03*
X015430Y016180D03*
X015431Y015438D03*
X016180Y015430D03*
X016183Y014562D03*
X016304Y013808D03*
X015680Y013680D03*
X015430Y014430D03*
X014930Y013680D03*
X014180Y014430D03*
X013680Y013680D03*
X012930Y013430D03*
X012430Y012930D03*
X013680Y012680D03*
X014430Y012930D03*
X015680Y012930D03*
X016930Y014430D03*
X018680Y012930D03*
X014680Y015430D03*
X013930Y016180D03*
X014680Y016930D03*
X013930Y017680D03*
X013050Y017950D03*
X012430Y017430D03*
X012430Y016930D03*
X012430Y016180D03*
X013180Y016930D03*
X013430Y015180D03*
X012430Y015305D03*
X012430Y014430D03*
X009305Y013803D03*
X009305Y012805D03*
X007802Y014179D03*
X006930Y014430D03*
X006930Y013430D03*
X006930Y012680D03*
X006930Y011680D03*
X006930Y010930D03*
X006798Y009305D03*
X007430Y008930D03*
X007930Y008430D03*
X008430Y007930D03*
X008930Y007430D03*
X009430Y007930D03*
X009180Y008680D03*
X008680Y009180D03*
X006930Y007430D03*
X007430Y006930D03*
X008055Y006555D03*
X008554Y006056D03*
X009430Y006680D03*
X010556Y006181D03*
X011680Y005680D03*
X012430Y005180D03*
X013180Y005680D03*
X012430Y006180D03*
X012430Y007054D03*
X012430Y008180D03*
X013930Y008430D03*
X013930Y007180D03*
X013930Y006180D03*
X013930Y004930D03*
X014180Y004180D03*
X013180Y004180D03*
X013180Y003180D03*
X012926Y002175D03*
X012930Y001430D03*
X011555Y001430D03*
X011555Y002180D03*
X011680Y003180D03*
X011430Y004180D03*
X010680Y004680D03*
X009927Y004423D03*
X008930Y004431D03*
X008927Y003799D03*
X008305Y004180D03*
X007680Y004432D03*
X006929Y004180D03*
X006680Y004680D03*
X006305Y003430D03*
X005555Y002430D03*
X005555Y001430D03*
X004680Y001430D03*
X004680Y002430D03*
X003680Y002430D03*
X003680Y001430D03*
X002680Y001430D03*
X002680Y002430D03*
X002430Y003805D03*
X002430Y005180D03*
X002430Y006180D03*
X000930Y006180D03*
X000930Y005180D03*
X000930Y004180D03*
X000930Y002930D03*
X003930Y004430D03*
X003930Y005430D03*
X003930Y006430D03*
X003930Y007430D03*
X003930Y008430D03*
X003930Y009430D03*
X002682Y009669D03*
X001795Y009437D03*
X000930Y009180D03*
X002677Y008688D03*
X003930Y011430D03*
X003930Y012430D03*
X005430Y012430D03*
X005430Y011430D03*
X005430Y010430D03*
X005430Y008430D03*
X005430Y007430D03*
X005430Y006430D03*
X005430Y005430D03*
X005180Y004430D03*
X007430Y005930D03*
X009930Y003180D03*
X010430Y001430D03*
X014305Y001430D03*
X014305Y002430D03*
X015430Y002680D03*
X015555Y001430D03*
X016680Y001430D03*
X016683Y002668D03*
X017680Y002680D03*
X018682Y001430D03*
X019806Y001806D03*
X019930Y003180D03*
X019930Y004180D03*
X019930Y005180D03*
X018680Y005180D03*
X018680Y004180D03*
X017430Y004180D03*
X017430Y005180D03*
X017430Y006180D03*
X015805Y006304D03*
X015804Y007180D03*
X015805Y005178D03*
X015180Y004430D03*
X015430Y003930D03*
X013930Y009680D03*
X008804Y015182D03*
X008804Y016180D03*
X007804Y016180D03*
X006930Y016430D03*
X006930Y017180D03*
X007804Y017180D03*
X008055Y018180D03*
X007555Y018680D03*
X007555Y019430D03*
X008180Y019430D03*
X008180Y020180D03*
X007555Y020180D03*
X006930Y020180D03*
X006180Y020180D03*
X006179Y019581D03*
X005430Y019180D03*
X006180Y018430D03*
X006930Y018180D03*
X006930Y019180D03*
X005430Y020180D03*
X004680Y020180D03*
X004675Y019582D03*
X003930Y019180D03*
X004680Y018430D03*
X003180Y018430D03*
X002430Y018930D03*
X001930Y018180D03*
X002430Y017430D03*
X000930Y017680D03*
X000930Y018680D03*
X002430Y020180D03*
X003180Y020180D03*
X003171Y019581D03*
X003930Y020180D03*
X003930Y016430D03*
X003930Y015430D03*
X003930Y014430D03*
X005430Y014430D03*
X005430Y013430D03*
X005430Y015430D03*
X005430Y016430D03*
X006930Y015430D03*
X007804Y015180D03*
X009305Y017430D03*
X009055Y018055D03*
X008680Y018555D03*
D26*
X015804Y007180D02*
X018528Y007180D01*
X018617Y007217D02*
X019080Y007680D01*
X018616Y007217D02*
X018601Y007204D01*
X018585Y007194D01*
X018567Y007186D01*
X018548Y007182D01*
X018528Y007180D01*
M02*
