G75*
%MOIN*%
%OFA0B0*%
%FSLAX24Y24*%
%IPPOS*%
%LPD*%
%AMOC8*
5,1,8,0,0,1.08239X$1,22.5*
%
%ADD10C,0.0555*%
%ADD11OC8,0.0780*%
%ADD12C,0.0780*%
%ADD13R,0.0630X0.0630*%
%ADD14C,0.0630*%
%ADD15R,0.0520X0.0520*%
%ADD16C,0.0520*%
%ADD17OC8,0.0670*%
%ADD18R,0.0940X0.2040*%
%ADD19C,0.0740*%
D10*
X007430Y001930D03*
X008180Y001930D03*
X008930Y001930D03*
D11*
X018080Y007680D03*
X018180Y006680D03*
X019180Y006680D03*
X019080Y007680D03*
X019180Y008680D03*
X018180Y008680D03*
D12*
X001430Y001930D03*
X002680Y003180D03*
X001680Y006680D03*
X001680Y007680D03*
X001680Y008680D03*
X001430Y010180D03*
X001430Y011430D03*
X001430Y012430D03*
X001430Y013680D03*
X001430Y014680D03*
X001430Y015930D03*
X001430Y016930D03*
X001430Y019805D03*
X007680Y016680D03*
X007680Y015680D03*
X007680Y014680D03*
X011430Y010680D03*
X012930Y010680D03*
X012930Y006680D03*
X011430Y006680D03*
X011180Y005180D03*
X007180Y005180D03*
X006680Y003180D03*
X018430Y001930D03*
X019430Y001930D03*
X010430Y019430D03*
X019430Y019805D03*
D13*
X014680Y003180D03*
X013680Y002680D03*
X003180Y017180D03*
D14*
X003180Y016180D03*
X003180Y015180D03*
X003180Y014180D03*
X003180Y013180D03*
X003180Y012180D03*
X003180Y011180D03*
X003180Y010180D03*
X003180Y009180D03*
X003180Y008180D03*
X003180Y007180D03*
X003180Y006180D03*
X003180Y005180D03*
X003180Y004180D03*
X006180Y004180D03*
X006180Y005180D03*
X006180Y006180D03*
X006180Y007180D03*
X006180Y008180D03*
X006180Y009180D03*
X006180Y010180D03*
X006180Y011180D03*
X006180Y012180D03*
X006180Y013180D03*
X006180Y014180D03*
X006180Y015180D03*
X006180Y016180D03*
X006180Y017180D03*
X013680Y003680D03*
D15*
X010680Y003090D03*
D16*
X010680Y003680D03*
D17*
X012430Y003180D03*
X012430Y004180D03*
X016180Y004180D03*
X016180Y003180D03*
X007680Y010430D03*
X007680Y011430D03*
X007680Y012430D03*
X007680Y013430D03*
X018430Y018180D03*
X019430Y018180D03*
D18*
X012170Y019420D03*
X008690Y019420D03*
D19*
X006680Y001930D03*
M02*
