G75*
%MOIN*%
%OFA0B0*%
%FSLAX24Y24*%
%IPPOS*%
%LPD*%
%AMOC8*
5,1,8,0,0,1.08239X$1,22.5*
%
%ADD10C,0.0515*%
%ADD11OC8,0.0740*%
%ADD12C,0.0740*%
%ADD13R,0.0590X0.0590*%
%ADD14C,0.0590*%
%ADD15R,0.0480X0.0480*%
%ADD16C,0.0480*%
%ADD17OC8,0.0630*%
%ADD18R,0.0900X0.2000*%
%ADD19C,0.0320*%
%ADD20C,0.0160*%
%ADD21C,0.0356*%
%ADD22C,0.0400*%
%ADD23C,0.0238*%
%ADD24C,0.0120*%
D10*
X007430Y001930D03*
X008180Y001930D03*
X008930Y001930D03*
D11*
X018080Y007680D03*
X018180Y006680D03*
X019180Y006680D03*
X019080Y007680D03*
X019180Y008680D03*
X018180Y008680D03*
D12*
X012930Y006680D03*
X011430Y006680D03*
X011180Y005180D03*
X007180Y005180D03*
X006680Y003180D03*
X006680Y001930D03*
X002680Y003180D03*
X001430Y001930D03*
X001680Y006680D03*
X001680Y007680D03*
X001680Y008680D03*
X001430Y010180D03*
X001430Y011430D03*
X001430Y012430D03*
X001430Y013680D03*
X001430Y014680D03*
X001430Y015930D03*
X001430Y016930D03*
X001430Y019805D03*
X007680Y016680D03*
X007680Y015680D03*
X007680Y014680D03*
X011430Y010680D03*
X012930Y010680D03*
X018430Y001930D03*
X019430Y001930D03*
X010430Y019430D03*
X019430Y019805D03*
D13*
X014680Y003180D03*
X013680Y002680D03*
X003180Y017180D03*
D14*
X003180Y016180D03*
X003180Y015180D03*
X003180Y014180D03*
X003180Y013180D03*
X003180Y012180D03*
X003180Y011180D03*
X003180Y010180D03*
X003180Y009180D03*
X003180Y008180D03*
X003180Y007180D03*
X003180Y006180D03*
X003180Y005180D03*
X003180Y004180D03*
X006180Y004180D03*
X006180Y005180D03*
X006180Y006180D03*
X006180Y007180D03*
X006180Y008180D03*
X006180Y009180D03*
X006180Y010180D03*
X006180Y011180D03*
X006180Y012180D03*
X006180Y013180D03*
X006180Y014180D03*
X006180Y015180D03*
X006180Y016180D03*
X006180Y017180D03*
X013680Y003680D03*
D15*
X010680Y003090D03*
D16*
X010680Y003680D03*
D17*
X012430Y003180D03*
X012430Y004180D03*
X016180Y004180D03*
X016180Y003180D03*
X007680Y010430D03*
X007680Y011430D03*
X007680Y012430D03*
X007680Y013430D03*
X018430Y018180D03*
X019430Y018180D03*
D18*
X012170Y019420D03*
X008690Y019420D03*
D19*
X002430Y012680D02*
X001430Y013680D01*
X002430Y012680D02*
X002430Y011680D01*
X002930Y011180D01*
X003180Y011180D01*
X003680Y011180D01*
X005680Y009180D01*
X006180Y009180D01*
D20*
X001010Y001510D02*
X001173Y001391D01*
X001366Y001328D01*
X001467Y001320D01*
X019385Y001320D01*
X019486Y001328D01*
X019679Y001391D01*
X019843Y001510D01*
X019962Y001673D01*
X020024Y001866D01*
X020032Y001967D01*
X020032Y019763D01*
X020024Y019864D01*
X019962Y020057D01*
X019843Y020220D01*
X019679Y020340D01*
X019486Y020402D01*
X019385Y020410D01*
X012800Y020410D01*
X012800Y019500D01*
X012250Y019500D01*
X012250Y019340D01*
X012800Y019340D01*
X012800Y018396D01*
X012788Y018351D01*
X012764Y018309D01*
X012731Y018276D01*
X012689Y018252D01*
X012644Y018240D01*
X012250Y018240D01*
X012250Y019340D01*
X012090Y019340D01*
X012090Y018240D01*
X011696Y018240D01*
X011651Y018252D01*
X011609Y018276D01*
X011576Y018309D01*
X011552Y018351D01*
X011540Y018396D01*
X011540Y019340D01*
X012090Y019340D01*
X012090Y019500D01*
X011540Y019500D01*
X011540Y020290D01*
X009320Y020290D01*
X009320Y019500D01*
X008770Y019500D01*
X008770Y019340D01*
X009320Y019340D01*
X009320Y018396D01*
X009308Y018351D01*
X009284Y018309D01*
X009251Y018276D01*
X009209Y018252D01*
X009164Y018240D01*
X008770Y018240D01*
X008770Y019340D01*
X008610Y019340D01*
X008610Y018240D01*
X008216Y018240D01*
X008171Y018252D01*
X008129Y018276D01*
X008096Y018309D01*
X008072Y018351D01*
X008060Y018396D01*
X008060Y019340D01*
X008610Y019340D01*
X008610Y019500D01*
X008060Y019500D01*
X008060Y020410D01*
X001467Y020410D01*
X001366Y020402D01*
X001173Y020340D01*
X001010Y020220D01*
X000891Y020057D01*
X000828Y019864D01*
X000820Y019763D01*
X000820Y001967D01*
X000828Y001866D01*
X000891Y001673D01*
X001010Y001510D01*
X001027Y001497D02*
X001090Y001497D01*
X001072Y001510D02*
X001142Y001460D01*
X001219Y001420D01*
X001301Y001394D01*
X001387Y001380D01*
X001410Y001380D01*
X001410Y001910D01*
X000880Y001910D01*
X000880Y001887D01*
X000894Y001801D01*
X000920Y001719D01*
X000960Y001642D01*
X001010Y001572D01*
X001072Y001510D01*
X000953Y001656D02*
X000904Y001656D01*
X000892Y001814D02*
X000845Y001814D01*
X000880Y001950D02*
X001410Y001950D01*
X001410Y002480D01*
X001387Y002480D01*
X001301Y002466D01*
X001219Y002440D01*
X001142Y002400D01*
X001072Y002350D01*
X001010Y002288D01*
X000960Y002218D01*
X000920Y002141D01*
X000894Y002059D01*
X000880Y001973D01*
X000880Y001950D01*
X000880Y001973D02*
X000820Y001973D01*
X000820Y002131D02*
X000917Y002131D01*
X001012Y002290D02*
X000820Y002290D01*
X000820Y002448D02*
X001244Y002448D01*
X001410Y002448D02*
X001450Y002448D01*
X001450Y002480D02*
X001450Y001950D01*
X001410Y001950D01*
X001410Y001910D01*
X001450Y001910D01*
X001450Y001950D01*
X001980Y001950D01*
X001980Y001973D01*
X001966Y002059D01*
X001940Y002141D01*
X001900Y002218D01*
X001850Y002288D01*
X001788Y002350D01*
X001718Y002400D01*
X001641Y002440D01*
X001559Y002466D01*
X001473Y002480D01*
X001450Y002480D01*
X001616Y002448D02*
X006494Y002448D01*
X006469Y002440D02*
X006392Y002400D01*
X006322Y002350D01*
X006260Y002288D01*
X006210Y002218D01*
X006170Y002141D01*
X006144Y002059D01*
X006130Y001973D01*
X006130Y001950D01*
X006660Y001950D01*
X006660Y002480D01*
X006637Y002480D01*
X006551Y002466D01*
X006469Y002440D01*
X006660Y002448D02*
X006700Y002448D01*
X006700Y002480D02*
X006700Y001950D01*
X006660Y001950D01*
X006660Y001910D01*
X006700Y001910D01*
X006700Y001950D01*
X006993Y001950D01*
X006993Y001930D01*
X006993Y001910D01*
X006700Y001910D01*
X006700Y001380D01*
X006723Y001380D01*
X006809Y001394D01*
X006891Y001420D01*
X006968Y001460D01*
X007038Y001510D01*
X007100Y001572D01*
X007129Y001612D01*
X007145Y001596D01*
X007201Y001556D01*
X007262Y001525D01*
X007328Y001503D01*
X007396Y001493D01*
X007430Y001493D01*
X007430Y001930D01*
X007430Y001930D01*
X007430Y002367D01*
X007464Y002367D01*
X007532Y002357D01*
X007598Y002335D01*
X007659Y002304D01*
X007715Y002264D01*
X007764Y002215D01*
X007804Y002159D01*
X007827Y002115D01*
X007843Y002155D01*
X007955Y002267D01*
X008101Y002327D01*
X008259Y002327D01*
X008405Y002267D01*
X008517Y002155D01*
X008555Y002063D01*
X008593Y002155D01*
X008618Y002180D01*
X007839Y002960D01*
X007141Y002960D01*
X007112Y002891D01*
X006969Y002748D01*
X006781Y002670D01*
X006579Y002670D01*
X006391Y002748D01*
X006248Y002891D01*
X006170Y003079D01*
X006170Y003281D01*
X006248Y003469D01*
X006391Y003612D01*
X006579Y003690D01*
X006781Y003690D01*
X006969Y003612D01*
X007112Y003469D01*
X007141Y003400D01*
X008021Y003400D01*
X008150Y003271D01*
X008150Y003271D01*
X008996Y002425D01*
X009102Y002584D01*
X009090Y002612D01*
X009090Y005789D01*
X006615Y008264D01*
X006615Y008093D01*
X006549Y007934D01*
X006426Y007811D01*
X006267Y007745D01*
X006093Y007745D01*
X005934Y007811D01*
X005811Y007934D01*
X005745Y008093D01*
X005745Y008267D01*
X005811Y008426D01*
X005934Y008549D01*
X006093Y008615D01*
X006264Y008615D01*
X006134Y008745D01*
X006093Y008745D01*
X005934Y008811D01*
X005865Y008880D01*
X005620Y008880D01*
X005510Y008926D01*
X005426Y009010D01*
X003556Y010880D01*
X003495Y010880D01*
X003426Y010811D01*
X003267Y010745D01*
X003093Y010745D01*
X002934Y010811D01*
X002861Y010884D01*
X002760Y010926D01*
X002260Y011426D01*
X002176Y011510D01*
X002130Y011620D01*
X002130Y012556D01*
X001516Y013170D01*
X001329Y013170D01*
X001141Y013248D01*
X000998Y013391D01*
X000920Y013579D01*
X000920Y013781D01*
X000998Y013969D01*
X001141Y014112D01*
X001254Y014159D01*
X001219Y014170D01*
X001142Y014210D01*
X001072Y014260D01*
X001010Y014322D01*
X000960Y014392D01*
X000920Y014469D01*
X000894Y014551D01*
X000880Y014637D01*
X000880Y014660D01*
X001410Y014660D01*
X001410Y014700D01*
X001410Y015230D01*
X001387Y015230D01*
X001301Y015216D01*
X001219Y015190D01*
X001142Y015150D01*
X001072Y015100D01*
X001010Y015038D01*
X000960Y014968D01*
X000920Y014891D01*
X000894Y014809D01*
X000880Y014723D01*
X000880Y014700D01*
X001410Y014700D01*
X001450Y014700D01*
X001450Y015230D01*
X001473Y015230D01*
X001559Y015216D01*
X001641Y015190D01*
X001718Y015150D01*
X001788Y015100D01*
X001850Y015038D01*
X001900Y014968D01*
X001940Y014891D01*
X001966Y014809D01*
X001980Y014723D01*
X001980Y014700D01*
X001450Y014700D01*
X001450Y014660D01*
X001980Y014660D01*
X001980Y014637D01*
X001966Y014551D01*
X001940Y014469D01*
X001900Y014392D01*
X001850Y014322D01*
X001788Y014260D01*
X001718Y014210D01*
X001641Y014170D01*
X001606Y014159D01*
X001719Y014112D01*
X001862Y013969D01*
X001940Y013781D01*
X001940Y013594D01*
X002684Y012850D01*
X002730Y012740D01*
X002730Y011804D01*
X002970Y011564D01*
X003093Y011615D01*
X003267Y011615D01*
X003426Y011549D01*
X003495Y011480D01*
X003740Y011480D01*
X003850Y011434D01*
X004460Y010824D01*
X004460Y012589D01*
X003293Y013756D01*
X003267Y013745D01*
X003093Y013745D01*
X002934Y013811D01*
X002811Y013934D01*
X002745Y014093D01*
X002745Y014267D01*
X002811Y014426D01*
X002934Y014549D01*
X003093Y014615D01*
X003267Y014615D01*
X003426Y014549D01*
X003549Y014426D01*
X003615Y014267D01*
X003615Y014093D01*
X003604Y014067D01*
X004900Y012771D01*
X004900Y010771D01*
X005771Y009900D01*
X005845Y009900D01*
X005811Y009934D01*
X005745Y010093D01*
X005745Y010267D01*
X005811Y010426D01*
X005934Y010549D01*
X006093Y010615D01*
X006267Y010615D01*
X006426Y010549D01*
X006549Y010426D01*
X006615Y010267D01*
X006615Y010093D01*
X006549Y009934D01*
X006515Y009900D01*
X010534Y009900D01*
X010628Y009939D01*
X010732Y009939D01*
X010827Y009900D01*
X010900Y009827D01*
X010939Y009732D01*
X010939Y009628D01*
X010900Y009533D01*
X010827Y009460D01*
X010732Y009421D01*
X010628Y009421D01*
X010534Y009460D01*
X006515Y009460D01*
X006549Y009426D01*
X006615Y009267D01*
X006615Y009226D01*
X009430Y006411D01*
X015737Y012718D01*
X015737Y012718D01*
X019090Y016071D01*
X019090Y017877D01*
X018975Y017992D01*
X018975Y018368D01*
X019242Y018635D01*
X019618Y018635D01*
X019885Y018368D01*
X019885Y017992D01*
X019770Y017877D01*
X019770Y015862D01*
X019718Y015737D01*
X019623Y015642D01*
X016218Y012237D01*
X016218Y012237D01*
X011103Y007122D01*
X011142Y007150D01*
X011219Y007190D01*
X011301Y007216D01*
X011387Y007230D01*
X011421Y007230D01*
X011421Y006689D01*
X011439Y006689D01*
X011439Y007230D01*
X011473Y007230D01*
X011559Y007216D01*
X011641Y007190D01*
X011718Y007150D01*
X011788Y007100D01*
X011850Y007038D01*
X011900Y006968D01*
X011940Y006891D01*
X011966Y006809D01*
X011980Y006723D01*
X011980Y006689D01*
X011439Y006689D01*
X011439Y006671D01*
X011980Y006671D01*
X011980Y006637D01*
X011966Y006551D01*
X011940Y006469D01*
X011900Y006392D01*
X011850Y006322D01*
X011788Y006260D01*
X011718Y006210D01*
X011641Y006170D01*
X011559Y006144D01*
X011473Y006130D01*
X011439Y006130D01*
X011439Y006671D01*
X011421Y006671D01*
X011421Y006130D01*
X011387Y006130D01*
X011301Y006144D01*
X011219Y006170D01*
X011142Y006210D01*
X011072Y006260D01*
X011010Y006322D01*
X010960Y006392D01*
X010920Y006469D01*
X010894Y006551D01*
X010880Y006637D01*
X010880Y006671D01*
X011421Y006671D01*
X011421Y006689D01*
X010880Y006689D01*
X010880Y006723D01*
X010894Y006809D01*
X010920Y006891D01*
X010960Y006968D01*
X010988Y007007D01*
X009770Y005789D01*
X009770Y005400D01*
X010719Y005400D01*
X010748Y005469D01*
X010891Y005612D01*
X011079Y005690D01*
X011281Y005690D01*
X011469Y005612D01*
X011612Y005469D01*
X011690Y005281D01*
X011690Y005079D01*
X011612Y004891D01*
X011469Y004748D01*
X011281Y004670D01*
X011079Y004670D01*
X010891Y004748D01*
X010748Y004891D01*
X010719Y004960D01*
X009770Y004960D01*
X009770Y003020D01*
X010300Y003020D01*
X010300Y003388D01*
X010342Y003430D01*
X010321Y003460D01*
X010291Y003519D01*
X010270Y003582D01*
X010260Y003647D01*
X010260Y003680D01*
X010680Y003680D01*
X010680Y003680D01*
X010680Y004100D01*
X010713Y004100D01*
X010778Y004090D01*
X010841Y004069D01*
X010900Y004039D01*
X010954Y004000D01*
X011000Y003954D01*
X011039Y003900D01*
X011069Y003841D01*
X011090Y003778D01*
X011100Y003713D01*
X011100Y003680D01*
X010680Y003680D01*
X010680Y003680D01*
X011100Y003680D01*
X011100Y003647D01*
X011090Y003582D01*
X011069Y003519D01*
X011039Y003460D01*
X011018Y003430D01*
X011060Y003388D01*
X011060Y003020D01*
X011975Y003020D01*
X011975Y003368D01*
X012242Y003635D01*
X012618Y003635D01*
X012885Y003368D01*
X012885Y003020D01*
X013245Y003020D01*
X013245Y003033D01*
X013327Y003115D01*
X014033Y003115D01*
X014115Y003033D01*
X014115Y002327D01*
X014033Y002245D01*
X013327Y002245D01*
X013245Y002327D01*
X013245Y002340D01*
X009468Y002340D01*
X009297Y002083D01*
X009327Y002009D01*
X009327Y001851D01*
X009267Y001705D01*
X009155Y001593D01*
X009009Y001533D01*
X008851Y001533D01*
X008705Y001593D01*
X008593Y001705D01*
X008555Y001797D01*
X008517Y001705D01*
X008405Y001593D01*
X008259Y001533D01*
X008101Y001533D01*
X007955Y001593D01*
X007843Y001705D01*
X007827Y001745D01*
X007804Y001701D01*
X007764Y001645D01*
X007715Y001596D01*
X007659Y001556D01*
X007598Y001525D01*
X007532Y001503D01*
X007464Y001493D01*
X007430Y001493D01*
X007430Y001930D01*
X007430Y001930D01*
X007430Y002367D01*
X007396Y002367D01*
X007328Y002357D01*
X007262Y002335D01*
X007201Y002304D01*
X007145Y002264D01*
X007129Y002248D01*
X007100Y002288D01*
X007038Y002350D01*
X006968Y002400D01*
X006891Y002440D01*
X006809Y002466D01*
X006723Y002480D01*
X006700Y002480D01*
X006866Y002448D02*
X008351Y002448D01*
X008351Y002290D02*
X008509Y002290D01*
X008527Y002131D02*
X008583Y002131D01*
X008893Y002216D02*
X008906Y002201D01*
X008916Y002185D01*
X008924Y002167D01*
X008928Y002148D01*
X008930Y002128D01*
X008930Y001930D01*
X009430Y002680D01*
X009770Y003082D02*
X010300Y003082D01*
X010300Y003241D02*
X009770Y003241D01*
X009770Y003399D02*
X010311Y003399D01*
X010278Y003558D02*
X009770Y003558D01*
X009770Y003716D02*
X010260Y003716D01*
X010260Y003713D02*
X010260Y003680D01*
X010680Y003680D01*
X010680Y004100D01*
X010647Y004100D01*
X010582Y004090D01*
X010519Y004069D01*
X010460Y004039D01*
X010406Y004000D01*
X010360Y003954D01*
X010321Y003900D01*
X010291Y003841D01*
X010270Y003778D01*
X010260Y003713D01*
X010308Y003875D02*
X009770Y003875D01*
X009770Y004033D02*
X010451Y004033D01*
X010680Y004033D02*
X010680Y004033D01*
X010680Y003875D02*
X010680Y003875D01*
X010680Y003716D02*
X010680Y003716D01*
X010680Y003680D02*
X010680Y003680D01*
X011052Y003875D02*
X012035Y003875D01*
X011935Y003975D02*
X012225Y003685D01*
X012430Y003685D01*
X012635Y003685D01*
X012925Y003975D01*
X012925Y004180D01*
X012925Y004385D01*
X012635Y004675D01*
X012430Y004675D01*
X012430Y004180D01*
X012430Y004180D01*
X012925Y004180D01*
X012430Y004180D01*
X012430Y004180D01*
X012430Y004180D01*
X011935Y004180D01*
X011935Y004385D01*
X012225Y004675D01*
X012430Y004675D01*
X012430Y004180D01*
X012430Y003685D01*
X012430Y004180D01*
X012430Y004180D01*
X011935Y004180D01*
X011935Y003975D01*
X011935Y004033D02*
X010909Y004033D01*
X011100Y003716D02*
X012194Y003716D01*
X012164Y003558D02*
X011082Y003558D01*
X011049Y003399D02*
X012006Y003399D01*
X011975Y003241D02*
X011060Y003241D01*
X011060Y003082D02*
X011975Y003082D01*
X012430Y003716D02*
X012430Y003716D01*
X012430Y003875D02*
X012430Y003875D01*
X012430Y004033D02*
X012430Y004033D01*
X012430Y004192D02*
X012430Y004192D01*
X012430Y004350D02*
X012430Y004350D01*
X012430Y004509D02*
X012430Y004509D01*
X012430Y004667D02*
X012430Y004667D01*
X012643Y004667D02*
X014460Y004667D01*
X014460Y004509D02*
X012802Y004509D01*
X012925Y004350D02*
X014460Y004350D01*
X014460Y004192D02*
X012925Y004192D01*
X012925Y004033D02*
X013361Y004033D01*
X013371Y004042D02*
X013318Y003989D01*
X013274Y003929D01*
X013240Y003862D01*
X013217Y003791D01*
X013205Y003717D01*
X013205Y003698D01*
X013662Y003698D01*
X013662Y004155D01*
X013643Y004155D01*
X013569Y004143D01*
X013498Y004120D01*
X013431Y004086D01*
X013371Y004042D01*
X013246Y003875D02*
X012825Y003875D01*
X012666Y003716D02*
X013205Y003716D01*
X013205Y003662D02*
X013205Y003643D01*
X013217Y003569D01*
X013240Y003498D01*
X013274Y003431D01*
X013318Y003371D01*
X013371Y003318D01*
X013431Y003274D01*
X013498Y003240D01*
X013569Y003217D01*
X013643Y003205D01*
X013662Y003205D01*
X013662Y003662D01*
X013205Y003662D01*
X013220Y003558D02*
X012696Y003558D01*
X012854Y003399D02*
X013297Y003399D01*
X013496Y003241D02*
X012885Y003241D01*
X012885Y003082D02*
X013294Y003082D01*
X013662Y003241D02*
X013698Y003241D01*
X013698Y003205D02*
X013717Y003205D01*
X013791Y003217D01*
X013862Y003240D01*
X013929Y003274D01*
X013989Y003318D01*
X014042Y003371D01*
X014086Y003431D01*
X014120Y003498D01*
X014143Y003569D01*
X014155Y003643D01*
X014155Y003662D01*
X013698Y003662D01*
X013698Y003698D01*
X013662Y003698D01*
X013662Y003662D01*
X013698Y003662D01*
X013698Y003205D01*
X013864Y003241D02*
X014245Y003241D01*
X014245Y003399D02*
X014063Y003399D01*
X014140Y003558D02*
X014270Y003558D01*
X014245Y003533D02*
X014245Y002827D01*
X014327Y002745D01*
X015033Y002745D01*
X015115Y002827D01*
X015115Y003533D01*
X015033Y003615D01*
X014900Y003615D01*
X014900Y006771D01*
X014771Y006900D01*
X013391Y006900D01*
X013362Y006969D01*
X013219Y007112D01*
X013031Y007190D01*
X012829Y007190D01*
X012641Y007112D01*
X012498Y006969D01*
X012420Y006781D01*
X012420Y006579D01*
X012498Y006391D01*
X012641Y006248D01*
X012829Y006170D01*
X013031Y006170D01*
X013219Y006248D01*
X013362Y006391D01*
X013391Y006460D01*
X014460Y006460D01*
X014460Y003615D01*
X014327Y003615D01*
X014245Y003533D01*
X014155Y003698D02*
X014155Y003717D01*
X014143Y003791D01*
X014120Y003862D01*
X014086Y003929D01*
X014042Y003989D01*
X013989Y004042D01*
X013929Y004086D01*
X013862Y004120D01*
X013791Y004143D01*
X013717Y004155D01*
X013698Y004155D01*
X013698Y003698D01*
X014155Y003698D01*
X014155Y003716D02*
X014460Y003716D01*
X014460Y003875D02*
X014114Y003875D01*
X013999Y004033D02*
X014460Y004033D01*
X014900Y004033D02*
X015685Y004033D01*
X015685Y003975D02*
X015975Y003685D01*
X016180Y003685D01*
X016385Y003685D01*
X016675Y003975D01*
X016675Y004180D01*
X016675Y004385D01*
X016385Y004675D01*
X016180Y004675D01*
X016180Y004180D01*
X016180Y004180D01*
X016675Y004180D01*
X016180Y004180D01*
X016180Y004180D01*
X016180Y004180D01*
X015685Y004180D01*
X015685Y004385D01*
X015975Y004675D01*
X016180Y004675D01*
X016180Y004180D01*
X016180Y003685D01*
X016180Y004180D01*
X016180Y004180D01*
X015685Y004180D01*
X015685Y003975D01*
X015785Y003875D02*
X014900Y003875D01*
X014900Y003716D02*
X015944Y003716D01*
X015992Y003635D02*
X015725Y003368D01*
X015725Y002992D01*
X015992Y002725D01*
X016368Y002725D01*
X016635Y002992D01*
X016635Y003368D01*
X016368Y003635D01*
X015992Y003635D01*
X015914Y003558D02*
X015090Y003558D01*
X015115Y003399D02*
X015756Y003399D01*
X015725Y003241D02*
X015115Y003241D01*
X015115Y003082D02*
X015725Y003082D01*
X015793Y002924D02*
X015115Y002924D01*
X015053Y002765D02*
X015952Y002765D01*
X016408Y002765D02*
X020032Y002765D01*
X020032Y002607D02*
X014115Y002607D01*
X014115Y002765D02*
X014307Y002765D01*
X014245Y002924D02*
X014115Y002924D01*
X014066Y003082D02*
X014245Y003082D01*
X014680Y003180D02*
X014680Y006680D01*
X012930Y006680D01*
X012573Y007045D02*
X011843Y007045D01*
X011941Y006886D02*
X012463Y006886D01*
X012420Y006728D02*
X011979Y006728D01*
X011969Y006569D02*
X012424Y006569D01*
X012490Y006411D02*
X011910Y006411D01*
X011777Y006252D02*
X012637Y006252D01*
X013223Y006252D02*
X014460Y006252D01*
X014460Y006094D02*
X010074Y006094D01*
X010233Y006252D02*
X011083Y006252D01*
X010950Y006411D02*
X010391Y006411D01*
X010550Y006569D02*
X010891Y006569D01*
X010881Y006728D02*
X010708Y006728D01*
X010867Y006886D02*
X010919Y006886D01*
X011184Y007203D02*
X011260Y007203D01*
X011421Y007203D02*
X011439Y007203D01*
X011439Y007045D02*
X011421Y007045D01*
X011421Y006886D02*
X011439Y006886D01*
X011439Y006728D02*
X011421Y006728D01*
X011421Y006569D02*
X011439Y006569D01*
X011439Y006411D02*
X011421Y006411D01*
X011421Y006252D02*
X011439Y006252D01*
X011455Y005618D02*
X014460Y005618D01*
X014460Y005460D02*
X011616Y005460D01*
X011682Y005301D02*
X014460Y005301D01*
X014460Y005143D02*
X011690Y005143D01*
X011651Y004984D02*
X014460Y004984D01*
X014460Y004826D02*
X011547Y004826D01*
X011180Y005180D02*
X009430Y005180D01*
X009770Y005460D02*
X010744Y005460D01*
X010905Y005618D02*
X009770Y005618D01*
X009770Y005777D02*
X014460Y005777D01*
X014460Y005935D02*
X009916Y005935D01*
X009588Y006569D02*
X009272Y006569D01*
X009113Y006728D02*
X009747Y006728D01*
X009905Y006886D02*
X008955Y006886D01*
X008796Y007045D02*
X010064Y007045D01*
X010222Y007203D02*
X008638Y007203D01*
X008479Y007362D02*
X010381Y007362D01*
X010539Y007520D02*
X008321Y007520D01*
X008162Y007679D02*
X010698Y007679D01*
X010856Y007837D02*
X008004Y007837D01*
X007845Y007996D02*
X011015Y007996D01*
X011173Y008154D02*
X007687Y008154D01*
X007528Y008313D02*
X011332Y008313D01*
X011490Y008471D02*
X007370Y008471D01*
X007211Y008630D02*
X011649Y008630D01*
X011807Y008788D02*
X007053Y008788D01*
X006894Y008947D02*
X011966Y008947D01*
X012124Y009105D02*
X006736Y009105D01*
X006615Y009264D02*
X012283Y009264D01*
X012441Y009422D02*
X010734Y009422D01*
X010626Y009422D02*
X006551Y009422D01*
X005990Y008788D02*
X003370Y008788D01*
X003426Y008811D02*
X003267Y008745D01*
X003093Y008745D01*
X002934Y008811D01*
X002811Y008934D01*
X002745Y009093D01*
X002745Y009267D01*
X002811Y009426D01*
X002934Y009549D01*
X003093Y009615D01*
X003267Y009615D01*
X003426Y009549D01*
X003549Y009426D01*
X003615Y009267D01*
X003615Y009093D01*
X003549Y008934D01*
X003426Y008811D01*
X003554Y008947D02*
X005489Y008947D01*
X005331Y009105D02*
X003615Y009105D01*
X003615Y009264D02*
X005172Y009264D01*
X005014Y009422D02*
X003551Y009422D01*
X003350Y009581D02*
X004855Y009581D01*
X004697Y009739D02*
X003360Y009739D01*
X003362Y009740D02*
X003429Y009774D01*
X003489Y009818D01*
X003542Y009871D01*
X003586Y009931D01*
X003620Y009998D01*
X003643Y010069D01*
X003655Y010143D01*
X003655Y010162D01*
X003198Y010162D01*
X003198Y010198D01*
X003655Y010198D01*
X003655Y010217D01*
X003643Y010291D01*
X003620Y010362D01*
X003586Y010429D01*
X003542Y010489D01*
X003489Y010542D01*
X003429Y010586D01*
X003362Y010620D01*
X003291Y010643D01*
X003217Y010655D01*
X003198Y010655D01*
X003198Y010198D01*
X003162Y010198D01*
X003162Y010655D01*
X003143Y010655D01*
X003069Y010643D01*
X002998Y010620D01*
X002931Y010586D01*
X002871Y010542D01*
X002818Y010489D01*
X002774Y010429D01*
X002740Y010362D01*
X002717Y010291D01*
X002705Y010217D01*
X002705Y010198D01*
X003162Y010198D01*
X003162Y010162D01*
X003198Y010162D01*
X003198Y009705D01*
X003217Y009705D01*
X003291Y009717D01*
X003362Y009740D01*
X003198Y009739D02*
X003162Y009739D01*
X003162Y009705D02*
X003162Y010162D01*
X002705Y010162D01*
X002705Y010143D01*
X002717Y010069D01*
X002740Y009998D01*
X002774Y009931D01*
X002818Y009871D01*
X002871Y009818D01*
X002931Y009774D01*
X002998Y009740D01*
X003069Y009717D01*
X003143Y009705D01*
X003162Y009705D01*
X003000Y009739D02*
X001759Y009739D01*
X001788Y009760D02*
X001850Y009822D01*
X001900Y009892D01*
X001940Y009969D01*
X001966Y010051D01*
X001980Y010137D01*
X001980Y010160D01*
X001450Y010160D01*
X001450Y010200D01*
X001410Y010200D01*
X001410Y010730D01*
X001387Y010730D01*
X001301Y010716D01*
X001219Y010690D01*
X001142Y010650D01*
X001072Y010600D01*
X001010Y010538D01*
X000960Y010468D01*
X000920Y010391D01*
X000894Y010309D01*
X000880Y010223D01*
X000880Y010200D01*
X001410Y010200D01*
X001410Y010160D01*
X000880Y010160D01*
X000880Y010137D01*
X000894Y010051D01*
X000920Y009969D01*
X000960Y009892D01*
X001010Y009822D01*
X001072Y009760D01*
X001142Y009710D01*
X001219Y009670D01*
X001301Y009644D01*
X001387Y009630D01*
X001410Y009630D01*
X001410Y010160D01*
X001450Y010160D01*
X001450Y009630D01*
X001473Y009630D01*
X001559Y009644D01*
X001641Y009670D01*
X001718Y009710D01*
X001788Y009760D01*
X001903Y009898D02*
X002798Y009898D01*
X002721Y010056D02*
X001967Y010056D01*
X001980Y010200D02*
X001980Y010223D01*
X001966Y010309D01*
X001940Y010391D01*
X001900Y010468D01*
X001850Y010538D01*
X001788Y010600D01*
X001718Y010650D01*
X001641Y010690D01*
X001559Y010716D01*
X001473Y010730D01*
X001450Y010730D01*
X001450Y010200D01*
X001980Y010200D01*
X001980Y010215D02*
X002705Y010215D01*
X002745Y010373D02*
X001946Y010373D01*
X001854Y010532D02*
X002860Y010532D01*
X003162Y010532D02*
X003198Y010532D01*
X003198Y010373D02*
X003162Y010373D01*
X003162Y010215D02*
X003198Y010215D01*
X003198Y010056D02*
X003162Y010056D01*
X003162Y009898D02*
X003198Y009898D01*
X003010Y009581D02*
X000820Y009581D01*
X000820Y009739D02*
X001101Y009739D01*
X000957Y009898D02*
X000820Y009898D01*
X000820Y010056D02*
X000893Y010056D01*
X000880Y010215D02*
X000820Y010215D01*
X000820Y010373D02*
X000914Y010373D01*
X001006Y010532D02*
X000820Y010532D01*
X000820Y010690D02*
X001220Y010690D01*
X001410Y010690D02*
X001450Y010690D01*
X001450Y010532D02*
X001410Y010532D01*
X001410Y010373D02*
X001450Y010373D01*
X001450Y010215D02*
X001410Y010215D01*
X001410Y010056D02*
X001450Y010056D01*
X001450Y009898D02*
X001410Y009898D01*
X001410Y009739D02*
X001450Y009739D01*
X001579Y009190D02*
X001391Y009112D01*
X001248Y008969D01*
X001170Y008781D01*
X001170Y008579D01*
X001248Y008391D01*
X001391Y008248D01*
X001504Y008201D01*
X001469Y008190D01*
X001392Y008150D01*
X001322Y008100D01*
X001260Y008038D01*
X001210Y007968D01*
X001170Y007891D01*
X001144Y007809D01*
X001130Y007723D01*
X001130Y007680D01*
X001680Y007680D01*
X002230Y007680D01*
X002230Y007723D01*
X002216Y007809D01*
X002190Y007891D01*
X002150Y007968D01*
X002100Y008038D01*
X002038Y008100D01*
X001968Y008150D01*
X001891Y008190D01*
X001856Y008201D01*
X001969Y008248D01*
X002112Y008391D01*
X002190Y008579D01*
X002190Y008781D01*
X002112Y008969D01*
X001969Y009112D01*
X001781Y009190D01*
X001579Y009190D01*
X001384Y009105D02*
X000820Y009105D01*
X000820Y008947D02*
X001238Y008947D01*
X001173Y008788D02*
X000820Y008788D01*
X000820Y008630D02*
X001170Y008630D01*
X001215Y008471D02*
X000820Y008471D01*
X000820Y008313D02*
X001326Y008313D01*
X001399Y008154D02*
X000820Y008154D01*
X000820Y007996D02*
X001229Y007996D01*
X001153Y007837D02*
X000820Y007837D01*
X000820Y007679D02*
X001130Y007679D01*
X001130Y007680D02*
X001130Y007637D01*
X001144Y007551D01*
X001170Y007469D01*
X001210Y007392D01*
X001260Y007322D01*
X001322Y007260D01*
X001392Y007210D01*
X001469Y007170D01*
X001504Y007159D01*
X001391Y007112D01*
X001248Y006969D01*
X001170Y006781D01*
X001170Y006579D01*
X001248Y006391D01*
X001391Y006248D01*
X001579Y006170D01*
X001781Y006170D01*
X001969Y006248D01*
X002112Y006391D01*
X002190Y006579D01*
X002190Y006781D01*
X002112Y006969D01*
X001969Y007112D01*
X001856Y007159D01*
X001891Y007170D01*
X001968Y007210D01*
X002038Y007260D01*
X002100Y007322D01*
X002150Y007392D01*
X002190Y007469D01*
X002216Y007551D01*
X002230Y007637D01*
X002230Y007680D01*
X001680Y007680D01*
X001680Y007680D01*
X001680Y007680D01*
X001130Y007680D01*
X001154Y007520D02*
X000820Y007520D01*
X000820Y007362D02*
X001232Y007362D01*
X001405Y007203D02*
X000820Y007203D01*
X000820Y007045D02*
X001323Y007045D01*
X001213Y006886D02*
X000820Y006886D01*
X000820Y006728D02*
X001170Y006728D01*
X001174Y006569D02*
X000820Y006569D01*
X000820Y006411D02*
X001240Y006411D01*
X001387Y006252D02*
X000820Y006252D01*
X000820Y006094D02*
X002745Y006094D01*
X002745Y006093D02*
X002811Y005934D01*
X002934Y005811D01*
X003093Y005745D01*
X003267Y005745D01*
X003426Y005811D01*
X003549Y005934D01*
X003615Y006093D01*
X003615Y006267D01*
X003549Y006426D01*
X003426Y006549D01*
X003267Y006615D01*
X003093Y006615D01*
X002934Y006549D01*
X002811Y006426D01*
X002745Y006267D01*
X002745Y006093D01*
X002745Y006252D02*
X001973Y006252D01*
X002120Y006411D02*
X002805Y006411D01*
X002982Y006569D02*
X002186Y006569D01*
X002190Y006728D02*
X008152Y006728D01*
X007993Y006886D02*
X006501Y006886D01*
X006549Y006934D02*
X006615Y007093D01*
X006615Y007267D01*
X006549Y007426D01*
X006426Y007549D01*
X006267Y007615D01*
X006093Y007615D01*
X005934Y007549D01*
X005811Y007426D01*
X005745Y007267D01*
X005745Y007093D01*
X005811Y006934D01*
X005934Y006811D01*
X006093Y006745D01*
X006267Y006745D01*
X006426Y006811D01*
X006549Y006934D01*
X006595Y007045D02*
X007835Y007045D01*
X007676Y007203D02*
X006615Y007203D01*
X006576Y007362D02*
X007518Y007362D01*
X007359Y007520D02*
X006455Y007520D01*
X006452Y007837D02*
X007042Y007837D01*
X006884Y007996D02*
X006574Y007996D01*
X006615Y008154D02*
X006725Y008154D01*
X006250Y008630D02*
X002190Y008630D01*
X002187Y008788D02*
X002990Y008788D01*
X003093Y008615D02*
X002934Y008549D01*
X002811Y008426D01*
X002745Y008267D01*
X002745Y008093D01*
X002811Y007934D01*
X002934Y007811D01*
X003093Y007745D01*
X003267Y007745D01*
X003426Y007811D01*
X003549Y007934D01*
X003615Y008093D01*
X003615Y008267D01*
X003549Y008426D01*
X003426Y008549D01*
X003267Y008615D01*
X003093Y008615D01*
X002856Y008471D02*
X002145Y008471D01*
X002034Y008313D02*
X002764Y008313D01*
X002745Y008154D02*
X001961Y008154D01*
X002131Y007996D02*
X002786Y007996D01*
X002908Y007837D02*
X002207Y007837D01*
X002230Y007679D02*
X007201Y007679D01*
X006426Y006549D02*
X006267Y006615D01*
X006093Y006615D01*
X005934Y006549D01*
X005811Y006426D01*
X005745Y006267D01*
X005745Y006093D01*
X005811Y005934D01*
X005934Y005811D01*
X006093Y005745D01*
X006267Y005745D01*
X006426Y005811D01*
X006549Y005934D01*
X006615Y006093D01*
X006615Y006267D01*
X006549Y006426D01*
X006426Y006549D01*
X006378Y006569D02*
X008310Y006569D01*
X008469Y006411D02*
X006555Y006411D01*
X006615Y006252D02*
X008627Y006252D01*
X008786Y006094D02*
X006615Y006094D01*
X006549Y005935D02*
X008944Y005935D01*
X009090Y005777D02*
X006343Y005777D01*
X006267Y005615D02*
X006093Y005615D01*
X005934Y005549D01*
X005811Y005426D01*
X005745Y005267D01*
X005745Y005093D01*
X005811Y004934D01*
X005934Y004811D01*
X006093Y004745D01*
X006267Y004745D01*
X006426Y004811D01*
X006549Y004934D01*
X006560Y004960D01*
X006719Y004960D01*
X006748Y004891D01*
X006891Y004748D01*
X007079Y004670D01*
X007281Y004670D01*
X007469Y004748D01*
X007612Y004891D01*
X007690Y005079D01*
X007690Y005281D01*
X007612Y005469D01*
X007469Y005612D01*
X007281Y005690D01*
X007079Y005690D01*
X006891Y005612D01*
X006748Y005469D01*
X006719Y005400D01*
X006560Y005400D01*
X006549Y005426D01*
X006426Y005549D01*
X006267Y005615D01*
X006516Y005460D02*
X006744Y005460D01*
X006905Y005618D02*
X000820Y005618D01*
X000820Y005460D02*
X002844Y005460D01*
X002811Y005426D02*
X002745Y005267D01*
X002745Y005093D01*
X002811Y004934D01*
X002934Y004811D01*
X003093Y004745D01*
X003267Y004745D01*
X003426Y004811D01*
X003549Y004934D01*
X003615Y005093D01*
X003615Y005267D01*
X003549Y005426D01*
X003426Y005549D01*
X003267Y005615D01*
X003093Y005615D01*
X002934Y005549D01*
X002811Y005426D01*
X002759Y005301D02*
X000820Y005301D01*
X000820Y005143D02*
X002745Y005143D01*
X002790Y004984D02*
X000820Y004984D01*
X000820Y004826D02*
X002919Y004826D01*
X003093Y004615D02*
X002934Y004549D01*
X002811Y004426D01*
X002745Y004267D01*
X002745Y004093D01*
X002811Y003934D01*
X002934Y003811D01*
X003093Y003745D01*
X003267Y003745D01*
X003426Y003811D01*
X003549Y003934D01*
X003615Y004093D01*
X003615Y004267D01*
X003549Y004426D01*
X003426Y004549D01*
X003267Y004615D01*
X003093Y004615D01*
X002893Y004509D02*
X000820Y004509D01*
X000820Y004667D02*
X009090Y004667D01*
X009090Y004509D02*
X006467Y004509D01*
X006426Y004549D02*
X006267Y004615D01*
X006093Y004615D01*
X005934Y004549D01*
X005811Y004426D01*
X005745Y004267D01*
X005745Y004093D01*
X005756Y004067D01*
X005089Y003400D01*
X003141Y003400D01*
X003112Y003469D01*
X002969Y003612D01*
X002781Y003690D01*
X002579Y003690D01*
X002391Y003612D01*
X002248Y003469D01*
X002170Y003281D01*
X002170Y003079D01*
X002248Y002891D01*
X002391Y002748D01*
X002579Y002670D01*
X002781Y002670D01*
X002969Y002748D01*
X003112Y002891D01*
X003141Y002960D01*
X005271Y002960D01*
X005400Y003089D01*
X006067Y003756D01*
X006093Y003745D01*
X006267Y003745D01*
X006426Y003811D01*
X006549Y003934D01*
X006615Y004093D01*
X006615Y004267D01*
X006549Y004426D01*
X006426Y004549D01*
X006580Y004350D02*
X009090Y004350D01*
X009090Y004192D02*
X006615Y004192D01*
X006590Y004033D02*
X009090Y004033D01*
X009090Y003875D02*
X006490Y003875D01*
X006336Y003558D02*
X005869Y003558D01*
X006027Y003716D02*
X009090Y003716D01*
X009090Y003558D02*
X007024Y003558D01*
X006680Y003180D02*
X007930Y003180D01*
X008893Y002217D01*
X008973Y002448D02*
X009011Y002448D01*
X009092Y002607D02*
X008815Y002607D01*
X008656Y002765D02*
X009090Y002765D01*
X009090Y002924D02*
X008498Y002924D01*
X008339Y003082D02*
X009090Y003082D01*
X009090Y003241D02*
X008181Y003241D01*
X008022Y003399D02*
X009090Y003399D01*
X009770Y004192D02*
X011935Y004192D01*
X011935Y004350D02*
X009770Y004350D01*
X009770Y004509D02*
X012058Y004509D01*
X012217Y004667D02*
X009770Y004667D01*
X009770Y004826D02*
X010813Y004826D01*
X009090Y004826D02*
X007547Y004826D01*
X007651Y004984D02*
X009090Y004984D01*
X009090Y005143D02*
X007690Y005143D01*
X007682Y005301D02*
X009090Y005301D01*
X009090Y005460D02*
X007616Y005460D01*
X007455Y005618D02*
X009090Y005618D01*
X007180Y005180D02*
X006180Y005180D01*
X005790Y004984D02*
X003570Y004984D01*
X003615Y005143D02*
X005745Y005143D01*
X005759Y005301D02*
X003601Y005301D01*
X003516Y005460D02*
X005844Y005460D01*
X006017Y005777D02*
X003343Y005777D01*
X003549Y005935D02*
X005811Y005935D01*
X005745Y006094D02*
X003615Y006094D01*
X003615Y006252D02*
X005745Y006252D01*
X005805Y006411D02*
X003555Y006411D01*
X003378Y006569D02*
X005982Y006569D01*
X005859Y006886D02*
X003501Y006886D01*
X003549Y006934D02*
X003615Y007093D01*
X003615Y007267D01*
X003549Y007426D01*
X003426Y007549D01*
X003267Y007615D01*
X003093Y007615D01*
X002934Y007549D01*
X002811Y007426D01*
X002745Y007267D01*
X002745Y007093D01*
X002811Y006934D01*
X002934Y006811D01*
X003093Y006745D01*
X003267Y006745D01*
X003426Y006811D01*
X003549Y006934D01*
X003595Y007045D02*
X005765Y007045D01*
X005745Y007203D02*
X003615Y007203D01*
X003576Y007362D02*
X005784Y007362D01*
X005905Y007520D02*
X003455Y007520D01*
X003452Y007837D02*
X005908Y007837D01*
X005786Y007996D02*
X003574Y007996D01*
X003615Y008154D02*
X005745Y008154D01*
X005764Y008313D02*
X003596Y008313D01*
X003504Y008471D02*
X005856Y008471D01*
X005680Y009680D02*
X004680Y010680D01*
X004680Y012680D01*
X003180Y014180D01*
X002879Y014494D02*
X001948Y014494D01*
X001980Y014653D02*
X007170Y014653D01*
X007170Y014579D02*
X007248Y014391D01*
X007391Y014248D01*
X007579Y014170D01*
X007781Y014170D01*
X007969Y014248D01*
X008112Y014391D01*
X008190Y014579D01*
X008190Y014781D01*
X008112Y014969D01*
X007969Y015112D01*
X007806Y015180D01*
X007969Y015248D01*
X008112Y015391D01*
X008190Y015579D01*
X008190Y015781D01*
X008112Y015969D01*
X007969Y016112D01*
X007806Y016180D01*
X007969Y016248D01*
X008112Y016391D01*
X008190Y016579D01*
X008190Y016781D01*
X008112Y016969D01*
X007969Y017112D01*
X007781Y017190D01*
X007579Y017190D01*
X007391Y017112D01*
X007248Y016969D01*
X007170Y016781D01*
X007170Y016579D01*
X007248Y016391D01*
X007391Y016248D01*
X007554Y016180D01*
X007391Y016112D01*
X007248Y015969D01*
X007170Y015781D01*
X007170Y015579D01*
X007248Y015391D01*
X007391Y015248D01*
X007554Y015180D01*
X007391Y015112D01*
X007248Y014969D01*
X007170Y014781D01*
X007170Y014579D01*
X007205Y014494D02*
X006481Y014494D01*
X006426Y014549D02*
X006267Y014615D01*
X006093Y014615D01*
X005934Y014549D01*
X005811Y014426D01*
X005745Y014267D01*
X005745Y014093D01*
X005811Y013934D01*
X005934Y013811D01*
X006093Y013745D01*
X006267Y013745D01*
X006426Y013811D01*
X006549Y013934D01*
X006615Y014093D01*
X006615Y014267D01*
X006549Y014426D01*
X006426Y014549D01*
X006267Y014745D02*
X006426Y014811D01*
X007182Y014811D01*
X007248Y014970D02*
X006564Y014970D01*
X006549Y014934D02*
X006615Y015093D01*
X006615Y015267D01*
X006549Y015426D01*
X006426Y015549D01*
X006267Y015615D01*
X006093Y015615D01*
X005934Y015549D01*
X005811Y015426D01*
X005745Y015267D01*
X005745Y015093D01*
X005811Y014934D01*
X005934Y014811D01*
X003426Y014811D01*
X003549Y014934D01*
X003615Y015093D01*
X003615Y015267D01*
X003549Y015426D01*
X003426Y015549D01*
X003267Y015615D01*
X003093Y015615D01*
X002934Y015549D01*
X002811Y015426D01*
X002745Y015267D01*
X002745Y015093D01*
X002811Y014934D01*
X002934Y014811D01*
X001966Y014811D01*
X001899Y014970D02*
X002796Y014970D01*
X002745Y015128D02*
X001749Y015128D01*
X001592Y015445D02*
X002830Y015445D01*
X002753Y015287D02*
X000820Y015287D01*
X000820Y015445D02*
X001268Y015445D01*
X001329Y015420D02*
X001141Y015498D01*
X000998Y015641D01*
X000920Y015829D01*
X000920Y016031D01*
X000998Y016219D01*
X001141Y016362D01*
X001304Y016430D01*
X001141Y016498D01*
X000998Y016641D01*
X000920Y016829D01*
X000920Y017031D01*
X000998Y017219D01*
X001141Y017362D01*
X001329Y017440D01*
X001531Y017440D01*
X001719Y017362D01*
X001862Y017219D01*
X001940Y017031D01*
X001940Y016829D01*
X001862Y016641D01*
X001719Y016498D01*
X001556Y016430D01*
X001719Y016362D01*
X001862Y016219D01*
X001940Y016031D01*
X001940Y015829D01*
X001862Y015641D01*
X001719Y015498D01*
X001531Y015420D01*
X001329Y015420D01*
X001410Y015128D02*
X001450Y015128D01*
X001450Y014970D02*
X001410Y014970D01*
X001410Y014811D02*
X001450Y014811D01*
X001111Y015128D02*
X000820Y015128D01*
X000820Y014970D02*
X000961Y014970D01*
X000894Y014811D02*
X000820Y014811D01*
X000820Y014653D02*
X000880Y014653D01*
X000912Y014494D02*
X000820Y014494D01*
X000820Y014336D02*
X001000Y014336D01*
X000820Y014177D02*
X001206Y014177D01*
X001047Y014019D02*
X000820Y014019D01*
X000820Y013860D02*
X000953Y013860D01*
X000920Y013702D02*
X000820Y013702D01*
X000820Y013543D02*
X000935Y013543D01*
X001004Y013385D02*
X000820Y013385D01*
X000820Y013226D02*
X001193Y013226D01*
X001329Y012940D02*
X001141Y012862D01*
X000998Y012719D01*
X000920Y012531D01*
X000920Y012329D01*
X000998Y012141D01*
X001141Y011998D01*
X001304Y011930D01*
X001141Y011862D01*
X000998Y011719D01*
X000920Y011531D01*
X000920Y011329D01*
X000998Y011141D01*
X001141Y010998D01*
X001329Y010920D01*
X001531Y010920D01*
X001719Y010998D01*
X001862Y011141D01*
X001940Y011329D01*
X001940Y011531D01*
X001862Y011719D01*
X001719Y011862D01*
X001556Y011930D01*
X001719Y011998D01*
X001862Y012141D01*
X001940Y012329D01*
X001940Y012531D01*
X001862Y012719D01*
X001719Y012862D01*
X001531Y012940D01*
X001329Y012940D01*
X001254Y012909D02*
X000820Y012909D01*
X000820Y012751D02*
X001029Y012751D01*
X000945Y012592D02*
X000820Y012592D01*
X000820Y012434D02*
X000920Y012434D01*
X000942Y012275D02*
X000820Y012275D01*
X000820Y012117D02*
X001022Y012117D01*
X000820Y011958D02*
X001237Y011958D01*
X001078Y011800D02*
X000820Y011800D01*
X000820Y011641D02*
X000965Y011641D01*
X000920Y011483D02*
X000820Y011483D01*
X000820Y011324D02*
X000922Y011324D01*
X000988Y011166D02*
X000820Y011166D01*
X000820Y011007D02*
X001132Y011007D01*
X000820Y010849D02*
X002896Y010849D01*
X002679Y011007D02*
X001728Y011007D01*
X001872Y011166D02*
X002520Y011166D01*
X002362Y011324D02*
X001938Y011324D01*
X001940Y011483D02*
X002203Y011483D01*
X002130Y011641D02*
X001895Y011641D01*
X001782Y011800D02*
X002130Y011800D01*
X002130Y011958D02*
X001623Y011958D01*
X001838Y012117D02*
X002130Y012117D01*
X002130Y012275D02*
X001918Y012275D01*
X001940Y012434D02*
X002130Y012434D01*
X002094Y012592D02*
X001915Y012592D01*
X001935Y012751D02*
X001831Y012751D01*
X001777Y012909D02*
X001606Y012909D01*
X001618Y013068D02*
X000820Y013068D01*
X001907Y013860D02*
X002885Y013860D01*
X002776Y014019D02*
X001813Y014019D01*
X001654Y014177D02*
X002745Y014177D01*
X002774Y014336D02*
X001860Y014336D01*
X001940Y013702D02*
X003347Y013702D01*
X003267Y013615D02*
X003093Y013615D01*
X002934Y013549D01*
X002811Y013426D01*
X002745Y013267D01*
X002745Y013093D01*
X002811Y012934D01*
X002934Y012811D01*
X003093Y012745D01*
X003267Y012745D01*
X003426Y012811D01*
X003549Y012934D01*
X003615Y013093D01*
X003615Y013267D01*
X003549Y013426D01*
X003426Y013549D01*
X003267Y013615D01*
X003432Y013543D02*
X003506Y013543D01*
X003566Y013385D02*
X003664Y013385D01*
X003615Y013226D02*
X003823Y013226D01*
X003981Y013068D02*
X003604Y013068D01*
X003524Y012909D02*
X004140Y012909D01*
X004298Y012751D02*
X003280Y012751D01*
X003267Y012615D02*
X003093Y012615D01*
X002934Y012549D01*
X002811Y012426D01*
X002745Y012267D01*
X002745Y012093D01*
X002811Y011934D01*
X002934Y011811D01*
X003093Y011745D01*
X003267Y011745D01*
X003426Y011811D01*
X003549Y011934D01*
X003615Y012093D01*
X003615Y012267D01*
X003549Y012426D01*
X003426Y012549D01*
X003267Y012615D01*
X003322Y012592D02*
X004457Y012592D01*
X004460Y012434D02*
X003542Y012434D01*
X003611Y012275D02*
X004460Y012275D01*
X004460Y012117D02*
X003615Y012117D01*
X003559Y011958D02*
X004460Y011958D01*
X004460Y011800D02*
X003398Y011800D01*
X003493Y011483D02*
X004460Y011483D01*
X004460Y011641D02*
X002893Y011641D01*
X002962Y011800D02*
X002735Y011800D01*
X002730Y011958D02*
X002801Y011958D01*
X002745Y012117D02*
X002730Y012117D01*
X002730Y012275D02*
X002749Y012275D01*
X002730Y012434D02*
X002818Y012434D01*
X002730Y012592D02*
X003038Y012592D01*
X003080Y012751D02*
X002726Y012751D01*
X002625Y012909D02*
X002836Y012909D01*
X002756Y013068D02*
X002467Y013068D01*
X002308Y013226D02*
X002745Y013226D01*
X002794Y013385D02*
X002150Y013385D01*
X001991Y013543D02*
X002928Y013543D01*
X003615Y014177D02*
X005745Y014177D01*
X005774Y014336D02*
X003586Y014336D01*
X003481Y014494D02*
X005879Y014494D01*
X005934Y014811D02*
X006093Y014745D01*
X006267Y014745D01*
X006426Y014811D02*
X006549Y014934D01*
X006615Y015128D02*
X007429Y015128D01*
X007352Y015287D02*
X006607Y015287D01*
X006530Y015445D02*
X007225Y015445D01*
X007170Y015604D02*
X006294Y015604D01*
X006267Y015745D02*
X006426Y015811D01*
X006549Y015934D01*
X006615Y016093D01*
X006615Y016267D01*
X006549Y016426D01*
X006426Y016549D01*
X006267Y016615D01*
X006093Y016615D01*
X005934Y016549D01*
X005811Y016426D01*
X005745Y016267D01*
X005745Y016093D01*
X005811Y015934D01*
X005934Y015811D01*
X006093Y015745D01*
X006267Y015745D01*
X006308Y015762D02*
X007170Y015762D01*
X007228Y015921D02*
X006536Y015921D01*
X006609Y016079D02*
X007358Y016079D01*
X007416Y016238D02*
X006615Y016238D01*
X006561Y016396D02*
X007246Y016396D01*
X007180Y016555D02*
X006413Y016555D01*
X006267Y016745D02*
X006426Y016811D01*
X006549Y016934D01*
X006615Y017093D01*
X006615Y017267D01*
X006549Y017426D01*
X006515Y017460D01*
X008460Y017460D01*
X008460Y015589D01*
X008589Y015460D01*
X013589Y015460D01*
X015421Y013628D01*
X015460Y013533D01*
X015533Y013460D01*
X015628Y013421D01*
X015732Y013421D01*
X015827Y013460D01*
X015900Y013533D01*
X015939Y013628D01*
X015939Y013732D01*
X015900Y013827D01*
X015827Y013900D01*
X015732Y013939D01*
X013808Y015863D01*
X013785Y015863D01*
X013735Y015884D01*
X013719Y015900D01*
X008900Y015900D01*
X008900Y017647D01*
X008808Y017808D01*
X008647Y017900D01*
X005089Y017900D01*
X004960Y017771D01*
X004589Y017400D01*
X003615Y017400D01*
X003615Y017533D01*
X003533Y017615D01*
X002827Y017615D01*
X002745Y017533D01*
X002745Y016827D01*
X002827Y016745D01*
X003533Y016745D01*
X003615Y016827D01*
X003615Y016960D01*
X004771Y016960D01*
X005271Y017460D01*
X005845Y017460D01*
X005811Y017426D01*
X005745Y017267D01*
X005745Y017093D01*
X005811Y016934D01*
X005934Y016811D01*
X006093Y016745D01*
X006267Y016745D01*
X006487Y016872D02*
X007207Y016872D01*
X007170Y016713D02*
X001892Y016713D01*
X001940Y016872D02*
X002745Y016872D01*
X002745Y017030D02*
X001940Y017030D01*
X001875Y017189D02*
X002745Y017189D01*
X002745Y017347D02*
X001734Y017347D01*
X001126Y017347D02*
X000820Y017347D01*
X000820Y017189D02*
X000985Y017189D01*
X000920Y017030D02*
X000820Y017030D01*
X000820Y016872D02*
X000920Y016872D01*
X000968Y016713D02*
X000820Y016713D01*
X000820Y016555D02*
X001084Y016555D01*
X001222Y016396D02*
X000820Y016396D01*
X000820Y016238D02*
X001016Y016238D01*
X000940Y016079D02*
X000820Y016079D01*
X000820Y015921D02*
X000920Y015921D01*
X000948Y015762D02*
X000820Y015762D01*
X000820Y015604D02*
X001035Y015604D01*
X001638Y016396D02*
X002799Y016396D01*
X002811Y016426D02*
X002745Y016267D01*
X002745Y016093D01*
X002811Y015934D01*
X002934Y015811D01*
X003093Y015745D01*
X003267Y015745D01*
X003426Y015811D01*
X003549Y015934D01*
X003615Y016093D01*
X003615Y016267D01*
X003549Y016426D01*
X003426Y016549D01*
X003267Y016615D01*
X003093Y016615D01*
X002934Y016549D01*
X002811Y016426D01*
X002947Y016555D02*
X001776Y016555D01*
X001844Y016238D02*
X002745Y016238D01*
X002751Y016079D02*
X001920Y016079D01*
X001940Y015921D02*
X002824Y015921D01*
X003052Y015762D02*
X001912Y015762D01*
X001825Y015604D02*
X003066Y015604D01*
X003294Y015604D02*
X006066Y015604D01*
X006052Y015762D02*
X003308Y015762D01*
X003536Y015921D02*
X005824Y015921D01*
X005751Y016079D02*
X003609Y016079D01*
X003615Y016238D02*
X005745Y016238D01*
X005799Y016396D02*
X003561Y016396D01*
X003413Y016555D02*
X005947Y016555D01*
X005873Y016872D02*
X003615Y016872D01*
X003180Y017180D02*
X004680Y017180D01*
X005180Y017680D01*
X008555Y017680D01*
X008575Y017678D01*
X008594Y017674D01*
X008612Y017666D01*
X008628Y017656D01*
X008643Y017643D01*
X008656Y017628D01*
X008666Y017612D01*
X008674Y017594D01*
X008678Y017575D01*
X008680Y017555D01*
X008680Y015680D01*
X013628Y015680D01*
X013717Y015643D02*
X015680Y013680D01*
X015866Y013860D02*
X016879Y013860D01*
X016721Y013702D02*
X015939Y013702D01*
X015904Y013543D02*
X016562Y013543D01*
X016404Y013385D02*
X008175Y013385D01*
X008175Y013430D02*
X007680Y013430D01*
X007680Y013430D01*
X007680Y013925D01*
X007885Y013925D01*
X008175Y013635D01*
X008175Y013430D01*
X007680Y013430D01*
X007680Y013430D01*
X007680Y013430D01*
X007185Y013430D01*
X007185Y013635D01*
X007475Y013925D01*
X007680Y013925D01*
X007680Y013430D01*
X007680Y012935D01*
X007885Y012935D01*
X008175Y013225D01*
X008175Y013430D01*
X008175Y013543D02*
X015456Y013543D01*
X015347Y013702D02*
X008109Y013702D01*
X007950Y013860D02*
X015189Y013860D01*
X015030Y014019D02*
X006584Y014019D01*
X006615Y014177D02*
X007562Y014177D01*
X007798Y014177D02*
X014872Y014177D01*
X014713Y014336D02*
X008057Y014336D01*
X008155Y014494D02*
X014555Y014494D01*
X014396Y014653D02*
X008190Y014653D01*
X008178Y014811D02*
X014238Y014811D01*
X014079Y014970D02*
X008112Y014970D01*
X007931Y015128D02*
X013921Y015128D01*
X013762Y015287D02*
X008008Y015287D01*
X008135Y015445D02*
X013604Y015445D01*
X013716Y015643D02*
X013701Y015656D01*
X013685Y015666D01*
X013667Y015674D01*
X013648Y015678D01*
X013628Y015680D01*
X013909Y015762D02*
X018781Y015762D01*
X018623Y015604D02*
X014068Y015604D01*
X014226Y015445D02*
X018464Y015445D01*
X018306Y015287D02*
X014385Y015287D01*
X014543Y015128D02*
X018147Y015128D01*
X017989Y014970D02*
X014702Y014970D01*
X014860Y014811D02*
X017830Y014811D01*
X017672Y014653D02*
X015019Y014653D01*
X015177Y014494D02*
X017513Y014494D01*
X017355Y014336D02*
X015336Y014336D01*
X015494Y014177D02*
X017196Y014177D01*
X017038Y014019D02*
X015653Y014019D01*
X016245Y013226D02*
X008175Y013226D01*
X008018Y013068D02*
X016087Y013068D01*
X015928Y012909D02*
X006524Y012909D01*
X006549Y012934D02*
X006615Y013093D01*
X006615Y013267D01*
X006549Y013426D01*
X006426Y013549D01*
X006267Y013615D01*
X006093Y013615D01*
X005934Y013549D01*
X005811Y013426D01*
X005745Y013267D01*
X005745Y013093D01*
X005811Y012934D01*
X005934Y012811D01*
X006093Y012745D01*
X006267Y012745D01*
X006426Y012811D01*
X006549Y012934D01*
X006604Y013068D02*
X007342Y013068D01*
X007475Y012935D02*
X007185Y013225D01*
X007185Y013430D01*
X007680Y013430D01*
X007680Y013430D01*
X007680Y012935D01*
X007475Y012935D01*
X007492Y012885D02*
X007225Y012618D01*
X007225Y012242D01*
X007492Y011975D01*
X007824Y011975D01*
X007874Y011925D01*
X007680Y011925D01*
X007680Y011430D01*
X008175Y011430D01*
X008175Y011624D01*
X009339Y010460D01*
X010969Y010460D01*
X010998Y010391D01*
X011141Y010248D01*
X011329Y010170D01*
X011531Y010170D01*
X011719Y010248D01*
X011862Y010391D01*
X011940Y010579D01*
X011940Y010781D01*
X011862Y010969D01*
X011719Y011112D01*
X011531Y011190D01*
X011329Y011190D01*
X011141Y011112D01*
X010998Y010969D01*
X010969Y010900D01*
X009521Y010900D01*
X008135Y012286D01*
X008135Y012618D01*
X007868Y012885D01*
X007492Y012885D01*
X007357Y012751D02*
X006280Y012751D01*
X006267Y012615D02*
X006093Y012615D01*
X005934Y012549D01*
X005811Y012426D01*
X005745Y012267D01*
X005745Y012093D01*
X005811Y011934D01*
X005934Y011811D01*
X006093Y011745D01*
X006267Y011745D01*
X006426Y011811D01*
X006549Y011934D01*
X006615Y012093D01*
X006615Y012267D01*
X006549Y012426D01*
X006426Y012549D01*
X006267Y012615D01*
X006322Y012592D02*
X007225Y012592D01*
X007225Y012434D02*
X006542Y012434D01*
X006611Y012275D02*
X007225Y012275D01*
X007350Y012117D02*
X006615Y012117D01*
X006559Y011958D02*
X007841Y011958D01*
X007680Y011925D02*
X007475Y011925D01*
X007185Y011635D01*
X007185Y011430D01*
X007680Y011430D01*
X007680Y011430D01*
X007680Y011430D01*
X008175Y011430D01*
X008175Y011225D01*
X007885Y010935D01*
X007680Y010935D01*
X007680Y011430D01*
X007680Y011430D01*
X007680Y011430D01*
X007680Y011925D01*
X007680Y011800D02*
X007680Y011800D01*
X007680Y011641D02*
X007680Y011641D01*
X007680Y011483D02*
X007680Y011483D01*
X007680Y011430D02*
X007185Y011430D01*
X007185Y011225D01*
X007475Y010935D01*
X007680Y010935D01*
X007680Y011430D01*
X007680Y011324D02*
X007680Y011324D01*
X007680Y011166D02*
X007680Y011166D01*
X007680Y011007D02*
X007680Y011007D01*
X007868Y010885D02*
X007492Y010885D01*
X007225Y010618D01*
X007225Y010242D01*
X007492Y009975D01*
X007868Y009975D01*
X008135Y010242D01*
X008135Y010618D01*
X007868Y010885D01*
X007905Y010849D02*
X008950Y010849D01*
X008792Y011007D02*
X007957Y011007D01*
X008116Y011166D02*
X008633Y011166D01*
X008475Y011324D02*
X008175Y011324D01*
X008175Y011483D02*
X008316Y011483D01*
X008622Y011800D02*
X014819Y011800D01*
X014977Y011958D02*
X008463Y011958D01*
X008305Y012117D02*
X015136Y012117D01*
X015294Y012275D02*
X008146Y012275D01*
X008135Y012434D02*
X015453Y012434D01*
X015611Y012592D02*
X008135Y012592D01*
X008003Y012751D02*
X015770Y012751D01*
X016256Y012275D02*
X017214Y012275D01*
X017372Y012434D02*
X016414Y012434D01*
X016573Y012592D02*
X017476Y012592D01*
X017460Y012577D02*
X017421Y012482D01*
X014839Y009900D01*
X014326Y009900D01*
X014232Y009939D01*
X014128Y009939D01*
X014033Y009900D01*
X013960Y009827D01*
X013921Y009732D01*
X013921Y009628D01*
X013960Y009533D01*
X014033Y009460D01*
X014128Y009421D01*
X014232Y009421D01*
X014326Y009460D01*
X015021Y009460D01*
X015150Y009589D01*
X017732Y012171D01*
X017827Y012210D01*
X017900Y012283D01*
X017939Y012378D01*
X017939Y012482D01*
X017900Y012577D01*
X017827Y012650D01*
X017732Y012689D01*
X017628Y012689D01*
X017533Y012650D01*
X017460Y012577D01*
X017680Y012430D02*
X014930Y009680D01*
X014180Y009680D01*
X013941Y009581D02*
X013561Y009581D01*
X013720Y009739D02*
X013924Y009739D01*
X013878Y009898D02*
X014031Y009898D01*
X014037Y010056D02*
X014995Y010056D01*
X015153Y010215D02*
X014195Y010215D01*
X014354Y010373D02*
X015312Y010373D01*
X015470Y010532D02*
X014512Y010532D01*
X014671Y010690D02*
X015629Y010690D01*
X015787Y010849D02*
X014829Y010849D01*
X014988Y011007D02*
X015946Y011007D01*
X016104Y011166D02*
X015146Y011166D01*
X015305Y011324D02*
X016263Y011324D01*
X016421Y011483D02*
X015463Y011483D01*
X015622Y011641D02*
X016580Y011641D01*
X016738Y011800D02*
X015780Y011800D01*
X015939Y011958D02*
X016897Y011958D01*
X017055Y012117D02*
X016097Y012117D01*
X016731Y012751D02*
X020032Y012751D01*
X020032Y012909D02*
X016890Y012909D01*
X017048Y013068D02*
X020032Y013068D01*
X020032Y013226D02*
X017207Y013226D01*
X017365Y013385D02*
X020032Y013385D01*
X020032Y013543D02*
X017524Y013543D01*
X017682Y013702D02*
X020032Y013702D01*
X020032Y013860D02*
X017841Y013860D01*
X017999Y014019D02*
X020032Y014019D01*
X020032Y014177D02*
X018158Y014177D01*
X018316Y014336D02*
X020032Y014336D01*
X020032Y014494D02*
X018475Y014494D01*
X018633Y014653D02*
X020032Y014653D01*
X020032Y014811D02*
X018792Y014811D01*
X018950Y014970D02*
X020032Y014970D01*
X020032Y015128D02*
X019109Y015128D01*
X019267Y015287D02*
X020032Y015287D01*
X020032Y015445D02*
X019426Y015445D01*
X019584Y015604D02*
X020032Y015604D01*
X020032Y015762D02*
X019728Y015762D01*
X019770Y015921D02*
X020032Y015921D01*
X020032Y016079D02*
X019770Y016079D01*
X019770Y016238D02*
X020032Y016238D01*
X020032Y016396D02*
X019770Y016396D01*
X019770Y016555D02*
X020032Y016555D01*
X020032Y016713D02*
X019770Y016713D01*
X019770Y016872D02*
X020032Y016872D01*
X020032Y017030D02*
X019770Y017030D01*
X019770Y017189D02*
X020032Y017189D01*
X020032Y017347D02*
X019770Y017347D01*
X019770Y017506D02*
X020032Y017506D01*
X020032Y017664D02*
X019770Y017664D01*
X019770Y017823D02*
X020032Y017823D01*
X020032Y017981D02*
X019874Y017981D01*
X019885Y018140D02*
X020032Y018140D01*
X020032Y018298D02*
X019885Y018298D01*
X019797Y018457D02*
X020032Y018457D01*
X020032Y018615D02*
X019638Y018615D01*
X019222Y018615D02*
X018695Y018615D01*
X018635Y018675D02*
X018430Y018675D01*
X018430Y018180D01*
X018925Y018180D01*
X018925Y018385D01*
X018635Y018675D01*
X018430Y018675D02*
X018225Y018675D01*
X017935Y018385D01*
X017935Y018180D01*
X018430Y018180D01*
X018430Y018180D01*
X018430Y018180D01*
X018925Y018180D01*
X018925Y017975D01*
X018635Y017685D01*
X018430Y017685D01*
X018430Y018180D01*
X018430Y018180D01*
X018430Y018180D01*
X018430Y018675D01*
X018430Y018615D02*
X018430Y018615D01*
X018430Y018457D02*
X018430Y018457D01*
X018430Y018298D02*
X018430Y018298D01*
X018430Y018180D02*
X017935Y018180D01*
X017935Y017975D01*
X018225Y017685D01*
X018430Y017685D01*
X018430Y018180D01*
X018430Y018140D02*
X018430Y018140D01*
X018430Y017981D02*
X018430Y017981D01*
X018430Y017823D02*
X018430Y017823D01*
X018773Y017823D02*
X019090Y017823D01*
X019090Y017664D02*
X008890Y017664D01*
X008900Y017506D02*
X019090Y017506D01*
X019090Y017347D02*
X008900Y017347D01*
X008900Y017189D02*
X019090Y017189D01*
X019090Y017030D02*
X008900Y017030D01*
X008900Y016872D02*
X019090Y016872D01*
X019090Y016713D02*
X008900Y016713D01*
X008900Y016555D02*
X019090Y016555D01*
X019090Y016396D02*
X008900Y016396D01*
X008900Y016238D02*
X019090Y016238D01*
X019090Y016079D02*
X008900Y016079D01*
X008900Y015921D02*
X018940Y015921D01*
X018087Y017823D02*
X008782Y017823D01*
X008808Y017808D02*
X008808Y017808D01*
X008808Y017808D01*
X008770Y018298D02*
X008610Y018298D01*
X008610Y018457D02*
X008770Y018457D01*
X008770Y018615D02*
X008610Y018615D01*
X008610Y018774D02*
X008770Y018774D01*
X008770Y018932D02*
X008610Y018932D01*
X008610Y019091D02*
X008770Y019091D01*
X008770Y019249D02*
X008610Y019249D01*
X008610Y019408D02*
X001811Y019408D01*
X001788Y019385D02*
X001850Y019447D01*
X001900Y019517D01*
X001940Y019594D01*
X001966Y019676D01*
X001980Y019762D01*
X001980Y019785D01*
X001450Y019785D01*
X001450Y019825D01*
X001410Y019825D01*
X001410Y020355D01*
X001387Y020355D01*
X001301Y020341D01*
X001219Y020315D01*
X001142Y020275D01*
X001072Y020224D01*
X001010Y020163D01*
X000960Y020093D01*
X000920Y020016D01*
X000894Y019934D01*
X000880Y019848D01*
X000880Y019825D01*
X001410Y019825D01*
X001410Y019785D01*
X000880Y019785D01*
X000880Y019762D01*
X000894Y019676D01*
X000920Y019594D01*
X000960Y019517D01*
X001010Y019447D01*
X001072Y019385D01*
X001142Y019334D01*
X001219Y019295D01*
X001301Y019268D01*
X001387Y019255D01*
X001410Y019255D01*
X001410Y019785D01*
X001450Y019785D01*
X001450Y019255D01*
X001473Y019255D01*
X001559Y019268D01*
X001641Y019295D01*
X001718Y019334D01*
X001788Y019385D01*
X001926Y019566D02*
X008060Y019566D01*
X008060Y019725D02*
X001974Y019725D01*
X001980Y019825D02*
X001980Y019848D01*
X001966Y019934D01*
X001940Y020016D01*
X001900Y020093D01*
X001850Y020163D01*
X001788Y020224D01*
X001718Y020275D01*
X001641Y020315D01*
X001559Y020341D01*
X001473Y020355D01*
X001450Y020355D01*
X001450Y019825D01*
X001980Y019825D01*
X001974Y019883D02*
X008060Y019883D01*
X008060Y020042D02*
X001927Y020042D01*
X001813Y020200D02*
X008060Y020200D01*
X008060Y020359D02*
X001232Y020359D01*
X001410Y020200D02*
X001450Y020200D01*
X001450Y020042D02*
X001410Y020042D01*
X001410Y019883D02*
X001450Y019883D01*
X001450Y019725D02*
X001410Y019725D01*
X001410Y019566D02*
X001450Y019566D01*
X001450Y019408D02*
X001410Y019408D01*
X001049Y019408D02*
X000820Y019408D01*
X000820Y019566D02*
X000934Y019566D01*
X000886Y019725D02*
X000820Y019725D01*
X000834Y019883D02*
X000886Y019883D01*
X000886Y020042D02*
X000933Y020042D01*
X000995Y020200D02*
X001047Y020200D01*
X000820Y019249D02*
X008060Y019249D01*
X008060Y019091D02*
X000820Y019091D01*
X000820Y018932D02*
X008060Y018932D01*
X008060Y018774D02*
X000820Y018774D01*
X000820Y018615D02*
X008060Y018615D01*
X008060Y018457D02*
X000820Y018457D01*
X000820Y018298D02*
X008107Y018298D01*
X008460Y017347D02*
X006582Y017347D01*
X006615Y017189D02*
X007575Y017189D01*
X007785Y017189D02*
X008460Y017189D01*
X008460Y017030D02*
X008051Y017030D01*
X008153Y016872D02*
X008460Y016872D01*
X008460Y016713D02*
X008190Y016713D01*
X008180Y016555D02*
X008460Y016555D01*
X008460Y016396D02*
X008114Y016396D01*
X007944Y016238D02*
X008460Y016238D01*
X008460Y016079D02*
X008002Y016079D01*
X008132Y015921D02*
X008460Y015921D01*
X008460Y015762D02*
X008190Y015762D01*
X008190Y015604D02*
X008460Y015604D01*
X007303Y014336D02*
X006586Y014336D01*
X006475Y013860D02*
X007410Y013860D01*
X007251Y013702D02*
X003970Y013702D01*
X003811Y013860D02*
X005885Y013860D01*
X005776Y014019D02*
X003653Y014019D01*
X004128Y013543D02*
X005928Y013543D01*
X005794Y013385D02*
X004287Y013385D01*
X004445Y013226D02*
X005745Y013226D01*
X005756Y013068D02*
X004604Y013068D01*
X004762Y012909D02*
X005836Y012909D01*
X006080Y012751D02*
X004900Y012751D01*
X004900Y012592D02*
X006038Y012592D01*
X005818Y012434D02*
X004900Y012434D01*
X004900Y012275D02*
X005749Y012275D01*
X005745Y012117D02*
X004900Y012117D01*
X004900Y011958D02*
X005801Y011958D01*
X005962Y011800D02*
X004900Y011800D01*
X004900Y011641D02*
X006062Y011641D01*
X006069Y011643D02*
X005998Y011620D01*
X005931Y011586D01*
X005871Y011542D01*
X005818Y011489D01*
X005774Y011429D01*
X005740Y011362D01*
X005717Y011291D01*
X005705Y011217D01*
X005705Y011198D01*
X006162Y011198D01*
X006162Y011655D01*
X006143Y011655D01*
X006069Y011643D01*
X006162Y011641D02*
X006198Y011641D01*
X006198Y011655D02*
X006198Y011198D01*
X006655Y011198D01*
X006655Y011217D01*
X006643Y011291D01*
X006620Y011362D01*
X006586Y011429D01*
X006542Y011489D01*
X006489Y011542D01*
X006429Y011586D01*
X006362Y011620D01*
X006291Y011643D01*
X006217Y011655D01*
X006198Y011655D01*
X006298Y011641D02*
X007191Y011641D01*
X007185Y011483D02*
X006547Y011483D01*
X006633Y011324D02*
X007185Y011324D01*
X007244Y011166D02*
X006198Y011166D01*
X006198Y011162D02*
X006198Y011198D01*
X006162Y011198D01*
X006162Y011162D01*
X006198Y011162D01*
X006655Y011162D01*
X006655Y011143D01*
X006643Y011069D01*
X006620Y010998D01*
X006586Y010931D01*
X006542Y010871D01*
X006489Y010818D01*
X006429Y010774D01*
X006362Y010740D01*
X006291Y010717D01*
X006217Y010705D01*
X006198Y010705D01*
X006198Y011162D01*
X006162Y011162D02*
X006162Y010705D01*
X006143Y010705D01*
X006069Y010717D01*
X005998Y010740D01*
X005931Y010774D01*
X005871Y010818D01*
X005818Y010871D01*
X005774Y010931D01*
X005740Y010998D01*
X005717Y011069D01*
X005705Y011143D01*
X005705Y011162D01*
X006162Y011162D01*
X006162Y011166D02*
X004900Y011166D01*
X004900Y011324D02*
X005727Y011324D01*
X005813Y011483D02*
X004900Y011483D01*
X004460Y011324D02*
X003960Y011324D01*
X004119Y011166D02*
X004460Y011166D01*
X004460Y011007D02*
X004277Y011007D01*
X004436Y010849D02*
X004460Y010849D01*
X004900Y010849D02*
X005840Y010849D01*
X005737Y011007D02*
X004900Y011007D01*
X004981Y010690D02*
X007297Y010690D01*
X007225Y010532D02*
X006444Y010532D01*
X006571Y010373D02*
X007225Y010373D01*
X007252Y010215D02*
X006615Y010215D01*
X006599Y010056D02*
X007411Y010056D01*
X007949Y010056D02*
X013075Y010056D01*
X013031Y010170D02*
X013219Y010248D01*
X013362Y010391D01*
X013440Y010579D01*
X013440Y010781D01*
X013362Y010969D01*
X013219Y011112D01*
X013031Y011190D01*
X012829Y011190D01*
X012641Y011112D01*
X012498Y010969D01*
X012420Y010781D01*
X012420Y010579D01*
X012498Y010391D01*
X012641Y010248D01*
X012829Y010170D01*
X013031Y010170D01*
X013139Y010215D02*
X013234Y010215D01*
X013344Y010373D02*
X013392Y010373D01*
X013421Y010532D02*
X013551Y010532D01*
X013440Y010690D02*
X013709Y010690D01*
X013868Y010849D02*
X013412Y010849D01*
X013324Y011007D02*
X014026Y011007D01*
X014185Y011166D02*
X013091Y011166D01*
X012769Y011166D02*
X011591Y011166D01*
X011824Y011007D02*
X012536Y011007D01*
X012448Y010849D02*
X011912Y010849D01*
X011940Y010690D02*
X012420Y010690D01*
X012439Y010532D02*
X011921Y010532D01*
X011844Y010373D02*
X012516Y010373D01*
X012721Y010215D02*
X011639Y010215D01*
X011430Y010680D02*
X009430Y010680D01*
X007680Y012430D01*
X007680Y013068D02*
X007680Y013068D01*
X007680Y013226D02*
X007680Y013226D01*
X007680Y013385D02*
X007680Y013385D01*
X007680Y013543D02*
X007680Y013543D01*
X007680Y013702D02*
X007680Y013702D01*
X007680Y013860D02*
X007680Y013860D01*
X007185Y013543D02*
X006432Y013543D01*
X006566Y013385D02*
X007185Y013385D01*
X007185Y013226D02*
X006615Y013226D01*
X006398Y011800D02*
X007349Y011800D01*
X007403Y011007D02*
X006623Y011007D01*
X006520Y010849D02*
X007455Y010849D01*
X008063Y010690D02*
X009109Y010690D01*
X009267Y010532D02*
X008135Y010532D01*
X008135Y010373D02*
X011016Y010373D01*
X011221Y010215D02*
X008108Y010215D01*
X009097Y011324D02*
X014343Y011324D01*
X014502Y011483D02*
X008939Y011483D01*
X008780Y011641D02*
X014660Y011641D01*
X015776Y010215D02*
X020032Y010215D01*
X020032Y010373D02*
X015934Y010373D01*
X016093Y010532D02*
X020032Y010532D01*
X020032Y010690D02*
X016251Y010690D01*
X016410Y010849D02*
X020032Y010849D01*
X020032Y011007D02*
X016568Y011007D01*
X016727Y011166D02*
X020032Y011166D01*
X020032Y011324D02*
X016885Y011324D01*
X017044Y011483D02*
X020032Y011483D01*
X020032Y011641D02*
X017202Y011641D01*
X017361Y011800D02*
X020032Y011800D01*
X020032Y011958D02*
X017519Y011958D01*
X017678Y012117D02*
X020032Y012117D01*
X020032Y012275D02*
X017891Y012275D01*
X017939Y012434D02*
X020032Y012434D01*
X020032Y012592D02*
X017884Y012592D01*
X020032Y010056D02*
X015617Y010056D01*
X015459Y009898D02*
X017031Y009898D01*
X017033Y009900D02*
X016960Y009827D01*
X016921Y009732D01*
X016921Y009628D01*
X016960Y009533D01*
X017033Y009460D01*
X017128Y009421D01*
X017670Y008879D01*
X017670Y008469D01*
X017949Y008190D01*
X017869Y008190D01*
X017570Y007891D01*
X017570Y007469D01*
X017659Y007380D01*
X016346Y007380D01*
X016327Y007400D01*
X016232Y007439D01*
X016128Y007439D01*
X016033Y007400D01*
X015960Y007327D01*
X015921Y007232D01*
X015921Y007128D01*
X015960Y007033D01*
X016033Y006960D01*
X016128Y006921D01*
X016232Y006921D01*
X016327Y006960D01*
X016346Y006980D01*
X017759Y006980D01*
X017670Y006891D01*
X017670Y006469D01*
X017969Y006170D01*
X018391Y006170D01*
X018652Y006430D01*
X018952Y006130D01*
X019160Y006130D01*
X019160Y006660D01*
X019200Y006660D01*
X019200Y006700D01*
X019730Y006700D01*
X019730Y006908D01*
X019408Y007230D01*
X019351Y007230D01*
X019590Y007469D01*
X019590Y007891D01*
X019311Y008170D01*
X019391Y008170D01*
X019690Y008469D01*
X019690Y008891D01*
X019391Y009190D01*
X018969Y009190D01*
X018680Y008901D01*
X018391Y009190D01*
X017981Y009190D01*
X017439Y009732D01*
X017400Y009827D01*
X017327Y009900D01*
X017232Y009939D01*
X017128Y009939D01*
X017033Y009900D01*
X016924Y009739D02*
X015300Y009739D01*
X015150Y009589D02*
X015150Y009589D01*
X015142Y009581D02*
X016941Y009581D01*
X017126Y009422D02*
X014234Y009422D01*
X014126Y009422D02*
X013403Y009422D01*
X013244Y009264D02*
X017285Y009264D01*
X017444Y009105D02*
X013086Y009105D01*
X012927Y008947D02*
X017602Y008947D01*
X017670Y008788D02*
X012769Y008788D01*
X012610Y008630D02*
X017670Y008630D01*
X017670Y008471D02*
X012452Y008471D01*
X012293Y008313D02*
X017826Y008313D01*
X017833Y008154D02*
X012135Y008154D01*
X011976Y007996D02*
X017674Y007996D01*
X017570Y007837D02*
X011818Y007837D01*
X011659Y007679D02*
X017570Y007679D01*
X017570Y007520D02*
X011501Y007520D01*
X011342Y007362D02*
X015995Y007362D01*
X015921Y007203D02*
X011600Y007203D01*
X013287Y007045D02*
X015956Y007045D01*
X014900Y006728D02*
X017670Y006728D01*
X017670Y006886D02*
X014785Y006886D01*
X014900Y006569D02*
X017670Y006569D01*
X017728Y006411D02*
X014900Y006411D01*
X014900Y006252D02*
X017887Y006252D01*
X018473Y006252D02*
X018830Y006252D01*
X018672Y006411D02*
X018632Y006411D01*
X019160Y006411D02*
X019200Y006411D01*
X019200Y006569D02*
X019160Y006569D01*
X019200Y006660D02*
X019200Y006130D01*
X019408Y006130D01*
X019730Y006452D01*
X019730Y006660D01*
X019200Y006660D01*
X019200Y006252D02*
X019160Y006252D01*
X019530Y006252D02*
X020032Y006252D01*
X020032Y006094D02*
X014900Y006094D01*
X014900Y005935D02*
X020032Y005935D01*
X020032Y005777D02*
X014900Y005777D01*
X014900Y005618D02*
X020032Y005618D01*
X020032Y005460D02*
X014900Y005460D01*
X014900Y005301D02*
X020032Y005301D01*
X020032Y005143D02*
X014900Y005143D01*
X014900Y004984D02*
X020032Y004984D01*
X020032Y004826D02*
X014900Y004826D01*
X014900Y004667D02*
X015967Y004667D01*
X016180Y004667D02*
X016180Y004667D01*
X016180Y004509D02*
X016180Y004509D01*
X016180Y004350D02*
X016180Y004350D01*
X016180Y004192D02*
X016180Y004192D01*
X016180Y004033D02*
X016180Y004033D01*
X016180Y003875D02*
X016180Y003875D01*
X016180Y003716D02*
X016180Y003716D01*
X016416Y003716D02*
X020032Y003716D01*
X020032Y003558D02*
X016446Y003558D01*
X016604Y003399D02*
X020032Y003399D01*
X020032Y003241D02*
X016635Y003241D01*
X016635Y003082D02*
X020032Y003082D01*
X020032Y002924D02*
X016567Y002924D01*
X016575Y003875D02*
X020032Y003875D01*
X020032Y004033D02*
X016675Y004033D01*
X016675Y004192D02*
X020032Y004192D01*
X020032Y004350D02*
X016675Y004350D01*
X016552Y004509D02*
X020032Y004509D01*
X020032Y004667D02*
X016393Y004667D01*
X015808Y004509D02*
X014900Y004509D01*
X014900Y004350D02*
X015685Y004350D01*
X015685Y004192D02*
X014900Y004192D01*
X013698Y004033D02*
X013662Y004033D01*
X013662Y003875D02*
X013698Y003875D01*
X013698Y003716D02*
X013662Y003716D01*
X013662Y003558D02*
X013698Y003558D01*
X013698Y003399D02*
X013662Y003399D01*
X014115Y002448D02*
X019244Y002448D01*
X019219Y002440D02*
X019301Y002466D01*
X019387Y002480D01*
X019410Y002480D01*
X019410Y001950D01*
X019450Y001950D01*
X019450Y002480D01*
X019473Y002480D01*
X019559Y002466D01*
X019641Y002440D01*
X019718Y002400D01*
X019788Y002350D01*
X019850Y002288D01*
X019900Y002218D01*
X019940Y002141D01*
X019966Y002059D01*
X019980Y001973D01*
X019980Y001950D01*
X019450Y001950D01*
X019450Y001910D01*
X019980Y001910D01*
X019980Y001887D01*
X019966Y001801D01*
X019940Y001719D01*
X019900Y001642D01*
X019850Y001572D01*
X019788Y001510D01*
X019718Y001460D01*
X019641Y001420D01*
X019559Y001394D01*
X019473Y001380D01*
X019450Y001380D01*
X019450Y001910D01*
X019410Y001910D01*
X019410Y001380D01*
X019387Y001380D01*
X019301Y001394D01*
X019219Y001420D01*
X019142Y001460D01*
X019072Y001510D01*
X019010Y001572D01*
X018960Y001642D01*
X018920Y001719D01*
X018909Y001754D01*
X018862Y001641D01*
X018719Y001498D01*
X018531Y001420D01*
X018329Y001420D01*
X018141Y001498D01*
X017998Y001641D01*
X017920Y001829D01*
X017920Y002031D01*
X017998Y002219D01*
X018141Y002362D01*
X018329Y002440D01*
X018531Y002440D01*
X018719Y002362D01*
X018862Y002219D01*
X018909Y002106D01*
X018920Y002141D01*
X018960Y002218D01*
X019010Y002288D01*
X019072Y002350D01*
X019142Y002400D01*
X019219Y002440D01*
X019410Y002448D02*
X019450Y002448D01*
X019450Y002290D02*
X019410Y002290D01*
X019410Y002131D02*
X019450Y002131D01*
X019450Y001973D02*
X019410Y001973D01*
X019410Y001814D02*
X019450Y001814D01*
X019450Y001656D02*
X019410Y001656D01*
X019410Y001497D02*
X019450Y001497D01*
X019518Y001339D02*
X001334Y001339D01*
X001450Y001380D02*
X001473Y001380D01*
X001559Y001394D01*
X001641Y001420D01*
X001718Y001460D01*
X001788Y001510D01*
X001850Y001572D01*
X001900Y001642D01*
X001940Y001719D01*
X001966Y001801D01*
X001980Y001887D01*
X001980Y001910D01*
X001450Y001910D01*
X001450Y001380D01*
X001450Y001497D02*
X001410Y001497D01*
X001410Y001656D02*
X001450Y001656D01*
X001450Y001814D02*
X001410Y001814D01*
X001410Y001973D02*
X001450Y001973D01*
X001450Y002131D02*
X001410Y002131D01*
X001410Y002290D02*
X001450Y002290D01*
X001848Y002290D02*
X006262Y002290D01*
X006167Y002131D02*
X001943Y002131D01*
X001980Y001973D02*
X006130Y001973D01*
X006130Y001910D02*
X006130Y001887D01*
X006144Y001801D01*
X006170Y001719D01*
X006210Y001642D01*
X006260Y001572D01*
X006322Y001510D01*
X006392Y001460D01*
X006469Y001420D01*
X006551Y001394D01*
X006637Y001380D01*
X006660Y001380D01*
X006660Y001910D01*
X006130Y001910D01*
X006142Y001814D02*
X001968Y001814D01*
X001907Y001656D02*
X006203Y001656D01*
X006340Y001497D02*
X001770Y001497D01*
X002374Y002765D02*
X000820Y002765D01*
X000820Y002607D02*
X008192Y002607D01*
X008034Y002765D02*
X006986Y002765D01*
X007126Y002924D02*
X007875Y002924D01*
X008009Y002290D02*
X007679Y002290D01*
X007819Y002131D02*
X007833Y002131D01*
X007430Y002131D02*
X007430Y002131D01*
X007430Y001973D02*
X007430Y001973D01*
X007430Y001930D02*
X007430Y001930D01*
X006993Y001930D01*
X007430Y001930D01*
X007430Y001814D02*
X007430Y001814D01*
X007430Y001656D02*
X007430Y001656D01*
X007430Y001497D02*
X007430Y001497D01*
X007493Y001497D02*
X018143Y001497D01*
X017992Y001656D02*
X009218Y001656D01*
X009312Y001814D02*
X017926Y001814D01*
X017920Y001973D02*
X009327Y001973D01*
X009328Y002131D02*
X017961Y002131D01*
X018068Y002290D02*
X014077Y002290D01*
X013283Y002290D02*
X009434Y002290D01*
X008642Y001656D02*
X008468Y001656D01*
X007892Y001656D02*
X007771Y001656D01*
X007367Y001497D02*
X007020Y001497D01*
X006700Y001497D02*
X006660Y001497D01*
X006660Y001656D02*
X006700Y001656D01*
X006700Y001814D02*
X006660Y001814D01*
X006660Y001973D02*
X006700Y001973D01*
X006700Y002131D02*
X006660Y002131D01*
X006660Y002290D02*
X006700Y002290D01*
X007098Y002290D02*
X007181Y002290D01*
X007430Y002290D02*
X007430Y002290D01*
X006374Y002765D02*
X002986Y002765D01*
X003126Y002924D02*
X006234Y002924D01*
X006170Y003082D02*
X005393Y003082D01*
X005552Y003241D02*
X006170Y003241D01*
X006219Y003399D02*
X005710Y003399D01*
X005405Y003716D02*
X000820Y003716D01*
X000820Y003558D02*
X002336Y003558D01*
X002219Y003399D02*
X000820Y003399D01*
X000820Y003241D02*
X002170Y003241D01*
X002170Y003082D02*
X000820Y003082D01*
X000820Y002924D02*
X002234Y002924D01*
X002680Y003180D02*
X005180Y003180D01*
X006180Y004180D01*
X005780Y004350D02*
X003580Y004350D01*
X003615Y004192D02*
X005745Y004192D01*
X005722Y004033D02*
X003590Y004033D01*
X003490Y003875D02*
X005563Y003875D01*
X005246Y003558D02*
X003024Y003558D01*
X002870Y003875D02*
X000820Y003875D01*
X000820Y004033D02*
X002770Y004033D01*
X002745Y004192D02*
X000820Y004192D01*
X000820Y004350D02*
X002780Y004350D01*
X003467Y004509D02*
X005893Y004509D01*
X005919Y004826D02*
X003441Y004826D01*
X003017Y005777D02*
X000820Y005777D01*
X000820Y005935D02*
X002811Y005935D01*
X002859Y006886D02*
X002147Y006886D01*
X002037Y007045D02*
X002765Y007045D01*
X002745Y007203D02*
X001955Y007203D01*
X002128Y007362D02*
X002784Y007362D01*
X002905Y007520D02*
X002206Y007520D01*
X002122Y008947D02*
X002806Y008947D01*
X002745Y009105D02*
X001976Y009105D01*
X002745Y009264D02*
X000820Y009264D01*
X000820Y009422D02*
X002809Y009422D01*
X003562Y009898D02*
X004538Y009898D01*
X004380Y010056D02*
X003639Y010056D01*
X003655Y010215D02*
X004221Y010215D01*
X004063Y010373D02*
X003615Y010373D01*
X003500Y010532D02*
X003904Y010532D01*
X003746Y010690D02*
X001640Y010690D01*
X003464Y010849D02*
X003587Y010849D01*
X005140Y010532D02*
X005916Y010532D01*
X005789Y010373D02*
X005298Y010373D01*
X005457Y010215D02*
X005745Y010215D01*
X005761Y010056D02*
X005615Y010056D01*
X005680Y009680D02*
X010680Y009680D01*
X010919Y009581D02*
X012600Y009581D01*
X012758Y009739D02*
X010936Y009739D01*
X010829Y009898D02*
X012917Y009898D01*
X011269Y011166D02*
X009256Y011166D01*
X009414Y011007D02*
X011036Y011007D01*
X013370Y006411D02*
X014460Y006411D01*
X017180Y009680D02*
X018180Y008680D01*
X018476Y009105D02*
X018884Y009105D01*
X018725Y008947D02*
X018635Y008947D01*
X019327Y008154D02*
X020032Y008154D01*
X020032Y007996D02*
X019486Y007996D01*
X019590Y007837D02*
X020032Y007837D01*
X020032Y007679D02*
X019590Y007679D01*
X019590Y007520D02*
X020032Y007520D01*
X020032Y007362D02*
X019483Y007362D01*
X019435Y007203D02*
X020032Y007203D01*
X020032Y007045D02*
X019593Y007045D01*
X019730Y006886D02*
X020032Y006886D01*
X020032Y006728D02*
X019730Y006728D01*
X019730Y006569D02*
X020032Y006569D01*
X020032Y006411D02*
X019688Y006411D01*
X019534Y008313D02*
X020032Y008313D01*
X020032Y008471D02*
X019690Y008471D01*
X019690Y008630D02*
X020032Y008630D01*
X020032Y008788D02*
X019690Y008788D01*
X019635Y008947D02*
X020032Y008947D01*
X020032Y009105D02*
X019476Y009105D01*
X020032Y009264D02*
X017908Y009264D01*
X017749Y009422D02*
X020032Y009422D01*
X020032Y009581D02*
X017591Y009581D01*
X017436Y009739D02*
X020032Y009739D01*
X020032Y009898D02*
X017329Y009898D01*
X019616Y002448D02*
X020032Y002448D01*
X020032Y002290D02*
X019848Y002290D01*
X019943Y002131D02*
X020032Y002131D01*
X020032Y001973D02*
X019980Y001973D01*
X019968Y001814D02*
X020007Y001814D01*
X019948Y001656D02*
X019907Y001656D01*
X019825Y001497D02*
X019770Y001497D01*
X019090Y001497D02*
X018717Y001497D01*
X018868Y001656D02*
X018953Y001656D01*
X018917Y002131D02*
X018899Y002131D01*
X018792Y002290D02*
X019012Y002290D01*
X006813Y004826D02*
X006441Y004826D01*
X006198Y010849D02*
X006162Y010849D01*
X006162Y011007D02*
X006198Y011007D01*
X006198Y011324D02*
X006162Y011324D01*
X006162Y011483D02*
X006198Y011483D01*
X005796Y014970D02*
X003564Y014970D01*
X003615Y015128D02*
X005745Y015128D01*
X005753Y015287D02*
X003607Y015287D01*
X003530Y015445D02*
X005830Y015445D01*
X005771Y017030D02*
X004841Y017030D01*
X005000Y017189D02*
X005745Y017189D01*
X005778Y017347D02*
X005158Y017347D01*
X004853Y017664D02*
X000820Y017664D01*
X000820Y017506D02*
X002745Y017506D01*
X003615Y017506D02*
X004694Y017506D01*
X004960Y017771D02*
X004960Y017771D01*
X005011Y017823D02*
X000820Y017823D01*
X000820Y017981D02*
X017935Y017981D01*
X017935Y018140D02*
X000820Y018140D01*
X002934Y014811D02*
X003093Y014745D01*
X003267Y014745D01*
X003426Y014811D01*
X006589Y017030D02*
X007309Y017030D01*
X009273Y018298D02*
X011587Y018298D01*
X011540Y018457D02*
X009320Y018457D01*
X009320Y018615D02*
X011540Y018615D01*
X011540Y018774D02*
X009320Y018774D01*
X009320Y018932D02*
X010079Y018932D01*
X010090Y018921D02*
X010311Y018830D01*
X010549Y018830D01*
X010770Y018921D01*
X010939Y019090D01*
X011030Y019311D01*
X011030Y019549D01*
X010939Y019770D01*
X010770Y019939D01*
X010549Y020030D01*
X010311Y020030D01*
X010090Y019939D01*
X009921Y019770D01*
X009830Y019549D01*
X009830Y019311D01*
X009921Y019090D01*
X010090Y018921D01*
X009921Y019091D02*
X009320Y019091D01*
X009320Y019249D02*
X009856Y019249D01*
X009830Y019408D02*
X008770Y019408D01*
X009320Y019566D02*
X009837Y019566D01*
X009903Y019725D02*
X009320Y019725D01*
X009320Y019883D02*
X010035Y019883D01*
X009320Y020042D02*
X011540Y020042D01*
X011540Y020200D02*
X009320Y020200D01*
X010825Y019883D02*
X011540Y019883D01*
X011540Y019725D02*
X010957Y019725D01*
X011023Y019566D02*
X011540Y019566D01*
X011540Y019249D02*
X011004Y019249D01*
X011030Y019408D02*
X012090Y019408D01*
X012090Y019249D02*
X012250Y019249D01*
X012250Y019091D02*
X012090Y019091D01*
X012090Y018932D02*
X012250Y018932D01*
X012250Y018774D02*
X012090Y018774D01*
X012090Y018615D02*
X012250Y018615D01*
X012250Y018457D02*
X012090Y018457D01*
X012090Y018298D02*
X012250Y018298D01*
X012753Y018298D02*
X017935Y018298D01*
X018006Y018457D02*
X012800Y018457D01*
X012800Y018615D02*
X018165Y018615D01*
X018854Y018457D02*
X019063Y018457D01*
X018975Y018298D02*
X018925Y018298D01*
X018925Y018140D02*
X018975Y018140D01*
X018986Y017981D02*
X018925Y017981D01*
X019301Y019268D02*
X019219Y019295D01*
X019142Y019334D01*
X019072Y019385D01*
X019010Y019447D01*
X018960Y019517D01*
X018920Y019594D01*
X018894Y019676D01*
X018880Y019762D01*
X018880Y019785D01*
X019410Y019785D01*
X019410Y019825D01*
X019410Y020355D01*
X019387Y020355D01*
X019301Y020341D01*
X019219Y020315D01*
X019142Y020275D01*
X019072Y020224D01*
X019010Y020163D01*
X018960Y020093D01*
X018920Y020016D01*
X018894Y019934D01*
X018880Y019848D01*
X018880Y019825D01*
X019410Y019825D01*
X019450Y019825D01*
X019450Y020355D01*
X019473Y020355D01*
X019559Y020341D01*
X019641Y020315D01*
X019718Y020275D01*
X019788Y020224D01*
X019850Y020163D01*
X019900Y020093D01*
X019940Y020016D01*
X019966Y019934D01*
X019980Y019848D01*
X019980Y019825D01*
X019450Y019825D01*
X019450Y019785D01*
X019980Y019785D01*
X019980Y019762D01*
X019966Y019676D01*
X019940Y019594D01*
X019900Y019517D01*
X019850Y019447D01*
X019788Y019385D01*
X019718Y019334D01*
X019641Y019295D01*
X019559Y019268D01*
X019473Y019255D01*
X019450Y019255D01*
X019450Y019785D01*
X019410Y019785D01*
X019410Y019255D01*
X019387Y019255D01*
X019301Y019268D01*
X019410Y019408D02*
X019450Y019408D01*
X019450Y019566D02*
X019410Y019566D01*
X019410Y019725D02*
X019450Y019725D01*
X019450Y019883D02*
X019410Y019883D01*
X019410Y020042D02*
X019450Y020042D01*
X019450Y020200D02*
X019410Y020200D01*
X019620Y020359D02*
X012800Y020359D01*
X012800Y020200D02*
X019047Y020200D01*
X018933Y020042D02*
X012800Y020042D01*
X012800Y019883D02*
X018886Y019883D01*
X018886Y019725D02*
X012800Y019725D01*
X012800Y019566D02*
X018934Y019566D01*
X019049Y019408D02*
X012250Y019408D01*
X012800Y019249D02*
X020032Y019249D01*
X020032Y019091D02*
X012800Y019091D01*
X012800Y018932D02*
X020032Y018932D01*
X020032Y018774D02*
X012800Y018774D01*
X011540Y018932D02*
X010781Y018932D01*
X010939Y019091D02*
X011540Y019091D01*
X019811Y019408D02*
X020032Y019408D01*
X020032Y019566D02*
X019926Y019566D01*
X019974Y019725D02*
X020032Y019725D01*
X020018Y019883D02*
X019974Y019883D01*
X019966Y020042D02*
X019927Y020042D01*
X019857Y020200D02*
X019813Y020200D01*
D21*
X015930Y012430D03*
D22*
X009430Y005930D01*
X009430Y005180D01*
X009430Y002680D01*
X010680Y002680D01*
X010680Y003090D01*
X010680Y002680D02*
X012430Y002680D01*
X012430Y003180D01*
X012430Y002680D02*
X013680Y002680D01*
X009430Y005930D02*
X006180Y009180D01*
X015930Y012430D02*
X019430Y015930D01*
X019430Y018180D01*
D23*
X019430Y018930D03*
X018430Y019430D03*
X018430Y020180D03*
X017680Y020180D03*
X017680Y019430D03*
X016930Y020180D03*
X016180Y020180D03*
X016180Y019430D03*
X015430Y020180D03*
X014680Y020180D03*
X014680Y019430D03*
X013930Y020180D03*
X013180Y020180D03*
X013180Y019430D03*
X013180Y018680D03*
X013930Y018680D03*
X013930Y017680D03*
X014680Y016930D03*
X013930Y016180D03*
X014680Y015430D03*
X015430Y016180D03*
X016180Y015430D03*
X016930Y016180D03*
X017680Y015430D03*
X018430Y016180D03*
X017680Y016930D03*
X016930Y017680D03*
X017680Y018180D03*
X016930Y018680D03*
X015430Y018680D03*
X015430Y017680D03*
X016180Y016930D03*
X015430Y014430D03*
X015680Y013680D03*
X015680Y012930D03*
X014930Y013680D03*
X014430Y012930D03*
X013680Y012680D03*
X013180Y012180D03*
X012430Y011430D03*
X012180Y010180D03*
X011680Y008930D03*
X011180Y008430D03*
X010680Y007930D03*
X010180Y007430D03*
X009680Y006930D03*
X009180Y007430D03*
X009680Y007930D03*
X010180Y008430D03*
X010680Y008930D03*
X010680Y009680D03*
X010680Y010180D03*
X010680Y011180D03*
X010680Y011930D03*
X010680Y012930D03*
X010680Y013680D03*
X010930Y014430D03*
X010930Y015180D03*
X010180Y015180D03*
X009430Y015180D03*
X009930Y014430D03*
X009180Y013680D03*
X009680Y013180D03*
X008180Y015180D03*
X008180Y016180D03*
X008180Y017180D03*
X008680Y017930D03*
X009180Y017430D03*
X009930Y017180D03*
X010180Y016680D03*
X010430Y016430D03*
X010930Y016180D03*
X010930Y017680D03*
X011430Y017930D03*
X011180Y018680D03*
X011180Y019430D03*
X011180Y020180D03*
X009680Y020180D03*
X009680Y019430D03*
X009680Y018680D03*
X009930Y017930D03*
X009180Y016180D03*
X006930Y016430D03*
X006930Y017180D03*
X006930Y018180D03*
X007680Y018680D03*
X006930Y019180D03*
X007680Y019430D03*
X007680Y020180D03*
X006930Y020180D03*
X006180Y020180D03*
X005430Y020180D03*
X004680Y020180D03*
X003930Y020180D03*
X003180Y020180D03*
X002430Y020180D03*
X002430Y018930D03*
X001930Y018180D03*
X002430Y017430D03*
X003180Y018430D03*
X003930Y019180D03*
X004680Y018430D03*
X005430Y019180D03*
X006180Y018430D03*
X005430Y016430D03*
X005430Y015430D03*
X005430Y014430D03*
X005430Y013430D03*
X005430Y012430D03*
X005430Y011430D03*
X005430Y010430D03*
X006930Y010930D03*
X006930Y011680D03*
X006930Y012680D03*
X006930Y013430D03*
X006930Y014430D03*
X006930Y015430D03*
X003930Y015430D03*
X003930Y014430D03*
X003930Y012430D03*
X003930Y011430D03*
X003930Y009430D03*
X003930Y008430D03*
X003930Y007430D03*
X003930Y006430D03*
X003930Y005430D03*
X003930Y004430D03*
X005430Y004430D03*
X005430Y005430D03*
X005430Y006430D03*
X005430Y007430D03*
X005430Y008430D03*
X006930Y007430D03*
X007430Y006930D03*
X008180Y006430D03*
X008930Y005680D03*
X008180Y005180D03*
X008930Y004430D03*
X008180Y003680D03*
X007430Y004430D03*
X007430Y005930D03*
X008430Y007930D03*
X007930Y008430D03*
X007430Y008930D03*
X008680Y009180D03*
X009180Y008680D03*
X010180Y005680D03*
X010680Y004680D03*
X011680Y005680D03*
X012180Y007180D03*
X012680Y008180D03*
X013430Y007430D03*
X013930Y008180D03*
X013430Y008930D03*
X014180Y009680D03*
X014680Y010180D03*
X015430Y010930D03*
X015930Y011430D03*
X016680Y010680D03*
X016180Y010180D03*
X017180Y009680D03*
X017180Y009180D03*
X016680Y008430D03*
X017180Y007680D03*
X016180Y007180D03*
X015430Y007430D03*
X014930Y008180D03*
X014430Y007430D03*
X015180Y006180D03*
X015180Y005180D03*
X016180Y005180D03*
X016180Y006180D03*
X017430Y006180D03*
X017430Y005180D03*
X017430Y004180D03*
X017430Y003180D03*
X018680Y003180D03*
X018680Y004180D03*
X018680Y005180D03*
X019930Y005180D03*
X019930Y004180D03*
X019930Y003180D03*
X017680Y001430D03*
X016680Y001430D03*
X015680Y001430D03*
X015680Y002430D03*
X014680Y002430D03*
X014680Y001430D03*
X013680Y001430D03*
X012680Y001430D03*
X011680Y001430D03*
X010680Y001430D03*
X009680Y001430D03*
X008680Y001430D03*
X007680Y001430D03*
X006930Y001430D03*
X005680Y001430D03*
X005680Y002430D03*
X004680Y001430D03*
X003680Y001430D03*
X003680Y002430D03*
X002680Y001430D03*
X000930Y003180D03*
X000930Y004180D03*
X000930Y005180D03*
X000930Y006180D03*
X002430Y006180D03*
X002430Y005180D03*
X002430Y004180D03*
X000930Y009180D03*
X003930Y016430D03*
X000930Y017680D03*
X000930Y018680D03*
X012180Y017930D03*
X012430Y016930D03*
X012430Y016180D03*
X013180Y016930D03*
X013430Y015180D03*
X012430Y015180D03*
X012430Y014430D03*
X012930Y013430D03*
X012430Y012930D03*
X013680Y013680D03*
X014180Y014430D03*
X014430Y011930D03*
X013930Y011430D03*
X014430Y008930D03*
X015430Y008930D03*
X017430Y011430D03*
X016680Y012180D03*
X017180Y012930D03*
X017680Y012430D03*
X018680Y012930D03*
X017930Y013680D03*
X018680Y014430D03*
X016930Y014430D03*
X019680Y010930D03*
X019680Y010180D03*
X018930Y009930D03*
X018180Y009680D03*
X018180Y010680D03*
X013180Y005680D03*
X013180Y004180D03*
X013180Y003180D03*
X011680Y003180D03*
X009930Y003180D03*
X015430Y003930D03*
D24*
X016180Y007180D02*
X018528Y007180D01*
X018617Y007217D02*
X019080Y007680D01*
X018616Y007217D02*
X018601Y007204D01*
X018585Y007194D01*
X018567Y007186D01*
X018548Y007182D01*
X018528Y007180D01*
M02*
